<svg width="24" height="24" viewBox="0 0 24 24" fill="none" xmlns="http://www.w3.org/2000/svg">
<path d="M12 18.485L16.243 14.243C17.082 13.4038 17.6534 12.3347 17.8848 11.1709C18.1162 10.007 17.9973 8.80068 17.5432 7.70438C17.089 6.60808 16.32 5.67107 15.3333 5.01183C14.3466 4.35259 13.1866 4.00072 12 4.00072C10.8134 4.00072 9.65336 4.35259 8.66669 5.01183C7.68002 5.67107 6.91098 6.60808 6.45682 7.70438C6.00267 8.80068 5.88379 10.007 6.11522 11.1709C6.34665 12.3347 6.91799 13.4038 7.757 14.243L12 18.485ZM17.657 15.657L12 21.314L6.343 15.657C5.22422 14.5382 4.46234 13.1127 4.15369 11.5609C3.84504 10.009 4.00349 8.40051 4.60901 6.93873C5.21452 5.47694 6.2399 4.22754 7.55548 3.3485C8.87107 2.46947 10.4178 2.00029 12 2.00029C13.5822 2.00029 15.1289 2.46947 16.4445 3.3485C17.7601 4.22754 18.7855 5.47694 19.391 6.93873C19.9965 8.40051 20.155 10.009 19.8463 11.5609C19.5377 13.1127 18.7758 14.5382 17.657 15.657ZM5 22H19V24H5V22Z" fill="black"/>
</svg>
