<svg width="24" height="24" viewBox="0 0 24 24" fill="none" xmlns="http://www.w3.org/2000/svg">
<path d="M3.161 4.469C4.32106 3.30872 5.877 2.63008 7.51659 2.56925C9.15619 2.50841 10.7581 3.06988 12.001 4.141C13.2428 3.07167 14.8426 2.51083 16.4802 2.57076C18.1178 2.63069 19.6724 3.30697 20.8327 4.4642C21.9929 5.62144 22.6733 7.17422 22.7375 8.81169C22.8017 10.4492 22.2451 12.0504 21.179 13.295L13.414 21.085C13.0572 21.4419 12.5788 21.6507 12.0745 21.6696C11.5703 21.6885 11.0775 21.5161 10.695 21.187L10.585 21.086L2.821 13.295C1.75549 12.0515 1.19858 10.4517 1.26161 8.81538C1.32465 7.17905 2.00298 5.62681 3.161 4.469ZM4.575 5.883C3.75724 6.70098 3.28585 7.80244 3.25866 8.95877C3.23148 10.1151 3.65058 11.2375 4.429 12.093L4.575 12.247L12 19.672L17.303 14.368L13.768 10.833L12.708 11.893C12.4295 12.1717 12.0988 12.3927 11.7348 12.5436C11.3708 12.6945 10.9807 12.7722 10.5867 12.7723C9.79099 12.7724 9.02779 12.4565 8.465 11.894C7.90221 11.3315 7.58593 10.5684 7.58574 9.7727C7.58556 8.97699 7.90147 8.21379 8.464 7.651L10.566 5.548C9.72947 4.88037 8.68241 4.53269 7.61268 4.56732C6.54296 4.60196 5.52059 5.01665 4.729 5.737L4.575 5.883ZM13.061 8.711C13.2485 8.52353 13.5028 8.41821 13.768 8.41821C14.0332 8.41821 14.2875 8.52353 14.475 8.711L18.717 12.953L19.425 12.247C20.2565 11.4161 20.7298 10.2929 20.7438 9.11756C20.7579 7.9422 20.3114 6.80801 19.5 5.95755C18.6886 5.10709 17.5767 4.60787 16.4019 4.56665C15.2272 4.52543 14.083 4.94549 13.214 5.737L13.061 5.883L9.879 9.065C9.70567 9.23821 9.60197 9.46904 9.58759 9.71366C9.57321 9.95828 9.64915 10.1997 9.801 10.392L9.879 10.479C10.0522 10.6523 10.283 10.756 10.5277 10.7704C10.7723 10.7848 11.0137 10.7088 11.206 10.557L11.293 10.479L13.061 8.711Z" fill="black"/>
</svg>
