<svg width="32" height="32" viewBox="0 0 32 32" fill="none" xmlns="http://www.w3.org/2000/svg">
<path fill-rule="evenodd" clip-rule="evenodd" d="M5.77375 4C4.79444 4 4 4.77025 4 5.71919V26.2814C4 27.2304 4.79453 28 5.77375 28H26.2262C27.2059 28 28 27.2303 28 26.2811V5.71919C28 4.77025 27.2059 4 26.2262 4H5.77375ZM11.2934 13.2799V24.0848H7.702V13.2799H11.2934ZM11.5301 9.93838C11.5301 10.9753 10.7506 11.8049 9.49844 11.8049L9.47491 11.8048C8.26956 11.8048 7.49031 10.9752 7.49031 9.93829C7.49031 8.87788 8.2931 8.07135 9.52225 8.07135C10.7506 8.07135 11.5067 8.87788 11.5301 9.93838ZM16.8723 24.0848H13.2813C13.2813 24.0848 13.3283 14.2939 13.2814 13.2803H16.8726V14.8097C17.35 14.0736 18.2044 13.0266 20.1093 13.0266C22.4721 13.0266 24.2436 14.5709 24.2436 17.8896V24.0848H20.6526V18.3051C20.6526 16.8524 20.1326 15.8617 18.8334 15.8617C17.8411 15.8617 17.2502 16.5298 16.9907 17.1753C16.8958 17.4057 16.8723 17.729 16.8723 18.0515V24.0848Z" fill="#006699"/>
</svg>
