<svg width="32" height="32" viewBox="0 0 32 32" fill="none" xmlns="http://www.w3.org/2000/svg">
<path d="M9.52334 1.03664C9.34828 1.10009 9.22074 1.20922 9.14321 1.3615C9.05819 1.52647 9.05569 1.8158 9.13571 1.97061C9.20073 2.09497 9.36579 2.24979 9.49083 2.30563C9.62587 2.364 9.85595 2.35639 10.0135 2.28532C10.5137 2.06452 10.5212 1.2879 10.0235 1.06202C9.86345 0.988417 9.68089 0.980803 9.52334 1.03664Z" fill="#F64060"/>
<path d="M17.4735 1.84371C17.1459 1.93254 16.8233 2.20156 16.6858 2.49851C16.5032 2.88428 16.5032 3.25482 16.6833 3.6406C16.9283 4.16342 17.6186 4.45529 18.1687 4.26494C18.7089 4.0822 19.0215 3.63552 19.0215 3.05179C19.0215 2.23202 18.2513 1.63052 17.4735 1.84371Z" fill="#F64060"/>
<path fill-rule="evenodd" clip-rule="evenodd" d="M10.5737 5.68872C11.364 5.15574 12.3818 4.79281 13.4647 4.6583C14.0324 4.58977 14.7326 4.62277 15.3453 4.74966C15.923 4.86895 16.4056 5.04915 17.0859 5.40446C17.3034 5.51867 17.4985 5.61004 17.521 5.61004C17.5435 5.61004 17.7361 5.56435 17.9511 5.51106C18.4963 5.37147 18.8815 5.32325 19.4716 5.32579C20.0018 5.32579 20.3344 5.36385 20.7521 5.47045C22.04 5.80039 23.3604 6.76736 24.0982 7.92214C24.5008 8.55156 24.7984 9.38401 24.9134 10.1911C24.9359 10.3434 24.9584 10.6708 24.966 10.9144C24.9735 11.1581 24.9885 11.3712 25.001 11.3865C25.0135 11.4042 25.096 11.4423 25.181 11.4753C25.9113 11.7469 26.5265 12.3179 26.8466 13.0235C27.2442 13.9041 27.2492 14.9574 26.8566 15.7467C26.709 16.0462 26.4114 16.4574 26.1889 16.6731C26.1388 16.7213 26.0988 16.7822 26.0988 16.8076C26.0988 16.8355 26.1488 16.9446 26.2114 17.0563C26.6815 17.8812 26.9291 19.0258 26.8541 20.0207C26.7665 21.1602 26.3614 22.2135 25.6737 23.0815C25.4536 23.3581 24.9384 23.8505 24.6584 24.0561C23.7681 24.7007 22.8378 25.023 21.6649 25.0915L21.6114 25.0946C21.478 25.1022 21.4101 25.106 21.3637 25.14C21.3157 25.1753 21.2907 25.2429 21.2398 25.3806L21.2247 25.4215C21.0197 25.9646 20.7421 26.4037 20.3619 26.792C20.0743 27.0813 19.8793 27.2285 19.5192 27.4214C18.999 27.7031 18.1162 27.896 17.546 27.8554C16.8108 27.7996 16.1556 27.5534 15.5929 27.1169C15.4003 26.9671 15.3453 26.957 15.2127 27.0458C14.0974 27.797 12.9995 28.0787 11.7816 27.929C11.4265 27.8859 10.8888 27.7564 10.6237 27.6498C10.3962 27.5585 9.91101 27.3072 9.71594 27.1803C9.07823 26.7615 8.42052 26.0408 8.0604 25.3555C7.7628 24.7946 7.54773 24.0611 7.50021 23.4596C7.48271 23.2084 7.4477 23.1652 7.23012 23.1221C6.76997 23.0307 6.14227 22.7642 5.72713 22.48C4.84684 21.881 4.17162 20.9699 3.90403 20.0232C3.75398 19.4928 3.71147 19.1933 3.70897 18.6299C3.70397 18.0106 3.75398 17.6883 3.93404 17.1198C4.08909 16.6249 4.44921 16.0157 4.86435 15.5386C5.0094 15.3711 5.09192 15.2544 5.09192 15.2188C5.09192 15.1858 5.0244 15.0183 4.94437 14.8457C4.77182 14.4777 4.66428 14.1656 4.58676 13.8001C4.53924 13.5793 4.53174 13.4625 4.53174 13.0082C4.53174 12.526 4.53924 12.4448 4.59926 12.1555C4.68679 11.7316 4.78432 11.4575 4.99189 11.0286C5.39452 10.2038 6.06724 9.53629 6.90502 9.12514C7.17261 8.99316 7.54023 8.86626 7.81782 8.80535C7.98287 8.76982 8.11041 8.70891 8.18544 8.62516C8.21545 8.5947 8.29798 8.4475 8.3705 8.3003C8.66309 7.70641 8.9807 7.21404 9.33832 6.79274C9.73345 6.33082 10.0661 6.03388 10.5737 5.68872ZM17.8836 10.5033C17.5835 10.2215 17.3284 10.0769 17.0333 10.0134C16.5382 9.90937 16.088 10.0693 15.5704 10.5363C15.0577 10.9982 14.9051 11.0921 14.6376 11.1124L14.47 11.1251L14.0499 10.9195C13.3496 10.5743 12.9695 10.4068 12.8095 10.3637C12.5769 10.3028 12.0742 10.3307 11.7866 10.417C11.5565 10.4855 11.1839 10.6632 10.9939 10.7951C10.8288 10.9093 10.5037 11.2342 10.3812 11.4093C10.016 11.9321 9.38833 13.6783 8.49804 16.6756L8.39026 17.0356C8.25534 17.486 8.10382 17.9919 8.01788 18.2872C7.81782 18.9547 7.81282 18.9801 7.80031 19.2973C7.78781 19.5537 7.79531 19.6577 7.83032 19.8049C7.97287 20.4014 8.3705 20.8709 8.9707 21.1526C9.2833 21.2998 9.43835 21.3303 9.84348 21.3303C10.4237 21.3328 10.7213 21.2237 11.0464 20.8912C11.2389 20.6958 11.359 20.5105 11.4765 20.2389C11.6416 19.8582 12.0167 18.9268 12.2943 18.2111C12.4618 17.7771 12.7219 17.1045 12.8745 16.7137C13.0245 16.3228 13.1821 15.9168 13.2246 15.8127C13.2497 15.7474 13.3034 15.61 13.3635 15.4565L13.4722 15.1782C13.9273 14.0209 13.9448 13.9828 14.0949 13.828C14.2524 13.6681 14.345 13.63 14.5775 13.63C14.7626 13.63 14.8676 13.6808 14.9952 13.828C15.1627 14.0209 15.2102 14.3026 15.1327 14.6402C15.0852 14.8381 14.9902 15.0945 14.2149 17.0563C13.8698 17.9294 13.5597 18.7441 13.5272 18.871C13.4497 19.1603 13.4622 19.3354 13.5722 19.5638C13.6872 19.8049 13.9123 19.942 14.2899 20.008C14.6201 20.0638 15.0502 19.9268 15.3128 19.6857L15.3389 19.6622C15.3542 19.6485 15.3684 19.6358 15.3821 19.6228C15.5432 19.4694 15.6494 19.2564 17.0012 16.5437L17.2959 15.9523C17.601 15.3381 17.8786 14.7899 17.9086 14.7341C17.9386 14.6783 18.0735 14.4147 18.2084 14.1509C18.476 13.6256 18.5563 13.4905 18.6939 13.3433C18.889 13.1326 19.1615 13.0641 19.3741 13.1732C19.5267 13.2544 19.5717 13.3483 19.5717 13.5996C19.5717 13.7925 19.5617 13.8305 19.4366 14.1453C19.3616 14.328 19.159 14.7823 18.984 15.1528C18.4713 16.2365 17.9712 17.3 17.616 18.0715C17.3735 18.5943 17.3009 18.9674 17.3434 19.4471C17.4035 20.0993 17.6661 20.6577 18.1187 21.1069C18.6589 21.6424 19.4391 21.9064 20.597 21.947C21.4023 21.9724 21.8399 21.8277 22.035 21.4699C22.1 21.3506 22.11 21.3074 22.1075 21.1298C22.1075 20.7948 21.985 20.5866 21.7099 20.4471C21.5573 20.3709 21.3973 20.3328 20.7696 20.2186C20.2419 20.1222 20.0668 20.0664 19.9193 19.9471C19.5892 19.6831 19.5717 18.9471 19.8718 18.0081C20.0443 17.47 20.3419 16.7188 20.7471 15.8C21.7124 13.6097 21.9475 12.8966 21.9149 12.2621C21.8799 11.6225 21.6048 11.0895 21.1622 10.8002C20.8271 10.5819 20.1069 10.4474 19.6117 10.5058C19.3066 10.5439 19.054 10.6251 18.7814 10.7774C18.4338 10.9702 18.3638 10.9474 17.8836 10.5033Z" fill="#F64060"/>
<path d="M6.77498 5.71153C6.25981 5.83589 5.95221 6.39425 6.11476 6.91961C6.20729 7.22163 6.43737 7.46781 6.70245 7.55157C6.86501 7.60233 7.18011 7.59979 7.33766 7.54903C7.69528 7.43228 7.96787 7.03128 7.96787 6.62267C7.96787 6.34857 7.79781 6.01355 7.58024 5.85874C7.37017 5.709 7.03506 5.64808 6.77498 5.71153Z" fill="#F64060"/>
<path d="M26.1038 10.3104C25.7487 9.74186 26.0263 8.97539 26.6765 8.73175C26.784 8.69114 26.859 8.68099 27.0491 8.6886C27.2567 8.69621 27.3092 8.70637 27.4567 8.77997C27.8944 8.99316 28.1295 9.44745 28.0519 9.92713C27.9944 10.2799 27.7843 10.5642 27.4667 10.7139C27.2942 10.7951 27.2742 10.8002 27.0116 10.7977C26.7865 10.7977 26.709 10.7875 26.594 10.7393C26.4264 10.6733 26.2138 10.4855 26.1038 10.3104Z" fill="#F64060"/>
<path d="M30.1551 12.6554C29.72 12.8737 29.7275 13.5082 30.1677 13.7214C30.6528 13.9523 31.163 13.4498 30.9504 12.9498C30.8129 12.6275 30.4653 12.4981 30.1551 12.6554Z" fill="#F64060"/>
<path d="M1.01558 15.0767C0.910548 14.4371 1.34819 13.7798 1.9759 13.6427C2.41354 13.5463 2.82618 13.6681 3.14128 13.9904C3.40387 14.2544 3.53391 14.6071 3.5089 14.9751C3.47389 15.4827 3.12878 15.9243 2.63862 16.0919C2.41854 16.168 2.08843 16.168 1.86836 16.0919C1.42822 15.9421 1.09311 15.5436 1.01558 15.0767Z" fill="#F64060"/>
<path d="M28.7047 16.2848C28.4796 16.3457 28.2871 16.5056 28.167 16.7365C28.087 16.8888 28.087 17.2518 28.1695 17.404C28.3496 17.7492 28.6647 17.9091 29.0298 17.8431C29.4149 17.772 29.66 17.4726 29.66 17.069C29.66 16.6756 29.4024 16.3508 29.0298 16.2721C28.9515 16.256 28.9115 16.2477 28.8718 16.2488C28.8303 16.25 28.789 16.2614 28.7047 16.2848Z" fill="#F64060"/>
<path d="M5.66209 25.0103C5.37949 24.688 5.50703 24.1728 5.90717 24.0205C6.13224 23.9368 6.42734 24.0408 6.57739 24.2591C6.67242 24.3962 6.69742 24.6373 6.6299 24.8098C6.57739 24.952 6.40483 25.1093 6.25478 25.1525C6.05721 25.2083 5.77962 25.1398 5.66209 25.0103Z" fill="#F64060"/>
<path d="M22.8628 26.0052C22.2951 26.1448 21.8725 26.6956 21.8725 27.2971C21.8725 27.6549 21.995 27.9468 22.2576 28.2133C22.6777 28.6397 23.2429 28.7386 23.7706 28.4747C24.4283 28.1447 24.6909 27.3377 24.3583 26.6676C24.2607 26.4748 23.9731 26.193 23.7731 26.0991C23.488 25.9621 23.1704 25.9291 22.8628 26.0052Z" fill="#F64060"/>
<path d="M14.46 29.1929C14.46 28.8249 14.6351 28.5686 14.9852 28.4239C15.1452 28.3605 15.4303 28.3681 15.5979 28.4442C15.878 28.5711 16.0455 28.8224 16.0656 29.1371C16.0806 29.401 16.0105 29.5838 15.833 29.7614C15.6704 29.9239 15.4854 30 15.2578 30C14.9352 30 14.6826 29.8426 14.5426 29.5533C14.4725 29.4087 14.46 29.3604 14.46 29.1929Z" fill="#F64060"/>
</svg>
