<svg width="36" height="36" fill="none" xmlns="http://www.w3.org/2000/svg"><path d="M18 0a3.6 3.6 0 100 7.2A3.6 3.6 0 0018 0zm0 6a2.4 2.4 0 110-4.8A2.4 2.4 0 0118 6zM20.4 7.8h-.142l-.126.063a4.783 4.783 0 01-4.264 0l-.126-.063H15.6a3.004 3.004 0 00-3 3v3.6a1.8 1.8 0 001.8 1.8h7.2a1.8 1.8 0 001.8-1.8v-3.6a3.004 3.004 0 00-3-3zm1.8 6.6a.6.6 0 01-.6.6h-7.2a.6.6 0 01-.6-.6v-3.6a1.8 1.8 0 011.672-1.795 6.005 6.005 0 005.056 0A1.8 1.8 0 0122.2 10.8v3.6zM30.6 19.8a3.6 3.6 0 100 7.2 3.6 3.6 0 000-7.2zm0 6a2.4 2.4 0 110-4.8 2.4 2.4 0 010 4.8zM33 27.6h-.142l-.126.06a4.783 4.783 0 01-4.264 0l-.127-.06H28.2a3.004 3.004 0 00-3 3v3.6A1.8 1.8 0 0027 36h7.2a1.8 1.8 0 001.8-1.8v-3.6a3.004 3.004 0 00-3-3zm1.8 6.6a.6.6 0 01-.6.6H27a.6.6 0 01-.6-.6v-3.6a1.8 1.8 0 011.672-1.795 6.005 6.005 0 005.056 0A1.8 1.8 0 0134.8 30.6v3.6zM5.4 19.8a3.6 3.6 0 100 7.2 3.6 3.6 0 000-7.2zm0 6a2.4 2.4 0 110-4.8 2.4 2.4 0 010 4.8zM7.8 27.6h-.142l-.126.06a4.783 4.783 0 01-4.264 0l-.126-.06H3a3.004 3.004 0 00-3 3v3.6A1.8 1.8 0 001.8 36H9a1.8 1.8 0 001.8-1.8v-3.6a3.004 3.004 0 00-3-3zm1.8 6.6a.6.6 0 01-.6.6H1.8a.6.6 0 01-.6-.6v-3.6a1.8 1.8 0 011.672-1.795 6.005 6.005 0 005.056 0A1.8 1.8 0 019.6 30.6v3.6zM23.953 30.47v-.001a.6.6 0 00-.788-.317 13.31 13.31 0 01-8.558.589l.562-.165a.6.6 0 10-.338-1.152l-2.4.704c-.008 0-.015.01-.023.013a.596.596 0 00-.155.086.52.52 0 00-.06.038.583.583 0 00-.193.451c.015.082.035.162.06.24.004.009 0 .018.007.027l1.2 2.296a.6.6 0 001.064-.556l-.488-.933c3.226.97 6.69.781 9.791-.533a.6.6 0 00.319-.786zM34.024 15.776a.6.6 0 00-.848 0l-.85.849a14.378 14.378 0 00-8.69-11.88.6.6 0 10-.471 1.104A13.18 13.18 0 0131.1 16.453l-.677-.677a.6.6 0 00-.848.848l1.8 1.8a.6.6 0 00.848.001h.001l1.8-1.8a.6.6 0 000-.85zM13.183 5.195a.56.56 0 00-.016-.103c0-.006-.007-.01-.009-.015-.002-.006 0-.01 0-.015a.584.584 0 00-.056-.083.606.606 0 00-.069-.1.565.565 0 00-.117-.079.532.532 0 00-.067-.049l-2.4-1.096a.6.6 0 00-.498 1.091l1.243.568A14.378 14.378 0 003.6 18a.6.6 0 101.2 0 13.18 13.18 0 016.494-11.366l-.434.906a.6.6 0 001.08.52l1.2-2.504c0-.006 0-.013.005-.019a.576.576 0 00.032-.127.621.621 0 00.023-.099.596.596 0 00-.017-.116z" fill="#0678BE"/></svg>