<svg width="86" height="86" fill="none" xmlns="http://www.w3.org/2000/svg"><g clip-path="url(#clip0)" fill="#000"><path d="M47.69.32C29.635.32 14.947 15.007 14.947 33.06v5.246L5.24 52.176a1.423 1.423 0 001.166 2.239h8.541v9.965c0 5.493 4.47 9.965 9.965 9.965h5.695v9.965c0 .787.637 1.423 1.423 1.423h37.013c.787 0 1.423-.636 1.423-1.423v-1.773a83.902 83.902 0 016.115-31.026 51.066 51.066 0 003.85-18.42v-.03C80.431 15.008 65.745.32 47.69.32zm26.253 50.117a86.818 86.818 0 00-6.324 32.093v.356H33.454v-9.965c0-.787-.638-1.423-1.424-1.423h-7.118a7.126 7.126 0 01-7.117-7.118V52.99c0-.787-.638-1.423-1.424-1.423H9.139l8.398-11.997c.168-.239.258-.523.258-.815V33.06c0-16.485 13.41-29.894 29.895-29.894 16.479 0 29.886 13.402 29.894 29.879a48.256 48.256 0 01-3.641 17.392z"/><path d="M47.728 15.941h-.038c-9.402 0-17.06 7.64-17.083 17.045a17.006 17.006 0 006.185 13.195 6.826 6.826 0 012.356 5.387v7.117a4.276 4.276 0 004.27 4.271h8.542a4.276 4.276 0 004.27-4.27V51.22a6.782 6.782 0 012.515-5.157 16.96 16.96 0 006.027-13c.02-9.419-7.626-17.099-17.044-17.122zm9.196 27.932a9.62 9.62 0 00-3.542 7.326v7.488c0 .786-.637 1.423-1.423 1.423h-8.542a1.425 1.425 0 01-1.423-1.423v-7.08a9.662 9.662 0 00-3.364-7.6 14.183 14.183 0 01-5.176-11.013c.018-7.84 6.402-14.204 14.236-14.204h.03c7.85.018 14.222 6.419 14.204 14.268v.005a14.108 14.108 0 01-5 10.81z"/><path d="M54.807 51.568H40.571v2.847h14.236v-2.847z"/><path d="M54.64 32.39a1.424 1.424 0 00-1.256-.752H41.995a1.424 1.424 0 00-1.184 2.213l2.608 3.912v15.228h2.847v-15.66c0-.28-.084-.556-.24-.79l-1.371-2.056h6.07l-1.373 2.057c-.155.233-.239.51-.239.79v15.66h2.847V37.762l2.608-3.913c.29-.436.32-.998.071-1.46zM49.113 7.437h-2.847v5.695h2.847V7.437zM27.76 31.638h-5.695v2.847h5.694v-2.847zM73.314 30.214h-5.695v2.847h5.695v-2.847zM30.19 13.55l-2.014 2.013 4.271 4.27 2.014-2.012-4.271-4.272zM65.19 13.551l-4.27 4.271 2.013 2.013 4.271-4.27-2.013-2.014zM31.024 44.865l-4.271 4.271 2.013 2.014 4.271-4.271-2.013-2.014zM64.354 44.87l-2.013 2.012 4.27 4.271 2.014-2.013-4.27-4.27z"/></g><defs><clipPath id="clip0"><path fill="#fff" transform="translate(0 .32)" d="M0 0h85.414v85.414H0z"/></clipPath></defs></svg>