<svg width="86" height="86" fill="none" xmlns="http://www.w3.org/2000/svg"><g clip-path="url(#clip0)" fill="#000"><path d="M35.59 0H1.423C.637 0 0 .637 0 1.424v51.248c0 .786.637 1.424 1.424 1.424h12.812v-2.848H2.847v-48.4h31.319v2.846h2.847v-4.27C37.013.637 36.375 0 35.589 0z"/><path d="M13.448 7.267l-2.847-1.423c-.4-.2-.872-.2-1.272 0L6.482 7.267a1.424 1.424 0 00-.788 1.274v2.848c0 .54.305 1.033.788 1.274l2.847 1.423c.4.2.872.2 1.272 0l2.847-1.423c.483-.242.788-.735.788-1.274V8.54c0-.54-.305-1.033-.788-1.274zm-2.06 3.242l-1.423.712-1.424-.712V9.42l1.424-.712 1.424.712v1.088zm44.131-1.968H18.506c-.786 0-1.423.638-1.423 1.424v51.248c0 .786.637 1.424 1.423 1.424H55.52c.786 0 1.424-.638 1.424-1.424V9.965c0-.786-.638-1.424-1.424-1.424zM54.096 59.79H19.93V11.389h34.166v48.4z"/><path d="M45.496 28.083c-.012-.039-.03-.076-.044-.113a1.381 1.381 0 00-.194-.353 1.5 1.5 0 00-.17-.186c-.037-.032-.07-.064-.106-.093-.037-.028-.035-.033-.053-.045a1.563 1.563 0 00-.195-.1c-.027-.013-.047-.033-.074-.044l-7.118-2.847a1.447 1.447 0 00-1.059 0l-7.118 2.847c-.028.011-.05.032-.077.045-.066.029-.13.061-.192.099-.018.012-.033.03-.052.045-.02.014-.07.061-.106.093a1.5 1.5 0 00-.249.299 1.388 1.388 0 00-.115.24c-.015.037-.033.074-.044.113a1.421 1.421 0 00-.059.388v7.118c0 .582.354 1.106.894 1.323l7.118 2.847a.1.1 0 01.053.01c.306.121.647.121.953 0 .018 0 .036 0 .053-.01l7.118-2.847c.54-.217.894-.74.894-1.323v-7.118a1.421 1.421 0 00-.058-.388zm-9.907 8.25l-4.27-1.708v-4.051l4.27 1.708v4.052zm1.424-6.548l-3.285-1.314 3.285-1.314 3.284 1.314-3.284 1.314zm5.694 4.84l-4.27 1.709v-4.052l4.27-1.708v4.051zM83.99 8.541H61.213c-.786 0-1.423.638-1.423 1.424V24.2c0 .786.637 1.423 1.423 1.423H83.99c.787 0 1.424-.637 1.424-1.423V9.965c0-.786-.637-1.424-1.424-1.424zm-1.423 14.236h-19.93V11.388h19.93v11.389z"/><path d="M68.331 14.236h-2.847v2.847h2.847v-2.847zM83.99 28.471H61.213c-.786 0-1.423.638-1.423 1.424V44.13c0 .787.637 1.424 1.423 1.424H83.99c.787 0 1.424-.637 1.424-1.424V29.895c0-.786-.637-1.424-1.424-1.424zm-1.423 14.236h-19.93V31.318h19.93v11.389z"/><path d="M68.331 35.59h-2.847v2.846h2.847V35.59zm11.389 0h-8.542v2.846h8.542V35.59zM46.978 65.484H15.659c-.786 0-1.423.637-1.423 1.424V83.99c0 .787.637 1.424 1.423 1.424h31.319c.786 0 1.423-.638 1.423-1.424V66.908c0-.787-.637-1.424-1.423-1.424zm-1.424 17.083H17.083V68.33h28.471v14.236zM83.99 65.484H52.672c-.786 0-1.424.637-1.424 1.424V83.99c0 .787.638 1.424 1.424 1.424H83.99c.787 0 1.424-.638 1.424-1.424V66.908c0-.787-.638-1.424-1.424-1.424zm-1.423 17.083H54.095v-8.803c.456.168.938.257 1.424.261h25.624a4.221 4.221 0 001.424-.262v8.804zm0-12.812c0 .786-.638 1.423-1.424 1.423H55.52a1.424 1.424 0 01-1.424-1.423V68.33h28.472v1.424z"/><path d="M27.684 72.751l-2.847-1.423c-.4-.2-.872-.2-1.273 0l-2.847 1.423a1.424 1.424 0 00-.787 1.274v2.847a1.424 1.424 0 00.787 1.282l2.847 1.423c.4.2.872.2 1.273 0l2.847-1.423c.485-.243.79-.74.787-1.281v-2.848c0-.54-.304-1.033-.787-1.274zm-2.06 3.242l-1.423.712-1.424-.712v-1.088l1.424-.712 1.423.712v1.088zm34.166.88h-2.847v2.847h2.847v-2.847zm11.388 0h-8.541v2.847h8.541v-2.847z"/></g><defs><clipPath id="clip0"><path fill="#fff" d="M0 0h85.414v85.414H0z"/></clipPath></defs></svg>