<svg width="87" height="86" fill="none" xmlns="http://www.w3.org/2000/svg"><g clip-path="url(#clip0)" fill="#0678BE"><path d="M61.779.586H11.3c-5.418.007-9.808 4.398-9.815 9.816v50.362c.007 5.418 4.397 9.809 9.815 9.815h15.424v-2.804H11.3a7.02 7.02 0 01-7.011-7.01V37.042h9.005a1.509 1.509 0 001.284-2.08 5.609 5.609 0 1110.27 0 1.454 1.454 0 001.284 2.08h9.005v8.414a8.413 8.413 0 00-4.768 16.009l1.123-2.57a5.609 5.609 0 012.243-10.751 5.54 5.54 0 012.244.473 1.402 1.402 0 001.963-1.284v-10.29h7.13c-.08.462-.12.931-.12 1.401a8.437 8.437 0 006.731 8.245l.561-2.747a5.627 5.627 0 01-4.487-5.498c0-.772.161-1.537.474-2.243a1.402 1.402 0 00-1.284-1.963h-9.005v-7.13a8.413 8.413 0 100-16.588V3.39h23.837a7.02 7.02 0 017.01 7.01v23.84h-9.004a1.402 1.402 0 00-1.284 1.963 5.55 5.55 0 01.474 2.243h2.804c0-.47-.04-.939-.12-1.402h8.533c.775 0 1.402-.628 1.402-1.402v-25.24C71.587 4.984 67.197.593 61.78.586zm-22.435 12.62a5.609 5.609 0 010 11.218 5.54 5.54 0 01-2.244-.474 1.402 1.402 0 00-1.963 1.284v8.889h-7.12c.07-.426.107-.855.11-1.286v-.117a8.413 8.413 0 10-16.827 0v.117c.003.43.04.86.11 1.285H4.288v-23.72A7.02 7.02 0 0111.3 3.39h23.837v9.005A1.402 1.402 0 0037.1 13.68a5.542 5.542 0 012.244-.474z"/><path d="M82.617 60.855l-11.788-8.117L66.3 40.641a1.402 1.402 0 00-1.88-.793l-9.115 4.03a1.402 1.402 0 00-.743 1.785c.152.392.293.69.443.998.15.308.29.597.459 1.053a5.644 5.644 0 01-3.28 7.254 5.609 5.609 0 01-7.565-5.569 1.402 1.402 0 00-1.895-1.385l-9.743 3.67a1.402 1.402 0 00-.819 1.803l3.497 9.343a7.9 7.9 0 00-1.36.375 8.432 8.432 0 107.187 15.188l2.507 6.696a1.402 1.402 0 001.805.822l.002-.001 13.893-5.235a7.53 7.53 0 004.44 3.966l.887-2.665a4.728 4.728 0 01-2.681-2.29l4.227-1.592a9.786 9.786 0 009.234 6.507v-2.804a7.054 7.054 0 01-7.011-7.01c0-.373-.148-.73-.41-.992l-4.883-4.883a2.08 2.08 0 01-.192-2.705 2.041 2.041 0 011.507-.821c.6-.05 1.19.17 1.61.601l9.79 9.79 1.983-1.982-2.897-2.897a9.782 9.782 0 00-.125-6.555l-2.628-7.019 8.474 5.835a4.215 4.215 0 011.793 3.447v18.112h2.804V66.606a7.023 7.023 0 00-2.999-5.75zm-10.07 4.47a7.027 7.027 0 01.409 3.23l-4.552-4.55a4.873 4.873 0 10-6.89 6.89l4.435 4.435-19.816 7.464-2.672-7.141a1.402 1.402 0 00-2.294-.51 5.609 5.609 0 11-5.873-9.31 5.393 5.393 0 011.387-.314c.292-.036.586-.046.88-.03a1.402 1.402 0 001.386-1.891l-3.662-9.78 6.677-2.513a8.413 8.413 0 0011.217 6.29 8.45 8.45 0 004.918-10.859 12.46 12.46 0 00-.358-.862l6.45-2.856 8.358 22.308z"/></g><defs><clipPath id="clip0"><path fill="#fff" transform="translate(.844 .586)" d="M0 0h85.414v85.414H0z"/></clipPath></defs></svg>