<svg width="87" height="86" fill="none" xmlns="http://www.w3.org/2000/svg"><g clip-path="url(#clip0)" fill="#000"><path d="M43.38 17.598c4.582 0 8.31-3.729 8.31-8.311 0-4.583-3.728-8.31-8.31-8.31-4.583 0-8.31 3.727-8.31 8.31 0 4.582 3.727 8.31 8.31 8.31zm0-12.467a4.16 4.16 0 014.155 4.156 4.16 4.16 0 01-4.155 4.155 4.16 4.16 0 01-4.156-4.155A4.16 4.16 0 0143.38 5.13zM30.914 36.297c1.147 0 2.078-.93 2.078-2.078 0-5.728 4.66-10.388 10.388-10.388s10.388 4.66 10.388 10.388a2.078 2.078 0 004.156 0c0-8.02-6.525-14.544-14.544-14.544-8.02 0-14.544 6.525-14.544 14.544 0 1.148.93 2.078 2.078 2.078zm-15.698 30.08c4.583 0 8.311-3.728 8.311-8.31 0-4.583-3.728-8.311-8.31-8.311-4.583 0-8.311 3.728-8.311 8.31 0 4.583 3.728 8.311 8.31 8.311zm0-12.466a4.16 4.16 0 014.156 4.156 4.16 4.16 0 01-4.155 4.155 4.16 4.16 0 01-4.156-4.155 4.16 4.16 0 014.155-4.156zm.001 14.544c-8.02 0-14.544 6.524-14.544 14.544a2.078 2.078 0 004.155 0c0-5.728 4.66-10.389 10.389-10.389 5.728 0 10.388 4.66 10.388 10.389a2.078 2.078 0 004.155 0c0-8.02-6.524-14.544-14.543-14.544zm56.326-2.078c4.582 0 8.31-3.728 8.31-8.31 0-4.583-3.728-8.311-8.31-8.311-4.583 0-8.31 3.728-8.31 8.31 0 4.583 3.727 8.311 8.31 8.311zm0-12.466a4.16 4.16 0 014.155 4.156 4.16 4.16 0 01-4.155 4.155 4.16 4.16 0 01-4.156-4.155 4.16 4.16 0 014.156-4.156zm0 14.544c-8.02 0-14.544 6.524-14.544 14.544a2.078 2.078 0 004.156 0c0-5.728 4.66-10.389 10.388-10.389S81.931 77.27 81.931 83a2.078 2.078 0 004.156 0c0-8.02-6.525-14.544-14.544-14.544zM56.294 57.433l-10.837-6.257V38.663a2.078 2.078 0 00-4.155 0v12.513l-10.837 6.257a2.078 2.078 0 102.078 3.599l10.837-6.257 10.836 6.257a2.077 2.077 0 102.078-3.599z"/></g><defs><clipPath id="clip0"><path fill="#fff" transform="translate(.673 .32)" d="M0 0h85.414v85.414H0z"/></clipPath></defs></svg>