<svg width="87" height="86" fill="none" xmlns="http://www.w3.org/2000/svg"><g clip-path="url(#clip0)" fill="#0678BE"><path d="M70.428 0H16.332a7.126 7.126 0 00-7.118 7.118v38.436a7.126 7.126 0 007.118 7.118h19.466l-2.033 7.118h-4.62v2.847h28.47V59.79h-4.62l-2.033-7.118h19.466a7.126 7.126 0 007.118-7.118V7.118A7.126 7.126 0 0070.428 0zM36.726 59.79l2.033-7.118h9.242l2.033 7.118H36.726zm37.972-14.236a4.27 4.27 0 01-4.27 4.27H16.332a4.27 4.27 0 01-4.27-4.27v-2.847h62.636v2.847zm0-5.694H12.062V7.118a4.27 4.27 0 014.27-4.27h54.096a4.27 4.27 0 014.27 4.27V39.86zM54.768 65.484h-39.86c-.786 0-1.423.637-1.423 1.424V83.99c0 .787.637 1.424 1.423 1.424h39.86c.786 0 1.424-.638 1.424-1.424V66.908c0-.787-.638-1.424-1.424-1.424zm-1.423 17.083H16.332V68.33h37.013v14.236z"/><path d="M22.026 76.873H19.18v2.847h2.847v-2.847zM22.026 71.178H19.18v2.847h2.847v-2.847zM27.72 71.178h-2.846v2.847h2.847v-2.847zM33.415 71.178h-2.847v2.847h2.847v-2.847zM44.803 71.178h-2.847v2.847h2.847v-2.847zM39.11 71.178h-2.848v2.847h2.847v-2.847zM50.498 76.873H47.65v2.847h2.847v-2.847zM50.498 71.178H47.65v2.847h2.847v-2.847zM44.803 76.873h-19.93v2.847h19.93v-2.847zM66.157 65.484a7.118 7.118 0 00-7.118 7.118v5.694a7.118 7.118 0 0014.236 0v-5.694a7.118 7.118 0 00-7.118-7.118zm4.27 12.812a4.27 4.27 0 11-8.54 0v-5.694a4.27 4.27 0 118.54 0v5.694z"/><path d="M67.58 71.178h-2.847v2.847h2.847v-2.847zM44.852 12.45l-5.7 19.919 2.736.783 5.7-19.919-2.736-.783zM35.75 16.753l-1.823-2.187-8.541 7.118a1.424 1.424 0 000 2.186l8.541 7.118 1.822-2.186-7.228-6.025 7.228-6.024zM61.555 21.865a1.434 1.434 0 00-.181-.181l-8.542-7.118-1.822 2.187 7.23 6.024-7.23 6.025 1.822 2.186 8.542-7.118a1.424 1.424 0 00.181-2.005z"/></g><defs><clipPath id="clip0"><path fill="#fff" transform="translate(.673)" d="M0 0h85.414v85.414H0z"/></clipPath></defs></svg>