<svg id="Layer_1" data-name="Layer 1" xmlns="http://www.w3.org/2000/svg" xmlns:xlink="http://www.w3.org/1999/xlink" viewBox="0 0 150.19 96"><defs><linearGradient id="green-gradient" x1="52.58" y1="33.07" x2="99.87" y2="33.07" gradientUnits="userSpaceOnUse"><stop offset="0" stop-color="#00f986"/><stop offset="1" stop-color="#06afd7"/></linearGradient></defs><title>logo-drupaljam-xl-color-dark-bg-vertical</title><path d="M80.15,66.14A1.45,1.45,0,0,1,79,65.55l-5.4-7.45a1.43,1.43,0,1,1,2.31-1.68l5.41,7.44a1.44,1.44,0,0,1-1.16,2.28Zm-10.84-.91a1.44,1.44,0,0,1-1.16-.59l-7-9.64a1.44,1.44,0,0,1,2.32-1.69l7,9.64a1.44,1.44,0,0,1-1.15,2.28ZM88.2,63.17A1.44,1.44,0,0,1,87,62.58L68.72,37.38A1.43,1.43,0,1,1,71,35.7L89.36,60.89a1.44,1.44,0,0,1-.32,2A1.41,1.41,0,0,1,88.2,63.17Zm6.18-5.53a1.44,1.44,0,0,1-1.16-.59l-5.67-7.79h0L84.4,44.9a1.43,1.43,0,0,1,.31-2,1.45,1.45,0,0,1,2,.32l3.83,5.28h0l5,6.85a1.43,1.43,0,0,1-.31,2A1.39,1.39,0,0,1,94.38,57.64ZM69.94,52.08a1.42,1.42,0,0,1-1.16-.59L54.67,32.06a1.43,1.43,0,0,1,.31-2,1.45,1.45,0,0,1,2,.32L71.1,49.81a1.43,1.43,0,0,1-.31,2A1.48,1.48,0,0,1,69.94,52.08Zm28.5-2.88a1.44,1.44,0,0,1-1.16-.59L78.48,22.73a1.43,1.43,0,1,1,2.32-1.68L99.59,46.92a1.44,1.44,0,0,1-1.15,2.28ZM57.5,49a1.45,1.45,0,0,1-1.16-.59l-3.49-4.8a1.43,1.43,0,0,1,2.32-1.68l3.49,4.79A1.43,1.43,0,0,1,57.5,49ZM80.76,38.89a1.42,1.42,0,0,1-1.16-.59L63,15.4a1.43,1.43,0,1,1,2.32-1.68l16.65,22.9a1.44,1.44,0,0,1-.32,2A1.38,1.38,0,0,1,80.76,38.89Zm16.9-4.78a1.45,1.45,0,0,1-1.16-.59l-5.78-8A1.43,1.43,0,1,1,93,23.88l5.78,8a1.43,1.43,0,0,1-.32,2A1.37,1.37,0,0,1,97.66,34.11ZM65.09,31.37a1.43,1.43,0,0,1-1.16-.6l-5.56-7.65a1.43,1.43,0,1,1,2.32-1.68l5.56,7.65a1.43,1.43,0,0,1-.32,2A1.39,1.39,0,0,1,65.09,31.37Zm22-11.83A1.42,1.42,0,0,1,85.92,19L73.81,2.28A1.44,1.44,0,0,1,76.13.59L88.24,17.27a1.43,1.43,0,0,1-.32,2A1.45,1.45,0,0,1,87.08,19.54ZM74.84,16.72a1.42,1.42,0,0,1-1.16-.59L68.13,8.49a1.43,1.43,0,0,1,2.32-1.68L76,14.45a1.43,1.43,0,0,1-.32,2A1.45,1.45,0,0,1,74.84,16.72Z" style="fill:url(#green-gradient)"/></svg>