<?xml version="1.0" encoding="utf-8"?>
<svg version="1.1" id="Laag_1" xmlns="http://www.w3.org/2000/svg" xmlns:xlink="http://www.w3.org/1999/xlink" x="0px" y="0px"
	 viewBox="0 0 184 165" style="enable-background:new 0 0 184 165;" xml:space="preserve">
<style type="text/css">
	.st0{fill:#3232FF;}
</style>
<g transform="translate(0.000000,165.000000) scale(0.100000,-0.100000)">
	<path class="st0" d="M773,1247c-159-163-188-213-188-327c1-60,6-86,27-130c36-77,86-131,154-165c52-27,69-30,149-30
		c84,0,94,2,154,35c111,60,171,163,171,294c0,112-32,167-186,326c-70,71-132,130-139,130S845,1320,773,1247z M1126,1018
		c91-178-85-380-281-324c-97,29-165,119-165,221c0,84,21,120,133,232l102,103l93-93C1059,1107,1112,1044,1126,1018z"/>
	<path class="st0" d="M390,872c0-60,31-153,75-226c18-31,30-56,26-56c-11,0-148,92-192,129l-36,30l-32-33l-33-34l83-67
		c105-83,254-158,384-192c87-23,120-26,250-26s163,3,250,26c55,15,145,49,200,76c99,49,255,163,255,185c0,7-13,25-29,41l-30,28
		l-51-46c-52-47-168-123-175-115c-3,2,7,21,21,42c41,60,74,152,81,222l6,64h-45h-44l-11-64c-16-92-54-168-118-235
		C979,363,542,500,486,853l-10,67h-43h-43V872z"/>
	<path class="st0" d="M430,275v-45h480h480v45v45H910H430V275z"/>
</g>
</svg>
