<svg width="96" height="97" viewBox="0 0 96 97" fill="none" xmlns="http://www.w3.org/2000/svg">
<path d="M94.2244 61.5176L93.1684 60.9736C90.7044 59.7096 87.9684 58.5736 85.0884 57.5976L84.8164 57.5016V50.8456V50.1736L84.1604 50.0616C83.7924 49.9976 83.4084 49.9336 83.0404 49.8696L83.9044 48.9416L84.5124 48.2856L83.9044 47.6296L81.4404 44.9896L83.3444 41.9176L83.8244 41.1496L83.0884 40.6216L80.1604 38.5096L81.4244 35.1336L81.7444 34.2856L80.9284 33.9176L77.6324 32.4296L78.2244 28.8616L78.3684 27.9816L77.4884 27.7736L73.9684 26.9576L73.8564 23.3416L73.8244 22.4456L72.9284 22.4136L69.3124 22.3016L68.4964 18.7816L68.2884 17.9016L67.4084 18.0456L63.8404 18.6376L62.3524 15.3416L61.9844 14.5256L61.1364 14.8456L57.7604 16.1096L55.6484 13.1816L55.1204 12.4456L54.3524 12.9256L51.2964 14.8456L48.6564 12.3816L48.0004 11.7736L47.3444 12.3816L44.7044 14.8456L41.6324 12.9416L40.8644 12.4616L40.3364 13.1976L38.2244 16.1256L34.8484 14.8616L34.0004 14.5416L33.6324 15.3576L32.1444 18.6536L28.5764 18.0616L27.6964 17.9176L27.4884 18.7976L26.6724 22.3176L23.0564 22.4296L22.1604 22.4616L22.1284 23.3576L22.0164 26.9736L18.4964 27.7896L17.6164 27.9976L17.7604 28.8776L18.3524 32.4456L15.0564 33.9336L14.2404 34.3016L14.5604 35.1496L15.8244 38.5256L12.8964 40.6376L12.1604 41.1656L12.6404 41.9336L14.5604 44.9896L12.0964 47.6296L11.4884 48.2856L12.0964 48.9416L12.9604 49.8696C12.5924 49.9336 12.2084 49.9976 11.8404 50.0616L11.1844 50.1736V50.8456V57.5016L10.9124 57.5976C8.01637 58.5736 5.29637 59.7096 2.83237 60.9736L1.77637 61.5176L2.67237 62.3016L6.91237 65.9656L5.16837 72.3496L4.73637 73.9656L6.27237 73.2936C10.3204 71.5336 14.7844 70.1416 19.5524 69.1816L19.8884 69.1176L22.0324 69.6136L22.1444 73.2296L22.1764 74.1256L23.0724 74.1576L26.6884 74.2696L27.5044 77.7896L27.7124 78.6696L28.5924 78.5256L32.1604 77.9336L33.6484 81.2296L34.0164 82.0456L34.8644 81.7256L38.2404 80.4616L40.3524 83.3896L40.8804 84.1256L41.6484 83.6456L44.7204 81.7416L47.3604 84.2056L48.0164 84.8136L48.6724 84.2056L51.3124 81.7416L54.3844 83.6456L55.1524 84.1256L55.6804 83.3896L57.7924 80.4616L61.1684 81.7256L62.0164 82.0456L62.3844 81.2296L63.8724 77.9336L67.4404 78.5256L68.3204 78.6696L68.5284 77.7896L69.3444 74.2696L72.9604 74.1576L73.8564 74.1256L73.8884 73.2296L74.0004 69.6136L76.1444 69.1176L76.4804 69.1816C81.2484 70.1416 85.7124 71.5336 89.7604 73.2936L91.2964 73.9656L90.8644 72.3496L89.1204 65.9656L93.3604 62.3016L94.2244 61.5176Z" fill="#F97777"/>
<path d="M29.4082 31.1496C29.3762 30.9736 29.3922 30.7976 29.4722 30.6216C29.5362 30.4456 29.6642 30.2696 29.8242 30.1096C30.0002 29.9336 30.1762 29.8216 30.3682 29.7416C30.5602 29.6616 30.7522 29.6456 30.9442 29.6776C31.1362 29.7096 31.2962 29.8056 31.4402 29.9496L31.4882 29.9976C31.5042 30.0136 31.5042 30.0296 31.5042 30.0456C31.5042 30.0616 31.5042 30.0776 31.4882 30.0936L31.1042 30.4776C31.0882 30.4936 31.0722 30.4936 31.0562 30.4936C31.0402 30.4936 31.0242 30.4936 31.0082 30.4776L30.9762 30.4456C30.8802 30.3496 30.7682 30.3016 30.6242 30.3176C30.4802 30.3336 30.3362 30.3976 30.2082 30.5416C30.0962 30.6536 30.0482 30.7496 30.0322 30.8616C30.0162 30.9736 30.0482 31.0536 30.1282 31.1336C30.1922 31.1976 30.2562 31.2136 30.3202 31.2296C30.4002 31.2296 30.4802 31.2136 30.5762 31.1816C30.6722 31.1496 30.8162 31.0856 31.0242 30.9896C31.2482 30.8936 31.4242 30.8136 31.5522 30.7656C31.6802 30.7176 31.8402 30.7016 32.0002 30.7176C32.1602 30.7336 32.3202 30.8136 32.4642 30.9576C32.6722 31.1656 32.7682 31.4216 32.7362 31.6936C32.7042 31.9656 32.5602 32.2536 32.2882 32.5096C32.1122 32.6856 31.9202 32.8136 31.7282 32.8936C31.5362 32.9736 31.3442 32.9896 31.1682 32.9576C30.9922 32.9256 30.8322 32.8296 30.6882 32.6856L30.6082 32.6056C30.5922 32.5896 30.5922 32.5736 30.5922 32.5576C30.5922 32.5416 30.5922 32.5256 30.6082 32.5096L30.9922 32.1256C31.0082 32.1096 31.0242 32.1096 31.0402 32.1096C31.0562 32.1096 31.0722 32.1096 31.0882 32.1256L31.1362 32.1736C31.2322 32.2696 31.3442 32.3016 31.4882 32.2696C31.6322 32.2536 31.7762 32.1736 31.9202 32.0296C32.0482 31.9176 32.1122 31.7896 32.1122 31.6776C32.1282 31.5656 32.0802 31.4696 32.0162 31.4056C31.9682 31.3576 31.9042 31.3256 31.8242 31.3256C31.7442 31.3256 31.6642 31.3416 31.5842 31.3736C31.4882 31.4056 31.3602 31.4696 31.1682 31.5496C30.9602 31.6456 30.7842 31.7256 30.6242 31.7736C30.4642 31.8216 30.3042 31.8376 30.1442 31.8216C29.9842 31.8056 29.8242 31.7256 29.6962 31.5816C29.5202 31.4696 29.4402 31.3096 29.4082 31.1496ZM31.4562 28.6696C31.4402 28.6536 31.4402 28.6376 31.4402 28.6216C31.4402 28.6056 31.4562 28.5896 31.4562 28.5896L32.5282 27.7576C32.6882 27.6296 32.8642 27.5496 33.0562 27.5176C33.2322 27.4856 33.4082 27.5176 33.5682 27.5816C33.7282 27.6456 33.8882 27.7736 34.0002 27.9336C34.1282 28.0936 34.1922 28.2696 34.2242 28.4456C34.2562 28.6216 34.2242 28.7976 34.1442 28.9576C34.0642 29.1176 33.9362 29.2776 33.7762 29.4056L33.2322 29.8216C33.2162 29.8376 33.2162 29.8376 33.2322 29.8536L33.9842 30.8296C34.0002 30.8456 34.0002 30.8616 34.0002 30.8776C34.0002 30.8936 33.9842 30.9096 33.9842 30.9096L33.5362 31.2456C33.5202 31.2616 33.5042 31.2616 33.4882 31.2616C33.4722 31.2616 33.4562 31.2456 33.4562 31.2456L31.4562 28.6696ZM32.3362 28.7016L32.8802 29.4056C32.8962 29.4216 32.8962 29.4216 32.9122 29.4056L33.3922 29.0376C33.5042 28.9416 33.5842 28.8456 33.6002 28.7176C33.6162 28.5896 33.5842 28.4776 33.5042 28.3656C33.4242 28.2536 33.3122 28.1896 33.1842 28.1736C33.0562 28.1576 32.9442 28.2056 32.8162 28.2856L32.3362 28.6536C32.3202 28.6696 32.3202 28.6856 32.3362 28.7016ZM34.6562 26.3336L34.1762 26.6216C34.1602 26.6376 34.1602 26.6376 34.1442 26.6536C34.1442 26.6696 34.1442 26.6856 34.1442 26.7016L35.7762 29.5016C35.7922 29.5176 35.7922 29.5176 35.8082 29.5336C35.8242 29.5496 35.8402 29.5336 35.8562 29.5336L37.7602 28.4136C37.7762 28.4136 37.7762 28.3976 37.7922 28.3816C37.8082 28.3656 37.7922 28.3496 37.7922 28.3336L37.5522 27.9336C37.5362 27.9176 37.5362 27.9176 37.5202 27.9016C37.5042 27.8856 37.4882 27.9016 37.4722 27.9016L36.1122 28.7016C36.0962 28.7176 36.0802 28.7016 36.0802 28.6856L34.7202 26.3496C34.7042 26.3336 34.7042 26.3336 34.6882 26.3176C34.6882 26.3336 34.6722 26.3336 34.6562 26.3336ZM38.1122 28.1416L37.8402 24.7496C37.8402 24.7176 37.8562 24.7016 37.8722 24.6856L38.5762 24.3976C38.6082 24.3816 38.6242 24.3976 38.6562 24.4136L40.8482 27.0216L40.8642 27.0376C40.8802 27.0696 40.8642 27.0856 40.8322 27.1016L40.2722 27.3416C40.2402 27.3576 40.2242 27.3416 40.1922 27.3256L39.8722 26.9416C39.8562 26.9256 39.8562 26.9256 39.8402 26.9256L38.7522 27.3736C38.7362 27.3736 38.7362 27.3896 38.7362 27.4056L38.7842 27.8856C38.7842 27.9176 38.7682 27.9496 38.7522 27.9496L38.1922 28.1896C38.1762 28.1896 38.1602 28.1896 38.1442 28.1896C38.1282 28.1736 38.1122 28.1576 38.1122 28.1416ZM38.5282 25.3256L38.6882 26.7976C38.6882 26.8136 38.7042 26.8296 38.7202 26.8136L39.5042 26.4936C39.5202 26.4936 39.5202 26.4776 39.5042 26.4616L38.5602 25.3096C38.5602 25.2936 38.5442 25.2936 38.5442 25.2936C38.5442 25.2936 38.5282 25.3096 38.5282 25.3256ZM40.7202 23.7256C40.5762 23.8376 40.4642 23.9816 40.4002 24.1576C40.3362 24.3176 40.3362 24.4936 40.3842 24.6856C40.4322 24.8776 40.5282 25.0216 40.6562 25.1176C40.7842 25.2136 40.9282 25.2936 41.1042 25.3256C41.2642 25.3576 41.4562 25.3896 41.6962 25.4056C41.9042 25.4216 42.0482 25.4376 42.1442 25.4536C42.2402 25.4696 42.3202 25.5016 42.3842 25.5336C42.4482 25.5656 42.4962 25.6296 42.5122 25.6936C42.5442 25.7896 42.5282 25.8856 42.4642 25.9816C42.4002 26.0776 42.2882 26.1416 42.1282 26.1896C41.9362 26.2376 41.7602 26.2376 41.6322 26.1896C41.4882 26.1416 41.4082 26.0456 41.3762 25.9176L41.3602 25.8536C41.3602 25.8376 41.3442 25.8216 41.3282 25.8216C41.3122 25.8216 41.2962 25.8056 41.2802 25.8216L40.7522 25.9656C40.7362 25.9656 40.7202 25.9816 40.7202 25.9976C40.7202 26.0136 40.7042 26.0296 40.7202 26.0456L40.7522 26.1416C40.8002 26.3336 40.8962 26.4936 41.0402 26.6056C41.1842 26.7336 41.3602 26.7976 41.5522 26.8296C41.7602 26.8616 41.9842 26.8456 42.2402 26.7816C42.6082 26.6856 42.8642 26.5256 43.0402 26.3016C43.2162 26.0776 43.2482 25.8216 43.1682 25.5336C43.1202 25.3416 43.0242 25.1976 42.8962 25.1016C42.7682 25.0056 42.6242 24.9416 42.4802 24.9096C42.3362 24.8776 42.1442 24.8616 41.9042 24.8296C41.6802 24.8136 41.5202 24.7976 41.4242 24.7816C41.3122 24.7656 41.2322 24.7336 41.1682 24.7016C41.1042 24.6696 41.0722 24.6056 41.0402 24.5256C41.0082 24.4136 41.0242 24.3176 41.0882 24.2376C41.1522 24.1576 41.2642 24.0936 41.4082 24.0456C41.6002 23.9976 41.7442 23.9976 41.8882 24.0616C42.0162 24.1256 42.0962 24.2216 42.1442 24.3496L42.1602 24.3816C42.1602 24.3976 42.1762 24.4136 42.1922 24.4136C42.2082 24.4136 42.2242 24.4296 42.2402 24.4136L42.7682 24.2696C42.7842 24.2696 42.8002 24.2536 42.8002 24.2376C42.8002 24.2216 42.8162 24.2056 42.8002 24.1896L42.7842 24.1256C42.7362 23.9336 42.6402 23.7736 42.4962 23.6456C42.3522 23.5176 42.1762 23.4376 41.9682 23.4056C41.7602 23.3736 41.5362 23.3896 41.3122 23.4536C41.0562 23.5176 40.8802 23.5976 40.7202 23.7256ZM43.4722 22.9896C43.4562 23.0056 43.4562 23.0216 43.4562 23.0376L43.8722 26.2536C43.8722 26.2696 43.8882 26.2856 43.8882 26.2856C43.9042 26.3016 43.9202 26.3016 43.9362 26.3016L44.4962 26.2216C44.5122 26.2216 44.5282 26.2056 44.5282 26.2056C44.5442 26.1896 44.5442 26.1736 44.5442 26.1576L44.3682 24.8456C44.3682 24.8296 44.3682 24.8136 44.3842 24.8136L45.4402 24.6696C45.4562 24.6696 45.4722 24.6696 45.4722 24.6856L45.6482 25.9976C45.6482 26.0136 45.6642 26.0296 45.6642 26.0296C45.6802 26.0456 45.6962 26.0456 45.7122 26.0456L46.2722 25.9656C46.2882 25.9656 46.3042 25.9496 46.3042 25.9496C46.3202 25.9336 46.3202 25.9176 46.3202 25.9016L45.9042 22.6856C45.9042 22.6696 45.8882 22.6536 45.8882 22.6536C45.8722 22.6376 45.8562 22.6376 45.8402 22.6376L45.2802 22.7176C45.2642 22.7176 45.2482 22.7336 45.2482 22.7336C45.2322 22.7496 45.2322 22.7656 45.2322 22.7816L45.3922 24.0616C45.3922 24.0776 45.3922 24.0936 45.3762 24.0936L44.3202 24.2376C44.3042 24.2376 44.2882 24.2376 44.2882 24.2216L44.1282 22.9416C44.1282 22.9256 44.1122 22.9096 44.1122 22.9096C44.0962 22.8936 44.0802 22.8936 44.0642 22.8936L43.5042 22.9736C43.4882 22.9736 43.4882 22.9736 43.4722 22.9896ZM47.8562 25.8536L49.0882 22.6696C49.1042 22.6376 49.1202 22.6216 49.1522 22.6216L49.9042 22.6696C49.9362 22.6696 49.9522 22.6856 49.9682 22.7176L50.8162 26.0136C50.8162 26.0136 50.8162 26.0296 50.8162 26.0456C50.8162 26.0776 50.8002 26.0936 50.7682 26.0776L50.1602 26.0456C50.1282 26.0456 50.1122 26.0296 50.0962 25.9976L49.9842 25.5176C49.9842 25.5016 49.9682 25.5016 49.9682 25.5016L48.7842 25.4376C48.7682 25.4376 48.7682 25.4376 48.7522 25.4536L48.5922 25.9176C48.5762 25.9496 48.5602 25.9656 48.5282 25.9656L47.9202 25.9336C47.9042 25.9336 47.8882 25.9336 47.8722 25.9176C47.8402 25.8856 47.8402 25.8696 47.8562 25.8536ZM48.9442 24.8936C48.9442 24.9096 48.9442 24.9256 48.9602 24.9256L49.8082 24.9736C49.8242 24.9736 49.8402 24.9576 49.8242 24.9416L49.4722 23.4856C49.4722 23.4696 49.4722 23.4696 49.4562 23.4696C49.4562 23.4696 49.4402 23.4696 49.4402 23.4856L48.9442 24.8936ZM51.7922 26.2056C51.7922 26.2376 51.8082 26.2536 51.8402 26.2696L52.3522 26.3816C52.3842 26.3816 52.4162 26.3816 52.4322 26.3496L53.3282 24.4296C53.3282 24.4136 53.3442 24.4136 53.3442 24.4136L53.3602 24.4296L53.3922 26.5576C53.3922 26.5896 53.4082 26.6056 53.4402 26.6216L54.0002 26.7496C54.0322 26.7496 54.0642 26.7496 54.0802 26.7176L55.5522 23.7096C55.5682 23.6776 55.5522 23.6456 55.5202 23.6296L54.9602 23.5016C54.9282 23.5016 54.9122 23.5016 54.8802 23.5336L54.0322 25.3416C54.0322 25.3576 54.0162 25.3576 54.0162 25.3576L54.0002 25.3416L53.9522 23.3256C53.9522 23.2936 53.9362 23.2776 53.9042 23.2616L53.3442 23.1336C53.3122 23.1336 53.2962 23.1336 53.2642 23.1656L52.4162 24.9736C52.4162 24.9896 52.4002 24.9896 52.4002 24.9896L52.3842 24.9736L52.3682 22.9736C52.3682 22.9416 52.3522 22.9256 52.3202 22.9096L51.7442 22.7816C51.7122 22.7816 51.6962 22.7816 51.6802 22.8136V22.8296L51.7922 26.2056ZM54.6082 26.8456L56.7362 24.1896C56.7522 24.1576 56.7842 24.1576 56.8162 24.1736L57.5202 24.4456C57.5522 24.4616 57.5682 24.4776 57.5682 24.5096L57.3762 27.9176C57.3762 27.9176 57.3762 27.9336 57.3762 27.9496C57.3602 27.9816 57.3442 27.9816 57.3122 27.9656L56.7362 27.7416C56.7042 27.7256 56.6882 27.7096 56.6882 27.6776L56.7202 27.1816C56.7202 27.1656 56.7202 27.1656 56.7042 27.1496L55.6002 26.7336C55.5842 26.7336 55.5842 26.7336 55.5682 26.7496L55.2642 27.1336C55.2482 27.1656 55.2162 27.1656 55.1842 27.1496L54.6082 26.9256C54.5922 26.9256 54.5762 26.9096 54.5762 26.8936C54.5762 26.8776 54.5922 26.8616 54.6082 26.8456ZM55.9522 26.2856L56.7362 26.5896C56.7522 26.5896 56.7682 26.5896 56.7682 26.5736L56.8802 25.0856C56.8802 25.0696 56.8802 25.0696 56.8802 25.0696C56.8802 25.0696 56.8642 25.0696 56.8642 25.0856L55.9682 26.2696C55.9362 26.2696 55.9362 26.2856 55.9522 26.2856ZM59.4082 25.2456L60.6082 25.9016C60.7842 25.9976 60.9282 26.1256 61.0242 26.2696C61.1202 26.4136 61.1682 26.5736 61.1682 26.7496C61.1682 26.9256 61.1202 27.1016 61.0242 27.2776C60.9122 27.4696 60.7842 27.5976 60.6082 27.6936C60.4322 27.7736 60.2562 27.8056 60.0482 27.7576C60.0322 27.7576 60.0162 27.7576 60.0162 27.7736L59.9362 29.2776C59.9362 29.2936 59.9362 29.3096 59.9362 29.3096C59.9202 29.3256 59.9042 29.3416 59.8722 29.3256L59.3602 29.0376C59.3282 29.0216 59.3122 29.0056 59.3282 28.9736L59.4402 27.5176C59.4402 27.5016 59.4402 27.4856 59.4242 27.4856L59.0402 27.2776C59.0242 27.2776 59.0082 27.2776 59.0082 27.2936L58.3682 28.4456C58.3682 28.4616 58.3522 28.4616 58.3362 28.4776C58.3202 28.4776 58.3042 28.4776 58.2882 28.4776L57.7922 28.2056C57.7762 28.2056 57.7762 28.1896 57.7602 28.1736C57.7602 28.1576 57.7602 28.1416 57.7602 28.1256L59.3282 25.2776C59.3282 25.2616 59.3442 25.2616 59.3602 25.2456C59.3762 25.2296 59.3922 25.2296 59.4082 25.2456ZM59.6642 26.0776L59.2642 26.7976C59.2642 26.8136 59.2642 26.8296 59.2802 26.8296L59.8242 27.1336C59.9362 27.1976 60.0642 27.2136 60.1762 27.1816C60.2882 27.1496 60.3842 27.0856 60.4322 26.9736C60.4962 26.8616 60.5122 26.7496 60.4802 26.6376C60.4482 26.5256 60.3682 26.4296 60.2562 26.3656L59.7122 26.0616C59.6802 26.0616 59.6642 26.0616 59.6642 26.0776ZM63.6802 29.1976L62.8962 30.2696C62.7842 30.4296 62.6242 30.5416 62.4642 30.6056C62.3042 30.6696 62.1122 30.6856 61.9202 30.6376C61.7282 30.6056 61.5362 30.5096 61.3442 30.3656L60.3842 29.6456C60.3682 29.6296 60.3682 29.6296 60.3682 29.6136C60.3682 29.5976 60.3682 29.5816 60.3842 29.5656L62.3202 26.9576C62.3362 26.9416 62.3362 26.9416 62.3522 26.9416C62.3682 26.9416 62.3842 26.9416 62.4002 26.9576L63.3602 27.6776C63.5522 27.8216 63.6962 27.9816 63.7922 28.1576C63.8882 28.3336 63.9362 28.5096 63.9202 28.7016C63.8562 28.8776 63.7922 29.0376 63.6802 29.1976ZM63.2002 28.4936C63.1842 28.3656 63.1202 28.2536 62.9922 28.1576L62.5282 27.8216C62.5122 27.8056 62.4962 27.8216 62.4962 27.8216L61.2162 29.5496C61.2002 29.5656 61.2162 29.5816 61.2162 29.5816L61.6802 29.9336C61.7922 30.0136 61.9202 30.0456 62.0482 30.0296C62.1762 29.9976 62.3042 29.9176 62.4002 29.7896L63.0562 28.9096C63.1682 28.7496 63.2162 28.6216 63.2002 28.4936ZM64.0962 30.0936C64.0802 30.2536 64.0962 30.4136 64.1442 30.5736C64.1922 30.7336 64.2722 30.9096 64.3842 31.1176C64.4802 31.3096 64.5282 31.4376 64.5762 31.5336C64.6082 31.6296 64.6242 31.7096 64.6242 31.7736C64.6242 31.8536 64.5922 31.9176 64.5442 31.9656C64.4642 32.0456 64.3842 32.0776 64.2722 32.0776C64.1602 32.0776 64.0482 32.0136 63.9202 31.8856C63.7762 31.7416 63.6962 31.5976 63.6642 31.4536C63.6322 31.3096 63.6802 31.1816 63.7602 31.1016L63.8082 31.0536C63.8242 31.0376 63.8242 31.0216 63.8242 31.0056C63.8242 30.9896 63.8242 30.9736 63.8082 30.9576L63.4082 30.5736C63.3922 30.5576 63.3762 30.5576 63.3602 30.5576C63.3442 30.5576 63.3282 30.5576 63.3122 30.5736L63.2322 30.6536C63.0882 30.7976 63.0082 30.9576 62.9762 31.1496C62.9442 31.3416 62.9762 31.5176 63.0562 31.7096C63.1362 31.9016 63.2642 32.0936 63.4562 32.2696C63.7282 32.5256 64.0002 32.6696 64.2882 32.7016C64.5762 32.7336 64.8162 32.6376 65.0242 32.4136C65.1682 32.2696 65.2482 32.1096 65.2482 31.9496C65.2642 31.7896 65.2482 31.6296 65.2002 31.5016C65.1522 31.3736 65.0722 31.1816 64.9762 30.9736C64.8802 30.7816 64.8162 30.6376 64.7682 30.5256C64.7202 30.4296 64.7042 30.3336 64.7042 30.2696C64.7042 30.1896 64.7362 30.1256 64.7842 30.0776C64.8642 29.9976 64.9602 29.9656 65.0562 29.9816C65.1682 29.9976 65.2642 30.0456 65.3762 30.1576C65.5202 30.2856 65.5842 30.4296 65.6002 30.5736C65.6162 30.7176 65.5682 30.8456 65.4882 30.9416L65.4562 30.9736C65.4402 30.9896 65.4402 31.0056 65.4402 31.0216C65.4402 31.0376 65.4402 31.0536 65.4562 31.0696L65.8562 31.4536C65.8722 31.4696 65.8882 31.4696 65.9042 31.4696C65.9202 31.4696 65.9362 31.4696 65.9522 31.4536L66.0002 31.4056C66.1442 31.2616 66.2242 31.0856 66.2562 30.9096C66.2882 30.7176 66.2562 30.5256 66.1922 30.3336C66.1122 30.1416 65.9842 29.9496 65.8082 29.7896C65.6482 29.6296 65.4722 29.5176 65.2962 29.4536C65.1202 29.3896 64.9442 29.3736 64.7682 29.4056C64.5922 29.4376 64.4482 29.5336 64.3042 29.6616C64.1922 29.7736 64.1282 29.9176 64.0962 30.0936ZM20.2722 67.9016V63.3576C17.7282 63.6776 15.2642 64.0456 12.8802 64.4456L20.2722 67.9016ZM88.3682 65.5176L92.8002 61.6936C90.3362 60.4296 87.6482 59.3096 84.8162 58.3656V64.2696C84.8322 64.4296 84.7362 64.5896 84.5762 64.6536L76.5922 68.3816C81.3922 69.3576 85.9042 70.7496 90.0322 72.5576L88.2242 65.9336C88.2082 65.7736 88.2562 65.6136 88.3682 65.5176ZM11.1842 64.2696C11.1842 64.2696 11.1842 64.2536 11.1842 64.2696V58.3656C8.3522 59.3256 5.6802 60.4296 3.2002 61.6936L7.6322 65.5176C7.7442 65.6136 7.7922 65.7736 7.7602 65.9336L5.9522 72.5576C10.0802 70.7656 14.5922 69.3576 19.3922 68.3816L11.4082 64.6536C11.2642 64.5736 11.1682 64.4296 11.1842 64.2696ZM84.0162 63.7736V50.8456C73.3282 48.9576 60.8802 47.9656 48.0002 47.9656C35.1202 47.9656 22.6722 48.9576 11.9842 50.8616V63.7896C15.4402 63.1816 19.0722 62.6696 22.8482 62.2536C22.6402 62.4296 22.5922 62.7176 22.7202 62.9576C22.8642 63.2136 23.1842 63.3096 23.4562 63.1816C23.6482 63.0856 23.7602 62.8936 23.7602 62.6856C23.7602 62.6056 23.7442 62.5096 23.6962 62.4296C23.6802 62.4136 23.6802 62.3816 23.6642 62.3656C23.6162 62.2856 23.5362 62.2216 23.4562 62.1896C31.2002 61.3576 39.5042 60.9256 48.0002 60.9256C56.4802 60.9256 64.7682 61.3576 72.4962 62.1896C72.4482 62.2216 72.4002 62.2696 72.3682 62.3176C72.3362 62.3656 72.3202 62.3976 72.3042 62.4456C72.2082 62.7336 72.3682 63.0536 72.6562 63.1496C72.9282 63.2456 73.2002 63.1176 73.3282 62.8776C73.3762 62.7976 73.3922 62.7016 73.3922 62.6216C73.3922 62.4936 73.3442 62.3656 73.2642 62.2696C76.9922 62.6696 80.5922 63.1656 84.0162 63.7736ZM75.7282 63.3576V67.9016L83.1202 64.4456C80.7362 64.0456 78.2562 63.6776 75.7282 63.3576ZM48.1922 29.4376L51.1682 32.3976C52.8162 34.0296 52.8322 36.6856 51.2002 38.3336C50.3842 39.1496 49.3122 39.5656 48.2402 39.5816C47.1682 39.5816 46.0962 39.1816 45.2642 38.3656C43.6162 36.7336 43.6002 34.0776 45.2322 32.4296L48.1922 29.4376ZM48.2082 31.1496L46.1122 33.2616C45.5522 33.8216 45.2482 34.5736 45.2482 35.3736C45.2482 36.1736 45.5682 36.9096 46.1282 37.4696C47.2962 38.6216 49.1842 38.6216 50.3362 37.4536C50.8962 36.8936 51.2002 36.1416 51.2002 35.3416C51.2002 34.5416 50.8802 33.8056 50.3202 33.2456L48.2082 31.1496ZM42.1762 44.1256L54.3522 44.0616V42.8456L42.1762 42.9096V44.1256ZM56.4162 37.4216C55.5202 38.3176 54.4962 39.0536 53.4082 39.6136C54.3682 38.4456 54.9442 36.9576 54.9282 35.3416H53.7122C53.7282 38.3656 51.2802 40.8296 48.2562 40.8456C45.2322 40.8616 42.7682 38.4136 42.7522 35.3896H41.5362C41.5522 37.0056 42.1282 38.4936 43.1042 39.6456C42.0002 39.1016 40.9762 38.3816 40.0642 37.4856L39.2002 38.3656C41.6322 40.7656 44.8482 42.0776 48.2562 42.0616C51.6642 42.0456 54.8802 40.7016 57.2802 38.2696L56.4162 37.4216ZM48.5602 66.0296L48.0002 64.2856L47.4402 66.0296H45.6002L47.0882 67.1016L46.5282 68.8456L48.0162 67.7736L49.5042 68.8456L48.9442 67.1016L50.4322 66.0296H48.5602ZM41.1842 65.2936L40.8002 64.1256L40.4162 65.2936H39.2002L40.1922 66.0135L39.8082 67.1816L40.8002 66.4616L41.7922 67.1816L41.4082 66.0135L42.4002 65.2936H41.1842ZM26.6882 36.2856L27.6802 35.5656L28.6722 36.2856L28.2882 35.1176L29.2802 34.3976H28.0642L27.6802 33.2456L27.2962 34.4136H26.0802L27.0722 35.1336L26.6882 36.2856ZM55.5842 65.2936L55.2002 64.1256L54.8162 65.2936H53.6002L54.5922 66.0135L54.2082 67.1816L55.2002 66.4616L56.1922 67.1816L55.8082 66.0135L56.8002 65.2936H55.5842ZM67.3282 36.2856L68.3202 35.5656L69.3122 36.2856L68.9282 35.1176L69.9202 34.3976H68.7042L68.3202 33.2456L67.9362 34.4136H66.7202L67.7122 35.1336L67.3282 36.2856ZM50.3362 20.3016C50.6082 20.3336 50.8642 20.1576 50.9442 19.8856C50.9602 19.8376 50.9602 19.7896 50.9602 19.7576C50.9602 19.5016 50.7842 19.2776 50.5442 19.2136C50.4962 19.1976 50.4482 19.1976 50.4162 19.1976C50.1122 19.1976 49.8562 19.4536 49.8562 19.7576C49.8402 20.0296 50.0482 20.2696 50.3362 20.3016ZM75.7922 44.0936C75.7922 44.1576 75.8082 44.2216 75.8242 44.2696C75.9202 44.5576 76.2402 44.7176 76.5282 44.6216C76.7682 44.5416 76.9122 44.3336 76.9122 44.0936C76.9122 44.0616 76.9122 44.0456 76.9122 44.0136C76.8802 43.7416 76.6402 43.5336 76.3522 43.5336C76.0322 43.5336 75.7922 43.7896 75.7922 44.0936ZM71.8562 64.1735C71.6002 64.0135 71.2642 64.0616 71.0882 64.3176C70.9122 64.5576 70.9602 64.8936 71.2002 65.0696C71.4402 65.2616 71.7922 65.2296 71.9842 64.9896C72.0002 64.9736 72.0002 64.9576 72.0162 64.9576C72.0802 64.8616 72.1122 64.7495 72.1122 64.6536C72.0962 64.4456 72.0162 64.2696 71.8562 64.1735ZM75.3442 41.8376C75.3922 42.0936 75.6162 42.3016 75.8882 42.3016C76.1922 42.3016 76.4482 42.0456 76.4482 41.7416C76.4482 41.6776 76.4322 41.6136 76.4162 41.5656C76.3202 41.2776 76.0002 41.1176 75.7122 41.2136C75.4562 41.2936 75.2962 41.5656 75.3442 41.8376ZM69.6802 66.1735C69.4882 66.3976 69.4882 66.7336 69.6962 66.9416C69.9202 67.1656 70.2722 67.1656 70.4802 66.9416C70.4962 66.9256 70.5122 66.9095 70.5282 66.8936C70.6082 66.7976 70.6562 66.6696 70.6562 66.5416C70.6562 66.3816 70.5922 66.2215 70.4482 66.1096C70.2082 65.9176 69.8722 65.9496 69.6802 66.1735ZM45.5362 20.3016C45.5842 20.3016 45.6482 20.3016 45.6962 20.2856C45.9362 20.2216 46.0962 19.9976 46.0962 19.7576C46.0962 19.7096 46.0962 19.6616 46.0802 19.5976C46.0002 19.3256 45.7442 19.1656 45.4722 19.1976C45.2002 19.2296 44.9762 19.4696 44.9762 19.7576C44.9762 20.0616 45.2322 20.3016 45.5362 20.3016ZM76.0322 46.4776C76.0322 46.5256 76.0322 46.5896 76.0482 46.6376C76.1282 46.9256 76.4482 47.1016 76.7362 47.0216C76.9762 46.9576 77.1362 46.7336 77.1362 46.4936C77.1362 46.4776 77.1362 46.4456 77.1362 46.4296C77.1042 46.1576 76.8642 45.9336 76.5762 45.9336C76.2882 45.9176 76.0322 46.1736 76.0322 46.4776ZM43.2482 20.6056C43.5202 20.5576 43.7122 20.3336 43.7122 20.0616C43.7122 19.7576 43.4562 19.5016 43.1522 19.5016C43.1042 19.5016 43.0402 19.5016 42.9922 19.5176C42.7042 19.5976 42.5282 19.9176 42.6082 20.2056C42.7042 20.4776 42.9762 20.6536 43.2482 20.6056ZM76.6402 48.3176C76.3362 48.3176 76.0802 48.5736 76.0802 48.8776C76.0802 49.1816 76.3362 49.4376 76.6402 49.4376C76.9442 49.4376 77.2002 49.1816 77.2002 48.8776C77.2002 48.5736 76.9442 48.3176 76.6402 48.3176ZM47.9362 20.2056C47.9522 20.2056 47.9522 20.2056 47.9682 20.2056C47.9842 20.2056 47.9842 20.2056 48.0002 20.2056C48.3042 20.2056 48.5602 19.9496 48.5602 19.6456C48.5602 19.3416 48.3042 19.0856 48.0002 19.0856C47.9842 19.0856 47.9842 19.0856 47.9682 19.0856C47.9522 19.0856 47.9522 19.0856 47.9362 19.0856C47.6322 19.0856 47.3762 19.3416 47.3762 19.6456C47.3762 19.9496 47.6322 20.2056 47.9362 20.2056ZM73.8882 37.3576C73.9042 37.4056 73.9202 37.4536 73.9522 37.4856C74.1282 37.7416 74.4642 37.8056 74.7202 37.6456C74.8802 37.5336 74.9762 37.3576 74.9762 37.1816C74.9762 37.1016 74.9602 37.0216 74.9282 36.9416C74.8162 36.6856 74.5122 36.5576 74.2402 36.6536C73.9522 36.7496 73.7922 37.0696 73.8882 37.3576ZM70.4162 31.3576C70.6402 31.5816 70.9922 31.5816 71.2002 31.3576C71.3122 31.2456 71.3602 31.1016 71.3602 30.9576C71.3602 30.8296 71.3122 30.7176 71.2322 30.6056C71.0562 30.3816 70.7362 30.3336 70.4802 30.4936C70.2242 30.6696 70.1602 31.0056 70.3202 31.2616C70.3682 31.3096 70.4002 31.3416 70.4162 31.3576ZM72.4962 33.4056C72.6562 33.2936 72.7522 33.1176 72.7522 32.9416C72.7522 32.8296 72.7202 32.7336 72.6562 32.6376C72.4802 32.3816 72.1442 32.3176 71.8882 32.4776C71.6322 32.6536 71.5682 32.9896 71.7282 33.2456C71.8882 33.5016 72.2402 33.5656 72.4962 33.4056ZM68.9762 29.5816C69.2322 29.7576 69.5842 29.6776 69.7442 29.4216C69.8082 29.3256 69.8402 29.2136 69.8402 29.1176C69.8402 28.9736 69.7922 28.8456 69.6802 28.7336C69.5042 28.5416 69.2002 28.4936 68.9602 28.6536C68.7042 28.8296 68.6402 29.1656 68.8002 29.4216C68.8642 29.4856 68.9122 29.5496 68.9762 29.5816ZM63.5362 24.8936C63.7922 25.0696 64.1442 24.9896 64.3042 24.7336C64.3682 24.6376 64.4002 24.5256 64.4002 24.4296C64.4002 24.2536 64.3202 24.0776 64.1442 23.9656C63.8882 23.7896 63.5362 23.8696 63.3762 24.1256C63.2162 24.3816 63.2802 24.7176 63.5362 24.8936ZM59.4082 22.6216C59.6482 22.7336 59.9522 22.6536 60.1122 22.4296C60.1762 22.3336 60.2082 22.2216 60.2082 22.1256C60.2082 21.9496 60.1282 21.7736 59.9522 21.6616C59.9042 21.6296 59.8722 21.6136 59.8242 21.5976C59.5362 21.5016 59.2162 21.6616 59.1202 21.9496C59.0242 22.2056 59.1682 22.5096 59.4082 22.6216ZM67.9202 27.8696C68.0802 27.7576 68.1762 27.5816 68.1762 27.4056C68.1762 27.2936 68.1442 27.1976 68.0802 27.1016C68.0322 27.0376 67.9842 26.9896 67.9202 26.9416C67.6642 26.7656 67.3122 26.8456 67.1522 27.1016C66.9922 27.3256 67.0402 27.6296 67.2322 27.8216C67.4082 27.9816 67.6962 28.0136 67.9202 27.8696ZM61.4882 23.6456C61.5362 23.6776 61.5682 23.6936 61.6162 23.7096C61.9042 23.8056 62.2242 23.6456 62.3202 23.3576C62.3362 23.2936 62.3522 23.2456 62.3522 23.1816C62.3522 22.9736 62.2402 22.7816 62.0482 22.6856C61.7922 22.5576 61.4882 22.6376 61.3282 22.8776C61.1682 23.1336 61.2322 23.4696 61.4882 23.6456ZM73.5682 35.5496C73.8082 35.4696 73.9522 35.2616 73.9522 35.0216C73.9522 34.9576 73.9362 34.9096 73.9202 34.8456C73.9042 34.7976 73.8882 34.7496 73.8562 34.7176C73.6802 34.4616 73.3442 34.3976 73.0882 34.5576C72.8482 34.7176 72.7682 35.0216 72.8962 35.2776C73.0242 35.5016 73.2962 35.6296 73.5682 35.5496ZM74.7202 39.5816C74.8002 39.8696 75.1042 40.0296 75.3922 39.9656C75.6482 39.9016 75.8082 39.6776 75.8082 39.4216C75.8082 39.3736 75.8082 39.3256 75.7922 39.2936C75.7922 39.2776 75.7922 39.2616 75.7762 39.2456C75.6802 38.9576 75.3602 38.7976 75.0722 38.8936C74.7842 38.9896 74.6242 39.2936 74.7202 39.5816ZM57.2482 21.7576C57.2642 21.7576 57.2802 21.7736 57.2962 21.7736C57.6002 21.8536 57.9042 21.6616 57.9682 21.3736C57.9842 21.3256 57.9842 21.2776 57.9842 21.2456C57.9842 21.0056 57.8242 20.7816 57.5842 20.7176C57.2962 20.6376 56.9922 20.7976 56.8962 21.0696C56.8002 21.3416 56.9442 21.6616 57.2482 21.7576ZM54.9442 21.0696C55.0082 21.0856 55.0562 21.1016 55.1202 21.1016C55.4242 21.1016 55.6802 20.8456 55.6802 20.5416C55.6802 20.2696 55.4882 20.0456 55.2162 19.9976C54.9442 19.9496 54.6722 20.1096 54.5922 20.3656C54.4962 20.6536 54.6562 20.9736 54.9442 21.0696ZM68.0802 67.9336C67.8882 68.1415 67.8722 68.4616 68.0482 68.6696C68.2402 68.9095 68.5922 68.9416 68.8322 68.7336C68.8642 68.7175 68.8802 68.6856 68.9122 68.6535C68.9922 68.5575 69.0402 68.4296 69.0402 68.3016C69.0402 68.1416 68.9762 67.9816 68.8322 67.8696C68.6082 67.7096 68.2722 67.7416 68.0802 67.9336ZM65.4402 26.2856C65.6642 26.4616 65.9842 26.4456 66.1762 26.2376C66.2882 26.1256 66.3362 25.9816 66.3362 25.8376C66.3362 25.6936 66.2882 25.5496 66.1762 25.4376C66.1442 25.4056 66.1282 25.3896 66.0962 25.3736C65.8402 25.1976 65.4882 25.2776 65.3282 25.5336C65.1682 25.7736 65.2162 26.0936 65.4402 26.2856ZM52.5922 20.5736C52.6562 20.5896 52.7042 20.6056 52.7682 20.6056C53.0722 20.6056 53.3282 20.3496 53.3282 20.0456C53.3282 19.7736 53.1362 19.5496 52.8642 19.5016C52.5922 19.4536 52.3202 19.6136 52.2402 19.8696C52.1442 20.1576 52.3042 20.4776 52.5922 20.5736ZM19.5682 44.7176C19.8722 44.7656 20.1602 44.5576 20.1922 44.2536C20.1922 44.2216 20.1922 44.2056 20.1922 44.1736C20.1922 43.9016 20.0002 43.6776 19.7282 43.6296C19.4242 43.5816 19.1362 43.7896 19.0882 44.0936V44.1096C19.0562 44.3816 19.2642 44.6696 19.5682 44.7176ZM31.5202 71.0376C31.2802 70.8616 30.9442 70.9095 30.7682 71.1496C30.5762 71.3895 30.6082 71.7415 30.8482 71.9335C30.8642 71.9495 30.8802 71.9496 30.8802 71.9655C31.1362 72.1416 31.4882 72.0616 31.6482 71.8055C31.7122 71.7095 31.7442 71.5976 31.7442 71.5016C31.7442 71.3256 31.6642 71.1496 31.5202 71.0376ZM33.5042 72.3656C33.4882 72.3496 33.4722 72.3335 33.4402 72.3335C33.1682 72.1895 32.8322 72.3015 32.6882 72.5896C32.5602 72.8456 32.6562 73.1656 32.8962 73.3256C33.1522 73.4696 33.4722 73.4055 33.6482 73.1495C33.7122 73.0536 33.7442 72.9416 33.7442 72.8456C33.7442 72.6535 33.6642 72.4776 33.5042 72.3656ZM35.5362 73.4855C35.2642 73.3415 34.9282 73.4536 34.7842 73.7416C34.6402 74.0135 34.7522 74.3495 35.0402 74.4935C35.3122 74.6375 35.6482 74.5256 35.7922 74.2376C35.8242 74.1576 35.8562 74.0775 35.8562 73.9816C35.8562 73.7736 35.7282 73.5816 35.5362 73.4855ZM40.9602 21.0856H40.9762C41.2162 21.0056 41.3602 20.7976 41.3602 20.5576C41.3602 20.4936 41.3442 20.4456 41.3282 20.3816C41.2322 20.0936 40.9282 19.9336 40.6402 20.0296C40.3522 20.1096 40.1762 20.4296 40.2722 20.7176C40.3682 21.0056 40.6722 21.1816 40.9602 21.0856ZM39.9202 75.2135C39.6322 75.1175 39.3282 75.2775 39.2322 75.5655C39.1362 75.8535 39.2962 76.1735 39.5842 76.2695H39.6002C39.8882 76.3495 40.2082 76.1895 40.2882 75.8855C40.3042 75.8375 40.3042 75.7896 40.3042 75.7255C40.3042 75.5015 40.1602 75.2775 39.9202 75.2135ZM26.3682 66.2376C26.1762 65.9976 25.8242 65.9655 25.5842 66.1735C25.3442 66.3656 25.3122 66.7176 25.5042 66.9576C25.6962 67.1976 26.0482 67.2296 26.2882 67.0376C26.4322 66.9256 26.4962 66.7656 26.4962 66.6056C26.5122 66.4616 26.4642 66.3496 26.3682 66.2376C26.3842 66.2376 26.3842 66.2376 26.3682 66.2376ZM24.9282 64.3336C24.7362 64.0936 24.3842 64.0616 24.1442 64.2536C23.9042 64.4456 23.8722 64.7816 24.0322 65.0056C24.2082 65.2456 24.5442 65.3096 24.8002 65.1496C24.9602 65.0376 25.0562 64.8616 25.0562 64.6856C25.0562 64.5736 25.0242 64.4776 24.9602 64.3816C24.9442 64.3656 24.9442 64.3496 24.9282 64.3336ZM28.8802 69.6455C28.6882 69.8856 28.7202 70.2375 28.9442 70.4296C28.9442 70.4296 28.9442 70.4296 28.9602 70.4296C29.2002 70.6216 29.5522 70.5896 29.7442 70.3495C29.8242 70.2536 29.8722 70.1256 29.8722 69.9976C29.8722 69.8376 29.8082 69.6776 29.6642 69.5656C29.4242 69.3896 29.0722 69.4216 28.8802 69.6455ZM27.2002 67.9336C26.9602 68.1255 26.9282 68.4776 27.1202 68.7176C27.1362 68.7336 27.1522 68.7495 27.1682 68.7656C27.3922 68.9896 27.7442 68.9896 27.9522 68.7656C28.0642 68.6536 28.1122 68.5096 28.1122 68.3656C28.1122 68.2376 28.0642 68.0936 27.9682 67.9816C27.7762 67.7736 27.4402 67.7416 27.2002 67.9336ZM37.7282 74.4616C37.6962 74.4455 37.6642 74.4296 37.6322 74.4296C37.3442 74.3495 37.0242 74.5095 36.9442 74.8135C36.8642 75.0855 37.0082 75.3736 37.2802 75.4855C37.5522 75.5975 37.8562 75.4855 37.9842 75.2135C38.0322 75.1335 38.0482 75.0536 38.0482 74.9576C38.0482 74.7495 37.9362 74.5575 37.7282 74.4616ZM56.1602 75.1815C55.8722 75.2616 55.6962 75.5655 55.7762 75.8535C55.8562 76.1575 56.1602 76.3335 56.4482 76.2535C56.4642 76.2535 56.4802 76.2536 56.4962 76.2375C56.7362 76.1576 56.8802 75.9495 56.8802 75.7095C56.8802 75.6455 56.8642 75.5975 56.8482 75.5335C56.7522 75.2615 56.4482 75.1016 56.1602 75.1815ZM53.9042 75.7735C53.8882 75.7735 53.8722 75.7735 53.8562 75.7895C53.5522 75.8695 53.3762 76.1735 53.4562 76.4615C53.5362 76.7495 53.8242 76.9255 54.1122 76.8776C54.3682 76.8296 54.5602 76.5895 54.5602 76.3335C54.5602 76.3015 54.5602 76.2696 54.5602 76.2375C54.4802 75.9175 54.1922 75.7255 53.9042 75.7735ZM58.3842 74.4135C58.1282 74.5095 57.9682 74.7976 58.0482 75.0695C58.1282 75.3735 58.4322 75.5495 58.7202 75.4695C58.7522 75.4535 58.8002 75.4375 58.8322 75.4216C59.0242 75.3256 59.1362 75.1335 59.1362 74.9255C59.1362 74.8456 59.1202 74.7495 59.0722 74.6695C58.9442 74.4296 58.6402 74.3175 58.3842 74.4135ZM60.5122 73.4535C60.2402 73.5975 60.1282 73.9335 60.2562 74.2056C60.4002 74.4776 60.7362 74.5896 61.0082 74.4616C61.2002 74.3656 61.3122 74.1735 61.3122 73.9655C61.3122 73.8856 61.2962 73.7895 61.2482 73.7095C61.1202 73.4216 60.7842 73.3095 60.5122 73.4535ZM51.5362 76.1735C51.2322 76.2215 51.0242 76.4935 51.0722 76.7976C51.1042 77.1016 51.3922 77.3256 51.6962 77.2775H51.7122C51.9842 77.2295 52.1762 76.9895 52.1762 76.7335C52.1762 76.7015 52.1762 76.6696 52.1762 76.6376C52.1282 76.3335 51.8402 76.1255 51.5362 76.1735ZM46.8642 76.3655C46.5762 76.3495 46.3202 76.5575 46.2882 76.8455C46.2562 77.1495 46.4642 77.4215 46.7682 77.4695C46.7842 77.4695 46.8162 77.4695 46.8322 77.4695C47.1362 77.4695 47.3922 77.2135 47.3922 76.9095C47.3922 76.6215 47.1522 76.3815 46.8642 76.3655ZM44.5282 76.1735C44.2242 76.1255 43.9522 76.3335 43.9042 76.6376C43.8562 76.9416 44.0642 77.2295 44.3682 77.2775H44.3842C44.6882 77.3256 44.9762 77.1016 45.0082 76.7976C45.0082 76.7655 45.0082 76.7495 45.0082 76.7176C45.0082 76.4616 44.8002 76.2215 44.5282 76.1735ZM42.1922 75.7895C41.9202 75.7255 41.6322 75.8856 41.5362 76.1576C41.4402 76.4455 41.6002 76.7655 41.8882 76.8615C41.9202 76.8775 41.9522 76.8776 41.9842 76.8776C42.2882 76.9255 42.5762 76.7015 42.6082 76.3976C42.6082 76.3656 42.6082 76.3496 42.6082 76.3176C42.6402 76.0775 42.4482 75.8535 42.1922 75.7895ZM49.2322 76.3655C49.2162 76.3655 49.1842 76.3655 49.1682 76.3655C48.8642 76.3975 48.6402 76.6855 48.6882 76.9895C48.7202 77.2775 48.9762 77.4855 49.2642 77.4695C49.5522 77.4535 49.7922 77.2135 49.7922 76.9095C49.7922 76.6055 49.5362 76.3655 49.2322 76.3655ZM19.3602 49.5016C19.6642 49.5016 19.9202 49.2456 19.9202 48.9416C19.9202 48.6376 19.6642 48.3816 19.3602 48.3816C19.0562 48.3816 18.8002 48.6376 18.8002 48.9416C18.8002 49.2616 19.0562 49.5016 19.3602 49.5016ZM66.4322 69.5016C66.3842 69.5336 66.3362 69.5655 66.3042 69.6135C66.1122 69.8535 66.1442 70.2056 66.3842 70.3976C66.5922 70.5736 66.8962 70.5576 67.1042 70.3816C67.2322 70.2696 67.2962 70.1255 67.2962 69.9655C67.2962 69.8535 67.2642 69.7576 67.2002 69.6616C67.0242 69.4056 66.6882 69.3416 66.4322 69.5016ZM64.5442 71.0056C64.5122 71.0215 64.4802 71.0536 64.4642 71.0695C64.2402 71.2935 64.2402 71.6455 64.4642 71.8535C64.6722 72.0616 64.9922 72.0776 65.2002 71.9016C65.3442 71.7896 65.4082 71.6296 65.4082 71.4696C65.4082 71.3576 65.3762 71.2616 65.3122 71.1656C65.1522 70.8936 64.8002 70.8296 64.5442 71.0056ZM27.0882 29.5336C27.1842 29.4216 27.2322 29.2936 27.2322 29.1656C27.2322 29.0216 27.1842 28.8776 27.0722 28.7656C26.8482 28.5416 26.4962 28.5416 26.2882 28.7656C26.2722 28.7816 26.2722 28.7976 26.2562 28.7976C26.0642 29.0376 26.0962 29.3896 26.3202 29.5816C26.5442 29.7896 26.8962 29.7576 27.0882 29.5336ZM28.6882 27.8856C28.7202 27.8696 28.7522 27.8376 28.7682 27.8056C28.8482 27.6936 28.8962 27.5816 28.8962 27.4536C28.8962 27.2936 28.8322 27.1336 28.6882 27.0216C28.4642 26.8296 28.1442 26.8456 27.9522 27.0536C27.7442 27.2456 27.7282 27.5816 27.9042 27.8056C28.1122 28.0456 28.4482 28.0776 28.6882 27.8856ZM30.4962 26.3336C30.6402 26.2216 30.7202 26.0616 30.7202 25.8856C30.7202 25.7736 30.6882 25.6776 30.6242 25.5816C30.4482 25.3256 30.1122 25.2616 29.8562 25.4216C29.8402 25.4376 29.8242 25.4376 29.8242 25.4536C29.5842 25.6456 29.5522 25.9976 29.7442 26.2376C29.9202 26.4616 30.2562 26.5096 30.4962 26.3336ZM38.6882 21.7896C38.9282 21.7096 39.0722 21.5016 39.0722 21.2616C39.0722 21.2136 39.0722 21.1656 39.0562 21.1016C38.9762 20.8136 38.6562 20.6376 38.3682 20.7176H38.3522C38.0642 20.8136 37.9042 21.1336 38.0002 21.4216C38.0802 21.7256 38.4002 21.8696 38.6882 21.7896ZM36.4642 22.6696C36.4962 22.6536 36.5282 22.6376 36.5602 22.6216C36.7362 22.5256 36.8482 22.3336 36.8482 22.1416C36.8482 22.0456 36.8322 21.9496 36.7682 21.8696C36.6242 21.6136 36.3202 21.5176 36.0642 21.6296C35.8082 21.7416 35.6642 22.0456 35.7602 22.3176C35.8562 22.6056 36.1762 22.7656 36.4642 22.6696ZM19.4082 47.1016C19.7122 47.1016 19.9522 46.8776 19.9682 46.5736C19.9682 46.5576 19.9682 46.5576 19.9682 46.5416C19.9682 46.2696 19.7602 46.0296 19.4882 45.9976C19.1842 45.9496 18.8962 46.1736 18.8642 46.4776C18.8642 46.5096 18.8642 46.5256 18.8642 46.5576C18.8482 46.8616 19.0882 47.1016 19.4082 47.1016ZM34.4002 23.7096C34.5922 23.6136 34.7042 23.4216 34.7042 23.2136C34.7042 23.1496 34.6882 23.1016 34.6722 23.0376C34.5762 22.7496 34.2562 22.5896 33.9682 22.6856C33.9202 22.7016 33.8722 22.7176 33.8402 22.7496C33.5842 22.9256 33.5202 23.2616 33.6802 23.5176C33.8402 23.7576 34.1442 23.8376 34.4002 23.7096ZM32.4002 24.9256C32.4162 24.9096 32.4322 24.9096 32.4322 24.8936C32.5762 24.7816 32.6402 24.6216 32.6402 24.4616C32.6402 24.3336 32.6082 24.2216 32.5122 24.1096C32.3202 23.8696 31.9842 23.8376 31.7442 24.0136C31.5042 24.1896 31.4402 24.5256 31.6002 24.7816C31.8082 25.0216 32.1442 25.1016 32.4002 24.9256ZM19.9202 42.3336C20.2082 42.4296 20.5282 42.2696 20.6242 41.9816C20.6402 41.9496 20.6402 41.9176 20.6562 41.8696C20.6562 41.8536 20.6562 41.8216 20.6562 41.8056C20.6562 41.5336 20.4482 41.2936 20.1602 41.2456C19.8722 41.2136 19.6162 41.3896 19.5522 41.6776C19.4882 41.9496 19.6322 42.2376 19.9202 42.3336ZM20.5442 40.0296C20.8322 40.1256 21.1522 39.9656 21.2482 39.6776C21.2482 39.6616 21.2642 39.6456 21.2642 39.6296C21.2802 39.5816 21.2802 39.5336 21.2802 39.5016C21.2802 39.2456 21.1042 39.0216 20.8642 38.9576C20.5762 38.8776 20.2722 39.0536 20.1922 39.3416C20.1122 39.6136 20.2722 39.9336 20.5442 40.0296ZM22.3362 35.5656C22.6082 35.6936 22.9282 35.5976 23.0722 35.3416C23.1202 35.2616 23.1522 35.1656 23.1522 35.0696C23.1522 34.8936 23.0722 34.7176 22.8962 34.6056C22.6402 34.4296 22.2882 34.5096 22.1282 34.7656C22.1122 34.7816 22.0962 34.7976 22.0962 34.8296C21.9362 35.1016 22.0482 35.4376 22.3362 35.5656ZM62.5762 72.3176C62.3202 72.4616 62.2402 72.7816 62.3682 73.0376C62.5122 73.3096 62.8482 73.4215 63.1202 73.2935C63.1362 73.2775 63.1682 73.2775 63.1842 73.2616C63.3442 73.1496 63.4402 72.9736 63.4402 72.7976C63.4402 72.6856 63.4082 72.5896 63.3442 72.4935C63.1682 72.2375 62.8322 72.1576 62.5762 72.3176ZM21.3122 37.7416C21.5842 37.8856 21.9202 37.7736 22.0642 37.4856C22.0802 37.4536 22.0962 37.4056 22.1122 37.3736C22.1282 37.3256 22.1282 37.2776 22.1282 37.2456C22.1282 36.9896 21.9522 36.7656 21.7122 36.7016C21.4402 36.6376 21.1522 36.7816 21.0562 37.0376C20.9442 37.3096 21.0562 37.6136 21.3122 37.7416ZM23.4722 33.4536C23.7282 33.6296 24.0802 33.5496 24.2402 33.2936C24.2562 33.2776 24.2722 33.2616 24.2722 33.2296C24.3202 33.1496 24.3362 33.0696 24.3362 32.9736C24.3362 32.7656 24.2242 32.5736 24.0322 32.4776C23.7762 32.3496 23.4562 32.4456 23.2962 32.6856C23.1522 32.9576 23.2162 33.2936 23.4722 33.4536ZM24.8322 31.4856C25.0722 31.6456 25.3922 31.5976 25.5842 31.3736C25.6642 31.2776 25.7122 31.1496 25.7122 31.0216C25.7122 30.8776 25.6642 30.7336 25.5522 30.6216C25.3282 30.3976 24.9762 30.3976 24.7682 30.6216C24.7362 30.6536 24.7202 30.6696 24.7042 30.7016C24.5122 30.9576 24.5762 31.3096 24.8322 31.4856ZM69.7442 39.1016C70.3522 40.5256 70.8162 42.0136 71.1202 43.5336C71.4242 45.0536 71.5842 46.6056 71.6002 48.1736C71.8722 48.2056 72.1282 48.2216 72.4002 48.2536C72.4002 46.6056 72.2242 44.9576 71.9042 43.3736C71.5842 41.8056 71.1042 40.2696 70.4802 38.7976C70.4002 38.5896 70.1602 38.4936 69.9522 38.5896C69.7602 38.6536 69.6642 38.8936 69.7442 39.1016ZM64.6882 64.9736C63.6162 66.0456 62.4482 67.0056 61.2002 67.8535C59.9362 68.7015 58.5922 69.4375 57.1842 70.0295C55.7602 70.6376 54.2722 71.1016 52.7522 71.4056C49.6482 72.0456 46.3522 72.0456 43.2322 71.4056C41.7122 71.1016 40.2242 70.6376 38.8002 70.0295C37.4082 69.4375 36.0482 68.7015 34.7842 67.8535C33.5362 67.0056 32.3522 66.0456 31.2962 64.9736C30.5442 64.2215 29.8562 63.4376 29.2162 62.5896C28.8962 62.6216 28.5922 62.6376 28.2722 62.6696C29.0082 63.6936 29.8402 64.6536 30.7362 65.5336C31.8402 66.6376 33.0562 67.6455 34.3522 68.5096C35.6642 69.3895 37.0562 70.1416 38.4962 70.7656C39.9682 71.3895 41.5042 71.8695 43.0722 72.1895C44.6722 72.5256 46.3362 72.6856 47.9842 72.6856C49.6322 72.6856 51.2962 72.5256 52.8962 72.1895C54.4642 71.8695 56.0002 71.3895 57.4722 70.7656C58.9122 70.1576 60.3202 69.3895 61.6162 68.5096C62.9122 67.6296 64.1282 66.6376 65.2322 65.5336C66.1282 64.6376 66.9442 63.6776 67.6962 62.6696C67.3762 62.6376 67.0722 62.6216 66.7522 62.5896C66.1282 63.4376 65.4402 64.2215 64.6882 64.9736ZM25.5202 38.7816C24.8962 40.2536 24.4162 41.7896 24.0962 43.3576C23.7762 44.9576 23.6002 46.6056 23.6002 48.2376C23.8722 48.2056 24.1282 48.1736 24.4002 48.1576C24.4002 46.5896 24.5602 45.0376 24.8802 43.5176C25.1842 41.9976 25.6482 40.5096 26.2562 39.0856C26.3362 38.8776 26.2402 38.6536 26.0482 38.5576C25.8402 38.4936 25.6002 38.5896 25.5202 38.7816Z" fill="white"/>
<path d="M22.7047 56.3656C22.6887 56.3336 22.6887 56.3016 22.7367 56.2856C23.1207 56.0936 23.4087 55.8216 23.6007 55.4696C23.7927 55.1176 23.8887 54.7176 23.8407 54.2696C23.8087 53.8216 23.6807 53.4376 23.4567 53.1016C23.2327 52.7656 22.9287 52.5256 22.5607 52.3656C22.1927 52.2056 21.7607 52.1416 21.2807 52.1896C20.2247 52.2856 19.1687 52.3656 18.1127 52.4776C18.0647 52.4776 18.0327 52.4936 18.0007 52.5256C17.9687 52.5576 17.9688 52.5896 17.9688 52.6376C18.1767 54.9096 18.4007 57.1976 18.6087 59.4696C18.6087 59.5176 18.6247 59.5496 18.6567 59.5816C18.6887 59.6136 18.7207 59.6136 18.7687 59.6136C19.3127 59.5656 19.8407 59.5176 20.3847 59.4696C20.4327 59.4696 20.4648 59.4536 20.4967 59.4216C20.5287 59.3896 20.5287 59.3576 20.5287 59.3096C20.4487 58.4616 20.3847 57.6136 20.3047 56.7656C20.3047 56.7336 20.3207 56.7176 20.3527 56.7176C20.4967 56.7016 20.6407 56.6856 20.7847 56.6856C20.8167 56.6856 20.8327 56.7016 20.8487 56.7176C21.2967 57.5496 21.7447 58.3816 22.1927 59.2136C22.2247 59.2936 22.2887 59.3256 22.3687 59.3096C22.9447 59.2616 23.5207 59.2136 24.0807 59.1656C24.1287 59.1656 24.1607 59.1496 24.1767 59.1336C24.2087 59.1176 24.2087 59.0856 24.2087 59.0536C24.2087 59.0536 24.1927 59.0216 24.1767 58.9896C23.7127 58.0936 23.2167 57.2296 22.7047 56.3656ZM21.7287 54.9256C21.6007 55.0536 21.4247 55.1336 21.2007 55.1496C20.8807 55.1816 20.5447 55.1976 20.2247 55.2296C20.1927 55.2296 20.1767 55.2136 20.1607 55.1816C20.1287 54.7816 20.0967 54.3816 20.0487 53.9816C20.0487 53.9496 20.0647 53.9336 20.0967 53.9336C20.4167 53.9016 20.7527 53.8696 21.0727 53.8536C21.2967 53.8376 21.4727 53.8856 21.6327 53.9816C21.7767 54.0936 21.8567 54.2376 21.8727 54.4456C21.9207 54.6376 21.8567 54.7976 21.7287 54.9256ZM30.8487 56.2216C30.8807 56.7336 30.7847 57.1816 30.5767 57.5976C30.3687 57.9976 30.0487 58.3176 29.6487 58.5576C29.2327 58.7976 28.7527 58.9256 28.2087 58.9576C27.6487 58.9896 27.1527 58.9256 26.7207 58.7336C26.2727 58.5576 25.9207 58.2696 25.6647 57.9016C25.4087 57.5336 25.2487 57.0856 25.2167 56.5736C25.1047 55.0696 24.9927 53.5656 24.8967 52.0616C24.8967 52.0136 24.8967 51.9816 24.9287 51.9496C24.9607 51.9176 24.9927 51.9016 25.0407 51.9016C25.5847 51.8696 26.1447 51.8216 26.6887 51.7896C26.7367 51.7896 26.7847 51.7896 26.8007 51.8216C26.8327 51.8536 26.8487 51.8856 26.8487 51.9336C26.9447 53.4376 27.0407 54.9416 27.1527 56.4456C27.1687 56.7176 27.2647 56.9416 27.4407 57.1016C27.6167 57.2616 27.8247 57.3256 28.0967 57.3096C28.3527 57.2936 28.5607 57.1976 28.7207 57.0216C28.8647 56.8456 28.9447 56.6216 28.9287 56.3496C28.8327 54.8456 28.7527 53.3416 28.6567 51.8376C28.6567 51.7896 28.6727 51.7576 28.6887 51.7256C28.7207 51.6936 28.7527 51.6776 28.8007 51.6776C29.3447 51.6456 29.9047 51.6136 30.4487 51.5816C30.4967 51.5816 30.5287 51.5976 30.5607 51.6136C30.5927 51.6456 30.6087 51.6776 30.6087 51.7256C30.6887 53.1976 30.7687 54.7176 30.8487 56.2216ZM37.9847 51.3896C38.0487 53.6776 38.1287 55.9656 38.1927 58.2536C38.1927 58.3016 38.1767 58.3336 38.1607 58.3656C38.1287 58.3976 38.0967 58.4136 38.0487 58.4136C37.5367 58.4296 37.0247 58.4456 36.4967 58.4616C36.4167 58.4616 36.3527 58.4296 36.3047 58.3656C35.5687 57.2296 34.8167 56.0936 34.0647 54.9736C34.0487 54.9576 34.0327 54.9416 34.0167 54.9576C34.0007 54.9576 34.0007 54.9736 34.0007 55.0056C34.0647 56.1416 34.1127 57.2776 34.1767 58.4136C34.1767 58.4616 34.1607 58.4936 34.1447 58.5256C34.1127 58.5576 34.0807 58.5736 34.0327 58.5736C33.4887 58.6056 32.9607 58.6216 32.4167 58.6536C32.3687 58.6536 32.3367 58.6376 32.3047 58.6216C32.2727 58.5896 32.2567 58.5576 32.2567 58.5096C32.1447 56.2216 32.0327 53.9336 31.9047 51.6616C31.9047 51.6136 31.9207 51.5816 31.9367 51.5496C31.9687 51.5176 32.0007 51.5016 32.0487 51.5016C32.5767 51.4696 33.1047 51.4536 33.6327 51.4216C33.7127 51.4216 33.7767 51.4536 33.8247 51.5176C34.5927 52.6536 35.3447 53.7736 36.0807 54.9096C36.0967 54.9256 36.1127 54.9416 36.1287 54.9416C36.1447 54.9416 36.1447 54.9256 36.1447 54.8936C36.0967 53.7576 36.0487 52.6216 36.0007 51.4856C36.0007 51.4376 36.0167 51.4056 36.0327 51.3736C36.0647 51.3416 36.0967 51.3256 36.1447 51.3256C36.7047 51.3096 37.2487 51.2936 37.8087 51.2616C37.8567 51.2616 37.8887 51.2776 37.9207 51.2936C37.9687 51.2936 37.9847 51.3416 37.9847 51.3896ZM45.4087 51.2456C45.4247 53.5336 45.4407 55.8216 45.4567 58.1096C45.4567 58.1576 45.4407 58.1896 45.4087 58.2216C45.3767 58.2536 45.3447 58.2696 45.2967 58.2696C44.7847 58.2696 44.2567 58.2856 43.7447 58.2856C43.6647 58.2856 43.6007 58.2536 43.5527 58.1896C42.8327 57.0376 42.1127 55.8856 41.3927 54.7496C41.3767 54.7336 41.3607 54.7176 41.3447 54.7176C41.3287 54.7176 41.3287 54.7336 41.3287 54.7656C41.3607 55.9016 41.3927 57.0376 41.4247 58.1736C41.4247 58.2216 41.4087 58.2536 41.3927 58.2856C41.3607 58.3176 41.3287 58.3336 41.2807 58.3336C40.7367 58.3496 40.2087 58.3656 39.6647 58.3656C39.6167 58.3656 39.5847 58.3496 39.5527 58.3336C39.5207 58.3016 39.5047 58.2696 39.5047 58.2216C39.4407 55.9336 39.3767 53.6456 39.3287 51.3576C39.3287 51.3096 39.3447 51.2776 39.3607 51.2456C39.3927 51.2136 39.4247 51.1976 39.4727 51.1976C40.0007 51.1816 40.5287 51.1656 41.0567 51.1656C41.1367 51.1656 41.2007 51.1976 41.2487 51.2616C41.9847 52.4136 42.7047 53.5496 43.4247 54.7016C43.4407 54.7176 43.4567 54.7336 43.4727 54.7336C43.4887 54.7336 43.4887 54.7176 43.4887 54.6856C43.4727 53.5496 43.4567 52.4136 43.4247 51.2776C43.4247 51.2296 43.4407 51.1976 43.4727 51.1656C43.5047 51.1336 43.5367 51.1176 43.5847 51.1176C44.1447 51.1176 44.6887 51.1016 45.2487 51.1016C45.2967 51.1016 45.3287 51.1176 45.3607 51.1496C45.3927 51.1496 45.4087 51.1976 45.4087 51.2456ZM52.0167 51.1496C52.0487 51.1816 52.0647 51.2136 52.0647 51.2616C52.0647 51.7096 52.0487 52.1576 52.0487 52.6056C52.0487 52.6536 52.0327 52.6856 52.0007 52.7176C51.9687 52.7496 51.9367 52.7656 51.8887 52.7496C50.8487 52.7336 49.8087 52.7336 48.7687 52.7176C48.7367 52.7176 48.7207 52.7336 48.7207 52.7656C48.7207 53.0856 48.7207 53.4056 48.7207 53.7256C48.7207 53.7576 48.7367 53.7736 48.7687 53.7736C49.4087 53.7736 50.0487 53.7736 50.6887 53.7896C50.7367 53.7896 50.7687 53.8056 50.8007 53.8376C50.8327 53.8696 50.8487 53.9016 50.8487 53.9496C50.8487 54.3976 50.8327 54.8296 50.8327 55.2776C50.8327 55.3256 50.8167 55.3576 50.7847 55.3896C50.7527 55.4216 50.7207 55.4376 50.6727 55.4376C50.0327 55.4376 49.3927 55.4216 48.7527 55.4216C48.7207 55.4216 48.7047 55.4376 48.7047 55.4696C48.7047 55.8216 48.7047 56.1736 48.7047 56.5416C48.7047 56.5736 48.7207 56.5896 48.7527 56.5896C49.7767 56.5896 50.8007 56.6056 51.8407 56.6216C51.8887 56.6216 51.9207 56.6376 51.9527 56.6696C51.9847 56.7016 52.0007 56.7336 51.9847 56.7816C51.9847 57.2296 51.9687 57.6776 51.9687 58.1256C51.9687 58.1736 51.9527 58.2056 51.9207 58.2376C51.8887 58.2696 51.8567 58.2856 51.8087 58.2696C50.1767 58.2536 48.5447 58.2376 46.9127 58.2376C46.8647 58.2376 46.8327 58.2216 46.8007 58.1896C46.7687 58.1576 46.7527 58.1256 46.7527 58.0776C46.7527 55.7896 46.7367 53.5016 46.7367 51.2136C46.7367 51.1656 46.7527 51.1336 46.7847 51.1016C46.8167 51.0696 46.8487 51.0536 46.8967 51.0536C48.5607 51.0536 50.2407 51.0536 51.9047 51.0856C51.9527 51.1016 52.0007 51.1176 52.0167 51.1496ZM57.8247 51.5176C57.4727 51.3096 57.0567 51.2136 56.5767 51.1976C55.5207 51.1656 54.4647 51.1496 53.3927 51.1336C53.3447 51.1336 53.3127 51.1496 53.2807 51.1656C53.2487 51.1976 53.2327 51.2296 53.2327 51.2776C53.2007 53.5656 53.1527 55.8536 53.1207 58.1416C53.1207 58.1896 53.1367 58.2216 53.1527 58.2536C53.1847 58.2856 53.2167 58.3016 53.2647 58.3016C53.8087 58.3176 54.3367 58.3176 54.8807 58.3336C54.9287 58.3336 54.9607 58.3176 54.9927 58.3016C55.0247 58.2696 55.0407 58.2376 55.0407 58.1896C55.0567 57.3416 55.0727 56.4936 55.1047 55.6456C55.1047 55.6136 55.1207 55.5976 55.1527 55.5976C55.2967 55.5976 55.4407 55.5976 55.5847 55.6136C55.6167 55.6136 55.6327 55.6296 55.6487 55.6616C56.0007 56.5416 56.3527 57.4216 56.7047 58.2856C56.7367 58.3656 56.7847 58.3976 56.8807 58.3976C57.4567 58.4136 58.0327 58.4296 58.6087 58.4456C58.6567 58.4456 58.6887 58.4456 58.7047 58.4136C58.7367 58.3976 58.7527 58.3656 58.7527 58.3336C58.7527 58.3336 58.7527 58.3016 58.7367 58.2536C58.3367 57.3416 57.9207 56.4296 57.5207 55.5016C57.5047 55.4696 57.5207 55.4376 57.5527 55.4376C57.9527 55.2936 58.2727 55.0536 58.4967 54.7336C58.7367 54.3976 58.8647 54.0136 58.8807 53.5656C58.8967 53.1176 58.8167 52.7176 58.6247 52.3656C58.4487 51.9976 58.1927 51.7256 57.8247 51.5176ZM56.7367 53.9656C56.5927 54.0776 56.4167 54.1416 56.1927 54.1256C55.8727 54.1096 55.5367 54.1096 55.2167 54.0936C55.1847 54.0936 55.1687 54.0776 55.1687 54.0456C55.1847 53.6456 55.1847 53.2456 55.2007 52.8456C55.2007 52.8136 55.2167 52.7976 55.2487 52.7976C55.5687 52.7976 55.9047 52.8136 56.2247 52.8296C56.4487 52.8296 56.6247 52.8936 56.7687 53.0216C56.8967 53.1496 56.9767 53.3096 56.9607 53.5016C56.9447 53.7096 56.8647 53.8536 56.7367 53.9656ZM63.6647 54.9416C63.6967 54.9736 63.6967 55.0056 63.6967 55.0536C63.6807 55.5016 63.6487 55.9336 63.6327 56.3816C63.6327 56.4296 63.6167 56.4616 63.5847 56.4936C63.5527 56.5256 63.5207 56.5256 63.4727 56.5256C62.2887 56.4616 61.1047 56.4136 59.9207 56.3656C59.8727 56.3656 59.8407 56.3496 59.8087 56.3176C59.7767 56.2856 59.7767 56.2536 59.7767 56.2056C59.7927 55.7576 59.8087 55.3256 59.8247 54.8776C59.8247 54.8296 59.8407 54.7976 59.8727 54.7656C59.9047 54.7336 59.9367 54.7336 59.9847 54.7336C61.1847 54.7816 62.3687 54.8296 63.5687 54.8936C63.6007 54.9096 63.6327 54.9256 63.6647 54.9416ZM70.6727 51.9496C70.7047 51.9816 70.7047 52.0136 70.7047 52.0616C70.5927 53.5656 70.4807 55.0696 70.3847 56.5736C70.3527 57.0856 70.1927 57.5176 69.9367 57.9016C69.6807 58.2696 69.3287 58.5576 68.8967 58.7336C68.4647 58.9096 67.9687 58.9896 67.4087 58.9576C66.8487 58.9256 66.3687 58.7816 65.9527 58.5576C65.5367 58.3176 65.2327 57.9976 65.0087 57.5976C64.8007 57.1976 64.7047 56.7336 64.7367 56.2216C64.8167 54.7176 64.8967 53.2136 64.9767 51.7096C64.9767 51.6616 64.9927 51.6296 65.0247 51.5976C65.0567 51.5656 65.0887 51.5656 65.1367 51.5656C65.6807 51.5976 66.2407 51.6296 66.7847 51.6616C66.8327 51.6616 66.8647 51.6776 66.8967 51.7096C66.9287 51.7416 66.9287 51.7736 66.9287 51.8216C66.8327 53.3256 66.7527 54.8296 66.6567 56.3336C66.6407 56.6056 66.7047 56.8456 66.8647 57.0216C67.0087 57.1976 67.2327 57.2936 67.4887 57.3096C67.7447 57.3256 67.9687 57.2616 68.1447 57.1016C68.3207 56.9416 68.4167 56.7336 68.4327 56.4456C68.5287 54.9416 68.6247 53.4376 68.7367 51.9336C68.7367 51.8856 68.7527 51.8536 68.7847 51.8216C68.8167 51.7896 68.8487 51.7896 68.8967 51.7896C69.4407 51.8216 70.0007 51.8696 70.5447 51.9016C70.6247 51.9016 70.6567 51.9176 70.6727 51.9496ZM77.2967 53.5816C77.1207 53.1976 76.8647 52.9096 76.4967 52.6696C76.1447 52.4456 75.7127 52.3016 75.2167 52.2696C74.1927 52.1736 73.1687 52.0936 72.1447 52.0136C72.0967 52.0136 72.0487 52.0136 72.0327 52.0456C72.0007 52.0776 71.9847 52.1096 71.9847 52.1576C71.8087 54.4456 71.6327 56.7176 71.4567 59.0056C71.4567 59.0536 71.4567 59.0856 71.4887 59.1176C71.5207 59.1496 71.5527 59.1656 71.6007 59.1656C72.1447 59.2136 72.6727 59.2456 73.2167 59.2936C73.2647 59.2936 73.2967 59.2936 73.3287 59.2616C73.3607 59.2296 73.3767 59.1976 73.3767 59.1496C73.4407 58.3816 73.5047 57.6136 73.5687 56.8456C73.5687 56.8136 73.5847 56.7976 73.6167 56.7976C73.9847 56.8296 74.3527 56.8616 74.7047 56.8936C75.2007 56.9416 75.6647 56.8776 76.0647 56.7336C76.4647 56.5736 76.7847 56.3336 77.0407 56.0136C77.2807 55.6936 77.4247 55.2936 77.4727 54.8456C77.5207 54.3656 77.4567 53.9496 77.2967 53.5816ZM75.2647 55.1976C75.1047 55.3096 74.8807 55.3576 74.6247 55.3416C74.3367 55.3096 74.0487 55.2936 73.7607 55.2616C73.7287 55.2616 73.7127 55.2456 73.7127 55.2136C73.7447 54.7656 73.7927 54.3016 73.8247 53.8536C73.8247 53.8216 73.8407 53.8056 73.8887 53.8056C74.1767 53.8376 74.4647 53.8536 74.7687 53.8856C75.0247 53.9016 75.2327 53.9976 75.3767 54.1416C75.5207 54.2856 75.5847 54.4776 75.5687 54.7016C75.5207 54.9096 75.4247 55.0856 75.2647 55.1976Z" fill="#F97777"/>
</svg>
