<svg width="96" height="97" viewBox="0 0 96 97" fill="none" xmlns="http://www.w3.org/2000/svg">
<path d="M94.2238 61.5177L93.1678 60.9737C90.7038 59.7097 87.9678 58.5737 85.0718 57.5977L84.7998 57.5017V50.8457V50.1737L84.1438 50.0617C83.7758 49.9977 83.3918 49.9337 83.0238 49.8697L83.8878 48.9417L84.4958 48.2857L83.8878 47.6297L81.4398 44.9897L83.3438 41.9177L83.8238 41.1497L83.0878 40.6217L80.1438 38.5257L81.4078 35.1497L81.7278 34.3017L80.9118 33.9337L77.6158 32.4457L78.2078 28.8777L78.3518 27.9977L77.4718 27.7897L73.9518 26.9737L73.8398 23.3577L73.8078 22.4617L72.9118 22.4297L69.2958 22.3177L68.4798 18.7977L68.2718 17.9177L67.3918 18.0617L63.8238 18.6537L62.3358 15.3577L61.9678 14.5417L61.1198 14.8617L57.7598 16.1417L55.6478 13.2137L55.1198 12.4777L54.3518 12.9577L51.2958 14.8457L48.6558 12.3817L47.9998 11.7737L47.3438 12.3817L44.7038 14.8457L41.6318 12.9417L40.8638 12.4617L40.3358 13.1977L38.2398 16.1417L34.8638 14.8777L34.0158 14.5577L33.6478 15.3737L32.1598 18.6697L28.5918 18.0777L27.7118 17.9337L27.5038 18.8137L26.6878 22.3337L23.0718 22.4457L22.1758 22.4777L22.1438 23.3737L22.0318 26.9897L18.5118 27.8057L17.6318 28.0137L17.7758 28.8937L18.3678 32.4617L15.0718 33.9497L14.2558 34.3177L14.5758 35.1657L15.8398 38.5417L12.9118 40.6537L12.1758 41.1817L12.6558 41.9497L14.5598 44.9897L12.0958 47.6297L11.4878 48.2857L12.0958 48.9417L12.9598 49.8697C12.5918 49.9337 12.2078 49.9977 11.8398 50.0617L11.1838 50.1737V50.8457V57.5017L10.9118 57.5977C8.01576 58.5737 5.29577 59.7097 2.81577 60.9737L1.75977 61.5177L2.65577 62.3017L6.89577 65.9657L5.15177 72.3497L4.71977 73.9657L6.25577 73.2937C10.3038 71.5337 14.7838 70.1417 19.5358 69.1817L19.8718 69.1177L22.0158 69.6137L22.1278 73.2297L22.1598 74.1257L23.0558 74.1577L26.6718 74.2697L27.4878 77.7897L27.6958 78.6697L28.5758 78.5257L32.1438 77.9337L33.6318 81.2297L33.9998 82.0457L34.8478 81.7257L38.2238 80.4617L40.3358 83.3897L40.8638 84.1257L41.6318 83.6457L44.7038 81.7417L47.3438 84.2057L47.9998 84.8137L48.6558 84.2057L51.2958 81.7417L54.3678 83.6457L55.1358 84.1257L55.6638 83.3897L57.7758 80.4617L61.1518 81.7257L61.9998 82.0457L62.3678 81.2297L63.8558 77.9337L67.4238 78.5257L68.3038 78.6697L68.5118 77.7897L69.3278 74.2697L72.9438 74.1577L73.8398 74.1257L73.8718 73.2297L73.9838 69.6137L76.1278 69.1177L76.4638 69.1817C81.2318 70.1417 85.6958 71.5337 89.7438 73.2937L91.2798 73.9657L90.8478 72.3497L89.1038 65.9657L93.3438 62.3017L94.2238 61.5177Z" fill="#3232FF"/>
<path d="M29.3916 31.1337C29.3596 30.9577 29.3756 30.7817 29.4556 30.6057C29.5196 30.4297 29.6476 30.2537 29.8076 30.0937C29.9836 29.9177 30.1596 29.8057 30.3676 29.7257C30.5596 29.6457 30.7516 29.6297 30.9436 29.6617C31.1356 29.6937 31.2956 29.7897 31.4396 29.9337L31.4876 29.9817C31.5036 29.9977 31.5036 30.0137 31.5036 30.0297C31.5036 30.0457 31.5036 30.0617 31.4876 30.0777L31.1036 30.4617C31.0876 30.4777 31.0716 30.4777 31.0556 30.4777C31.0396 30.4777 31.0236 30.4777 31.0076 30.4617L30.9756 30.4297C30.8796 30.3337 30.7676 30.2857 30.6236 30.3017C30.4796 30.3177 30.3356 30.3817 30.2076 30.5257C30.0956 30.6377 30.0476 30.7337 30.0316 30.8457C30.0156 30.9577 30.0476 31.0377 30.1276 31.1177C30.1916 31.1817 30.2556 31.1977 30.3196 31.2137C30.3996 31.2137 30.4796 31.1977 30.5756 31.1657C30.6716 31.1337 30.8156 31.0697 31.0236 30.9737C31.2476 30.8777 31.4236 30.7977 31.5516 30.7497C31.6956 30.7017 31.8396 30.6857 31.9996 30.7017C32.1596 30.7177 32.3196 30.7977 32.4636 30.9417C32.6716 31.1497 32.7676 31.4057 32.7356 31.6777C32.7036 31.9497 32.5596 32.2377 32.2876 32.4937C32.1116 32.6697 31.9196 32.7977 31.7276 32.8777C31.5356 32.9577 31.3436 32.9737 31.1676 32.9417C30.9916 32.9097 30.8316 32.8137 30.6876 32.6697L30.6076 32.5897C30.5916 32.5737 30.5916 32.5577 30.5916 32.5417C30.5916 32.5257 30.5916 32.5097 30.6076 32.4937L30.9916 32.1097C31.0076 32.0937 31.0236 32.0937 31.0396 32.0937C31.0556 32.0937 31.0716 32.0937 31.0876 32.1097L31.1356 32.1577C31.2316 32.2537 31.3436 32.2857 31.4876 32.2537C31.6316 32.2377 31.7756 32.1577 31.9196 32.0137C32.0476 31.9017 32.1116 31.7737 32.1116 31.6617C32.1276 31.5497 32.0796 31.4537 32.0156 31.3897C31.9676 31.3417 31.9036 31.3097 31.8236 31.3097C31.7436 31.3097 31.6636 31.3257 31.5836 31.3577C31.4876 31.3897 31.3596 31.4537 31.1676 31.5337C30.9596 31.6297 30.7836 31.7097 30.6236 31.7577C30.4636 31.8057 30.3036 31.8217 30.1436 31.8057C29.9836 31.7897 29.8236 31.7097 29.6956 31.5657C29.5196 31.4697 29.4236 31.3097 29.3916 31.1337ZM31.4556 28.6697C31.4396 28.6537 31.4396 28.6377 31.4396 28.6217C31.4396 28.6057 31.4556 28.5897 31.4556 28.5897L32.5276 27.7577C32.6876 27.6297 32.8636 27.5497 33.0556 27.5177C33.2316 27.4857 33.4076 27.5177 33.5676 27.5817C33.7276 27.6457 33.8876 27.7737 33.9996 27.9337C34.1276 28.0937 34.1916 28.2697 34.2236 28.4457C34.2396 28.6217 34.2236 28.7977 34.1436 28.9577C34.0636 29.1177 33.9356 29.2777 33.7756 29.4057L33.2316 29.8217C33.2156 29.8377 33.2156 29.8377 33.2316 29.8537L33.9836 30.8297C33.9996 30.8457 33.9996 30.8617 33.9996 30.8777C33.9996 30.8937 33.9836 30.9097 33.9836 30.9097L33.5356 31.2457C33.5196 31.2617 33.5036 31.2617 33.4876 31.2617C33.4716 31.2617 33.4556 31.2457 33.4556 31.2457L31.4556 28.6697ZM32.3356 28.7017L32.8796 29.4057C32.8956 29.4217 32.8956 29.4217 32.9116 29.4057L33.3916 29.0377C33.5036 28.9417 33.5836 28.8457 33.5996 28.7177C33.6156 28.5897 33.5836 28.4777 33.5036 28.3657C33.4236 28.2537 33.3116 28.1897 33.1836 28.1737C33.0556 28.1577 32.9436 28.2057 32.8156 28.2857L32.3356 28.6537C32.3196 28.6697 32.3196 28.6857 32.3356 28.7017ZM34.6556 26.3337L34.1756 26.6217C34.1596 26.6377 34.1596 26.6377 34.1436 26.6537C34.1436 26.6697 34.1436 26.6857 34.1436 26.7017L35.7756 29.5017C35.7916 29.5177 35.7916 29.5177 35.8076 29.5337C35.8236 29.5337 35.8396 29.5337 35.8556 29.5337L37.7596 28.4137C37.7756 28.4137 37.7756 28.3977 37.7916 28.3817C37.8076 28.3657 37.7916 28.3497 37.7916 28.3337L37.5516 27.9337C37.5356 27.9177 37.5356 27.9177 37.5196 27.9017C37.5036 27.8857 37.4876 27.9017 37.4716 27.9017L36.1116 28.7017C36.0956 28.7177 36.0796 28.7017 36.0796 28.6857L34.7196 26.3497C34.7036 26.3337 34.7036 26.3337 34.6876 26.3177C34.6876 26.3177 34.6716 26.3177 34.6556 26.3337ZM38.1116 28.1417L37.8396 24.7497C37.8396 24.7177 37.8556 24.7017 37.8716 24.6857L38.5756 24.3977C38.6076 24.3817 38.6236 24.3977 38.6556 24.4137L40.8476 27.0217L40.8636 27.0377C40.8796 27.0697 40.8636 27.0857 40.8316 27.1017L40.2716 27.3417C40.2396 27.3577 40.2236 27.3417 40.1916 27.3257L39.8716 26.9417C39.8556 26.9257 39.8556 26.9257 39.8396 26.9257L38.7516 27.3737C38.7356 27.3737 38.7356 27.3897 38.7356 27.4057L38.7836 27.9017C38.7836 27.9337 38.7676 27.9657 38.7516 27.9657L38.1916 28.2057C38.1756 28.2057 38.1596 28.2057 38.1436 28.2057C38.1116 28.1737 38.1116 28.1577 38.1116 28.1417ZM38.5276 25.3257L38.6876 26.7977C38.6876 26.8137 38.7036 26.8297 38.7196 26.8137L39.5036 26.4937C39.5196 26.4937 39.5196 26.4777 39.5036 26.4617L38.5596 25.3097C38.5596 25.2937 38.5436 25.2937 38.5436 25.2937C38.5276 25.3097 38.5276 25.3097 38.5276 25.3257ZM40.7196 23.7257C40.5756 23.8377 40.4636 23.9817 40.3996 24.1577C40.3356 24.3177 40.3356 24.4937 40.3836 24.6857C40.4316 24.8777 40.5276 25.0217 40.6556 25.1177C40.7836 25.2137 40.9276 25.2937 41.1036 25.3257C41.2636 25.3577 41.4556 25.3897 41.6956 25.4057C41.9036 25.4217 42.0476 25.4377 42.1436 25.4537C42.2396 25.4697 42.3196 25.5017 42.3836 25.5337C42.4476 25.5657 42.4956 25.6297 42.5116 25.6937C42.5436 25.7897 42.5276 25.8857 42.4636 25.9817C42.3996 26.0777 42.2876 26.1417 42.1276 26.1897C41.9356 26.2377 41.7596 26.2377 41.6316 26.1897C41.4876 26.1417 41.4076 26.0457 41.3756 25.9177L41.3596 25.8537C41.3596 25.8377 41.3436 25.8217 41.3276 25.8217C41.3116 25.8217 41.2956 25.8057 41.2796 25.8217L40.7516 25.9657C40.7356 25.9657 40.7196 25.9817 40.7196 25.9977C40.7196 26.0137 40.7036 26.0297 40.7196 26.0457L40.7516 26.1417C40.7996 26.3337 40.8956 26.4937 41.0396 26.6057C41.1836 26.7337 41.3596 26.7977 41.5516 26.8297C41.7596 26.8617 41.9836 26.8457 42.2396 26.7817C42.6076 26.6857 42.8636 26.5257 43.0396 26.3017C43.2156 26.0777 43.2476 25.8217 43.1676 25.5337C43.1196 25.3417 43.0236 25.1977 42.8956 25.1017C42.7676 25.0057 42.6236 24.9417 42.4796 24.9097C42.3356 24.8777 42.1436 24.8617 41.9036 24.8297C41.6796 24.8137 41.5196 24.7977 41.4236 24.7817C41.3116 24.7657 41.2316 24.7337 41.1676 24.7017C41.1036 24.6697 41.0716 24.6057 41.0396 24.5257C41.0076 24.4137 41.0236 24.3177 41.0876 24.2377C41.1516 24.1577 41.2636 24.0937 41.4076 24.0457C41.5996 23.9977 41.7436 23.9977 41.8876 24.0617C42.0156 24.1257 42.0956 24.2217 42.1436 24.3497L42.1596 24.3817C42.1596 24.3977 42.1756 24.4137 42.1916 24.4137C42.2076 24.4137 42.2236 24.4297 42.2396 24.4137L42.7676 24.2697C42.7836 24.2697 42.7996 24.2537 42.7996 24.2377C42.7996 24.2217 42.8156 24.2057 42.7996 24.1897L42.7836 24.1257C42.7356 23.9337 42.6396 23.7737 42.4956 23.6457C42.3516 23.5177 42.1756 23.4377 41.9676 23.4057C41.7596 23.3737 41.5356 23.3897 41.3116 23.4537C41.0556 23.5177 40.8796 23.5977 40.7196 23.7257ZM43.4716 22.9897C43.4556 23.0057 43.4556 23.0217 43.4556 23.0377L43.8716 26.2537C43.8716 26.2697 43.8876 26.2857 43.8876 26.2857C43.9036 26.3017 43.9196 26.3017 43.9356 26.3017L44.4956 26.2217C44.5116 26.2217 44.5276 26.2057 44.5276 26.2057C44.5436 26.1897 44.5436 26.1737 44.5436 26.1577L44.3676 24.8457C44.3676 24.8297 44.3676 24.8137 44.3836 24.8137L45.4396 24.6697C45.4556 24.6697 45.4716 24.6697 45.4716 24.6857L45.6476 25.9977C45.6476 26.0137 45.6636 26.0297 45.6636 26.0297C45.6796 26.0457 45.6956 26.0457 45.7116 26.0457L46.2716 25.9657C46.2876 25.9657 46.3036 25.9497 46.3036 25.9497C46.3196 25.9337 46.3196 25.9177 46.3196 25.9017L45.9036 22.6857C45.9036 22.6697 45.8876 22.6537 45.8876 22.6537C45.8716 22.6377 45.8556 22.6377 45.8396 22.6377L45.2796 22.7177C45.2636 22.7177 45.2476 22.7337 45.2476 22.7337C45.2316 22.7497 45.2316 22.7657 45.2316 22.7817L45.3916 24.0617C45.3916 24.0777 45.3916 24.0937 45.3756 24.0937L44.3196 24.2377C44.3036 24.2377 44.2876 24.2377 44.2876 24.2217L44.1276 22.9417C44.1276 22.9257 44.1116 22.9097 44.1116 22.9097C44.0956 22.8937 44.0796 22.8937 44.0636 22.8937L43.5036 22.9737C43.4876 22.9737 43.4716 22.9737 43.4716 22.9897ZM47.8556 25.8537L49.0876 22.6697C49.1036 22.6377 49.1196 22.6217 49.1516 22.6217L49.9036 22.6697C49.9356 22.6697 49.9516 22.6857 49.9676 22.7177L50.8156 26.0137C50.8156 26.0137 50.8156 26.0297 50.8156 26.0457C50.8156 26.0777 50.7996 26.0937 50.7676 26.0937L50.1596 26.0617C50.1276 26.0617 50.1116 26.0457 50.0956 26.0137L49.9836 25.5337C49.9836 25.5177 49.9676 25.5177 49.9676 25.5177L48.7836 25.4537C48.7676 25.4537 48.7676 25.4537 48.7516 25.4697L48.5916 25.9337C48.5756 25.9657 48.5596 25.9817 48.5276 25.9817L47.9196 25.9497C47.9036 25.9497 47.8876 25.9497 47.8716 25.9337C47.8396 25.8857 47.8396 25.8697 47.8556 25.8537ZM48.9436 24.8937C48.9436 24.9097 48.9436 24.9257 48.9596 24.9257L49.8076 24.9737C49.8236 24.9737 49.8396 24.9577 49.8236 24.9417L49.4716 23.4857C49.4716 23.4697 49.4716 23.4697 49.4556 23.4697C49.4556 23.4697 49.4396 23.4697 49.4396 23.4857L48.9436 24.8937ZM51.7916 26.2057C51.7916 26.2377 51.8076 26.2537 51.8396 26.2697L52.3676 26.3817C52.3996 26.3817 52.4316 26.3817 52.4476 26.3497L53.3436 24.4297C53.3436 24.4137 53.3596 24.4137 53.3596 24.4137L53.3756 24.4297L53.4076 26.5577C53.4076 26.5897 53.4236 26.6057 53.4556 26.6217L54.0156 26.7497C54.0476 26.7497 54.0796 26.7497 54.0956 26.7177L55.5676 23.7097C55.5836 23.6777 55.5676 23.6457 55.5356 23.6297L54.9756 23.5017C54.9436 23.5017 54.9276 23.5017 54.8956 23.5337L54.0476 25.3417C54.0476 25.3577 54.0316 25.3577 54.0316 25.3577L54.0156 25.3417L53.9676 23.3257C53.9676 23.2937 53.9516 23.2777 53.9196 23.2617L53.3596 23.1337C53.3276 23.1337 53.3116 23.1337 53.2796 23.1657L52.4316 24.9737C52.4316 24.9897 52.4156 24.9897 52.4156 24.9897L52.3996 24.9737L52.3836 22.9737C52.3836 22.9417 52.3676 22.9257 52.3356 22.9097L51.7596 22.7817C51.7276 22.7817 51.7116 22.7817 51.6956 22.8137V22.8297L51.7916 26.2057ZM54.6076 26.8297L56.7356 24.1737C56.7516 24.1417 56.7836 24.1417 56.8156 24.1577L57.5196 24.4297C57.5516 24.4457 57.5676 24.4617 57.5676 24.4937L57.3756 27.9017C57.3756 27.9017 57.3756 27.9177 57.3756 27.9337C57.3596 27.9657 57.3436 27.9657 57.3116 27.9497L56.7356 27.7257C56.7036 27.7097 56.6876 27.6937 56.6876 27.6617L56.7196 27.1657C56.7196 27.1497 56.7196 27.1497 56.7036 27.1337L55.5996 26.7177C55.5836 26.7177 55.5836 26.7177 55.5676 26.7337L55.2636 27.1177C55.2476 27.1497 55.2156 27.1497 55.1836 27.1337L54.6076 26.9097C54.5916 26.9097 54.5756 26.8937 54.5756 26.8777C54.5916 26.8777 54.5916 26.8617 54.6076 26.8297ZM55.9516 26.2857L56.7356 26.5897C56.7516 26.5897 56.7676 26.5897 56.7676 26.5737L56.8796 25.0857C56.8796 25.0697 56.8796 25.0697 56.8796 25.0697C56.8796 25.0697 56.8636 25.0697 56.8636 25.0857L55.9676 26.2697C55.9356 26.2697 55.9356 26.2697 55.9516 26.2857ZM59.4076 25.2457L60.6076 25.9017C60.7836 25.9977 60.9276 26.1257 61.0236 26.2697C61.1196 26.4137 61.1676 26.5737 61.1676 26.7497C61.1676 26.9257 61.1196 27.1017 61.0236 27.2777C60.9116 27.4697 60.7836 27.5977 60.6076 27.6937C60.4316 27.7737 60.2556 27.8057 60.0476 27.7577C60.0316 27.7577 60.0156 27.7577 60.0156 27.7737L59.9356 29.2777C59.9356 29.2937 59.9356 29.3097 59.9356 29.3097C59.9196 29.3257 59.9036 29.3417 59.8716 29.3257L59.3596 29.0377C59.3276 29.0217 59.3116 29.0057 59.3276 28.9737L59.4396 27.5177C59.4396 27.5017 59.4396 27.4857 59.4236 27.4857L59.0396 27.2777C59.0236 27.2777 59.0076 27.2777 59.0076 27.2937L58.3676 28.4457C58.3676 28.4617 58.3516 28.4617 58.3356 28.4777C58.3196 28.4777 58.3036 28.4777 58.2876 28.4777L57.7916 28.2057C57.7756 28.2057 57.7756 28.1897 57.7596 28.1737C57.7596 28.1577 57.7596 28.1417 57.7596 28.1257L59.3276 25.2777C59.3276 25.2617 59.3436 25.2617 59.3596 25.2457C59.3756 25.2297 59.3916 25.2297 59.4076 25.2457ZM59.6636 26.0777L59.2636 26.7977C59.2636 26.8137 59.2636 26.8297 59.2796 26.8297L59.8236 27.1337C59.9356 27.1977 60.0636 27.2137 60.1756 27.1817C60.2876 27.1497 60.3836 27.0857 60.4316 26.9737C60.4956 26.8617 60.5116 26.7497 60.4796 26.6377C60.4476 26.5257 60.3676 26.4297 60.2556 26.3657L59.7116 26.0617C59.6796 26.0457 59.6636 26.0617 59.6636 26.0777ZM63.6796 29.1977L62.8956 30.2697C62.7836 30.4297 62.6236 30.5417 62.4636 30.6057C62.2876 30.6697 62.1116 30.6857 61.9196 30.6377C61.7276 30.6057 61.5356 30.5097 61.3436 30.3657L60.3836 29.6457C60.3676 29.6297 60.3676 29.6297 60.3676 29.6137C60.3676 29.5977 60.3676 29.5817 60.3836 29.5657L62.3196 26.9577C62.3356 26.9417 62.3356 26.9417 62.3516 26.9417C62.3676 26.9417 62.3836 26.9417 62.3996 26.9577L63.3596 27.6777C63.5516 27.8217 63.6956 27.9817 63.7916 28.1577C63.8876 28.3337 63.9356 28.5097 63.9196 28.7017C63.8716 28.8617 63.8076 29.0377 63.6796 29.1977ZM63.1996 28.4937C63.1836 28.3657 63.1196 28.2537 62.9916 28.1577L62.5276 27.8217C62.5116 27.8057 62.4956 27.8217 62.4956 27.8217L61.2156 29.5497C61.1996 29.5657 61.2156 29.5817 61.2156 29.5817L61.6796 29.9337C61.7916 30.0137 61.9196 30.0457 62.0476 30.0297C62.1756 29.9977 62.3036 29.9177 62.3996 29.7897L63.0556 28.9097C63.1676 28.7497 63.2156 28.6217 63.1996 28.4937ZM64.0956 30.0777C64.0796 30.2377 64.0956 30.3977 64.1436 30.5577C64.1916 30.7177 64.2716 30.8937 64.3836 31.1017C64.4796 31.2937 64.5276 31.4217 64.5756 31.5177C64.6076 31.6137 64.6236 31.6937 64.6236 31.7577C64.6236 31.8377 64.5916 31.9017 64.5436 31.9497C64.4636 32.0297 64.3836 32.0617 64.2716 32.0617C64.1596 32.0617 64.0476 31.9977 63.9196 31.8697C63.7756 31.7257 63.6956 31.5817 63.6636 31.4377C63.6316 31.2937 63.6796 31.1657 63.7596 31.0857L63.8076 31.0377C63.8236 31.0217 63.8236 31.0057 63.8236 30.9897C63.8236 30.9737 63.8236 30.9577 63.8076 30.9417L63.4076 30.5577C63.3916 30.5417 63.3756 30.5417 63.3596 30.5417C63.3436 30.5417 63.3276 30.5417 63.3116 30.5577L63.2316 30.6377C63.0876 30.7817 63.0076 30.9417 62.9756 31.1337C62.9436 31.3097 62.9756 31.5017 63.0556 31.6937C63.1356 31.8857 63.2636 32.0777 63.4556 32.2537C63.7276 32.5097 63.9996 32.6537 64.2876 32.6857C64.5756 32.7177 64.8156 32.6217 65.0236 32.3977C65.1676 32.2537 65.2476 32.0937 65.2476 31.9337C65.2636 31.7737 65.2476 31.6137 65.1996 31.4857C65.1516 31.3417 65.0716 31.1657 64.9756 30.9577C64.8796 30.7657 64.8156 30.6217 64.7676 30.5097C64.7196 30.4137 64.7036 30.3177 64.7036 30.2537C64.7036 30.1737 64.7356 30.1097 64.7836 30.0617C64.8636 29.9817 64.9596 29.9497 65.0556 29.9657C65.1676 29.9817 65.2636 30.0297 65.3756 30.1417C65.5196 30.2697 65.5836 30.4137 65.5996 30.5577C65.6156 30.7017 65.5676 30.8297 65.4876 30.9257L65.4556 30.9577C65.4396 30.9737 65.4396 30.9897 65.4396 31.0057C65.4396 31.0217 65.4396 31.0377 65.4556 31.0537L65.8556 31.4377C65.8716 31.4537 65.8876 31.4537 65.9036 31.4537C65.9196 31.4537 65.9356 31.4537 65.9516 31.4377L65.9996 31.3897C66.1436 31.2457 66.2236 31.0697 66.2556 30.8937C66.2876 30.7017 66.2556 30.5097 66.1916 30.3177C66.1116 30.1257 65.9836 29.9337 65.8076 29.7737C65.6476 29.6137 65.4716 29.5017 65.2956 29.4377C65.1196 29.3737 64.9436 29.3577 64.7676 29.3897C64.5916 29.4217 64.4476 29.5177 64.3036 29.6457C64.2076 29.7577 64.1276 29.9177 64.0956 30.0777ZM20.2716 67.9017V63.3577C17.7276 63.6777 15.2636 64.0457 12.8796 64.4457L20.2716 67.9017ZM88.3676 65.5177L92.7996 61.6937C90.3356 60.4297 87.6476 59.3097 84.8156 58.3657V64.2697C84.8316 64.4297 84.7356 64.5897 84.5756 64.6537L76.5916 68.3817C81.3916 69.3577 85.9036 70.7497 90.0316 72.5577L88.2236 65.9337C88.2076 65.7897 88.2556 65.6297 88.3676 65.5177ZM11.1676 64.2697V58.3657C8.33559 59.3257 5.66359 60.4297 3.18359 61.6937L7.61559 65.5177C7.72759 65.6137 7.77559 65.7737 7.74359 65.9337L5.93559 72.5577C10.0636 70.7657 14.5756 69.3577 19.3756 68.3817L11.3916 64.6537C11.2476 64.5897 11.1676 64.4297 11.1676 64.2697ZM84.0156 63.7737V50.8457C73.3276 48.9577 60.8796 47.9657 47.9996 47.9657C35.1196 47.9657 22.6716 48.9577 11.9836 50.8617V63.7897C15.4396 63.1817 19.0716 62.6697 22.8476 62.2537C22.6396 62.4297 22.5916 62.7177 22.7196 62.9577C22.8636 63.2137 23.1836 63.3097 23.4556 63.1817C23.6476 63.0857 23.7596 62.8937 23.7596 62.6857C23.7596 62.6057 23.7436 62.5097 23.6956 62.4297C23.6796 62.4137 23.6796 62.3817 23.6636 62.3657C23.6156 62.2857 23.5356 62.2217 23.4556 62.1897C31.1996 61.3577 39.5036 60.9257 47.9996 60.9257C56.4796 60.9257 64.7676 61.3577 72.4956 62.1897C72.4476 62.2217 72.3996 62.2697 72.3676 62.3177C72.3356 62.3657 72.3196 62.3977 72.3036 62.4457C72.2076 62.7337 72.3676 63.0537 72.6556 63.1497C72.9276 63.2457 73.1996 63.1177 73.3276 62.8777C73.3756 62.7977 73.3916 62.7017 73.3916 62.6217C73.3916 62.4937 73.3436 62.3657 73.2636 62.2697C76.9916 62.6697 80.5916 63.1817 84.0156 63.7737ZM75.7276 63.3577V67.9017L83.1196 64.4457C80.7356 64.0457 78.2716 63.6777 75.7276 63.3577ZM48.1916 29.4217L51.1676 32.3817C52.8156 34.0137 52.8316 36.6697 51.1996 38.3177C50.3836 39.1337 49.3116 39.5497 48.2396 39.5657C47.1676 39.5657 46.0956 39.1657 45.2636 38.3497C43.6156 36.7177 43.5996 34.0617 45.2316 32.4137L48.1916 29.4217ZM48.2076 31.1497L46.1116 33.2617C45.5516 33.8217 45.2476 34.5737 45.2476 35.3737C45.2476 36.1737 45.5676 36.9097 46.1276 37.4697C47.2956 38.6217 49.1836 38.6217 50.3356 37.4537C50.8956 36.8937 51.1996 36.1417 51.1996 35.3417C51.1996 34.5417 50.8796 33.8057 50.3196 33.2457L48.2076 31.1497ZM42.1756 44.1257L54.3516 44.0617V42.8457L42.1756 42.9097V44.1257ZM56.4156 37.4217C55.5196 38.3177 54.4956 39.0537 53.4076 39.6137C54.3676 38.4457 54.9436 36.9577 54.9276 35.3417H53.7116C53.7276 38.3657 51.2796 40.8297 48.2556 40.8457C45.2316 40.8617 42.7676 38.4137 42.7516 35.3897H41.5356C41.5516 37.0057 42.1276 38.4937 43.1036 39.6457C41.9996 39.1017 40.9756 38.3817 40.0636 37.4857L39.1996 38.3657C41.6316 40.7657 44.8476 42.0777 48.2556 42.0617C51.6796 42.0457 54.8796 40.7017 57.2796 38.2697L56.4156 37.4217ZM48.5596 66.0297L47.9996 64.2857L47.4396 66.0297H45.5996L47.0876 67.1017L46.5276 68.8457L48.0156 67.7737L49.5036 68.8457L48.9436 67.1017L50.4316 66.0297H48.5596ZM41.1836 65.2937L40.7996 64.1257L40.4156 65.2937H39.1996L40.1916 66.0137L39.8076 67.1817L40.7996 66.4617L41.7916 67.1817L41.4076 66.0137L42.3996 65.2937H41.1836ZM26.6876 36.2857L27.6796 35.5657L28.6716 36.2857L28.2876 35.1177L29.2796 34.3977H28.0636L27.6796 33.2457L27.2956 34.4137H26.0796L27.0716 35.1337L26.6876 36.2857ZM55.5836 65.2937L55.1996 64.1257L54.8156 65.2937H53.5996L54.5916 66.0137L54.2076 67.1817L55.1996 66.4617L56.1916 67.1817L55.8076 66.0137L56.7996 65.2937H55.5836ZM67.3276 36.2857L68.3196 35.5657L69.3116 36.2857L68.9276 35.1177L69.9196 34.3977H68.7036L68.3196 33.2457L67.9356 34.4137H66.7196L67.7116 35.1337L67.3276 36.2857ZM50.3356 20.3017C50.6076 20.3337 50.8636 20.1577 50.9436 19.8857C50.9596 19.8377 50.9596 19.7897 50.9596 19.7577C50.9596 19.5017 50.7836 19.2777 50.5436 19.2137C50.4956 19.1977 50.4476 19.1977 50.4156 19.1977C50.1116 19.1977 49.8556 19.4537 49.8556 19.7577C49.8396 20.0297 50.0476 20.2697 50.3356 20.3017ZM75.7916 44.0937C75.7916 44.1577 75.8076 44.2217 75.8236 44.2697C75.9196 44.5577 76.2396 44.7177 76.5276 44.6217C76.7676 44.5417 76.9116 44.3337 76.9116 44.0937C76.9116 44.0617 76.9116 44.0457 76.9116 44.0137C76.8796 43.7417 76.6396 43.5337 76.3516 43.5337C76.0316 43.5337 75.7916 43.7897 75.7916 44.0937ZM71.8556 64.1737C71.5996 64.0137 71.2636 64.0617 71.0876 64.3177C70.9116 64.5577 70.9596 64.8937 71.1996 65.0697C71.4396 65.2617 71.7916 65.2297 71.9836 64.9897C71.9996 64.9737 71.9996 64.9577 72.0156 64.9577C72.0796 64.8617 72.1116 64.7497 72.1116 64.6537C72.0956 64.4617 72.0156 64.2697 71.8556 64.1737ZM75.3436 41.8377C75.3916 42.0937 75.6156 42.3017 75.8876 42.3017C76.1916 42.3017 76.4476 42.0457 76.4476 41.7417C76.4476 41.6777 76.4316 41.6137 76.4156 41.5657C76.3196 41.2777 75.9996 41.1177 75.7116 41.2137C75.4556 41.2937 75.2956 41.5657 75.3436 41.8377ZM69.6796 66.1737C69.4876 66.3977 69.4876 66.7337 69.6956 66.9417C69.9196 67.1657 70.2716 67.1657 70.4796 66.9417C70.4956 66.9257 70.5116 66.9097 70.5276 66.8937C70.6076 66.7977 70.6556 66.6697 70.6556 66.5417C70.6556 66.3817 70.5916 66.2217 70.4476 66.1097C70.2076 65.9177 69.8716 65.9497 69.6796 66.1737ZM45.5356 20.3017C45.5836 20.3017 45.6476 20.3017 45.6956 20.2857C45.9356 20.2217 46.0956 19.9977 46.0956 19.7577C46.0956 19.7097 46.0956 19.6617 46.0796 19.5977C45.9996 19.3257 45.7436 19.1657 45.4716 19.1977C45.1996 19.2297 44.9756 19.4697 44.9756 19.7577C44.9756 20.0617 45.2316 20.3017 45.5356 20.3017ZM76.0316 46.4777C76.0316 46.5257 76.0316 46.5897 76.0476 46.6377C76.1276 46.9257 76.4476 47.1017 76.7356 47.0217C76.9756 46.9577 77.1356 46.7337 77.1356 46.4937C77.1356 46.4777 77.1356 46.4457 77.1356 46.4297C77.1036 46.1577 76.8636 45.9337 76.5756 45.9337C76.2876 45.9177 76.0316 46.1737 76.0316 46.4777ZM43.2476 20.6057C43.5196 20.5577 43.7116 20.3337 43.7116 20.0617C43.7116 19.7577 43.4556 19.5017 43.1516 19.5017C43.1036 19.5017 43.0396 19.5017 42.9916 19.5177C42.7036 19.5977 42.5276 19.9177 42.6076 20.2057C42.7036 20.4777 42.9756 20.6537 43.2476 20.6057ZM76.6396 48.3177C76.3356 48.3177 76.0796 48.5737 76.0796 48.8777C76.0796 49.1817 76.3356 49.4377 76.6396 49.4377C76.9436 49.4377 77.1996 49.1817 77.1996 48.8777C77.1996 48.5737 76.9596 48.3177 76.6396 48.3177ZM47.9356 20.2057C47.9516 20.2057 47.9516 20.2057 47.9676 20.2057C47.9836 20.2057 47.9836 20.2057 47.9996 20.2057C48.3036 20.2057 48.5596 19.9497 48.5596 19.6457C48.5596 19.3417 48.3036 19.0857 47.9996 19.0857C47.9836 19.0857 47.9836 19.0857 47.9676 19.0857C47.9516 19.0857 47.9516 19.0857 47.9356 19.0857C47.6316 19.0857 47.3756 19.3417 47.3756 19.6457C47.3756 19.9497 47.6316 20.2057 47.9356 20.2057ZM73.8876 37.3577C73.9036 37.4057 73.9196 37.4537 73.9516 37.4857C74.1276 37.7417 74.4636 37.8057 74.7196 37.6457C74.8796 37.5337 74.9756 37.3577 74.9756 37.1817C74.9756 37.1017 74.9596 37.0217 74.9276 36.9417C74.8156 36.6857 74.5116 36.5577 74.2396 36.6537C73.9516 36.7497 73.7916 37.0697 73.8876 37.3577ZM70.4316 31.3577C70.6556 31.5817 71.0076 31.5817 71.2156 31.3577C71.3276 31.2457 71.3756 31.1017 71.3756 30.9577C71.3756 30.8297 71.3276 30.7177 71.2476 30.6057C71.0716 30.3817 70.7516 30.3337 70.4956 30.4937C70.2396 30.6697 70.1756 31.0057 70.3356 31.2617C70.3836 31.3097 70.3996 31.3417 70.4316 31.3577ZM72.4956 33.4057C72.6556 33.2937 72.7516 33.1177 72.7516 32.9417C72.7516 32.8297 72.7196 32.7337 72.6556 32.6377C72.4796 32.3817 72.1436 32.3177 71.8876 32.4777C71.6316 32.6537 71.5676 32.9897 71.7276 33.2457C71.9036 33.5017 72.2396 33.5657 72.4956 33.4057ZM68.9756 29.5817C69.2316 29.7577 69.5836 29.6777 69.7436 29.4217C69.8076 29.3257 69.8396 29.2137 69.8396 29.1177C69.8396 28.9737 69.7916 28.8457 69.6796 28.7337C69.5036 28.5417 69.1996 28.4937 68.9596 28.6537C68.7036 28.8297 68.6396 29.1657 68.7996 29.4217C68.8636 29.4857 68.9116 29.5497 68.9756 29.5817ZM63.5516 24.8937C63.8076 25.0697 64.1596 24.9897 64.3196 24.7337C64.3836 24.6377 64.4156 24.5257 64.4156 24.4297C64.4156 24.2537 64.3356 24.0777 64.1596 23.9657C63.9036 23.7897 63.5516 23.8697 63.3916 24.1257C63.2156 24.3657 63.2956 24.7177 63.5516 24.8937ZM59.4076 22.6217C59.6476 22.7337 59.9516 22.6537 60.1116 22.4297C60.1756 22.3337 60.2076 22.2217 60.2076 22.1257C60.2076 21.9497 60.1276 21.7737 59.9516 21.6617C59.9036 21.6297 59.8716 21.6137 59.8236 21.5977C59.5356 21.5017 59.2156 21.6617 59.1196 21.9497C59.0396 22.2057 59.1676 22.4937 59.4076 22.6217ZM67.9196 27.8697C68.0796 27.7577 68.1756 27.5817 68.1756 27.4057C68.1756 27.2937 68.1436 27.1977 68.0796 27.1017C68.0316 27.0377 67.9836 26.9897 67.9196 26.9417C67.6636 26.7657 67.3116 26.8457 67.1516 27.1017C66.9916 27.3257 67.0396 27.6297 67.2316 27.8217C67.4076 27.9817 67.6956 28.0137 67.9196 27.8697ZM61.4876 23.6457C61.5356 23.6777 61.5676 23.6937 61.6156 23.7097C61.9036 23.8057 62.2236 23.6457 62.3196 23.3577C62.3356 23.2937 62.3516 23.2457 62.3516 23.1817C62.3516 22.9737 62.2396 22.7817 62.0476 22.6857C61.7916 22.5577 61.4876 22.6377 61.3276 22.8777C61.1676 23.1337 61.2316 23.4697 61.4876 23.6457ZM73.5676 35.5337C73.8076 35.4537 73.9516 35.2457 73.9516 35.0057C73.9516 34.9417 73.9356 34.8937 73.9196 34.8297C73.9036 34.7817 73.8876 34.7337 73.8556 34.7017C73.6796 34.4457 73.3436 34.3817 73.0876 34.5417C72.8476 34.7017 72.7676 35.0057 72.8956 35.2617C73.0236 35.5017 73.3116 35.6297 73.5676 35.5337ZM74.7196 39.5817C74.7996 39.8697 75.1036 40.0297 75.3916 39.9657C75.6476 39.9017 75.8076 39.6777 75.8076 39.4217C75.8076 39.3737 75.8076 39.3257 75.7916 39.2937C75.7916 39.2777 75.7916 39.2617 75.7756 39.2457C75.6796 38.9577 75.3596 38.7977 75.0716 38.8937C74.7836 38.9897 74.6396 39.2937 74.7196 39.5817ZM57.2476 21.7577C57.2636 21.7577 57.2796 21.7737 57.2956 21.7737C57.5996 21.8537 57.9036 21.6617 57.9676 21.3737C57.9836 21.3257 57.9836 21.2777 57.9836 21.2457C57.9836 21.0057 57.8236 20.7817 57.5836 20.7177C57.2956 20.6377 56.9916 20.7977 56.8956 21.0697C56.7996 21.3417 56.9596 21.6617 57.2476 21.7577ZM54.9436 21.0697C55.0076 21.0857 55.0556 21.1017 55.1196 21.1017C55.4236 21.1017 55.6796 20.8457 55.6796 20.5417C55.6796 20.2697 55.4876 20.0457 55.2156 19.9977C54.9436 19.9497 54.6716 20.1097 54.5916 20.3657C54.4956 20.6537 54.6556 20.9737 54.9436 21.0697ZM68.0796 67.9497C67.8876 68.1577 67.8716 68.4777 68.0476 68.6857C68.2396 68.9257 68.5916 68.9577 68.8316 68.7497C68.8636 68.7337 68.8796 68.7017 68.9116 68.6697C68.9916 68.5737 69.0396 68.4457 69.0396 68.3177C69.0396 68.1577 68.9756 67.9977 68.8316 67.8857C68.6076 67.7097 68.2876 67.7417 68.0796 67.9497ZM65.4556 26.2697C65.6796 26.4457 65.9996 26.4297 66.1916 26.2217C66.3036 26.1097 66.3516 25.9657 66.3516 25.8217C66.3516 25.6777 66.3036 25.5337 66.1916 25.4217C66.1596 25.3897 66.1436 25.3737 66.1116 25.3577C65.8556 25.1817 65.5036 25.2617 65.3436 25.5177C65.1676 25.7737 65.2156 26.0937 65.4556 26.2697ZM52.6076 20.5737C52.6716 20.5897 52.7196 20.6057 52.7836 20.6057C53.0876 20.6057 53.3436 20.3497 53.3436 20.0457C53.3436 19.7737 53.1516 19.5497 52.8796 19.5017C52.6076 19.4537 52.3356 19.6137 52.2556 19.8697C52.1436 20.1577 52.3036 20.4777 52.6076 20.5737ZM19.5676 44.7177C19.8716 44.7657 20.1596 44.5577 20.1916 44.2537C20.1916 44.2217 20.1916 44.2057 20.1916 44.1737C20.1916 43.9017 19.9996 43.6777 19.7276 43.6297C19.4236 43.5817 19.1356 43.7897 19.0876 44.0937V44.1097C19.0396 44.3817 19.2636 44.6697 19.5676 44.7177ZM31.5036 71.0537C31.2636 70.8777 30.9276 70.9257 30.7516 71.1657C30.5596 71.4057 30.5916 71.7577 30.8316 71.9497C30.8476 71.9657 30.8636 71.9657 30.8636 71.9817C31.1196 72.1577 31.4716 72.0777 31.6316 71.8217C31.6956 71.7257 31.7276 71.6137 31.7276 71.5177C31.7436 71.3257 31.6636 71.1497 31.5036 71.0537ZM33.4876 72.3657C33.4716 72.3497 33.4556 72.3337 33.4236 72.3337C33.1516 72.1897 32.8156 72.3017 32.6716 72.5897C32.5436 72.8457 32.6396 73.1657 32.8796 73.3257C33.1356 73.4697 33.4556 73.4057 33.6316 73.1497C33.6956 73.0537 33.7276 72.9417 33.7276 72.8457C33.7436 72.6537 33.6636 72.4777 33.4876 72.3657ZM35.5356 73.4857C35.2636 73.3417 34.9276 73.4537 34.7836 73.7417C34.6396 74.0137 34.7516 74.3497 35.0396 74.4937C35.3116 74.6377 35.6476 74.5257 35.7916 74.2377C35.8236 74.1577 35.8556 74.0777 35.8556 73.9817C35.8396 73.7737 35.7276 73.5817 35.5356 73.4857ZM40.9596 21.0857H40.9756C41.2156 21.0057 41.3596 20.7977 41.3596 20.5577C41.3596 20.4937 41.3436 20.4457 41.3276 20.3817C41.2316 20.0937 40.9276 19.9337 40.6396 20.0297C40.3516 20.1097 40.1756 20.4297 40.2716 20.7177C40.3516 21.0057 40.6716 21.1657 40.9596 21.0857ZM39.9196 75.2137C39.6316 75.1177 39.3276 75.2777 39.2316 75.5657C39.1356 75.8537 39.2956 76.1737 39.5836 76.2697H39.5996C39.8876 76.3497 40.2076 76.1897 40.2876 75.8857C40.3036 75.8377 40.3036 75.7897 40.3036 75.7257C40.3036 75.5017 40.1596 75.2937 39.9196 75.2137ZM26.3676 66.2377C26.1756 65.9977 25.8236 65.9657 25.5836 66.1737C25.3436 66.3657 25.3116 66.7177 25.5036 66.9577C25.6956 67.1977 26.0476 67.2297 26.2876 67.0377C26.4316 66.9257 26.4956 66.7657 26.4956 66.6057C26.4956 66.4617 26.4636 66.3497 26.3676 66.2377C26.3836 66.2377 26.3676 66.2377 26.3676 66.2377ZM24.9276 64.3337C24.7356 64.0937 24.3836 64.0617 24.1436 64.2537C23.9036 64.4457 23.8716 64.7817 24.0316 65.0057C24.2076 65.2457 24.5436 65.3097 24.7996 65.1497C24.9596 65.0377 25.0556 64.8617 25.0556 64.6857C25.0556 64.5737 25.0236 64.4777 24.9596 64.3817C24.9436 64.3657 24.9276 64.3497 24.9276 64.3337ZM28.8796 69.6617C28.6876 69.9017 28.7196 70.2537 28.9436 70.4457C28.9436 70.4457 28.9436 70.4457 28.9596 70.4457C29.1996 70.6377 29.5516 70.6057 29.7436 70.3657C29.8236 70.2697 29.8716 70.1417 29.8716 70.0137C29.8716 69.8537 29.8076 69.6937 29.6636 69.5817C29.4236 69.3897 29.0716 69.4217 28.8796 69.6617ZM27.1996 67.9337C26.9596 68.1257 26.9276 68.4777 27.1196 68.7177C27.1356 68.7337 27.1516 68.7497 27.1676 68.7657C27.3916 68.9897 27.7436 68.9897 27.9516 68.7657C28.0636 68.6537 28.1116 68.5097 28.1116 68.3657C28.1116 68.2377 28.0636 68.0937 27.9676 67.9817C27.7756 67.7737 27.4396 67.7577 27.1996 67.9337ZM37.7276 74.4617C37.6956 74.4457 37.6636 74.4297 37.6316 74.4297C37.3436 74.3497 37.0236 74.5097 36.9436 74.8137C36.8636 75.0857 37.0076 75.3737 37.2796 75.4857C37.5516 75.5977 37.8556 75.4857 37.9836 75.2137C38.0316 75.1337 38.0476 75.0537 38.0476 74.9577C38.0476 74.7497 37.9196 74.5577 37.7276 74.4617ZM56.1596 75.1977C55.8716 75.2777 55.6956 75.5817 55.7756 75.8697C55.8556 76.1737 56.1596 76.3497 56.4476 76.2697C56.4636 76.2697 56.4796 76.2697 56.4956 76.2537C56.7356 76.1737 56.8796 75.9657 56.8796 75.7257C56.8796 75.6617 56.8636 75.6137 56.8476 75.5497C56.7516 75.2617 56.4476 75.1017 56.1596 75.1977ZM53.9036 75.7737C53.8876 75.7737 53.8716 75.7737 53.8556 75.7897C53.5516 75.8697 53.3756 76.1737 53.4556 76.4617C53.5356 76.7497 53.8236 76.9257 54.1116 76.8777C54.3676 76.8297 54.5596 76.5897 54.5596 76.3337C54.5596 76.3017 54.5596 76.2697 54.5596 76.2377C54.4796 75.9337 54.2076 75.7257 53.9036 75.7737ZM58.3836 74.4137C58.1276 74.5097 57.9676 74.7977 58.0476 75.0697C58.1276 75.3737 58.4316 75.5497 58.7196 75.4697C58.7516 75.4537 58.7996 75.4377 58.8316 75.4217C59.0236 75.3257 59.1356 75.1337 59.1356 74.9257C59.1356 74.8457 59.1196 74.7497 59.0716 74.6697C58.9436 74.4297 58.6396 74.3177 58.3836 74.4137ZM60.5116 73.4537C60.2396 73.5977 60.1276 73.9337 60.2556 74.2057C60.3996 74.4777 60.7356 74.5897 61.0076 74.4617C61.1996 74.3657 61.3116 74.1737 61.3116 73.9657C61.3116 73.8857 61.2956 73.7897 61.2476 73.7097C61.1196 73.4377 60.7836 73.3257 60.5116 73.4537ZM51.5356 76.1737C51.2316 76.2217 51.0236 76.4937 51.0716 76.7977C51.1036 77.1017 51.3916 77.3257 51.6956 77.2777H51.7116C51.9836 77.2297 52.1756 76.9897 52.1756 76.7337C52.1756 76.7017 52.1756 76.6697 52.1756 76.6377C52.1276 76.3337 51.8396 76.1257 51.5356 76.1737ZM46.8636 76.3657C46.5756 76.3497 46.3196 76.5577 46.2716 76.8457C46.2396 77.1497 46.4476 77.4217 46.7516 77.4697C46.7676 77.4697 46.7996 77.4697 46.8156 77.4697C47.1196 77.4697 47.3756 77.2137 47.3756 76.9097C47.3916 76.6377 47.1516 76.3817 46.8636 76.3657ZM44.5276 76.1737C44.2236 76.1257 43.9516 76.3337 43.9036 76.6377C43.8556 76.9417 44.0636 77.2297 44.3676 77.2777H44.3836C44.6876 77.3257 44.9756 77.1017 45.0076 76.7977C45.0076 76.7657 45.0076 76.7497 45.0076 76.7177C45.0076 76.4617 44.7996 76.2217 44.5276 76.1737ZM42.1916 75.7897C41.9196 75.7257 41.6316 75.8857 41.5356 76.1577C41.4396 76.4457 41.5996 76.7657 41.8876 76.8617C41.9196 76.8777 41.9516 76.8777 41.9836 76.8777C42.2876 76.9257 42.5756 76.7017 42.6076 76.3977C42.6076 76.3657 42.6076 76.3497 42.6076 76.3177C42.6396 76.0777 42.4476 75.8537 42.1916 75.7897ZM49.2316 76.3657C49.2156 76.3657 49.1836 76.3657 49.1676 76.3657C48.8636 76.3977 48.6396 76.6857 48.6876 76.9897C48.7196 77.2777 48.9756 77.4857 49.2636 77.4697C49.5516 77.4537 49.7916 77.2137 49.7916 76.9097C49.7916 76.6217 49.5356 76.3657 49.2316 76.3657ZM19.3596 49.5017C19.6636 49.5017 19.9196 49.2457 19.9196 48.9417C19.9196 48.6377 19.6636 48.3817 19.3596 48.3817C19.0556 48.3817 18.7996 48.6377 18.7996 48.9417C18.7996 49.2617 19.0396 49.5017 19.3596 49.5017ZM66.4316 69.5017C66.3836 69.5337 66.3356 69.5657 66.3036 69.6137C66.1116 69.8537 66.1436 70.2057 66.3836 70.3977C66.5916 70.5737 66.8956 70.5577 67.1036 70.3817C67.2316 70.2697 67.2956 70.1257 67.2956 69.9657C67.2956 69.8537 67.2636 69.7577 67.1996 69.6617C67.0396 69.4057 66.6876 69.3417 66.4316 69.5017ZM64.5596 71.0057C64.5276 71.0217 64.4956 71.0537 64.4796 71.0697C64.2556 71.2937 64.2556 71.6457 64.4796 71.8537C64.6876 72.0617 65.0076 72.0777 65.2156 71.9017C65.3596 71.7897 65.4236 71.6297 65.4236 71.4697C65.4236 71.3577 65.3916 71.2617 65.3276 71.1657C65.1516 70.8937 64.8156 70.8297 64.5596 71.0057ZM27.0876 29.5337C27.1836 29.4217 27.2316 29.2937 27.2316 29.1657C27.2316 29.0217 27.1836 28.8777 27.0716 28.7657C26.8476 28.5417 26.4956 28.5417 26.2876 28.7657C26.2716 28.7817 26.2716 28.7977 26.2556 28.7977C26.0636 29.0377 26.0956 29.3897 26.3196 29.5817C26.5436 29.7897 26.8796 29.7577 27.0876 29.5337ZM28.6876 27.8857C28.7196 27.8697 28.7516 27.8377 28.7676 27.8057C28.8476 27.6937 28.8956 27.5817 28.8956 27.4537C28.8956 27.2937 28.8316 27.1337 28.6876 27.0217C28.4636 26.8297 28.1436 26.8457 27.9356 27.0537C27.7276 27.2457 27.7116 27.5817 27.8876 27.8057C28.0956 28.0297 28.4476 28.0777 28.6876 27.8857ZM30.4956 26.3177C30.6396 26.2057 30.7196 26.0457 30.7196 25.8697C30.7196 25.7577 30.6876 25.6617 30.6236 25.5657C30.4476 25.3097 30.1116 25.2457 29.8556 25.4057C29.8396 25.4217 29.8236 25.4217 29.8236 25.4377C29.5836 25.6297 29.5516 25.9817 29.7436 26.2217C29.9036 26.4617 30.2556 26.4937 30.4956 26.3177ZM38.6876 21.7897C38.9276 21.7097 39.0716 21.5017 39.0716 21.2617C39.0716 21.2137 39.0716 21.1657 39.0556 21.1017C38.9756 20.8137 38.6556 20.6377 38.3676 20.7177H38.3516C38.0636 20.8137 37.9036 21.1337 37.9996 21.4217C38.0796 21.7097 38.3996 21.8697 38.6876 21.7897ZM36.4636 22.6697C36.4956 22.6537 36.5276 22.6377 36.5596 22.6217C36.7356 22.5257 36.8476 22.3337 36.8476 22.1417C36.8476 22.0457 36.8316 21.9497 36.7676 21.8697C36.6236 21.6137 36.3196 21.5177 36.0636 21.6297C35.8076 21.7417 35.6636 22.0457 35.7596 22.3177C35.8556 22.6057 36.1756 22.7657 36.4636 22.6697ZM19.3916 47.1017C19.6956 47.1017 19.9356 46.8777 19.9516 46.5737C19.9516 46.5577 19.9516 46.5577 19.9516 46.5417C19.9516 46.2697 19.7436 46.0297 19.4716 45.9977C19.1676 45.9497 18.8796 46.1737 18.8476 46.4777C18.8476 46.5097 18.8476 46.5257 18.8476 46.5577C18.8476 46.8617 19.0876 47.1017 19.3916 47.1017ZM34.3996 23.7097C34.5916 23.6137 34.7036 23.4217 34.7036 23.2137C34.7036 23.1497 34.6876 23.1017 34.6716 23.0377C34.5756 22.7497 34.2556 22.5897 33.9676 22.6857C33.9196 22.7017 33.8716 22.7177 33.8396 22.7497C33.5836 22.9257 33.5196 23.2617 33.6796 23.5177C33.8396 23.7577 34.1436 23.8377 34.3996 23.7097ZM32.3996 24.9257C32.4156 24.9097 32.4316 24.9097 32.4316 24.8937C32.5756 24.7817 32.6396 24.6217 32.6396 24.4617C32.6396 24.3337 32.6076 24.2217 32.5116 24.1097C32.3196 23.8697 31.9836 23.8377 31.7436 24.0137C31.5036 24.1897 31.4396 24.5257 31.5996 24.7817C31.8076 25.0217 32.1436 25.1017 32.3996 24.9257ZM19.9036 42.3337C20.1916 42.4297 20.5116 42.2697 20.6076 41.9817C20.6236 41.9497 20.6236 41.9177 20.6396 41.8697C20.6396 41.8537 20.6396 41.8217 20.6396 41.8057C20.6396 41.5337 20.4316 41.2937 20.1436 41.2457C19.8556 41.2137 19.5996 41.3897 19.5356 41.6777C19.4716 41.9497 19.6316 42.2377 19.9036 42.3337ZM20.5436 40.0137C20.8316 40.1097 21.1516 39.9497 21.2476 39.6617C21.2476 39.6457 21.2636 39.6297 21.2636 39.6137C21.2796 39.5657 21.2796 39.5177 21.2796 39.4857C21.2796 39.2297 21.1036 39.0057 20.8636 38.9417C20.5756 38.8617 20.2716 39.0377 20.1916 39.3257C20.1116 39.6137 20.2556 39.9177 20.5436 40.0137ZM22.3196 35.5657C22.5916 35.6937 22.9116 35.5977 23.0556 35.3417C23.1036 35.2617 23.1356 35.1657 23.1356 35.0697C23.1356 34.8937 23.0556 34.7177 22.8796 34.6057C22.6236 34.4297 22.2716 34.5097 22.1116 34.7657C22.0956 34.7817 22.0796 34.7977 22.0796 34.8297C21.9356 35.1017 22.0476 35.4217 22.3196 35.5657ZM62.5756 72.3177C62.3196 72.4617 62.2236 72.7817 62.3676 73.0377C62.5116 73.3097 62.8476 73.4217 63.1196 73.2937C63.1356 73.2777 63.1676 73.2777 63.1836 73.2617C63.3436 73.1497 63.4396 72.9737 63.4396 72.7977C63.4396 72.6857 63.4076 72.5897 63.3436 72.4937C63.1676 72.2377 62.8316 72.1737 62.5756 72.3177ZM21.3116 37.7417C21.5836 37.8857 21.9196 37.7737 22.0636 37.4857C22.0796 37.4537 22.0956 37.4057 22.1116 37.3737C22.1276 37.3257 22.1276 37.2777 22.1276 37.2457C22.1276 36.9897 21.9516 36.7657 21.7116 36.7017C21.4396 36.6377 21.1516 36.7817 21.0556 37.0377C20.9276 37.3097 21.0556 37.6137 21.3116 37.7417ZM23.4716 33.4537C23.7276 33.6297 24.0796 33.5497 24.2396 33.2937C24.2556 33.2777 24.2716 33.2617 24.2716 33.2297C24.3196 33.1497 24.3356 33.0697 24.3356 32.9737C24.3356 32.7657 24.2236 32.5737 24.0316 32.4777C23.7756 32.3497 23.4556 32.4457 23.2956 32.6857C23.1516 32.9577 23.2156 33.2937 23.4716 33.4537ZM24.8316 31.4857C25.0716 31.6457 25.3916 31.5977 25.5836 31.3737C25.6636 31.2777 25.7116 31.1497 25.7116 31.0217C25.7116 30.8777 25.6636 30.7337 25.5516 30.6217C25.3276 30.3977 24.9756 30.3977 24.7676 30.6217C24.7356 30.6537 24.7196 30.6697 24.7036 30.7017C24.5116 30.9577 24.5756 31.3097 24.8316 31.4857ZM69.7436 39.1017C70.3516 40.5257 70.8156 42.0137 71.1196 43.5337C71.4236 45.0537 71.5836 46.6217 71.5996 48.1737C71.8716 48.2057 72.1276 48.2217 72.3996 48.2537C72.3996 46.6057 72.2236 44.9577 71.9036 43.3577C71.5836 41.7897 71.1036 40.2537 70.4796 38.7817C70.3996 38.5737 70.1596 38.4777 69.9516 38.5737C69.7596 38.6537 69.6636 38.8937 69.7436 39.1017ZM64.6876 64.9737C63.6156 66.0457 62.4476 67.0057 61.1996 67.8537C59.9356 68.7017 58.5916 69.4377 57.1836 70.0297C55.7596 70.6377 54.2716 71.1017 52.7516 71.4057C49.6476 72.0457 46.3516 72.0457 43.2316 71.4057C41.7116 71.1017 40.2236 70.6377 38.7996 70.0297C37.4076 69.4377 36.0476 68.7017 34.7836 67.8537C33.5356 67.0057 32.3516 66.0457 31.2956 64.9737C30.5436 64.2217 29.8556 63.4377 29.2156 62.5897C28.8956 62.6217 28.5916 62.6377 28.2716 62.6697C29.0076 63.6937 29.8396 64.6537 30.7356 65.5337C31.8396 66.6377 33.0556 67.6457 34.3516 68.5097C35.6636 69.3897 37.0556 70.1417 38.4956 70.7657C39.9676 71.3897 41.5036 71.8697 43.0716 72.1897C44.6716 72.5257 46.3356 72.6857 47.9836 72.6857C49.6316 72.6857 51.2956 72.5257 52.8956 72.1897C54.4636 71.8697 55.9996 71.3897 57.4716 70.7657C58.9116 70.1577 60.3196 69.3897 61.6156 68.5097C62.9116 67.6297 64.1276 66.6377 65.2316 65.5337C66.1276 64.6377 66.9436 63.6777 67.6956 62.6697C67.3756 62.6377 67.0716 62.6217 66.7516 62.5897C66.1276 63.4377 65.4396 64.2377 64.6876 64.9737ZM25.5196 38.7817C24.8956 40.2537 24.4156 41.7897 24.0956 43.3577C23.7756 44.9577 23.5996 46.6057 23.5996 48.2537C23.8716 48.2217 24.1276 48.1897 24.3996 48.1737C24.3996 46.6057 24.5596 45.0537 24.8796 43.5337C25.1836 42.0137 25.6476 40.5257 26.2556 39.1017C26.3356 38.8937 26.2396 38.6697 26.0476 38.5737C25.8396 38.4937 25.5996 38.5897 25.5196 38.7817Z" fill="white"/>
<path d="M16.8802 58.3337C16.8642 58.3177 16.8482 58.3017 16.8322 58.2857C16.3042 57.0537 15.7602 55.8217 15.2162 54.5897C15.2162 54.5897 15.2162 54.5737 15.2002 54.5577C15.2002 54.5097 15.2162 54.4777 15.2802 54.4777C15.6162 54.4297 15.9362 54.3977 16.2722 54.3497C16.3202 54.3497 16.3522 54.3657 16.3682 54.4137C16.6082 55.0217 16.8482 55.6137 17.0882 56.2217C17.0882 56.2377 17.1042 56.2377 17.1042 56.2377C17.1202 56.2377 17.1202 56.2377 17.1202 56.2217C17.1682 55.5817 17.2322 54.9417 17.2802 54.3177C17.2802 54.2697 17.3122 54.2377 17.3762 54.2377C17.6642 54.2057 17.9362 54.1737 18.2242 54.1417C18.2722 54.1417 18.3042 54.1577 18.3202 54.2057C18.5442 54.8137 18.7522 55.4217 18.9602 56.0297C18.9602 56.0457 18.9762 56.0457 18.9762 56.0457C18.9762 56.0457 18.9922 56.0297 18.9922 56.0137C19.0722 55.3737 19.1362 54.7337 19.2162 54.0937C19.2162 54.0457 19.2482 54.0137 19.2962 54.0137C19.6322 53.9817 19.9682 53.9337 20.2882 53.9017C20.3202 53.9017 20.3362 53.9017 20.3522 53.9177C20.3682 53.9337 20.3682 53.9497 20.3682 53.9817C20.1602 55.2937 19.9522 56.6217 19.7442 57.9337C19.7442 57.9817 19.7122 58.0137 19.6642 58.0137C19.3602 58.0457 19.0562 58.0777 18.7522 58.1097C18.7042 58.1097 18.6562 58.0937 18.6402 58.0457C18.4322 57.4057 18.2082 56.7657 18.0002 56.1257C18.0002 56.1097 17.9842 56.1097 17.9842 56.1097C17.9842 56.1097 17.9682 56.1097 17.9682 56.1257C17.9202 56.7977 17.8722 57.4697 17.8402 58.1257C17.8402 58.1737 17.8082 58.2057 17.7602 58.2217C17.4722 58.2537 17.1842 58.2857 16.9122 58.3177C16.9282 58.3497 16.8962 58.3497 16.8802 58.3337Z" fill="#3232FF"/>
<path d="M24.0804 54.4457C24.0644 54.4617 24.0484 54.4777 24.0164 54.4777C23.4404 54.5257 22.8484 54.5897 22.2724 54.6377C22.2564 54.6377 22.2404 54.6537 22.2404 54.6697C22.2564 54.8457 22.2724 55.0217 22.2884 55.2137C22.2884 55.2297 22.3044 55.2457 22.3204 55.2457C22.6724 55.2137 23.0404 55.1817 23.3924 55.1337C23.4244 55.1337 23.4404 55.1337 23.4564 55.1497C23.4724 55.1657 23.4884 55.1817 23.4884 55.2137C23.5044 55.4697 23.5364 55.7097 23.5524 55.9657C23.5524 55.9977 23.5524 56.0137 23.5364 56.0297C23.5204 56.0457 23.5044 56.0617 23.4724 56.0617C23.1204 56.0937 22.7524 56.1257 22.4004 56.1577C22.3844 56.1577 22.3684 56.1737 22.3684 56.1897C22.3844 56.3817 22.4004 56.5897 22.4324 56.7817C22.4324 56.7977 22.4484 56.8137 22.4644 56.8137C23.0404 56.7497 23.6164 56.7017 24.1924 56.6537C24.2244 56.6537 24.2404 56.6537 24.2564 56.6697C24.2724 56.6857 24.2884 56.7017 24.2884 56.7337C24.3044 56.9897 24.3364 57.2297 24.3524 57.4857C24.3524 57.5177 24.3524 57.5337 24.3364 57.5497C24.3204 57.5657 24.3044 57.5817 24.2724 57.5817C23.3604 57.6617 22.4484 57.7577 21.5204 57.8537C21.4884 57.8537 21.4724 57.8537 21.4564 57.8377C21.4404 57.8217 21.4244 57.8057 21.4244 57.7737C21.2964 56.4937 21.1524 55.2137 21.0244 53.9337C21.0244 53.9017 21.0244 53.8857 21.0404 53.8697C21.0564 53.8537 21.0724 53.8377 21.1044 53.8377C22.0324 53.7417 22.9604 53.6457 23.8884 53.5657C23.9204 53.5657 23.9364 53.5657 23.9524 53.5817C23.9684 53.5977 23.9844 53.6137 23.9844 53.6457C24.0004 53.9017 24.0324 54.1417 24.0484 54.3977C24.0964 54.4137 24.0964 54.4297 24.0804 54.4457Z" fill="#3232FF"/>
<path d="M27.5045 55.2296C27.6805 55.3096 27.8245 55.4216 27.9205 55.5657C28.0165 55.7097 28.0645 55.8856 28.0805 56.0937C28.1125 56.4937 28.0005 56.7817 27.7285 56.9897C27.4725 57.1977 27.1205 57.3257 26.6725 57.3577C26.1605 57.4057 25.6325 57.4377 25.1205 57.4857C25.0885 57.4857 25.0725 57.4857 25.0565 57.4697C25.0405 57.4537 25.0245 57.4377 25.0245 57.4057C24.9125 56.1257 24.8005 54.8456 24.6885 53.5656C24.6885 53.5336 24.6885 53.5176 24.7045 53.5016C24.7205 53.4856 24.7365 53.4696 24.7685 53.4696C25.2805 53.4216 25.7765 53.3736 26.2885 53.3416C26.7845 53.2936 27.1685 53.3576 27.4405 53.5176C27.7125 53.6776 27.8565 53.9496 27.8885 54.3656C27.9205 54.7336 27.7925 55.0056 27.5045 55.1977C27.4885 55.1977 27.4885 55.2136 27.5045 55.2296ZM25.8565 54.3336C25.8725 54.5256 25.8885 54.7176 25.9045 54.9096C25.9045 54.9256 25.9205 54.9416 25.9365 54.9416C26.0965 54.9256 26.2565 54.9096 26.4165 54.9096C26.7045 54.8936 26.8325 54.7656 26.8165 54.5576C26.8005 54.3496 26.6565 54.2536 26.3685 54.2696C26.2085 54.2856 26.0485 54.3016 25.8885 54.3176C25.8725 54.3176 25.8565 54.3176 25.8565 54.3336ZM26.9765 56.0617C26.9605 55.8537 26.8165 55.7576 26.5445 55.7736C26.3685 55.7896 26.1925 55.8057 26.0165 55.8217C26.0005 55.8217 25.9845 55.8376 25.9845 55.8536C26.0005 56.0617 26.0165 56.2537 26.0325 56.4617C26.0325 56.4777 26.0485 56.4937 26.0645 56.4937C26.2405 56.4777 26.4165 56.4617 26.5925 56.4457C26.8805 56.4137 27.0085 56.2857 26.9765 56.0617Z" fill="#3232FF"/>
<path d="M29.5361 57.0216C29.2801 56.9416 29.0881 56.7976 28.9441 56.6056C28.8001 56.4136 28.7201 56.2056 28.6881 55.9496C28.6881 55.9176 28.6881 55.9016 28.6881 55.8696C28.6881 55.8376 28.6881 55.8216 28.7041 55.8056C28.7201 55.7896 28.7361 55.7736 28.7681 55.7736C29.0721 55.7576 29.3601 55.7256 29.6641 55.7096C29.6961 55.7096 29.7121 55.7096 29.7281 55.7256C29.7441 55.7416 29.7601 55.7576 29.7601 55.7896C29.7601 55.8056 29.7601 55.8056 29.7601 55.8216C29.7601 55.9336 29.8241 56.0136 29.9521 56.0936C30.0641 56.1736 30.2241 56.2056 30.4161 56.1896C30.5601 56.1736 30.6561 56.1416 30.7201 56.0776C30.7841 56.0136 30.8001 55.9496 30.8001 55.8696C30.8001 55.7896 30.7521 55.7256 30.6721 55.6936C30.5921 55.6616 30.4481 55.6136 30.2401 55.5656C30.1761 55.5496 30.1281 55.5496 30.0641 55.5336C29.6801 55.4376 29.3441 55.3096 29.0721 55.1496C28.8001 54.9736 28.6561 54.7016 28.6241 54.3496C28.6081 54.1096 28.6561 53.8856 28.7681 53.6936C28.8801 53.5016 29.0561 53.3416 29.2801 53.2296C29.5041 53.1176 29.7601 53.0376 30.0481 53.0216C30.3521 53.0056 30.6401 53.0376 30.8801 53.1336C31.1361 53.2296 31.3441 53.3736 31.4881 53.5656C31.6481 53.7576 31.7281 53.9816 31.7441 54.2536C31.7441 54.2696 31.7441 54.2856 31.7441 54.3016C31.7441 54.3336 31.7441 54.3496 31.7281 54.3656C31.7121 54.3816 31.6961 54.3976 31.6641 54.3976C31.3601 54.4136 31.0561 54.4296 30.7681 54.4616C30.7361 54.4616 30.7201 54.4616 30.7041 54.4456C30.6881 54.4296 30.6721 54.4136 30.6721 54.3816C30.6721 54.2696 30.6081 54.1736 30.4961 54.0776C30.3841 53.9976 30.2401 53.9496 30.0641 53.9656C29.9361 53.9816 29.8401 54.0136 29.7761 54.0616C29.7121 54.1096 29.6801 54.1896 29.6801 54.2696C29.6801 54.3336 29.7121 54.3976 29.7761 54.4456C29.8241 54.4936 29.9201 54.5256 30.0321 54.5736C30.1441 54.6056 30.3201 54.6536 30.5441 54.7016C30.5761 54.7176 30.7201 54.7496 30.9601 54.7976C31.2001 54.8456 31.4241 54.9736 31.5841 55.1496C31.7601 55.3256 31.8561 55.5496 31.8721 55.8056C31.8881 56.0616 31.8401 56.2856 31.7121 56.4776C31.6001 56.6696 31.4241 56.8296 31.1841 56.9416C30.9601 57.0536 30.6881 57.1176 30.3681 57.1496C30.0801 57.1496 29.7921 57.1176 29.5361 57.0216Z" fill="#3232FF"/>
<path d="M32.6564 56.9097C32.6404 56.8937 32.6244 56.8777 32.6244 56.8457C32.5444 55.5657 32.4804 54.2697 32.4004 52.9897C32.4004 52.9577 32.4004 52.9417 32.4164 52.9257C32.4324 52.9097 32.4484 52.8937 32.4804 52.8937C32.7844 52.8777 33.1044 52.8617 33.4084 52.8457C33.4404 52.8457 33.4564 52.8457 33.4724 52.8617C33.4884 52.8777 33.5044 52.8937 33.5044 52.9257C33.5684 54.2057 33.6484 55.5017 33.7124 56.7817C33.7124 56.8137 33.7124 56.8297 33.6964 56.8457C33.6804 56.8617 33.6644 56.8777 33.6324 56.8777C33.3284 56.8937 33.0244 56.9097 32.7204 56.9257C32.6884 56.9257 32.6724 56.9257 32.6564 56.9097Z" fill="#3232FF"/>
<path d="M37.3765 52.6857C37.3925 52.7017 37.4085 52.7177 37.4085 52.7497C37.4245 53.0057 37.4245 53.2617 37.4405 53.5017C37.4405 53.5337 37.4405 53.5497 37.4245 53.5657C37.4085 53.5817 37.3925 53.5977 37.3605 53.5977C37.0405 53.6137 36.7045 53.6297 36.3845 53.6457C36.3685 53.6457 36.3525 53.6617 36.3525 53.6777C36.4005 54.6697 36.4325 55.6617 36.4805 56.6537C36.4805 56.6857 36.4805 56.7017 36.4645 56.7177C36.4485 56.7337 36.4325 56.7497 36.4005 56.7497C36.0965 56.7657 35.7925 56.7817 35.4885 56.7977C35.4565 56.7977 35.4405 56.7977 35.4245 56.7817C35.4085 56.7657 35.3925 56.7497 35.3925 56.7177C35.3445 55.7257 35.2965 54.7337 35.2485 53.7417C35.2485 53.7257 35.2325 53.7097 35.2165 53.7097C34.8965 53.7257 34.5765 53.7417 34.2725 53.7577C34.2405 53.7577 34.2245 53.7577 34.2085 53.7417C34.1925 53.7257 34.1765 53.7097 34.1765 53.6777C34.1605 53.4217 34.1445 53.1657 34.1445 52.9257C34.1445 52.8937 34.1445 52.8777 34.1605 52.8617C34.1765 52.8457 34.1925 52.8297 34.2245 52.8297C35.2645 52.7817 36.2885 52.7337 37.3285 52.6857C37.3285 52.6697 37.3605 52.6697 37.3765 52.6857Z" fill="#3232FF"/>
<path d="M40.9926 53.4537C40.9766 53.4697 40.9606 53.4697 40.9286 53.4857C40.3526 53.5017 39.7606 53.5177 39.1846 53.5337C39.1686 53.5337 39.1526 53.5497 39.1526 53.5657C39.1526 53.7417 39.1686 53.9337 39.1686 54.1097C39.1686 54.1257 39.1846 54.1417 39.2006 54.1417C39.5526 54.1257 39.9206 54.1257 40.2726 54.1097C40.3046 54.1097 40.3206 54.1097 40.3366 54.1257C40.3526 54.1417 40.3686 54.1577 40.3686 54.1897C40.3686 54.4457 40.3846 54.6857 40.3846 54.9417C40.3846 54.9737 40.3846 54.9897 40.3686 55.0057C40.3526 55.0217 40.3366 55.0377 40.3046 55.0377C39.9526 55.0537 39.5846 55.0537 39.2326 55.0697C39.2166 55.0697 39.2006 55.0857 39.2006 55.1017C39.2006 55.2937 39.2166 55.5017 39.2166 55.6937C39.2166 55.7097 39.2326 55.7257 39.2486 55.7257C39.8246 55.7097 40.4006 55.6937 40.9766 55.6777C41.0086 55.6777 41.0246 55.6777 41.0406 55.6937C41.0566 55.7097 41.0726 55.7257 41.0726 55.7577C41.0726 56.0137 41.0886 56.2537 41.0886 56.5097C41.0886 56.5417 41.0886 56.5577 41.0726 56.5737C41.0566 56.5897 41.0406 56.5897 41.0086 56.6057C40.0966 56.6377 39.1686 56.6537 38.2566 56.6857C38.2246 56.6857 38.2086 56.6857 38.1926 56.6697C38.1766 56.6537 38.1606 56.6377 38.1606 56.6057C38.1126 55.3257 38.0646 54.0297 38.0166 52.7497C38.0166 52.7177 38.0166 52.7017 38.0326 52.6857C38.0486 52.6697 38.0646 52.6537 38.0966 52.6537C39.0246 52.6217 39.9686 52.5897 40.8966 52.5577C40.9286 52.5577 40.9446 52.5577 40.9606 52.5737C40.9766 52.5897 40.9926 52.6057 40.9926 52.6377C40.9926 52.8937 41.0086 53.1337 41.0086 53.3897C41.0246 53.4057 41.0086 53.4377 40.9926 53.4537Z" fill="#3232FF"/>
<path d="M43.9039 56.3977C43.6639 56.2697 43.4719 56.0937 43.3279 55.8697C43.1839 55.6457 43.1199 55.3737 43.1039 55.0697C43.1039 54.7017 43.0879 54.3497 43.0879 53.9817C43.0879 53.6777 43.1519 53.4217 43.2799 53.1817C43.4079 52.9417 43.5999 52.7657 43.8559 52.6377C44.0959 52.5097 44.3839 52.4457 44.7199 52.4297C45.0559 52.4297 45.3439 52.4937 45.5839 52.6057C45.8399 52.7337 46.0319 52.9097 46.1599 53.1337C46.3039 53.3577 46.3679 53.6297 46.3679 53.9337C46.3679 54.3017 46.3679 54.6537 46.3679 55.0217C46.3679 55.3257 46.3039 55.5977 46.1759 55.8377C46.0479 56.0777 45.8559 56.2537 45.6159 56.3817C45.3759 56.5097 45.0879 56.5737 44.7679 56.5897C44.4319 56.5737 44.1599 56.5257 43.9039 56.3977ZM45.1359 55.4857C45.2319 55.3737 45.2799 55.2297 45.2799 55.0537C45.2799 54.6697 45.2799 54.3017 45.2639 53.9177C45.2639 53.7417 45.2159 53.5977 45.1039 53.5017C45.0079 53.3897 44.8639 53.3417 44.7039 53.3417C44.5439 53.3417 44.4159 53.4057 44.3199 53.5017C44.2239 53.6137 44.1759 53.7577 44.1759 53.9337C44.1759 54.3177 44.1919 54.6857 44.1919 55.0697C44.1919 55.2457 44.2399 55.3897 44.3519 55.4857C44.4479 55.5977 44.5759 55.6457 44.7359 55.6457C44.9119 55.6457 45.0399 55.5977 45.1359 55.4857Z" fill="#3232FF"/>
<path d="M50.0003 53.3737C49.9843 53.3897 49.9683 53.3897 49.9363 53.3897C49.3603 53.3897 48.7683 53.3737 48.1923 53.3737C48.1763 53.3737 48.1603 53.3897 48.1603 53.4057C48.1603 53.5817 48.1603 53.7737 48.1603 53.9497C48.1603 53.9657 48.1763 53.9817 48.1923 53.9817C48.5443 53.9817 48.9123 53.9817 49.2643 53.9817C49.2963 53.9817 49.3123 53.9977 49.3283 53.9977C49.3443 54.0137 49.3443 54.0297 49.3443 54.0617C49.3443 54.3177 49.3443 54.5577 49.3443 54.8137C49.3443 54.8457 49.3283 54.8617 49.3283 54.8777C49.3123 54.8937 49.2963 54.8937 49.2643 54.8937C48.9123 54.8937 48.5443 54.8937 48.1923 54.8937C48.1763 54.8937 48.1603 54.9097 48.1603 54.9257C48.1603 55.4217 48.1603 55.9017 48.1603 56.3977C48.1603 56.4297 48.1603 56.4457 48.1443 56.4617C48.1283 56.4777 48.1123 56.4777 48.0803 56.4777C47.7763 56.4777 47.4723 56.4777 47.1683 56.4777C47.1363 56.4777 47.1203 56.4777 47.1043 56.4617C47.0883 56.4457 47.0883 56.4297 47.0883 56.3977C47.0883 55.1177 47.0883 53.8217 47.0723 52.5417C47.0723 52.5097 47.0723 52.4937 47.0883 52.4777C47.1043 52.4617 47.1203 52.4617 47.1523 52.4617C48.0803 52.4617 49.0083 52.4617 49.9363 52.4777C49.9683 52.4777 49.9843 52.4937 50.0003 52.4937C50.0163 52.5097 50.0163 52.5257 50.0163 52.5577C50.0163 52.8137 50.0163 53.0537 50.0163 53.3097C50.0163 53.3417 50.0163 53.3577 50.0003 53.3737Z" fill="#3232FF"/>
<path d="M55.1999 52.5897C55.2159 52.6057 55.2159 52.6217 55.2159 52.6537C55.2159 52.9097 55.1999 53.1657 55.1999 53.4217C55.1999 53.4537 55.1839 53.4697 55.1679 53.4857C55.1519 53.5017 55.1359 53.5017 55.1039 53.5017C54.7839 53.4857 54.4479 53.4857 54.1279 53.4697C54.1119 53.4697 54.0959 53.4857 54.0959 53.5017C54.0639 54.4937 54.0479 55.4857 54.0159 56.4776C54.0159 56.5096 53.9999 56.5256 53.9839 56.5416C53.9679 56.5576 53.9519 56.5576 53.9199 56.5576C53.6159 56.5576 53.3119 56.5416 53.0079 56.5416C52.9759 56.5416 52.9599 56.5256 52.9439 56.5096C52.9279 56.4936 52.9279 56.4776 52.9279 56.4456C52.9439 55.4536 52.9759 54.4617 52.9919 53.4697C52.9919 53.4537 52.9759 53.4377 52.9599 53.4377C52.6399 53.4377 52.3199 53.4217 51.9999 53.4217C51.9679 53.4217 51.9519 53.4057 51.9359 53.3897C51.9199 53.3737 51.9199 53.3577 51.9199 53.3257C51.9199 53.0697 51.9359 52.8137 51.9359 52.5577C51.9359 52.5257 51.9519 52.5097 51.9679 52.4937C51.9839 52.4777 51.9999 52.4777 52.0319 52.4777C53.0719 52.4937 54.0959 52.5257 55.1359 52.5417C55.1519 52.5577 55.1839 52.5737 55.1999 52.5897Z" fill="#3232FF"/>
<path d="M57.9519 52.6857C57.9679 52.6697 57.9839 52.6697 58.0159 52.6697C58.3199 52.6857 58.6399 52.7017 58.9439 52.7017C58.9759 52.7017 58.9919 52.7177 59.0079 52.7337C59.0239 52.7497 59.0239 52.7657 59.0239 52.7977C58.9599 54.0777 58.9119 55.3737 58.8479 56.6537C58.8479 56.6857 58.8319 56.7017 58.8159 56.7177C58.7999 56.7337 58.7839 56.7337 58.7519 56.7337C58.4479 56.7177 58.1439 56.7017 57.8399 56.7017C57.8079 56.7017 57.7919 56.6857 57.7759 56.6697C57.7599 56.6537 57.7599 56.6377 57.7599 56.6057C57.7759 56.1257 57.7919 55.6297 57.8239 55.1497C57.8239 55.1337 57.8079 55.1177 57.7919 55.1177C57.4879 55.1017 57.1839 55.1017 56.8799 55.0857C56.8639 55.0857 56.8479 55.1017 56.8479 55.1177C56.8319 55.5977 56.8159 56.0937 56.7999 56.5737C56.7999 56.6057 56.7839 56.6217 56.7679 56.6377C56.7519 56.6537 56.7359 56.6537 56.7039 56.6537C56.3999 56.6377 56.0959 56.6377 55.7919 56.6217C55.7599 56.6217 55.7439 56.6057 55.7279 56.5897C55.7119 56.5737 55.7119 56.5577 55.7119 56.5257C55.7599 55.2457 55.7919 53.9497 55.8399 52.6697C55.8399 52.6377 55.8559 52.6217 55.8719 52.6057C55.8879 52.5897 55.9039 52.5897 55.9359 52.5897C56.2399 52.6057 56.5599 52.6057 56.8639 52.6217C56.8959 52.6217 56.9119 52.6377 56.9279 52.6537C56.9439 52.6697 56.9439 52.6857 56.9439 52.7177C56.9279 53.1817 56.9119 53.6617 56.8959 54.1257C56.8959 54.1417 56.9119 54.1577 56.9279 54.1577C57.2319 54.1737 57.5359 54.1737 57.8399 54.1897C57.8559 54.1897 57.8719 54.1737 57.8719 54.1577C57.8879 53.6937 57.9039 53.2137 57.9199 52.7497C57.9199 52.7177 57.9359 52.7017 57.9519 52.6857Z" fill="#3232FF"/>
<path d="M62.6245 53.7896C62.6085 53.8056 62.5925 53.8056 62.5605 53.8056C61.9845 53.7736 61.3925 53.7416 60.8165 53.7096C60.8005 53.7096 60.7845 53.7256 60.7845 53.7416C60.7685 53.9176 60.7685 54.1096 60.7525 54.2856C60.7525 54.3016 60.7685 54.3176 60.7845 54.3176C61.1365 54.3336 61.5045 54.3496 61.8565 54.3816C61.8885 54.3816 61.9045 54.3976 61.9205 54.4136C61.9365 54.4296 61.9365 54.4456 61.9365 54.4776C61.9205 54.7336 61.9045 54.9736 61.8885 55.2296C61.8885 55.2616 61.8725 55.2776 61.8565 55.2936C61.8405 55.3096 61.8245 55.3096 61.7925 55.3096C61.4405 55.2936 61.0725 55.2776 60.7205 55.2456C60.7045 55.2456 60.6885 55.2616 60.6885 55.2776C60.6725 55.4696 60.6725 55.6776 60.6565 55.8696C60.6565 55.8856 60.6725 55.9016 60.6885 55.9016C61.2645 55.9336 61.8405 55.9656 62.4165 55.9976C62.4485 55.9976 62.4645 56.0136 62.4805 56.0296C62.4965 56.0456 62.4965 56.0616 62.4965 56.0936C62.4805 56.3496 62.4645 56.5897 62.4485 56.8457C62.4485 56.8777 62.4325 56.8937 62.4165 56.9097C62.4005 56.9257 62.3845 56.9257 62.3525 56.9257C61.4405 56.8777 60.5125 56.8297 59.6005 56.7817C59.5685 56.7817 59.5525 56.7656 59.5365 56.7496C59.5205 56.7336 59.5205 56.7177 59.5205 56.6857C59.5845 55.4056 59.6325 54.1096 59.6965 52.8296C59.6965 52.7976 59.7125 52.7816 59.7285 52.7656C59.7445 52.7496 59.7605 52.7496 59.7925 52.7496C60.7205 52.7976 61.6485 52.8456 62.5925 52.8936C62.6245 52.8936 62.6405 52.9096 62.6565 52.9256C62.6725 52.9416 62.6725 52.9576 62.6725 52.9896C62.6565 53.2456 62.6405 53.4856 62.6245 53.7416C62.6405 53.7576 62.6405 53.7736 62.6245 53.7896Z" fill="#3232FF"/>
<path d="M65.6797 57.0857C65.6637 57.0697 65.6637 57.0537 65.6637 57.0217C65.6957 56.6057 65.7277 56.1737 65.7597 55.7577C65.7597 55.7417 65.7597 55.7417 65.7597 55.7257C65.4237 54.8617 65.0877 53.9977 64.7357 53.1337C64.7357 53.1177 64.7357 53.1017 64.7197 53.0857C64.7197 53.0537 64.7517 53.0377 64.7997 53.0377C65.1357 53.0537 65.4717 53.0857 65.8077 53.1017C65.8557 53.1017 65.8877 53.1337 65.9037 53.1817C66.0637 53.6457 66.2077 54.1257 66.3677 54.5897C66.3837 54.6217 66.3837 54.6217 66.3997 54.5897C66.6237 54.1417 66.8317 53.6937 67.0557 53.2617C67.0717 53.2137 67.1197 53.1977 67.1677 53.1977C67.5037 53.2297 67.8397 53.2457 68.1757 53.2777C68.2237 53.2777 68.2557 53.3097 68.2397 53.3417C68.2397 53.3577 68.2237 53.3737 68.2237 53.3897C67.7597 54.1897 67.2957 55.0057 66.8317 55.8057C66.8317 55.8057 66.8317 55.8217 66.8157 55.8377C66.7837 56.2537 66.7517 56.6857 66.7197 57.1017C66.7197 57.1337 66.7037 57.1497 66.6877 57.1657C66.6717 57.1817 66.6557 57.1817 66.6237 57.1817C66.3197 57.1657 66.0157 57.1337 65.7117 57.1177C65.7117 57.1177 65.6957 57.1017 65.6797 57.0857Z" fill="#3232FF"/>
<path d="M71.7764 54.4937C71.7604 54.5097 71.7444 54.5097 71.7124 54.5097C71.1364 54.4617 70.5444 54.3977 69.9684 54.3497C69.9524 54.3497 69.9364 54.3497 69.9364 54.3817C69.9204 54.5577 69.9044 54.7337 69.8884 54.9257C69.8884 54.9417 69.8884 54.9577 69.9204 54.9577C70.2724 54.9897 70.6404 55.0217 70.9924 55.0537C71.0244 55.0537 71.0404 55.0697 71.0564 55.0857C71.0724 55.1017 71.0724 55.1177 71.0724 55.1497C71.0564 55.4057 71.0244 55.6457 71.0084 55.9017C71.0084 55.9337 70.9924 55.9497 70.9764 55.9657C70.9604 55.9817 70.9444 55.9817 70.9124 55.9817C70.5604 55.9497 70.1924 55.9177 69.8404 55.8857C69.8244 55.8857 69.8084 55.8857 69.8084 55.9177C69.7924 56.1097 69.7764 56.3177 69.7604 56.5097C69.7604 56.5257 69.7604 56.5417 69.7924 56.5417C70.3684 56.5897 70.9444 56.6377 71.5204 56.7017C71.5524 56.7017 71.5684 56.7177 71.5844 56.7337C71.6004 56.7497 71.6004 56.7657 71.6004 56.7977C71.5844 57.0537 71.5524 57.2937 71.5364 57.5497C71.5364 57.5817 71.5204 57.5977 71.5044 57.6137C71.4884 57.6297 71.4724 57.6297 71.4404 57.6297C70.5284 57.5497 69.6164 57.4697 68.6884 57.3897C68.6564 57.3897 68.6404 57.3737 68.6244 57.3577C68.6084 57.3417 68.6084 57.3257 68.6084 57.2937C68.7204 56.0137 68.8164 54.7337 68.9284 53.4537C68.9284 53.4217 68.9444 53.4057 68.9604 53.3897C68.9764 53.3737 68.9924 53.3737 69.0244 53.3737C69.9524 53.4537 70.8804 53.5337 71.8084 53.6137C71.8404 53.6137 71.8564 53.6297 71.8724 53.6457C71.8884 53.6617 71.8884 53.6777 71.8884 53.7097C71.8724 53.9657 71.8404 54.2057 71.8244 54.4617C71.8084 54.4457 71.7924 54.4777 71.7764 54.4937Z" fill="#3232FF"/>
<path d="M74.7679 57.8537C74.7359 57.6937 74.7199 57.5497 74.6879 57.3897C74.6879 57.3737 74.6719 57.3577 74.6559 57.3577C74.2559 57.3097 73.8399 57.2777 73.4399 57.2297C73.4239 57.2297 73.4239 57.2297 73.4079 57.2457C73.3439 57.3897 73.2959 57.5337 73.2319 57.6777C73.2159 57.7257 73.1839 57.7417 73.1199 57.7417C72.7999 57.7097 72.4639 57.6777 72.1439 57.6457C72.0799 57.6457 72.0479 57.5977 72.0799 57.5337C72.6079 56.2857 73.1359 55.0537 73.6799 53.8057C73.6959 53.7577 73.7279 53.7417 73.7919 53.7417C74.2079 53.7897 74.6239 53.8217 75.0239 53.8697C75.0719 53.8697 75.1039 53.9017 75.1199 53.9497C75.3919 55.2777 75.6639 56.6057 75.9199 57.9177C75.9199 57.9337 75.9199 57.9337 75.9199 57.9497C75.9199 57.9977 75.8879 58.0137 75.8399 57.9977C75.5199 57.9657 75.1839 57.9337 74.8639 57.8857C74.7999 57.9337 74.7679 57.9017 74.7679 57.8537ZM73.7599 56.4457C73.9999 56.4777 74.2399 56.4937 74.4799 56.5257C74.4959 56.5257 74.5119 56.5097 74.5119 56.4937C74.4319 56.0457 74.3519 55.6137 74.2719 55.1657C74.2719 55.1497 74.2719 55.1497 74.2559 55.1497C74.2559 55.1497 74.2399 55.1497 74.2399 55.1657C74.0799 55.5817 73.9039 55.9977 73.7439 56.4137C73.7439 56.4297 73.7439 56.4457 73.7599 56.4457Z" fill="#3232FF"/>
<path d="M78.576 58.3017C78.432 57.7897 78.272 57.2777 78.112 56.7657C78.112 56.7497 78.0959 56.7337 78.0799 56.7337C77.9999 56.7177 77.9199 56.7177 77.8399 56.7017C77.8239 56.7017 77.8079 56.7017 77.8079 56.7337C77.7439 57.2137 77.696 57.6777 77.632 58.1577C77.632 58.1897 77.6159 58.2057 77.5999 58.2217C77.5839 58.2377 77.5679 58.2377 77.5359 58.2377C77.2319 58.2057 76.9279 58.1737 76.6239 58.1257C76.5919 58.1257 76.5759 58.1097 76.5599 58.0937C76.5439 58.0777 76.5439 58.0617 76.5439 58.0297C76.6879 56.7497 76.8319 55.4697 76.9759 54.1897C76.9759 54.1577 76.9919 54.1417 77.0079 54.1257C77.0239 54.1097 77.0399 54.1097 77.0719 54.1097C77.664 54.1737 78.256 54.2537 78.832 54.3177C79.104 54.3497 79.328 54.4297 79.504 54.5577C79.696 54.6857 79.824 54.8617 79.92 55.0697C80 55.2777 80.032 55.5017 80 55.7577C79.968 56.0137 79.8719 56.2217 79.7279 56.3977C79.5839 56.5737 79.392 56.6857 79.152 56.7497C79.136 56.7497 79.12 56.7657 79.136 56.7817C79.312 57.3097 79.504 57.8537 79.68 58.3817C79.68 58.3977 79.68 58.4137 79.68 58.4297C79.68 58.4457 79.6639 58.4617 79.6479 58.4777C79.6319 58.4937 79.616 58.4937 79.584 58.4937C79.2639 58.4457 78.9439 58.4137 78.6239 58.3817C78.6239 58.3657 78.592 58.3497 78.576 58.3017ZM77.9999 55.1977C77.9679 55.4217 77.9519 55.6457 77.9199 55.8697C77.9199 55.8857 77.92 55.9017 77.952 55.9017C78.128 55.9177 78.32 55.9497 78.496 55.9657C78.624 55.9817 78.72 55.9657 78.816 55.9017C78.896 55.8377 78.944 55.7577 78.96 55.6617C78.976 55.5497 78.944 55.4537 78.88 55.3737C78.816 55.2937 78.72 55.2457 78.592 55.2297C78.416 55.2137 78.2239 55.1817 78.0479 55.1657C77.9999 55.1657 77.9999 55.1817 77.9999 55.1977Z" fill="#3232FF"/>
</svg>
