<svg width="96" height="97" viewBox="0 0 96 97" fill="none" xmlns="http://www.w3.org/2000/svg">
<path d="M94.4882 61.2217L93.4245 60.6738C90.9426 59.4006 88.1867 58.2563 85.2858 57.2732L85.0118 57.1765V50.4722V49.7953L84.351 49.6825C83.9803 49.618 83.5935 49.5535 83.2229 49.4891L84.0931 48.5543L84.7056 47.8936L84.0931 47.2328L81.6112 44.5736L83.5291 41.4793L84.0126 40.7057L83.2712 40.1738L80.3219 38.0465L81.5951 34.646L81.9174 33.7918L81.0955 33.4211L77.7756 31.9223L78.3718 28.3284L78.5169 27.442L77.6305 27.2325L74.0849 26.4105L73.9721 22.7682L73.9399 21.8657L73.0374 21.8335L69.3951 21.7207L68.5731 18.1751L68.3636 17.2887L67.4772 17.4337L63.8833 18.03L62.3845 14.7101L62.0138 13.8882L61.1596 14.2105L57.7591 15.4837L55.6317 12.5344L55.0999 11.793L54.3263 12.2765L51.2481 14.2105L48.5889 11.7286L47.9282 11.1161L47.2674 11.7286L44.6082 14.2105L41.5139 12.2926L40.7403 11.8092L40.2085 12.5505L38.0811 15.4998L34.6806 14.2266L33.8264 13.9043L33.4557 14.7262L31.9569 18.0462L28.363 17.4499L27.4766 17.3048L27.2671 18.1912L26.4451 21.7368L22.8028 21.8496L21.9003 21.8818L21.8681 22.7844L21.7553 26.4266L18.2097 27.2486L17.3233 27.4581L17.4683 28.3445L18.0647 31.9384L14.7447 33.4372L13.9228 33.8079L14.2451 34.6621L15.5183 38.0626L12.569 40.19L11.8276 40.7218L12.3111 41.4954L14.2451 44.5736L11.7632 47.2328L11.1508 47.8936L11.7632 48.5543L12.6335 49.4891C12.2628 49.5535 11.876 49.618 11.5053 49.6825L10.8446 49.7953V50.4722V57.1765L10.5706 57.2732C7.65352 58.2563 4.91375 59.4006 2.43184 60.6738L1.36816 61.2217L2.27068 62.0114L6.5415 65.7021L4.78482 72.1325L4.34968 73.7602L5.89684 73.0833C9.97427 71.3105 14.4707 69.9084 19.2734 68.9414L19.6118 68.877L21.7714 69.3766L21.8842 73.0189L21.9165 73.9214L22.819 73.9536L26.4612 74.0664L27.2832 77.612L27.4927 78.4984L28.3791 78.3534L31.973 77.7571L33.4718 81.077L33.8425 81.899L34.6967 81.5766L38.0972 80.3034L40.2246 83.2527L40.7564 83.9941L41.53 83.5106L44.6243 81.5927L47.2835 84.0747L47.9443 84.6871L48.605 84.0747L51.2642 81.5927L54.3586 83.5106L55.1321 83.9941L55.664 83.2527L57.7913 80.3034L61.1919 81.5766L62.046 81.899L62.4167 81.077L63.9155 77.7571L67.5095 78.3534L68.3959 78.4984L68.6054 77.612L69.4273 74.0664L73.0696 73.9536L73.9721 73.9214L74.0043 73.0189L74.1171 69.3766L76.2767 68.877L76.6152 68.9414C81.4178 69.9084 85.9143 71.3105 89.9917 73.0833L91.5389 73.7602L91.1037 72.1325L89.3471 65.7021L93.6179 62.0114L94.4882 61.2217Z" fill="#120B47"/>
<path d="M29.2012 30.633C29.169 30.4557 29.1851 30.2785 29.2657 30.1012C29.3302 29.9239 29.4591 29.7466 29.6203 29.5855C29.7975 29.4082 29.9748 29.2954 30.1682 29.2148C30.3616 29.1342 30.555 29.1181 30.7484 29.1503C30.9418 29.1825 31.103 29.2792 31.248 29.4243L31.2964 29.4726C31.3125 29.4888 31.3125 29.5049 31.3125 29.521C31.3125 29.5371 31.3125 29.5532 31.2964 29.5693L30.9096 29.9561C30.8934 29.9722 30.8773 29.9722 30.8612 29.9722C30.8451 29.9722 30.829 29.9722 30.8129 29.9561L30.7806 29.9239C30.6839 29.8272 30.5711 29.7789 30.4261 29.795C30.281 29.8111 30.136 29.8755 30.0071 30.0206C29.8942 30.1334 29.8459 30.2301 29.8298 30.3429C29.8137 30.4557 29.8459 30.5363 29.9265 30.6169C29.9909 30.6814 30.0554 30.6975 30.1199 30.7136C30.2004 30.7136 30.281 30.6975 30.3777 30.6652C30.4744 30.633 30.6195 30.5685 30.829 30.4719C31.0546 30.3752 31.2319 30.2946 31.3608 30.2462C31.4898 30.1979 31.6509 30.1818 31.8121 30.1979C31.9732 30.214 32.1344 30.2946 32.2795 30.4396C32.489 30.6491 32.5857 30.907 32.5534 31.181C32.5212 31.4549 32.3762 31.745 32.1022 32.0029C31.9249 32.1802 31.7315 32.3091 31.5381 32.3897C31.3447 32.4703 31.1513 32.4864 30.974 32.4542C30.7968 32.4219 30.6356 32.3252 30.4905 32.1802L30.41 32.0996C30.3938 32.0835 30.3938 32.0674 30.3938 32.0512C30.3938 32.0351 30.3938 32.019 30.41 32.0029L30.7968 31.6161C30.8129 31.6 30.829 31.6 30.8451 31.6C30.8612 31.6 30.8773 31.6 30.8935 31.6161L30.9418 31.6645C31.0385 31.7612 31.1513 31.7934 31.2964 31.7612C31.4414 31.745 31.5865 31.6645 31.7315 31.5194C31.8604 31.4066 31.9249 31.2777 31.9249 31.1649C31.941 31.052 31.8927 30.9553 31.8282 30.8909C31.7798 30.8425 31.7154 30.8103 31.6348 30.8103C31.5542 30.8103 31.4736 30.8264 31.3931 30.8586C31.2964 30.8909 31.1674 30.9553 30.974 31.0359C30.7645 31.1326 30.5872 31.2132 30.4261 31.2616C30.2649 31.3099 30.1038 31.326 29.9426 31.3099C29.7814 31.2938 29.6203 31.2132 29.4913 31.0682C29.3141 30.9553 29.2335 30.7942 29.2012 30.633ZM31.2641 28.135C31.248 28.1189 31.248 28.1028 31.248 28.0866C31.248 28.0705 31.2641 28.0544 31.2641 28.0544L32.3439 27.2164C32.5051 27.0874 32.6824 27.0068 32.8758 26.9746C33.053 26.9424 33.2303 26.9746 33.3915 27.0391C33.5526 27.1035 33.7138 27.2325 33.8266 27.3936C33.9555 27.5548 34.02 27.7321 34.0522 27.9094C34.0845 28.0866 34.0522 28.2639 33.9717 28.4251C33.8911 28.5862 33.7622 28.7474 33.601 28.8763L33.053 29.2954C33.0369 29.3115 33.0369 29.3115 33.053 29.3276L33.8105 30.3107C33.8266 30.3268 33.8266 30.3429 33.8266 30.359C33.8266 30.3752 33.8105 30.3913 33.8105 30.3913L33.3592 30.7297C33.3431 30.7458 33.327 30.7458 33.3109 30.7458C33.2948 30.7458 33.2787 30.7297 33.2787 30.7297L31.2641 28.135ZM32.1505 28.1672L32.6985 28.8763C32.7146 28.8925 32.7146 28.8925 32.7307 28.8763L33.2142 28.5057C33.327 28.409 33.4076 28.3123 33.4237 28.1833C33.4398 28.0544 33.4076 27.9416 33.327 27.8288C33.2464 27.716 33.1336 27.6515 33.0047 27.6354C32.8758 27.6193 32.7629 27.6676 32.634 27.7482L32.1505 28.1189C32.1344 28.135 32.1344 28.1511 32.1505 28.1672ZM34.4874 25.782L34.0039 26.0721C33.9878 26.0882 33.9878 26.0882 33.9717 26.1043C33.9717 26.1205 33.9717 26.1366 33.9717 26.1527L35.6155 28.973C35.6316 28.9892 35.6316 28.9892 35.6478 29.0053C35.6639 29.0214 35.68 29.0053 35.6961 29.0053L37.6139 27.8771C37.6301 27.8771 37.6301 27.861 37.6462 27.8449C37.6623 27.8288 37.6462 27.8127 37.6462 27.7965L37.4044 27.3936C37.3883 27.3775 37.3883 27.3775 37.3722 27.3614C37.3561 27.3453 37.34 27.3614 37.3239 27.3614L35.954 28.1672C35.9379 28.1833 35.9217 28.1672 35.9217 28.1511L34.5519 25.7981C34.5357 25.782 34.5357 25.782 34.5196 25.7659C34.5196 25.782 34.5035 25.782 34.4874 25.782ZM37.9685 27.6032L37.6945 24.1865C37.6945 24.1543 37.7106 24.1381 37.7268 24.122L38.4359 23.8319C38.4681 23.8158 38.4842 23.8319 38.5165 23.8481L40.7244 26.475L40.7405 26.4911C40.7566 26.5234 40.7405 26.5395 40.7083 26.5556L40.1442 26.7973C40.112 26.8135 40.0959 26.7973 40.0636 26.7812L39.7413 26.3944C39.7252 26.3783 39.7252 26.3783 39.7091 26.3783L38.6132 26.8296C38.597 26.8296 38.597 26.8457 38.597 26.8618L38.6454 27.3453C38.6454 27.3775 38.6293 27.4098 38.6132 27.4098L38.0491 27.6515C38.033 27.6515 38.0169 27.6515 38.0007 27.6515C37.9846 27.6354 37.9685 27.6193 37.9685 27.6032ZM38.3875 24.7667L38.5487 26.2494C38.5487 26.2655 38.5648 26.2816 38.5809 26.2655L39.3706 25.9432C39.3867 25.9432 39.3867 25.9271 39.3706 25.9109L38.4198 24.7506C38.4198 24.7344 38.4036 24.7344 38.4036 24.7344C38.4036 24.7344 38.3875 24.7506 38.3875 24.7667ZM40.5955 23.1551C40.4504 23.2679 40.3376 23.4129 40.2731 23.5902C40.2087 23.7514 40.2087 23.9286 40.257 24.122C40.3054 24.3154 40.4021 24.4605 40.531 24.5572C40.6599 24.6539 40.805 24.7344 40.9823 24.7667C41.1434 24.7989 41.3368 24.8311 41.5786 24.8473C41.7881 24.8634 41.9331 24.8795 42.0298 24.8956C42.1265 24.9117 42.2071 24.944 42.2716 24.9762C42.336 25.0084 42.3844 25.0729 42.4005 25.1374C42.4327 25.2341 42.4166 25.3308 42.3521 25.4275C42.2877 25.5241 42.1749 25.5886 42.0137 25.637C41.8203 25.6853 41.643 25.6853 41.5141 25.637C41.369 25.5886 41.2885 25.4919 41.2562 25.363L41.2401 25.2985C41.2401 25.2824 41.224 25.2663 41.2079 25.2663C41.1918 25.2663 41.1757 25.2502 41.1595 25.2663L40.6277 25.4113C40.6116 25.4113 40.5955 25.4274 40.5955 25.4436C40.5955 25.4597 40.5793 25.4758 40.5955 25.4919L40.6277 25.5886C40.676 25.782 40.7727 25.9432 40.9178 26.056C41.0628 26.1849 41.2401 26.2494 41.4335 26.2816C41.643 26.3138 41.8687 26.2977 42.1265 26.2333C42.4972 26.1366 42.7551 25.9754 42.9323 25.7498C43.1096 25.5241 43.1418 25.2663 43.0613 24.9762C43.0129 24.7828 42.9162 24.6378 42.7873 24.5411C42.6584 24.4444 42.5133 24.3799 42.3683 24.3477C42.2232 24.3154 42.0298 24.2993 41.7881 24.2671C41.5624 24.251 41.4013 24.2348 41.3046 24.2187C41.1918 24.2026 41.1112 24.1704 41.0467 24.1381C40.9823 24.1059 40.95 24.0414 40.9178 23.9609C40.8856 23.8481 40.9017 23.7514 40.9661 23.6708C41.0306 23.5902 41.1434 23.5257 41.2885 23.4774C41.4819 23.429 41.6269 23.429 41.772 23.4935C41.9009 23.558 41.9815 23.6547 42.0298 23.7836L42.0459 23.8158C42.0459 23.8319 42.062 23.8481 42.0782 23.8481C42.0943 23.8481 42.1104 23.8642 42.1265 23.8481L42.6584 23.703C42.6745 23.703 42.6906 23.6869 42.6906 23.6708C42.6906 23.6547 42.7067 23.6385 42.6906 23.6224L42.6745 23.558C42.6261 23.3646 42.5294 23.2034 42.3844 23.0745C42.2393 22.9455 42.062 22.865 41.8525 22.8327C41.643 22.8005 41.4174 22.8166 41.1918 22.8811C40.9339 22.9455 40.7566 23.0261 40.5955 23.1551ZM43.3675 22.4137C43.3514 22.4298 43.3514 22.4459 43.3514 22.462L43.7704 25.7014C43.7704 25.7175 43.7865 25.7337 43.7865 25.7337C43.8026 25.7498 43.8187 25.7498 43.8348 25.7498L44.3989 25.6692C44.415 25.6692 44.4311 25.6531 44.4311 25.6531C44.4473 25.637 44.4473 25.6208 44.4473 25.6047L44.27 24.2832C44.27 24.2671 44.27 24.251 44.2861 24.251L45.3498 24.1059C45.3659 24.1059 45.382 24.1059 45.382 24.122L45.5593 25.4436C45.5593 25.4597 45.5754 25.4758 45.5754 25.4758C45.5915 25.4919 45.6076 25.4919 45.6238 25.4919L46.1878 25.4113C46.2039 25.4113 46.2201 25.3952 46.2201 25.3952C46.2362 25.3791 46.2362 25.363 46.2362 25.3469L45.8171 22.1075C45.8171 22.0914 45.801 22.0753 45.801 22.0753C45.7849 22.0591 45.7688 22.0591 45.7527 22.0591L45.1886 22.1397C45.1725 22.1397 45.1564 22.1558 45.1564 22.1558C45.1403 22.172 45.1403 22.1881 45.1403 22.2042L45.3014 23.4935C45.3014 23.5096 45.3014 23.5257 45.2853 23.5257L44.2216 23.6708C44.2055 23.6708 44.1894 23.6708 44.1894 23.6547L44.0282 22.3654C44.0282 22.3492 44.0121 22.3331 44.0121 22.3331C43.996 22.317 43.9799 22.317 43.9638 22.317L43.3997 22.3976C43.3836 22.3976 43.3836 22.3976 43.3675 22.4137ZM47.7833 25.2985L49.0243 22.0914C49.0404 22.0591 49.0565 22.043 49.0888 22.043L49.8462 22.0914C49.8785 22.0914 49.8946 22.1075 49.9107 22.1397L50.7649 25.4597C50.7649 25.4597 50.7649 25.4758 50.7649 25.4919C50.7649 25.5241 50.7487 25.5403 50.7165 25.5241L50.1041 25.4919C50.0718 25.4919 50.0557 25.4758 50.0396 25.4436L49.9268 24.9601C49.9268 24.944 49.9107 24.944 49.9107 24.944L48.7181 24.8795C48.702 24.8795 48.702 24.8795 48.6859 24.8956L48.5247 25.363C48.5086 25.3952 48.4925 25.4113 48.4602 25.4113L47.8478 25.3791C47.8317 25.3791 47.8156 25.3791 47.7995 25.363C47.7672 25.3308 47.7672 25.3146 47.7833 25.2985ZM48.8792 24.3315C48.8792 24.3477 48.8792 24.3638 48.8954 24.3638L49.7495 24.4121C49.7656 24.4121 49.7818 24.396 49.7656 24.3799L49.4111 22.9133C49.4111 22.8972 49.4111 22.8972 49.395 22.8972C49.395 22.8972 49.3788 22.8972 49.3788 22.9133L48.8792 24.3315ZM51.7479 25.6531C51.7479 25.6853 51.7641 25.7014 51.7963 25.7175L52.312 25.8304C52.3443 25.8304 52.3765 25.8304 52.3926 25.7981L53.2951 23.8642C53.2951 23.8481 53.3112 23.8481 53.3112 23.8481L53.3273 23.8642L53.3596 26.0076C53.3596 26.0399 53.3757 26.056 53.4079 26.0721L53.972 26.201C54.0042 26.201 54.0365 26.201 54.0526 26.1688L55.5353 23.1389C55.5514 23.1067 55.5353 23.0745 55.503 23.0584L54.939 22.9294C54.9067 22.9294 54.8906 22.9294 54.8584 22.9617L54.0042 24.7828C54.0042 24.7989 53.9881 24.7989 53.9881 24.7989L53.972 24.7828L53.9236 22.7521C53.9236 22.7199 53.9075 22.7038 53.8753 22.6877L53.3112 22.5587C53.279 22.5587 53.2629 22.5587 53.2306 22.591L52.3765 24.4121C52.3765 24.4282 52.3604 24.4282 52.3604 24.4282L52.3442 24.4121L52.3281 22.3976C52.3281 22.3654 52.312 22.3492 52.2798 22.3331L51.6996 22.2042C51.6674 22.2042 51.6512 22.2042 51.6351 22.2364V22.2525L51.7479 25.6531ZM54.5844 26.2977L56.7279 23.6224C56.744 23.5902 56.7762 23.5902 56.8085 23.6063L57.5176 23.8803C57.5498 23.8964 57.5659 23.9125 57.5659 23.9447L57.3725 27.3775C57.3725 27.3775 57.3725 27.3936 57.3725 27.4098C57.3564 27.442 57.3403 27.442 57.3081 27.4259L56.7279 27.2002C56.6957 27.1841 56.6795 27.168 56.6795 27.1358L56.7118 26.6362C56.7118 26.6201 56.7118 26.6201 56.6957 26.6039L55.5836 26.1849C55.5675 26.1849 55.5675 26.1849 55.5514 26.201L55.2452 26.5878C55.2291 26.6201 55.1968 26.6201 55.1646 26.6039L54.5844 26.3783C54.5683 26.3783 54.5522 26.3622 54.5522 26.3461C54.5522 26.33 54.5683 26.3138 54.5844 26.2977ZM55.9382 25.7337L56.7279 26.0399C56.744 26.0399 56.7601 26.0399 56.7601 26.0238L56.8729 24.5249C56.8729 24.5088 56.8729 24.5088 56.8729 24.5088C56.8729 24.5088 56.8568 24.5088 56.8568 24.5249L55.9543 25.7175C55.9221 25.7175 55.9221 25.7337 55.9382 25.7337ZM59.4193 24.6861L60.628 25.3469C60.8053 25.4436 60.9504 25.5725 61.0471 25.7175C61.1437 25.8626 61.1921 26.0238 61.1921 26.201C61.1921 26.3783 61.1437 26.5556 61.0471 26.7329C60.9342 26.9263 60.8053 27.0552 60.628 27.1519C60.4507 27.2325 60.2735 27.2647 60.064 27.2164C60.0478 27.2164 60.0317 27.2164 60.0317 27.2325L59.9511 28.7474C59.9511 28.7635 59.9511 28.7796 59.9511 28.7796C59.935 28.7958 59.9189 28.8119 59.8867 28.7958L59.371 28.5057C59.3387 28.4895 59.3226 28.4734 59.3387 28.4412L59.4515 26.9746C59.4515 26.9585 59.4515 26.9424 59.4354 26.9424L59.0486 26.7329C59.0325 26.7329 59.0164 26.7329 59.0164 26.749L58.3717 27.9094C58.3717 27.9255 58.3556 27.9255 58.3395 27.9416C58.3234 27.9416 58.3073 27.9416 58.2912 27.9416L57.7916 27.6676C57.7754 27.6676 57.7754 27.6515 57.7593 27.6354C57.7593 27.6193 57.7593 27.6032 57.7593 27.587L59.3387 24.7183C59.3387 24.7022 59.3548 24.7022 59.371 24.6861C59.3871 24.67 59.4032 24.67 59.4193 24.6861ZM59.6772 25.5241L59.2743 26.2494C59.2743 26.2655 59.2743 26.2816 59.2904 26.2816L59.8383 26.5878C59.9511 26.6523 60.0801 26.6684 60.1929 26.6362C60.3057 26.6039 60.4024 26.5395 60.4508 26.4267C60.5152 26.3138 60.5313 26.201 60.4991 26.0882C60.4669 25.9754 60.3863 25.8787 60.2735 25.8142L59.7255 25.508C59.6933 25.508 59.6772 25.508 59.6772 25.5241ZM63.7224 28.6668L62.9327 29.7466C62.8198 29.9078 62.6587 30.0206 62.4975 30.0851C62.3364 30.1495 62.143 30.1656 61.9496 30.1173C61.7562 30.0851 61.5628 29.9884 61.3694 29.8433L60.4024 29.1181C60.3863 29.102 60.3863 29.102 60.3863 29.0859C60.3863 29.0697 60.3863 29.0536 60.4024 29.0375L62.3525 26.4105C62.3686 26.3944 62.3686 26.3944 62.3847 26.3944C62.4008 26.3944 62.4169 26.3944 62.4331 26.4105L63.4 27.1358C63.5934 27.2808 63.7385 27.442 63.8352 27.6193C63.9319 27.7965 63.9802 27.9738 63.9641 28.1672C63.8996 28.3445 63.8352 28.5057 63.7224 28.6668ZM63.2389 27.9577C63.2228 27.8288 63.1583 27.716 63.0294 27.6193L62.562 27.2808C62.5459 27.2647 62.5298 27.2808 62.5298 27.2808L61.2405 29.0214C61.2243 29.0375 61.2405 29.0536 61.2405 29.0536L61.7078 29.4082C61.8206 29.4888 61.9496 29.521 62.0785 29.5049C62.2074 29.4726 62.3364 29.3921 62.4331 29.2631L63.0938 28.3767C63.2066 28.2156 63.255 28.0866 63.2389 27.9577ZM64.1414 29.5693C64.1253 29.7305 64.1414 29.8917 64.1897 30.0528C64.2381 30.214 64.3187 30.3913 64.4315 30.6008C64.5282 30.7942 64.5765 30.9231 64.6249 31.0198C64.6571 31.1165 64.6732 31.1971 64.6732 31.2616C64.6732 31.3421 64.641 31.4066 64.5926 31.4549C64.5121 31.5355 64.4315 31.5678 64.3187 31.5678C64.2059 31.5678 64.093 31.5033 63.9641 31.3744C63.8191 31.2293 63.7385 31.0843 63.7062 30.9392C63.674 30.7942 63.7224 30.6652 63.8029 30.5847L63.8513 30.5363C63.8674 30.5202 63.8674 30.5041 63.8674 30.488C63.8674 30.4719 63.8674 30.4557 63.8513 30.4396L63.4484 30.0528C63.4323 30.0367 63.4161 30.0367 63.4 30.0367C63.3839 30.0367 63.3678 30.0367 63.3517 30.0528L63.2711 30.1334C63.1261 30.2785 63.0455 30.4396 63.0132 30.633C62.981 30.8264 63.0132 31.0037 63.0938 31.1971C63.1744 31.3905 63.3033 31.5839 63.4967 31.7612C63.7707 32.019 64.0447 32.1641 64.3348 32.1963C64.6249 32.2285 64.8666 32.1318 65.0761 31.9062C65.2212 31.7612 65.3018 31.6 65.3018 31.4388C65.3179 31.2777 65.3018 31.1165 65.2534 30.9876C65.2051 30.8586 65.1245 30.6652 65.0278 30.4557C64.9311 30.2623 64.8666 30.1173 64.8183 30.0045C64.7699 29.9078 64.7538 29.8111 64.7538 29.7466C64.7538 29.666 64.786 29.6016 64.8344 29.5532C64.915 29.4726 65.0117 29.4404 65.1084 29.4565C65.2212 29.4726 65.3179 29.521 65.4307 29.6338C65.5757 29.7627 65.6402 29.9078 65.6563 30.0528C65.6724 30.1979 65.6241 30.3268 65.5435 30.4235L65.5113 30.4557C65.4952 30.4719 65.4952 30.488 65.4952 30.5041C65.4952 30.5202 65.4952 30.5363 65.5113 30.5524L65.9142 30.9392C65.9303 30.9553 65.9464 30.9553 65.9625 30.9553C65.9786 30.9553 65.9948 30.9553 66.0109 30.9392L66.0592 30.8909C66.2043 30.7458 66.2849 30.5685 66.3171 30.3913C66.3493 30.1979 66.3171 30.0045 66.2526 29.8111C66.172 29.6177 66.0431 29.4243 65.8658 29.2631C65.7047 29.102 65.5274 28.9892 65.3501 28.9247C65.1728 28.8602 64.9955 28.8441 64.8183 28.8763C64.641 28.9086 64.4959 29.0053 64.3509 29.1342C64.2381 29.247 64.1736 29.3921 64.1414 29.5693ZM19.9988 67.6522V63.0751C17.4363 63.3975 14.9544 63.7681 12.5531 64.171L19.9988 67.6522ZM88.5898 65.2508L93.054 61.399C90.5721 60.1258 87.8646 58.9977 85.012 58.0468V63.9938C85.0281 64.1549 84.9314 64.3161 84.7702 64.3806L76.7282 68.1357C81.5631 69.1187 86.1079 70.5209 90.2659 72.342L88.4448 65.6699C88.4287 65.5087 88.477 65.3475 88.5898 65.2508ZM10.8448 63.9938C10.8448 63.9938 10.8448 63.9776 10.8448 63.9938V58.0468C7.99218 59.0138 5.30076 60.1258 2.80273 61.399L7.26695 65.2508C7.37976 65.3475 7.42811 65.5087 7.39588 65.6699L5.57474 72.342C9.73274 70.537 14.2775 69.1187 19.1124 68.1357L11.0704 64.3806C10.9254 64.3 10.8287 64.1549 10.8448 63.9938ZM84.2062 63.4942V50.4722C73.4405 48.5705 60.902 47.5712 47.9284 47.5712C34.9548 47.5712 22.4163 48.5705 11.6506 50.4883V63.5103C15.1317 62.8979 18.7901 62.3821 22.5936 61.9631C22.384 62.1404 22.3357 62.4305 22.4646 62.6722C22.6097 62.9301 22.932 63.0268 23.206 62.8979C23.3994 62.8012 23.5122 62.6078 23.5122 62.3982C23.5122 62.3177 23.4961 62.221 23.4477 62.1404C23.4316 62.1243 23.4316 62.092 23.4155 62.0759C23.3671 61.9953 23.2866 61.9309 23.206 61.8986C31.0063 61.0606 39.3706 60.6255 47.9284 60.6255C56.47 60.6255 64.8183 61.0606 72.6024 61.8986C72.5541 61.9309 72.5057 61.9792 72.4735 62.0276C72.4413 62.0759 72.4252 62.1082 72.409 62.1565C72.3123 62.4466 72.4735 62.7689 72.7636 62.8656C73.0376 62.9623 73.3116 62.8334 73.4405 62.5916C73.4888 62.5111 73.505 62.4144 73.505 62.3338C73.505 62.2048 73.4566 62.0759 73.376 61.9792C77.1311 62.3821 80.7573 62.8817 84.2062 63.4942ZM75.8579 63.0751V67.6522L83.3037 64.171C80.9023 63.7681 78.4043 63.3975 75.8579 63.0751ZM48.1218 28.9086L51.1194 31.8901C52.7794 33.5339 52.7955 36.2093 51.1516 37.8692C50.3297 38.6912 49.2499 39.1102 48.1701 39.1263C47.0903 39.1263 46.0105 38.7234 45.1725 37.9015C43.5125 36.2576 43.4964 33.5823 45.1403 31.9223L48.1218 28.9086ZM48.1379 30.633L46.0267 32.7604C45.4626 33.3244 45.1564 34.0819 45.1564 34.8877C45.1564 35.6935 45.4787 36.4349 46.0428 36.999C47.2193 38.1593 49.121 38.1593 50.2814 36.9828C50.8454 36.4188 51.1516 35.6613 51.1516 34.8555C51.1516 34.0497 50.8293 33.3083 50.2652 32.7443L48.1379 30.633ZM42.062 43.7033L54.3266 43.6389V42.414L42.062 42.4785V43.7033ZM56.4056 36.9506C55.503 37.8531 54.4716 38.5945 53.3757 39.1585C54.3427 37.982 54.9229 36.4832 54.9067 34.8555H53.6819C53.698 37.9015 51.2322 40.3834 48.1862 40.3995C45.1403 40.4156 42.6584 37.9498 42.6422 34.9038H41.4174C41.4335 36.5316 42.0137 38.0304 42.9968 39.1908C41.8848 38.6428 40.8533 37.9176 39.9347 37.0151L39.0644 37.9015C41.5141 40.3189 44.7535 41.6404 48.1862 41.6243C51.619 41.6082 54.8584 40.2544 57.2758 37.8048L56.4056 36.9506ZM48.4925 65.7666L47.9284 64.0099L47.3643 65.7666H45.5109L47.0098 66.8463L46.4457 68.603L47.9445 67.5232L49.4433 68.603L48.8792 66.8463L50.3781 65.7666H48.4925ZM41.0628 65.0252L40.676 63.8487L40.2893 65.0252H39.0644L40.0636 65.7504L39.6768 66.9269L40.676 66.2017L41.6753 66.9269L41.2885 65.7504L42.2877 65.0252H41.0628ZM26.4615 35.8063L27.4607 35.0811L28.4599 35.8063L28.0731 34.6299L29.0723 33.9046H27.8475L27.4607 32.7443L27.0739 33.9207H25.849L26.8483 34.646L26.4615 35.8063ZM55.5675 65.0252L55.1807 63.8487L54.7939 65.0252H53.5691L54.5683 65.7504L54.1815 66.9269L55.1807 66.2017L56.1799 66.9269L55.7931 65.7504L56.7924 65.0252H55.5675ZM67.3969 35.8063L68.3961 35.0811L69.3953 35.8063L69.0085 34.6299L70.0077 33.9046H68.7829L68.3961 32.7443L68.0093 33.9207H66.7845L67.7837 34.646L67.3969 35.8063ZM50.2814 19.7062C50.5553 19.7384 50.8132 19.5611 50.8938 19.2871C50.9099 19.2388 50.9099 19.1904 50.9099 19.1582C50.9099 18.9003 50.7326 18.6747 50.4909 18.6103C50.4425 18.5941 50.3942 18.5941 50.3619 18.5941C50.0557 18.5941 49.7979 18.852 49.7979 19.1582C49.7818 19.4322 49.9913 19.6739 50.2814 19.7062ZM75.9224 43.6711C75.9224 43.7356 75.9385 43.8 75.9546 43.8484C76.0513 44.1385 76.3737 44.2996 76.6637 44.2029C76.9055 44.1224 77.0505 43.9128 77.0505 43.6711C77.0505 43.6389 77.0505 43.6228 77.0505 43.5905C77.0183 43.3165 76.7766 43.107 76.4865 43.107C76.1641 43.107 75.9224 43.3649 75.9224 43.6711ZM71.9578 63.8971C71.6999 63.7359 71.3615 63.7842 71.1842 64.0421C71.0069 64.2839 71.0553 64.6223 71.297 64.7996C71.5388 64.993 71.8933 64.9607 72.0867 64.719C72.1028 64.7029 72.1028 64.6868 72.119 64.6868C72.1834 64.5901 72.2157 64.4772 72.2157 64.3806C72.1995 64.171 72.119 63.9938 71.9578 63.8971ZM75.4711 41.3987C75.5195 41.6566 75.7451 41.8661 76.0191 41.8661C76.3253 41.8661 76.5832 41.6082 76.5832 41.302C76.5832 41.2375 76.5671 41.1731 76.5509 41.1247C76.4542 40.8346 76.1319 40.6735 75.8418 40.7702C75.584 40.8507 75.4228 41.1247 75.4711 41.3987ZM69.766 65.9116C69.5726 66.1372 69.5726 66.4757 69.7821 66.6852C70.0077 66.9108 70.3623 66.9108 70.5718 66.6852C70.5879 66.6691 70.604 66.6529 70.6201 66.6368C70.7007 66.5401 70.7491 66.4112 70.7491 66.2823C70.7491 66.1211 70.6846 65.9599 70.5396 65.8471C70.2978 65.6537 69.9594 65.686 69.766 65.9116ZM45.4465 19.7062C45.4948 19.7062 45.5593 19.7062 45.6076 19.69C45.8494 19.6256 46.0105 19.4 46.0105 19.1582C46.0105 19.1099 46.0105 19.0615 45.9944 18.997C45.9138 18.7231 45.656 18.5619 45.382 18.5941C45.108 18.6264 44.8824 18.8681 44.8824 19.1582C44.8824 19.4644 45.1403 19.7062 45.4465 19.7062ZM76.1641 46.0724C76.1641 46.1208 76.1641 46.1852 76.1803 46.2336C76.2608 46.5237 76.5832 46.701 76.8733 46.6204C77.115 46.5559 77.2762 46.3303 77.2762 46.0885C77.2762 46.0724 77.2762 46.0402 77.2762 46.0241C77.2439 45.7501 77.0022 45.5245 76.7121 45.5245C76.422 45.5084 76.1641 45.7662 76.1641 46.0724ZM43.1418 20.0124C43.4158 19.964 43.6092 19.7384 43.6092 19.4644C43.6092 19.1582 43.3514 18.9003 43.0451 18.9003C42.9968 18.9003 42.9323 18.9003 42.884 18.9165C42.5939 18.997 42.4166 19.3194 42.4972 19.6095C42.5939 19.8834 42.8679 20.0607 43.1418 20.0124ZM76.7766 47.9258C76.4704 47.9258 76.2125 48.1837 76.2125 48.4899C76.2125 48.7961 76.4704 49.0539 76.7766 49.0539C77.0828 49.0539 77.3406 48.7961 77.3406 48.4899C77.3406 48.1837 77.0828 47.9258 76.7766 47.9258ZM47.8639 19.6095C47.88 19.6095 47.88 19.6095 47.8961 19.6095C47.9123 19.6095 47.9123 19.6095 47.9284 19.6095C48.2346 19.6095 48.4925 19.3516 48.4925 19.0454C48.4925 18.7392 48.2346 18.4813 47.9284 18.4813C47.9123 18.4813 47.9123 18.4813 47.8961 18.4813C47.88 18.4813 47.88 18.4813 47.8639 18.4813C47.5577 18.4813 47.2998 18.7392 47.2998 19.0454C47.2998 19.3516 47.5577 19.6095 47.8639 19.6095ZM74.0046 36.8861C74.0207 36.9345 74.0368 36.9828 74.069 37.0151C74.2463 37.2729 74.5847 37.3374 74.8426 37.1762C75.0038 37.0634 75.1005 36.8861 75.1005 36.7089C75.1005 36.6283 75.0844 36.5477 75.0521 36.4671C74.9393 36.2093 74.6331 36.0803 74.3591 36.177C74.069 36.2737 73.9079 36.596 74.0046 36.8861ZM70.5073 30.8425C70.733 31.0682 71.0875 31.0682 71.297 30.8425C71.4098 30.7297 71.4582 30.5847 71.4582 30.4396C71.4582 30.3107 71.4098 30.1979 71.3293 30.0851C71.152 29.8594 70.8297 29.8111 70.5718 29.9722C70.3139 30.1495 70.2495 30.488 70.4106 30.7458C70.459 30.7942 70.4912 30.8264 70.5073 30.8425ZM72.6024 32.9054C72.7636 32.7926 72.8603 32.6153 72.8603 32.438C72.8603 32.3252 72.8281 32.2285 72.7636 32.1318C72.5863 31.874 72.2479 31.8095 71.99 31.9707C71.7322 32.1479 71.6677 32.4864 71.8289 32.7443C71.99 33.0021 72.3446 33.0666 72.6024 32.9054ZM69.0569 29.0536C69.3147 29.2309 69.6693 29.1503 69.8304 28.8925C69.8949 28.7958 69.9271 28.6829 69.9271 28.5862C69.9271 28.4412 69.8788 28.3123 69.766 28.1995C69.5887 28.0061 69.2825 27.9577 69.0407 28.1189C68.7829 28.2962 68.7184 28.6346 68.8796 28.8925C68.944 28.9569 68.9924 29.0214 69.0569 29.0536ZM63.5773 24.3315C63.8352 24.5088 64.1897 24.4282 64.3509 24.1704C64.4154 24.0737 64.4476 23.9609 64.4476 23.8642C64.4476 23.6869 64.367 23.5096 64.1897 23.3968C63.9319 23.2195 63.5773 23.3001 63.4162 23.558C63.255 23.8158 63.3195 24.1543 63.5773 24.3315ZM59.4193 22.043C59.661 22.1558 59.9673 22.0753 60.1284 21.8496C60.1929 21.7529 60.2251 21.6401 60.2251 21.5434C60.2251 21.3661 60.1445 21.1889 59.9673 21.076C59.9189 21.0438 59.8867 21.0277 59.8383 21.0116C59.5482 20.9149 59.2259 21.076 59.1292 21.3661C59.0325 21.624 59.1776 21.9302 59.4193 22.043ZM67.9932 27.3292C68.1543 27.2164 68.251 27.0391 68.251 26.8618C68.251 26.749 68.2188 26.6523 68.1543 26.5556C68.106 26.4911 68.0576 26.4428 67.9932 26.3944C67.7353 26.2171 67.3808 26.2977 67.2196 26.5556C67.0584 26.7812 67.1068 27.0874 67.3002 27.2808C67.4775 27.442 67.7676 27.4742 67.9932 27.3292ZM61.5144 23.0745C61.5628 23.1067 61.595 23.1228 61.6434 23.1389C61.9335 23.2356 62.2558 23.0745 62.3525 22.7844C62.3686 22.7199 62.3847 22.6716 62.3847 22.6071C62.3847 22.3976 62.2719 22.2042 62.0785 22.1075C61.8206 21.9786 61.5144 22.0591 61.3533 22.3009C61.1921 22.5587 61.2566 22.8972 61.5144 23.0745ZM73.6822 35.065C73.924 34.9844 74.069 34.7749 74.069 34.5332C74.069 34.4687 74.0529 34.4203 74.0368 34.3559C74.0207 34.3075 74.0046 34.2592 73.9723 34.2269C73.7951 33.9691 73.4566 33.9046 73.1987 34.0658C72.957 34.2269 72.8764 34.5332 73.0054 34.791C73.1343 35.0166 73.4083 35.1456 73.6822 35.065ZM74.8426 39.1263C74.9232 39.4164 75.2294 39.5776 75.5195 39.5131C75.7774 39.4486 75.9385 39.223 75.9385 38.9651C75.9385 38.9168 75.9385 38.8684 75.9224 38.8362C75.9224 38.8201 75.9224 38.804 75.9063 38.7879C75.8096 38.4978 75.4873 38.3366 75.1972 38.4333C74.9071 38.53 74.7459 38.8362 74.8426 39.1263ZM57.2436 21.1727C57.2597 21.1727 57.2758 21.1889 57.292 21.1889C57.5982 21.2694 57.9044 21.076 57.9688 20.786C57.985 20.7376 57.985 20.6893 57.985 20.657C57.985 20.4153 57.8238 20.1897 57.582 20.1252C57.292 20.0446 56.9857 20.2058 56.889 20.4797C56.7924 20.7537 56.9374 21.076 57.2436 21.1727ZM54.9229 20.4797C54.9873 20.4959 55.0357 20.512 55.1001 20.512C55.4063 20.512 55.6642 20.2541 55.6642 19.9479C55.6642 19.6739 55.4708 19.4483 55.1968 19.4C54.9229 19.3516 54.6489 19.5128 54.5683 19.7706C54.4716 20.0607 54.6328 20.383 54.9229 20.4797ZM68.1543 67.6844C67.9609 67.8939 67.9448 68.2162 68.1221 68.4257C68.3155 68.6675 68.6701 68.6997 68.9118 68.4902C68.944 68.4741 68.9602 68.4419 68.9924 68.4096C69.073 68.3129 69.1213 68.184 69.1213 68.0551C69.1213 67.8939 69.0569 67.7327 68.9118 67.6199C68.6862 67.4588 68.3477 67.491 68.1543 67.6844ZM65.4952 25.7337C65.7208 25.9109 66.0431 25.8948 66.2365 25.6853C66.3493 25.5725 66.3977 25.4274 66.3977 25.2824C66.3977 25.1374 66.3493 24.9923 66.2365 24.8795C66.2043 24.8473 66.1882 24.8311 66.1559 24.815C65.8981 24.6378 65.5435 24.7183 65.3823 24.9762C65.2212 25.2179 65.2695 25.5403 65.4952 25.7337ZM52.5538 19.9801C52.6182 19.9963 52.6666 20.0124 52.731 20.0124C53.0373 20.0124 53.2951 19.7545 53.2951 19.4483C53.2951 19.1743 53.1017 18.9487 52.8277 18.9003C52.5538 18.852 52.2798 19.0132 52.1992 19.271C52.1025 19.5611 52.2637 19.8834 52.5538 19.9801ZM19.2897 44.2996C19.5959 44.348 19.886 44.1385 19.9182 43.8323C19.9182 43.8 19.9182 43.7839 19.9182 43.7517C19.9182 43.4777 19.7249 43.2521 19.4509 43.2037C19.1447 43.1554 18.8546 43.3649 18.8062 43.6711V43.6872C18.774 43.9612 18.9835 44.2513 19.2897 44.2996ZM31.3286 70.811C31.0868 70.6337 30.7484 70.682 30.5711 70.9238C30.3777 71.1655 30.41 71.5201 30.6517 71.7135C30.6678 71.7296 30.6839 71.7296 30.6839 71.7457C30.9418 71.923 31.2964 71.8424 31.4575 71.5845C31.522 71.4878 31.5542 71.375 31.5542 71.2783C31.5542 71.101 31.4736 70.9238 31.3286 70.811ZM33.327 72.1486C33.3109 72.1325 33.2948 72.1164 33.2625 72.1164C32.9886 71.9713 32.6501 72.0841 32.5051 72.3742C32.3762 72.6321 32.4728 72.9544 32.7146 73.1156C32.9725 73.2606 33.2948 73.1962 33.4721 72.9383C33.5365 72.8416 33.5688 72.7288 33.5688 72.6321C33.5688 72.4387 33.4882 72.2614 33.327 72.1486ZM35.3738 73.2767C35.0998 73.1317 34.7614 73.2445 34.6163 73.5346C34.4713 73.8086 34.5841 74.147 34.8742 74.2921C35.1482 74.4371 35.4866 74.3243 35.6316 74.0342C35.6639 73.9536 35.6961 73.8731 35.6961 73.7764C35.6961 73.5668 35.5672 73.3734 35.3738 73.2767ZM40.8372 20.4959H40.8533C41.0951 20.4153 41.2401 20.2058 41.2401 19.964C41.2401 19.8996 41.224 19.8512 41.2079 19.7867C41.1112 19.4966 40.805 19.3355 40.5149 19.4322C40.2248 19.5128 40.0475 19.8351 40.1442 20.1252C40.2409 20.4153 40.5471 20.5926 40.8372 20.4959ZM39.7896 75.0173C39.4996 74.9206 39.1933 75.0818 39.0966 75.3719C39 75.662 39.1611 75.9843 39.4512 76.081H39.4673C39.7574 76.1616 40.0797 76.0004 40.1603 75.6942C40.1764 75.6458 40.1764 75.5975 40.1764 75.533C40.1764 75.3074 40.0314 75.0818 39.7896 75.0173ZM26.1391 65.9761C25.9457 65.7343 25.5912 65.7021 25.3494 65.9116C25.1077 66.105 25.0755 66.4596 25.2689 66.7013C25.4623 66.943 25.8168 66.9753 26.0586 66.7819C26.2036 66.6691 26.2681 66.5079 26.2681 66.3467C26.2842 66.2017 26.2358 66.0889 26.1391 65.9761C26.1553 65.9761 26.1553 65.9761 26.1391 65.9761ZM24.6887 64.0582C24.4953 63.8165 24.1407 63.7842 23.899 63.9776C23.6572 64.171 23.625 64.5095 23.7862 64.7351C23.9634 64.9769 24.3019 65.0413 24.5597 64.8802C24.7209 64.7673 24.8176 64.5901 24.8176 64.4128C24.8176 64.3 24.7854 64.2033 24.7209 64.1066C24.7048 64.0905 24.7048 64.0743 24.6887 64.0582ZM28.6694 69.4088C28.476 69.6506 28.5082 70.0051 28.7339 70.1985C28.7339 70.1985 28.7339 70.1985 28.75 70.1985C28.9917 70.3919 29.3463 70.3597 29.5397 70.118C29.6203 70.0213 29.6686 69.8923 29.6686 69.7634C29.6686 69.6022 29.6041 69.4411 29.4591 69.3283C29.2174 69.151 28.8628 69.1832 28.6694 69.4088ZM26.9772 67.6844C26.7354 67.8778 26.7032 68.2323 26.8966 68.4741C26.9127 68.4902 26.9288 68.5063 26.945 68.5224C27.1706 68.7481 27.5251 68.7481 27.7347 68.5224C27.8475 68.4096 27.8958 68.2646 27.8958 68.1195C27.8958 67.9906 27.8475 67.8456 27.7508 67.7327C27.5574 67.5232 27.2189 67.491 26.9772 67.6844ZM37.5817 74.2598C37.5495 74.2437 37.5173 74.2276 37.485 74.2276C37.1949 74.147 36.8726 74.3082 36.792 74.6144C36.7114 74.8884 36.8565 75.1785 37.1305 75.2913C37.4044 75.4041 37.7106 75.2913 37.8396 75.0173C37.8879 74.9367 37.904 74.8561 37.904 74.7594C37.904 74.5499 37.7912 74.3565 37.5817 74.2598ZM56.1477 74.9851C55.8576 75.0657 55.6803 75.3719 55.7609 75.662C55.8415 75.9682 56.1477 76.1455 56.4378 76.0649C56.4539 76.0649 56.47 76.0649 56.4861 76.0488C56.7279 75.9682 56.8729 75.7587 56.8729 75.5169C56.8729 75.4524 56.8568 75.4041 56.8407 75.3396C56.744 75.0657 56.4378 74.9045 56.1477 74.9851ZM53.8753 75.5814C53.8592 75.5814 53.8431 75.5814 53.827 75.5975C53.5207 75.6781 53.3435 75.9843 53.424 76.2744C53.5046 76.5645 53.7947 76.7418 54.0848 76.6934C54.3427 76.6451 54.5361 76.4033 54.5361 76.1455C54.5361 76.1132 54.5361 76.081 54.5361 76.0488C54.4555 75.7264 54.1654 75.533 53.8753 75.5814ZM58.3879 74.2115C58.13 74.3082 57.9688 74.5983 58.0494 74.8723C58.13 75.1785 58.4362 75.3558 58.7263 75.2752C58.7585 75.2591 58.8069 75.2429 58.8391 75.2268C59.0325 75.1301 59.1453 74.9367 59.1453 74.7272C59.1453 74.6466 59.1292 74.5499 59.0809 74.4694C58.9519 74.2276 58.6457 74.1148 58.3879 74.2115ZM60.5313 73.2445C60.2574 73.3896 60.1445 73.728 60.2735 74.002C60.4185 74.276 60.757 74.3888 61.0309 74.2598C61.2243 74.1631 61.3372 73.9697 61.3372 73.7602C61.3372 73.6797 61.321 73.583 61.2727 73.5024C61.1437 73.2123 60.8053 73.0995 60.5313 73.2445ZM51.4901 75.9843C51.1839 76.0326 50.9744 76.3066 51.0227 76.6128C51.0549 76.919 51.345 77.1447 51.6512 77.0963H51.6674C51.9413 77.048 52.1347 76.8062 52.1347 76.5484C52.1347 76.5161 52.1347 76.4839 52.1347 76.4517C52.0864 76.1455 51.7963 75.9359 51.4901 75.9843ZM46.7841 76.1777C46.494 76.1616 46.2362 76.3711 46.2039 76.6612C46.1717 76.9674 46.3812 77.2414 46.6874 77.2897C46.7035 77.2897 46.7358 77.2897 46.7519 77.2897C47.0581 77.2897 47.316 77.0318 47.316 76.7256C47.316 76.4355 47.0742 76.1938 46.7841 76.1777ZM44.4311 75.9843C44.1249 75.9359 43.851 76.1455 43.8026 76.4517C43.7543 76.7579 43.9638 77.048 44.27 77.0963H44.2861C44.5923 77.1447 44.8824 76.919 44.9146 76.6128C44.9146 76.5806 44.9146 76.5645 44.9146 76.5322C44.9146 76.2744 44.7051 76.0326 44.4311 75.9843ZM42.0782 75.5975C41.8042 75.533 41.5141 75.6942 41.4174 75.9682C41.3207 76.2583 41.4819 76.5806 41.772 76.6773C41.8042 76.6934 41.8364 76.6934 41.8687 76.6934C42.1749 76.7418 42.465 76.5161 42.4972 76.2099C42.4972 76.1777 42.4972 76.1616 42.4972 76.1293C42.5294 75.8876 42.336 75.662 42.0782 75.5975ZM49.1693 76.1777C49.1532 76.1777 49.121 76.1777 49.1049 76.1777C48.7987 76.2099 48.573 76.5 48.6214 76.8062C48.6536 77.0963 48.9115 77.3058 49.2016 77.2897C49.4917 77.2736 49.7334 77.0318 49.7334 76.7256C49.7334 76.4194 49.4756 76.1777 49.1693 76.1777ZM19.0802 49.1184C19.3864 49.1184 19.6443 48.8606 19.6443 48.5543C19.6443 48.2481 19.3864 47.9903 19.0802 47.9903C18.774 47.9903 18.5161 48.2481 18.5161 48.5543C18.5161 48.8767 18.774 49.1184 19.0802 49.1184ZM66.4944 69.2638C66.446 69.296 66.3977 69.3283 66.3654 69.3766C66.172 69.6183 66.2043 69.9729 66.446 70.1663C66.6555 70.3436 66.9617 70.3275 67.1712 70.1502C67.3002 70.0374 67.3646 69.8923 67.3646 69.7312C67.3646 69.6183 67.3324 69.5217 67.2679 69.425C67.0907 69.1671 66.7522 69.1026 66.4944 69.2638ZM64.5926 70.7787C64.5604 70.7948 64.5282 70.8271 64.5121 70.8432C64.2864 71.0688 64.2864 71.4234 64.5121 71.6329C64.7216 71.8424 65.0439 71.8585 65.2534 71.6812C65.3985 71.5684 65.4629 71.4073 65.4629 71.2461C65.4629 71.1333 65.4307 71.0366 65.3662 70.9399C65.2051 70.6659 64.8505 70.6014 64.5926 70.7787ZM26.8644 29.0053C26.9611 28.8925 27.0094 28.7635 27.0094 28.6346C27.0094 28.4895 26.9611 28.3445 26.8483 28.2317C26.6226 28.0061 26.2681 28.0061 26.0586 28.2317C26.0424 28.2478 26.0424 28.2639 26.0263 28.2639C25.8329 28.5057 25.8652 28.8602 26.0908 29.0536C26.3164 29.2631 26.671 29.2309 26.8644 29.0053ZM28.476 27.3453C28.5082 27.3292 28.5405 27.2969 28.5566 27.2647C28.6372 27.1519 28.6855 27.0391 28.6855 26.9101C28.6855 26.749 28.6211 26.5878 28.476 26.475C28.2504 26.2816 27.9281 26.2977 27.7347 26.5072C27.5251 26.7006 27.509 27.0391 27.6863 27.2647C27.8958 27.5065 28.2343 27.5387 28.476 27.3453ZM30.2971 25.782C30.4422 25.6692 30.5228 25.508 30.5228 25.3308C30.5228 25.2179 30.4905 25.1212 30.4261 25.0245C30.2488 24.7667 29.9104 24.7022 29.6525 24.8634C29.6364 24.8795 29.6203 24.8795 29.6203 24.8956C29.3785 25.089 29.3463 25.4436 29.5397 25.6853C29.717 25.9109 30.0554 25.9593 30.2971 25.782ZM38.5487 21.205C38.7904 21.1244 38.9355 20.9149 38.9355 20.6731C38.9355 20.6248 38.9355 20.5764 38.9194 20.512C38.8388 20.2219 38.5165 20.0446 38.2264 20.1252H38.2103C37.9202 20.2219 37.759 20.5442 37.8557 20.8343C37.9363 21.1405 38.2586 21.2856 38.5487 21.205ZM36.3085 22.0914C36.3408 22.0753 36.373 22.0591 36.4052 22.043C36.5825 21.9463 36.6953 21.7529 36.6953 21.5595C36.6953 21.4628 36.6792 21.3661 36.6147 21.2856C36.4697 21.0277 36.1635 20.931 35.9056 21.0438C35.6478 21.1566 35.5027 21.4628 35.5994 21.7368C35.6961 22.0269 36.0184 22.1881 36.3085 22.0914ZM19.1285 46.701C19.4348 46.701 19.6765 46.4753 19.6926 46.1691C19.6926 46.153 19.6926 46.153 19.6926 46.1369C19.6926 45.8629 19.4831 45.6212 19.2091 45.5889C18.9029 45.5406 18.6128 45.7662 18.5806 46.0724C18.5806 46.1047 18.5806 46.1208 18.5806 46.153C18.5645 46.4592 18.8062 46.701 19.1285 46.701ZM34.2295 23.1389C34.4229 23.0422 34.5357 22.8488 34.5357 22.6393C34.5357 22.5749 34.5196 22.5265 34.5035 22.462C34.4068 22.172 34.0845 22.0108 33.7944 22.1075C33.746 22.1236 33.6977 22.1397 33.6655 22.172C33.4076 22.3492 33.3431 22.6877 33.5043 22.9455C33.6655 23.1873 33.9717 23.2679 34.2295 23.1389ZM32.215 24.3638C32.2311 24.3477 32.2472 24.3477 32.2472 24.3315C32.3923 24.2187 32.4567 24.0576 32.4567 23.8964C32.4567 23.7675 32.4245 23.6547 32.3278 23.5418C32.1344 23.3001 31.796 23.2679 31.5542 23.4451C31.3125 23.6224 31.248 23.9609 31.4092 24.2187C31.6187 24.4605 31.9571 24.5411 32.215 24.3638ZM19.6443 41.8983C19.9344 41.995 20.2567 41.8338 20.3534 41.5438C20.3695 41.5115 20.3695 41.4793 20.3856 41.4309C20.3856 41.4148 20.3856 41.3826 20.3856 41.3665C20.3856 41.0925 20.1761 40.8507 19.886 40.8024C19.5959 40.7702 19.3381 40.9475 19.2736 41.2375C19.2091 41.5115 19.3542 41.8016 19.6443 41.8983ZM20.2728 39.5776C20.5629 39.6743 20.8852 39.5131 20.9819 39.223C20.9819 39.2069 20.998 39.1908 20.998 39.1747C21.0142 39.1263 21.0142 39.078 21.0142 39.0457C21.0142 38.7879 20.8369 38.5622 20.5951 38.4978C20.305 38.4172 19.9988 38.5945 19.9182 38.8846C19.8377 39.1585 19.9988 39.4809 20.2728 39.5776ZM22.0778 35.0811C22.3518 35.21 22.6741 35.1133 22.8192 34.8555C22.8675 34.7749 22.8998 34.6782 22.8998 34.5815C22.8998 34.4042 22.8192 34.2269 22.6419 34.1141C22.384 33.9369 22.0295 34.0174 21.8683 34.2753C21.8522 34.2914 21.8361 34.3075 21.8361 34.3398C21.6749 34.6137 21.7877 34.9522 22.0778 35.0811ZM62.6103 72.1003C62.3525 72.2453 62.2719 72.5676 62.4008 72.8255C62.5459 73.0995 62.8843 73.2123 63.1583 73.0834C63.1744 73.0672 63.2066 73.0672 63.2228 73.0511C63.3839 72.9383 63.4806 72.761 63.4806 72.5838C63.4806 72.4709 63.4484 72.3742 63.3839 72.2775C63.2066 72.0197 62.8682 71.9391 62.6103 72.1003ZM21.0464 37.2729C21.3204 37.418 21.6588 37.3052 21.8039 37.0151C21.82 36.9828 21.8361 36.9345 21.8522 36.9023C21.8683 36.8539 21.8683 36.8056 21.8683 36.7733C21.8683 36.5155 21.691 36.2898 21.4493 36.2254C21.1753 36.1609 20.8852 36.306 20.7885 36.5638C20.6757 36.8378 20.7885 37.144 21.0464 37.2729ZM23.2221 32.9538C23.4799 33.131 23.8345 33.0505 23.9957 32.7926C24.0118 32.7765 24.0279 32.7604 24.0279 32.7281C24.0763 32.6476 24.0924 32.567 24.0924 32.4703C24.0924 32.2608 23.9796 32.0674 23.7862 31.9707C23.5283 31.8417 23.206 31.9384 23.0448 32.1802C22.8998 32.4542 22.9642 32.7926 23.2221 32.9538ZM24.592 30.9715C24.8337 31.1326 25.156 31.0843 25.3494 30.8586C25.43 30.7619 25.4784 30.633 25.4784 30.5041C25.4784 30.359 25.43 30.214 25.3172 30.1012C25.0916 29.8755 24.737 29.8755 24.5275 30.1012C24.4953 30.1334 24.4792 30.1495 24.463 30.1818C24.2696 30.4396 24.3341 30.7942 24.592 30.9715ZM69.8304 38.6428C70.4429 40.0772 70.9102 41.576 71.2164 43.107C71.5227 44.6381 71.6838 46.2014 71.6999 47.7808C71.9739 47.813 72.2318 47.8291 72.5057 47.8613C72.5057 46.2014 72.3285 44.5414 72.0061 42.9459C71.6838 41.3665 71.2003 39.8193 70.5718 38.3366C70.4912 38.1271 70.2495 38.0304 70.04 38.1271C69.8466 38.1916 69.7499 38.4333 69.8304 38.6428ZM64.7377 64.7029C63.6579 65.7827 62.4814 66.7496 61.2243 67.6038C59.9511 68.458 58.5974 69.1993 57.1791 69.7956C55.7448 70.408 54.246 70.8754 52.7149 71.1816C49.5884 71.8263 46.2684 71.8263 43.1257 71.1816C41.5947 70.8754 40.0959 70.408 38.6615 69.7956C37.2594 69.1993 35.8895 68.458 34.6163 67.6038C33.3592 66.7496 32.1666 65.7827 31.103 64.7029C30.3455 63.9454 29.6525 63.1557 29.0078 62.3015C28.6855 62.3338 28.3793 62.3499 28.057 62.3821C28.7983 63.4136 29.6364 64.3806 30.5389 65.2669C31.6509 66.379 32.8758 67.3943 34.1812 68.2646C35.5027 69.151 36.9048 69.9084 38.3553 70.537C39.838 71.1655 41.3852 71.649 42.9646 71.9713C44.5762 72.3098 46.2523 72.4709 47.9123 72.4709C49.5722 72.4709 51.2483 72.3098 52.86 71.9713C54.4394 71.649 55.9865 71.1655 57.4692 70.537C58.9197 69.9246 60.3379 69.151 61.6434 68.2646C62.9488 67.3782 64.1736 66.379 65.2856 65.2669C66.1882 64.3644 67.0101 63.3975 67.7676 62.3821C67.4452 62.3499 67.139 62.3338 66.8167 62.3015C66.1882 63.1557 65.4952 63.9454 64.7377 64.7029ZM25.285 38.3205C24.6564 39.8032 24.173 41.3504 23.8506 42.9298C23.5283 44.5414 23.351 46.2014 23.351 47.8452C23.625 47.813 23.8829 47.7808 24.1568 47.7646C24.1568 46.1852 24.318 44.622 24.6403 43.0909C24.9465 41.5599 25.4139 40.0611 26.0263 38.6267C26.1069 38.4172 26.0102 38.1916 25.8168 38.0949C25.6073 38.0304 25.3656 38.1271 25.285 38.3205Z" fill="white"/>
<path d="M35.2442 50.7463C35.2764 50.7785 35.2764 50.8269 35.2764 50.8913C34.7123 53.4377 34.1805 56.0002 33.6486 58.5466C33.6325 58.6433 33.5681 58.6916 33.4714 58.7077C32.8751 58.74 32.2626 58.7883 31.6663 58.8206C31.5535 58.8206 31.4891 58.7883 31.4568 58.6916C31.1023 57.4184 30.7316 56.1452 30.3609 54.8721C30.3448 54.8559 30.3448 54.8398 30.3287 54.8398C30.3126 54.8398 30.2965 54.8559 30.2965 54.8721C30.1514 56.1775 30.0064 57.4829 29.8613 58.7883C29.8452 58.9011 29.7969 58.9495 29.7002 58.9656C29.1361 59.014 28.5881 59.0462 28.0241 59.0945C27.9757 59.0945 27.9435 59.0945 27.8951 59.0623C27.8629 59.0462 27.8307 58.9978 27.8145 58.9656C26.8637 56.5159 25.8806 54.0824 24.8653 51.6327C24.8491 51.6166 24.8491 51.6004 24.8491 51.5843C24.833 51.4876 24.8975 51.4393 24.9942 51.4393C25.655 51.3748 26.3157 51.3104 26.9765 51.262C27.0732 51.2459 27.1377 51.2942 27.1699 51.3909C27.605 52.5835 28.0241 53.7762 28.4592 54.9688C28.4753 54.9849 28.4753 55.001 28.4914 55.001C28.5075 55.001 28.5237 54.9849 28.5237 54.9526C28.6848 53.7117 28.846 52.4707 29.0072 51.2298C29.0233 51.1331 29.0877 51.0686 29.2005 51.0686C29.7646 51.0203 30.3287 50.988 30.9089 50.9397C31.0056 50.9397 31.07 50.9719 31.1023 51.0686C31.4729 52.2773 31.8436 53.4699 32.2143 54.6787C32.2304 54.7109 32.2304 54.727 32.2465 54.727C32.2626 54.727 32.2788 54.7109 32.2788 54.6787C32.4883 53.4377 32.6978 52.1968 32.9234 50.9558C32.9395 50.8591 33.004 50.8108 33.1007 50.7946C33.7615 50.7624 34.4222 50.7141 35.0991 50.6818C35.1636 50.6979 35.2119 50.7141 35.2442 50.7463ZM38.693 50.5851C38.6608 50.5529 38.6125 50.5368 38.5641 50.5368C37.9517 50.5529 37.3393 50.5851 36.7269 50.6174C36.6785 50.6174 36.6302 50.6335 36.5979 50.6657C36.5657 50.6979 36.5496 50.7463 36.5496 50.7946C36.6624 53.3088 36.7752 55.8229 36.888 58.3532C36.888 58.4015 36.9041 58.4499 36.9364 58.4821C36.9686 58.5143 37.017 58.5305 37.0653 58.5143C37.6616 58.4821 38.2579 58.466 38.8542 58.4338C38.9026 58.4338 38.9509 58.4176 38.9831 58.3854C39.0154 58.3532 39.0315 58.3048 39.0315 58.2565C38.9348 55.7423 38.8542 53.2282 38.7575 50.6979C38.7414 50.6496 38.7253 50.6174 38.693 50.5851ZM46.9607 50.424C46.9285 50.3917 46.8801 50.3756 46.8318 50.3756C46.2194 50.3756 45.6069 50.3756 44.9945 50.3917C44.9462 50.3917 44.8978 50.4078 44.8656 50.4401C44.8334 50.4723 44.8172 50.5045 44.8172 50.569C44.8334 51.8261 44.8495 53.067 44.8656 54.3241C44.8656 54.3563 44.8656 54.3725 44.8495 54.3725C44.8334 54.3725 44.8172 54.3725 44.8011 54.3402C44.0114 53.067 43.2056 51.81 42.3837 50.5368C42.3353 50.4562 42.2709 50.424 42.1742 50.424C41.594 50.4401 40.9977 50.4562 40.4175 50.4723C40.3691 50.4723 40.3208 50.4884 40.2886 50.5207C40.2563 50.5529 40.2402 50.6012 40.2402 50.6496C40.3208 53.1637 40.4014 55.694 40.4658 58.2081C40.4658 58.2565 40.482 58.3048 40.5142 58.3371C40.5464 58.3693 40.5948 58.3854 40.6431 58.3854C41.2394 58.3693 41.8357 58.3532 42.432 58.3371C42.4804 58.3371 42.5287 58.3209 42.561 58.2887C42.5932 58.2565 42.6093 58.2243 42.6093 58.1598C42.5771 56.9027 42.5448 55.6618 42.5126 54.4047C42.5126 54.3725 42.5126 54.3563 42.5287 54.3563C42.5448 54.3563 42.561 54.3563 42.5771 54.3886C43.3829 55.6456 44.1726 56.9188 44.9623 58.192C45.0106 58.2726 45.0751 58.3048 45.1718 58.3048C45.7359 58.3048 46.3161 58.2887 46.8801 58.2887C46.9285 58.2887 46.9768 58.2726 47.0091 58.2404C47.0413 58.2081 47.0574 58.1759 47.0574 58.1114C47.0574 55.5973 47.0413 53.067 47.0413 50.5529C47.0091 50.4884 46.9929 50.4562 46.9607 50.424ZM55.0994 50.4884C54.487 50.4723 53.8746 50.4562 53.2622 50.4401C53.2138 50.4401 53.1655 50.4562 53.1333 50.4884C53.101 50.5207 53.0849 50.5529 53.0849 50.6174C53.0527 51.8744 53.0366 53.1154 53.0043 54.3725C53.0043 54.4047 52.9882 54.4208 52.9882 54.4208C52.9721 54.4208 52.956 54.4208 52.9399 54.3886C52.1985 53.0993 51.4249 51.7938 50.6513 50.5207C50.603 50.4401 50.5385 50.4078 50.4418 50.4078C49.8616 50.4078 49.2653 50.3917 48.6852 50.3917C48.6368 50.3917 48.5885 50.4078 48.5562 50.4401C48.524 50.4723 48.5079 50.5045 48.5079 50.569C48.4918 53.0832 48.4918 55.6134 48.4756 58.1276C48.4756 58.1759 48.4918 58.2242 48.524 58.2565C48.5562 58.2887 48.5885 58.3048 48.6529 58.3048C49.2492 58.3048 49.8455 58.3048 50.4418 58.321C50.4902 58.321 50.5385 58.3048 50.5708 58.2726C50.603 58.2404 50.6191 58.2081 50.6191 58.1437C50.6352 56.8866 50.6352 55.6456 50.6513 54.3886C50.6513 54.3563 50.6675 54.3402 50.6675 54.3402C50.6836 54.3402 50.6997 54.3402 50.7158 54.3725C51.4733 55.6618 52.2307 56.9511 52.9721 58.2565C53.0204 58.3371 53.0849 58.3693 53.1655 58.3693C53.7296 58.3854 54.3097 58.4015 54.8738 58.4176C54.9222 58.4176 54.9705 58.4015 55.0027 58.3693C55.035 58.3371 55.0511 58.3048 55.0511 58.2404C55.1317 55.7262 55.2123 53.196 55.2928 50.6818C55.2928 50.6335 55.2767 50.5851 55.2445 50.5529C55.1961 50.5045 55.1478 50.4884 55.0994 50.4884ZM62.4968 50.8269C60.6434 50.7141 58.7901 50.6174 56.9367 50.5529C56.8883 50.5529 56.84 50.569 56.8078 50.5851C56.7755 50.6174 56.7594 50.6496 56.7594 50.7141C56.6627 53.2282 56.566 55.7423 56.4693 58.2726C56.4693 58.3209 56.4854 58.3693 56.5177 58.4015C56.5499 58.4338 56.5821 58.4499 56.6466 58.4499C58.4355 58.5143 60.2405 58.611 62.0294 58.7239C62.0778 58.7239 62.1261 58.7077 62.1584 58.6916C62.1906 58.6594 62.2067 58.6272 62.2067 58.5627C62.239 58.0631 62.2712 57.5796 62.3034 57.08C62.3034 57.0316 62.2873 56.9833 62.2712 56.9511C62.239 56.9188 62.2067 56.9027 62.1423 56.9027C61.0141 56.8382 59.8699 56.7738 58.7417 56.7254C58.7095 56.7254 58.6934 56.7093 58.6934 56.661C58.7095 56.2742 58.7256 55.8874 58.7417 55.4845C58.7417 55.4522 58.7578 55.4361 58.8062 55.4361C59.5153 55.4684 60.2083 55.5006 60.9174 55.5489C60.9658 55.5489 61.0141 55.5328 61.0464 55.5167C61.0786 55.4845 61.0947 55.4522 61.0947 55.3878C61.1269 54.9043 61.1431 54.4047 61.1753 53.9212C61.1753 53.8728 61.1592 53.8245 61.1431 53.7923C61.1108 53.76 61.0786 53.7439 61.0141 53.7439C60.305 53.7117 59.5959 53.6633 58.8868 53.6311C58.8545 53.6311 58.8223 53.615 58.8384 53.5666C58.8545 53.2121 58.8707 52.8575 58.8868 52.503C58.8868 52.4707 58.9029 52.4546 58.9512 52.4546C60.1116 52.503 61.2559 52.5674 62.4162 52.648C62.4646 52.648 62.5129 52.6319 62.5452 52.6158C62.5774 52.5835 62.5935 52.5513 62.5935 52.4868C62.6258 51.9872 62.658 51.5038 62.6902 51.0041C62.6902 50.9558 62.6741 50.9074 62.658 50.8752C62.5935 50.8591 62.5613 50.843 62.4968 50.8269ZM68.476 56.0163C68.8789 57.0478 69.2657 58.0792 69.6525 59.1106C69.6686 59.159 69.6686 59.1912 69.6686 59.1912C69.6686 59.2235 69.6525 59.2557 69.6202 59.2718C69.588 59.2879 69.5558 59.304 69.5074 59.2879C68.8789 59.2235 68.2503 59.1751 67.6218 59.1106C67.5251 59.0945 67.4606 59.0623 67.4445 58.9656C67.1061 57.9825 66.7676 56.9994 66.4292 56.0002C66.4131 55.968 66.397 55.9519 66.3647 55.9519C66.2036 55.9357 66.0424 55.9196 65.8812 55.9196C65.849 55.9196 65.8168 55.9357 65.8168 55.968C65.7523 56.9027 65.6717 57.8375 65.6073 58.7722C65.6073 58.8206 65.5912 58.8689 65.5589 58.885C65.5267 58.9173 65.4783 58.9173 65.43 58.9173C64.8337 58.8689 64.2374 58.8367 63.6411 58.7883C63.5927 58.7883 63.5444 58.7722 63.5121 58.74C63.4799 58.7077 63.4799 58.6594 63.4799 58.611C63.6572 56.0969 63.8184 53.5828 63.9956 51.0686C63.9956 51.0203 64.0118 50.9719 64.044 50.9558C64.0762 50.9236 64.1246 50.9236 64.1729 50.9236C65.3494 51.0041 66.5259 51.1008 67.7024 51.1975C68.2342 51.2459 68.6855 51.3909 69.0723 51.6327C69.4591 51.8744 69.733 52.1968 69.9264 52.5997C70.1037 53.0026 70.1843 53.4377 70.1359 53.9373C70.0876 54.4369 69.9264 54.8559 69.6363 55.1944C69.3462 55.5489 68.9917 55.7746 68.5404 55.9196C68.4921 55.9519 68.476 55.968 68.476 56.0163ZM67.9602 53.7762C67.9764 53.5666 67.9119 53.3732 67.7668 53.2282C67.6218 53.0832 67.4284 53.0026 67.1867 52.9865C66.8321 52.9542 66.4614 52.922 66.1069 52.9059C66.0746 52.9059 66.0424 52.922 66.0424 52.9542C66.0102 53.3894 65.9779 53.8245 65.9457 54.2758C65.9457 54.308 65.9618 54.3402 65.9941 54.3402C66.3486 54.3725 66.7193 54.3886 67.0738 54.4208C67.3156 54.4369 67.5251 54.3886 67.6863 54.2758C67.8474 54.1468 67.9441 53.9857 67.9602 53.7762Z" fill="#120B47"/>
</svg>
