<svg width="161" height="40" viewBox="0 0 161 40" fill="none" xmlns="http://www.w3.org/2000/svg">
<path fill-rule="evenodd" clip-rule="evenodd" d="M21.4686 8.51166L21.4772 8.52035C25.6746 12.7392 30.4318 17.5211 30.4318 24.692C30.4318 30.161 27.5316 35.2146 22.8238 37.9491C18.116 40.6836 12.3157 40.6836 7.60794 37.9491C2.90013 35.2146 0 30.161 0 24.692C0 17.5225 4.75507 12.7417 8.9504 8.52363L8.96564 8.50831C11.7587 5.69922 14.4221 3.02052 15.2154 0C16.0091 3.02172 18.6738 5.70135 21.4686 8.51166ZM8.47877 15.8989C2.09102 22.2563 5.53425 28.2271 6.46722 28.259L6.47272 28.2592C6.56994 28.2627 6.72709 28.2683 6.83532 27.9645C7.33107 26.5731 11.0672 22.7394 12.41 21.3616C12.5146 21.2542 12.6047 21.1618 12.6776 21.0866C12.7581 21.0218 12.8073 20.9254 12.8127 20.8218C12.8181 20.7181 12.7792 20.6171 12.7058 20.5442L8.47877 15.8989ZM11.5155 34.5864C12.4969 35.5737 13.828 36.1284 15.2159 36.1284C18.1061 36.1284 20.449 33.7712 20.449 30.8636C20.4603 29.5765 19.9919 28.3319 19.1362 27.3749C18.154 26.2731 15.2152 22.9603 15.2152 22.9603C15.2152 22.9603 12.2307 26.2252 11.2871 27.386C10.4634 28.3572 10.0021 29.587 9.98276 30.8636C9.98276 32.2599 10.5341 33.599 11.5155 34.5864ZM24.5181 28.2658C24.8634 28.2532 25.1193 27.8389 25.2321 27.5907C25.7604 26.4283 26.6564 22.9059 24.0565 18.8352C21.4566 14.7646 15.2154 8.807 15.2154 8.807C15.2154 8.807 13.1222 10.9115 12.4051 11.6343C12.3812 11.6583 12.3562 11.6833 12.3303 11.7092C11.7352 12.3029 10.6613 13.3746 12.0355 14.8685C12.4013 15.2662 13.1237 16.0359 14.0357 17.0076C17.1887 20.3671 22.6071 26.1402 23.3818 27.2937C23.4616 27.4125 23.5295 27.5203 23.5904 27.617C23.8768 28.0719 24.0106 28.2844 24.5181 28.2658Z" fill="#53B0EB"/>
<path fill-rule="evenodd" clip-rule="evenodd" d="M48.3542 33.8103H42.7033V9.48443H48.7666C56.1083 9.48443 61.6767 10.8399 61.6767 21.647C61.6767 32.3507 55.7784 33.8103 48.3542 33.8103ZM49.7029 13.7012H47.7059V29.5894L49.757 29.6425C53.9639 29.6425 56.6734 29.2576 56.6734 21.647C56.6734 14.3493 54.2817 13.7012 49.7029 13.7012Z" fill="#53B0EB"/>
<path d="M147.885 9.49421H142.938V33.8568H147.885V9.49421Z" fill="#53B0EB"/>
<path d="M98.1086 15.1969H93.1371L93.1452 24.5553C93.1452 27.2901 91.9797 29.5025 89.2614 29.5025C86.5417 29.5025 85.3654 27.2901 85.3654 24.5553V15.2057H80.4068L80.4054 24.5553C80.4054 29.9596 83.8586 34.3395 89.231 34.3395C94.602 34.3395 98.1072 29.9596 98.1072 24.5553L98.1086 15.1969Z" fill="#53B0EB"/>
<path d="M151.537 9.51759V10.3929H152.948V14.2507H153.983V10.3929H155.393V9.51759H151.537Z" fill="#53B0EB"/>
<path d="M157.389 9.51786L158.489 12.7721H158.502L159.543 9.51786H161V14.2507H160.031V10.8964H160.018L158.865 14.2507H158.068L156.915 10.9296H156.901V14.2507H155.933V9.51786H157.389Z" fill="#53B0EB"/>
<path d="M69.2963 18.4941C69.4085 18.2655 72.0984 14.0032 76.3628 14.9935C77.0849 15.1582 77.7805 15.4238 78.4294 15.7824V21.4512C78.4294 21.4512 77.5134 20.5297 75.3548 20.0155C71.0864 19.0001 68.8839 22.9461 68.8839 23.7691V33.841H63.9158V15.2336H68.3478L68.8771 18.4941C68.8771 18.4941 68.8947 18.6634 69.0509 18.6668C69.2157 18.671 69.2381 18.6216 69.2776 18.5342L69.2848 18.5185C69.2884 18.5106 69.2922 18.5025 69.2963 18.4941Z" fill="#53B0EB"/>
<path fill-rule="evenodd" clip-rule="evenodd" d="M104.85 39.9696V33.2745L104.851 33.2758L104.852 30.7682C104.852 30.7682 104.86 30.5676 105.04 30.5656C105.194 30.5636 105.233 30.662 105.27 30.7566L105.275 30.7682C105.651 31.7116 107.723 35.3033 112.32 34.177C117.191 32.7947 120.212 27.9062 119.29 22.8998C118.368 17.8935 113.806 14.4189 108.766 14.8845C103.726 15.3501 99.8693 19.6025 99.8688 24.6941V39.9696H104.85ZM109.665 19.7081C111.67 19.7077 113.478 20.9226 114.246 22.7862C115.013 24.6498 114.589 26.795 113.171 28.2214C111.753 29.6478 109.621 30.0744 107.769 29.3023C105.916 28.5301 104.709 26.7113 104.709 24.6941C104.71 21.9407 106.928 19.7089 109.665 19.7081Z" fill="#53B0EB"/>
<path fill-rule="evenodd" clip-rule="evenodd" d="M140.93 33.8492H135.949L135.946 30.7683C135.946 30.7683 135.939 30.5677 135.759 30.5649C135.605 30.5636 135.566 30.6614 135.528 30.7556L135.523 30.7683C135.147 31.7109 133.076 35.3033 128.479 34.1764C123.608 32.794 120.587 27.9054 121.509 22.8994C122.432 17.8933 126.994 14.419 132.033 14.8847C137.073 15.3504 140.929 19.6028 140.93 24.6941V33.8492ZM133.031 29.3023C134.883 28.5301 136.09 26.7113 136.09 24.6941C136.089 21.9406 133.87 19.7088 131.133 19.7082C129.128 19.7081 127.321 20.9231 126.553 22.7867C125.786 24.6504 126.21 26.7955 127.628 28.2217C129.046 29.648 131.178 30.0745 133.031 29.3023Z" fill="#53B0EB"/>
</svg>
