<?xml version="1.0" encoding="UTF-8"?>
<svg width="2016.8" height="870.76" version="1.1" viewBox="0 0 2016.7733 870.76398" xml:space="preserve" xmlns="http://www.w3.org/2000/svg" xmlns:cc="http://creativecommons.org/ns#" xmlns:dc="http://purl.org/dc/elements/1.1/" xmlns:rdf="http://www.w3.org/1999/02/22-rdf-syntax-ns#"><metadata><rdf:RDF><cc:Work rdf:about=""><dc:format>image/svg+xml</dc:format><dc:type rdf:resource="http://purl.org/dc/dcmitype/StillImage"/></cc:Work></rdf:RDF></metadata><defs><clipPath id="a"><path d="M 0,653.073 H 1512.583 V 0 H 0 Z"/></clipPath></defs><g transform="matrix(1.3333 0 0 -1.3333 0 870.76)"><g clip-path="url(#a)"><g transform="translate(630.55 562.32)"><path d="m0 0v-163.87c0-26.143-17.849-49.097-72.673-49.097-54.504 0-72.354 22.954-72.354 49.097v163.87c0 4.463 1.913 6.376 6.056 6.376h19.443c4.144 0 5.738-1.913 5.738-6.376v-158.77c0-17.215 12.749-27.736 41.117-27.736 28.687 0 41.755 10.521 41.755 27.736v158.77c0 4.463 1.594 6.376 5.738 6.376h19.443c4.462 0 5.737-1.913 5.737-6.376m33.051-285.14h39.524c28.687 0 41.436-10.52 41.436-27.736v-27.736c0-17.216-12.749-27.737-41.436-27.737h-39.524zm39.524-109.67c54.824 0 72.354 22.955 72.354 49.097v37.938c0 26.142-17.53 49.097-72.354 49.097h-64.704c-4.144 0-5.737-1.913-5.737-6.377v-204.04c0-4.463 1.593-6.376 5.737-6.376h19.443c4.462 0 5.737 1.913 5.737 6.376v74.282zm-38.161 190.45v204.68c0 4.144 1.594 6.057 5.738 6.057h17.849c2.55 0 4.144-0.956 5.1-2.55l76.816-134.22c4.463-7.651 9.881-20.403 9.881-20.403v151.12c0 4.144 1.913 6.057 6.056 6.057h17.531c4.462 0 5.737-1.913 5.737-6.057v-204.68c0-4.145-1.275-6.058-5.737-6.058h-17.531c-3.187 0-4.462 0.957-5.737 2.87l-74.904 131.35c-7.012 11.796-10.837 21.679-11.475 22.954v-151.12c0-4.145-1.593-6.058-5.737-6.058h-17.849c-4.144 0-5.738 1.913-5.738 6.058m592.82 0v204.68c0 4.144 1.594 6.057 5.737 6.057h17.85c2.55 0 4.143-0.956 5.1-2.55l76.816-134.22c4.462-7.651 9.881-20.403 9.881-20.403v151.12c0 4.144 1.913 6.057 6.056 6.057h17.531c4.462 0 5.737-1.913 5.737-6.057v-204.68c0-4.145-1.275-6.058-5.737-6.058h-17.531c-3.187 0-4.462 0.957-5.737 2.87l-74.904 131.35c-7.012 11.796-10.837 21.679-11.475 22.954v-151.12c0-4.145-1.594-6.058-5.737-6.058h-17.85c-4.143 0-5.737 1.913-5.737 6.058m-1023.5-100.87v-15.622c0-4.463-1.593-6.376-5.737-6.376h-18.487c-4.462 0-6.056 1.913-6.056 6.376v10.521c0 17.215-11.156 27.736-39.843 27.736-28.686 0-39.523-10.521-39.523-27.736v-113.5c0-17.216 10.837-27.736 39.523-27.736 28.687 0 39.843 10.52 39.843 27.736v14.984c0 4.144 1.594 6.057 6.056 6.057h18.487c4.144 0 5.737-1.913 5.737-6.057v-20.085c0-26.142-15.618-49.097-70.441-49.097-54.824 0-70.442 22.955-70.442 49.097v123.7c0 26.142 15.618 49.096 70.442 49.096 54.823 0 70.441-22.954 70.441-49.096m106.54 259.95c0 17.216 12.749 27.737 41.117 27.737 28.687 0 41.436-10.521 41.436-27.737v-113.5c0-17.215-12.749-27.736-41.436-27.736-28.368 0-41.117 10.521-41.117 27.736zm41.117-167.69c54.824 0 72.673 22.954 72.673 49.097v123.7c0 26.142-17.849 49.097-72.673 49.097-54.504 0-72.354-22.955-72.354-49.097v-123.7c0-26.143 17.85-49.097 72.354-49.097m-286.85 8.608v204.68c0 4.144 1.594 6.057 5.737 6.057h17.85c2.868 0 4.462-1.275 5.418-3.507l55.142-128.16c2.231-5.42 6.375-17.853 6.694-19.128 0.319 1.275 4.781 13.39 7.012 18.809l54.186 129.12c0.956 2.232 2.55 2.869 5.419 2.869h18.805c4.144 0 5.738-1.913 5.738-6.057v-204.68c0-4.145-1.594-6.058-5.738-6.058h-18.805c-4.144 0-5.738 1.913-5.738 6.058v146.33c-0.637-1.594-4.781-16.259-7.649-23.592l-36.974-89.585c-1.594-4.145-4.144-6.376-7.969-6.376h-16.574c-4.144 0-6.056 2.55-7.65 6.376l-39.524 93.411c-3.187 7.013-5.737 18.172-6.056 19.128v-145.7c0-4.145-1.594-6.058-5.737-6.058h-17.85c-4.143 0-5.737 1.913-5.737 6.058m195.92-190.77 18.168 58.66c4.143 13.709 8.287 43.039 8.925 45.909 0.318-3.507 4.781-34.75 8.606-46.546l17.849-58.023zm45.261 130.39c-1.275 4.145-3.506 6.058-7.65 6.058h-19.762c-4.143 0-6.375-1.913-7.65-6.058l-61.835-204.68c-1.275-3.826 0.319-6.057 4.462-6.057h18.487c4.144 0 6.056 2.231 7.012 6.057l14.662 49.416h67.255l14.98-49.416c0.957-3.826 2.869-6.057 7.013-6.057h20.08c4.463 0 6.056 2.231 4.781 6.057zm260.4 0v-204.68c0-4.144-1.594-6.057-5.737-6.057h-18.806c-4.144 0-5.738 1.913-5.738 6.057v146.33c-0.637-1.594-4.781-16.259-7.649-23.591l-36.974-89.586c-1.594-4.144-4.144-6.376-7.969-6.376h-16.574c-4.144 0-6.056 2.551-7.65 6.376l-39.524 93.411c-3.187 7.014-5.737 18.172-6.056 19.129v-145.7c0-4.144-1.594-6.057-5.737-6.057h-17.85c-4.143 0-5.737 1.913-5.737 6.057v204.68c0 4.145 1.594 6.058 5.737 6.058h17.85c2.869 0 4.462-1.276 5.419-3.507l55.142-128.16c2.231-5.42 6.374-17.854 6.693-19.129 0.319 1.275 4.781 13.39 7.012 18.81l54.186 129.12c0.956 2.232 2.55 2.87 5.419 2.87h18.806c4.143 0 5.737-1.913 5.737-6.058m505.08 11.54-34.547 25.659c-2.708 2.011-3.661 5.752-2.269 8.903l19.74 44.687c0.19 0.43 0.339 0.879 0.445 1.34l13.804 60.12c0.104 0.453 0.166 0.916 0.185 1.381l2.445 61.057c0.276 6.882 8.747 9.485 12.546 3.855l38.122-56.491c0.559-0.828 0.944-1.769 1.132-2.762l15.131-80.218c0.24-1.267 0.8-2.444 1.623-3.408l39.874-46.685c0.265-0.31 0.504-0.644 0.714-0.997l17.577-29.577c0.253-0.425 0.548-0.822 0.879-1.183l44.956-49.069c0.697-0.761 1.227-1.673 1.551-2.671l16.733-51.533c0.663-2.043 2.168-3.67 4.101-4.432l77.562-30.588c0.52-0.206 1.015-0.476 1.473-0.805l103.01-64.165c1.87-1.343 2.989-3.561 2.994-5.931l0.049-26.288c7e-3 -3.99-3.087-7.229-6.907-7.229l-80.017-4e-3c-1.018 0-2.023 0.235-2.944 0.688l-96.658 47.562c-1.573 0.774-3.366 0.9-5.024 0.353l-85.687-28.265c-3.573-1.179-7.394 0.833-8.612 4.535l-14.816 45.021c-0.787 2.391-2.714 4.177-5.08 4.708l-82.14 18.443c-1.864 0.419-3.48 1.624-4.464 3.329l-32.08 55.596c-1.7 2.946-1.172 6.736 1.261 9.054l41.106 39.171c1.318 1.256 2.119 2.995 2.237 4.855l2.885 45.629c0.158 2.499-0.936 4.904-2.89 6.355m-183.54-95.814v43.764h37.44v-43.764h43.78v-37.472h-43.78v-43.764h-37.44v43.764h-43.78v37.472zm-887.26 408.8h1450.7v-454.38l-166.66 53.833c-9.606 3.379-15.607 13.365-14.35 23.881l2.293 19.183c0.347 2.903 0.144 5.85-0.598 8.671l-5.284 20.09c-1.719 6.54-6.194 11.904-12.157 14.574l-41.441 18.553c-3.633 1.627-6.763 4.278-9.038 7.658l-13.564 20.153c0.453 0.988 0.631 2.296 0.631 3.959v204.04c0 4.463-1.275 6.376-5.737 6.376h-19.443c-4.144 0-5.738-1.913-5.738-6.376v-153.03l-14.231 55.109c-0.453 1.755-1.11 3.445-1.955 5.033l-59.223 111.19c-5.256 9.868-16.744 14.062-26.732 9.758l-44.774-19.293c-5.765-2.484-10.2-7.483-12.136-13.681l-7.489-23.973c-0.714-2.286-1.778-4.436-3.15-6.367l-44.425-62.532c-2.163-3.046-5.035-5.463-8.342-7.023l-55.148-26.014v110.74h50.998c4.144 0 6.056 1.594 6.056 6.057v14.347c0 4.463-1.912 6.057-6.056 6.057h-133.23c-4.463 0-6.056-1.594-6.056-6.057v-14.347c0-4.463 1.593-6.057 6.056-6.057h50.998v-183.95c0-0.019 2e-3 -0.035 2e-3 -0.053l-0.502-2.569c-1.182-6.056-4.716-11.326-9.759-14.551l-50.005-36.375c-4.722-3.02-7.454-6.727-9.516-13.448-0.751-2.449-11.746-86.511-12.96-94.683-1.215-8.171-2.414-15.671-6.695-21.721-3.429-4.468-71.092-109.25-92.472-143.91h-668.83zm1466.6 30.968h-1482.6c-8.284 0-15-6.716-15-15v-623.07c0-8.285 6.716-15 15-15h720.8l739.36-1e-3c4e-3 0 8e-3 1e-3 0.012 1e-3h22.407c8.284 0 15 6.715 15 15v623.07c0 8.284-6.716 15-15 15" fill="#231f20" fill-rule="evenodd"/></g></g></g></svg>
