<?xml version="1.0" standalone="no"?>
<!DOCTYPE svg PUBLIC "-//W3C//DTD SVG 20010904//EN"
 "http://www.w3.org/TR/2001/REC-SVG-20010904/DTD/svg10.dtd">
<svg version="1.0" xmlns="http://www.w3.org/2000/svg"
 width="3060.000000pt" height="3060.000000pt" viewBox="0 0 3060.000000 3060.000000"
 preserveAspectRatio="xMidYMid meet">
<metadata>
Created by potrace 1.11, written by Peter Selinger 2001-2013
</metadata>
<g transform="translate(0.000000,3060.000000) scale(0.100000,-0.100000)"
fill="#000000" stroke="none">
<path d="M13155 24662 c-37 -4 -173 -39 -200 -51 -11 -5 -36 -16 -55 -24 -62
-27 -776 -335 -1071 -462 -157 -68 -306 -132 -332 -144 -25 -12 -48 -21 -51
-21 -3 0 -29 -11 -58 -24 -113 -51 -152 -68 -197 -86 -102 -40 -223 -101 -278
-138 -124 -84 -244 -227 -312 -372 -24 -52 -173 -514 -306 -950 -53 -174 -87
-265 -121 -328 -38 -68 -421 -614 -436 -620 -4 -2 -8 -8 -8 -13 0 -4 -65 -100
-145 -211 -80 -112 -150 -211 -157 -221 -7 -11 -29 -41 -48 -67 -41 -56 -348
-489 -401 -564 -75 -108 -725 -1022 -739 -1041 -39 -51 -151 -156 -208 -194
-35 -24 -112 -65 -170 -93 -59 -28 -150 -71 -202 -95 -52 -25 -127 -60 -166
-78 -39 -19 -133 -63 -209 -99 -75 -36 -139 -66 -140 -66 -2 0 -72 -33 -156
-74 -85 -40 -188 -89 -229 -109 -41 -19 -128 -60 -193 -91 -65 -31 -119 -56
-121 -56 -3 0 -178 -83 -422 -201 -72 -35 -143 -92 -136 -111 1 -5 -2 -8 -7
-8 -5 0 -15 -17 -21 -37 -7 -21 -18 -45 -26 -53 -7 -8 -12 -19 -12 -23 0 -5
-9 -20 -21 -33 -11 -13 -20 -27 -20 -30 2 -14 -119 -145 -173 -187 -13 -10
-40 -28 -60 -39 -21 -12 -38 -26 -38 -30 0 -5 -4 -7 -9 -4 -18 11 -30 -21 -35
-99 -3 -44 -13 -107 -21 -140 -22 -86 -24 -92 -63 -175 -14 -30 -25 -58 -24
-62 1 -5 -2 -8 -7 -8 -4 0 -20 -17 -34 -37 -21 -32 -56 -75 -96 -118 -24 -27
-70 -65 -78 -65 -9 -1 -53 -67 -53 -81 0 -5 -4 -9 -10 -9 -5 0 -10 -5 -10 -11
0 -14 -54 -83 -106 -134 -62 -62 -112 -99 -189 -141 -39 -21 -98 -66 -135
-102 -36 -36 -83 -77 -105 -91 -22 -14 -44 -32 -48 -39 -5 -7 -12 -10 -18 -7
-5 4 -9 -1 -9 -9 0 -9 -4 -16 -10 -16 -5 0 -10 -7 -10 -15 0 -9 -7 -18 -15
-21 -8 -4 -15 -12 -15 -20 0 -8 -3 -14 -7 -14 -5 0 -17 -13 -28 -29 -10 -16
-22 -28 -25 -26 -4 2 -13 -8 -22 -23 -13 -23 -15 -104 -14 -607 1 -319 -2
-597 -6 -618 -5 -20 -11 -54 -14 -75 -17 -108 -83 -262 -157 -372 -63 -92
-169 -181 -501 -420 -186 -135 -343 -250 -350 -255 -6 -6 -24 -18 -39 -28 -16
-10 -36 -25 -45 -32 -9 -8 -103 -76 -207 -152 -105 -76 -202 -147 -217 -158
-14 -11 -35 -27 -47 -35 -12 -8 -88 -63 -169 -123 -81 -59 -165 -120 -187
-135 -22 -16 -80 -58 -128 -93 -49 -35 -110 -80 -137 -99 -491 -353 -513 -374
-608 -550 -50 -94 -97 -228 -106 -299 -4 -29 -8 -56 -10 -60 -3 -3 -7 -38 -11
-76 -4 -39 -9 -72 -10 -75 -2 -3 -6 -30 -10 -60 -3 -30 -8 -62 -10 -70 -2 -8
-6 -37 -10 -65 -3 -27 -7 -63 -10 -80 -7 -54 -15 -109 -26 -190 -5 -44 -12
-91 -14 -105 -2 -14 -7 -45 -10 -70 -9 -75 -15 -124 -20 -150 -3 -14 -7 -45
-10 -69 -3 -23 -7 -55 -9 -70 -3 -14 -7 -48 -10 -76 -4 -27 -8 -61 -11 -75 -2
-14 -7 -46 -9 -72 -5 -40 -21 -156 -43 -308 -3 -25 -7 -52 -8 -60 -1 -8 -5
-42 -9 -75 -7 -60 -27 -208 -46 -340 -5 -38 -12 -90 -15 -115 -3 -25 -8 -56
-10 -70 -3 -14 -7 -50 -10 -80 -3 -30 -10 -82 -15 -115 -5 -33 -12 -84 -15
-114 -4 -30 -8 -61 -10 -70 -1 -9 -6 -41 -9 -72 -4 -31 -9 -67 -11 -80 -3 -13
-7 -46 -10 -74 -3 -27 -7 -61 -10 -75 -6 -41 -14 -102 -20 -150 -6 -48 -9 -70
-34 -250 -6 -41 -13 -95 -16 -120 -11 -96 -16 -136 -20 -150 -2 -8 -7 -40 -10
-70 -3 -30 -10 -80 -15 -110 -5 -30 -12 -75 -15 -100 -12 -82 -55 -307 -69
-362 -39 -141 -47 -165 -68 -217 -39 -97 -83 -173 -226 -387 -158 -238 -396
-599 -453 -690 l-39 -61 0 -3197 0 -3196 15300 0 15300 0 0 2965 0 2965 -29
30 c-15 17 -36 30 -45 30 -9 0 -16 5 -16 10 0 6 -9 10 -20 10 -11 0 -20 5 -20
10 0 6 -7 10 -15 10 -8 0 -15 3 -15 8 0 4 -13 13 -30 20 -16 8 -57 40 -92 73
-34 32 -66 59 -70 59 -5 0 -7 4 -4 8 3 5 -4 15 -15 22 -10 8 -19 20 -19 27 0
7 -4 13 -8 13 -5 0 -15 12 -23 27 -20 39 -60 83 -76 83 -7 0 -13 5 -13 10 0 6
-6 10 -14 10 -8 0 -18 9 -21 21 -4 11 -9 18 -12 15 -3 -2 -27 17 -53 43 -26
26 -82 65 -124 86 -42 22 -76 43 -76 47 0 4 -5 8 -11 8 -6 0 -35 20 -66 45
-30 25 -52 45 -49 45 4 0 1 6 -6 14 -7 8 -16 12 -19 10 -3 -2 -12 8 -19 21 -7
14 -17 25 -22 25 -4 0 -8 7 -8 16 0 8 -4 13 -8 10 -4 -2 -13 7 -20 22 -12 25
-91 72 -120 72 -7 0 -12 4 -12 9 0 5 -15 16 -32 24 -18 9 -45 27 -61 40 -26
23 -171 74 -657 229 -69 22 -150 48 -180 59 -30 10 -183 59 -340 109 -157 51
-310 100 -340 110 -53 18 -289 94 -945 305 -165 53 -325 105 -355 115 -30 10
-170 55 -310 100 -140 45 -286 92 -325 105 -38 13 -198 65 -355 115 -157 50
-296 95 -310 100 -14 5 -146 48 -295 95 -148 48 -290 94 -315 102 -131 43
-986 318 -1110 358 -80 25 -153 50 -162 55 -10 6 -23 10 -30 10 -6 0 -107 31
-222 69 -116 38 -299 97 -406 131 -381 121 -429 141 -540 223 -231 171 -369
442 -373 730 -2 98 6 213 17 274 2 11 7 46 10 78 4 32 9 72 11 89 2 17 7 56
10 86 3 30 7 66 10 80 2 14 6 48 9 75 12 111 18 161 22 185 13 67 15 258 4
328 -11 72 -31 157 -44 192 -3 8 -8 26 -10 40 -6 27 -23 93 -86 330 -23 85
-52 199 -65 252 -66 263 -128 392 -256 532 -96 105 -219 183 -425 270 -34 14
-106 46 -160 72 -55 25 -119 54 -144 64 -25 10 -110 48 -190 85 -80 37 -149
68 -155 69 -5 2 -45 19 -89 39 -43 21 -80 37 -82 37 -1 0 -35 15 -76 34 -40
18 -154 70 -253 114 -99 44 -216 96 -260 117 -44 20 -106 48 -137 61 -149 63
-253 138 -363 265 -36 41 -95 128 -95 139 0 5 -4 10 -8 12 -11 4 -502 736
-512 762 -4 12 -20 28 -34 35 -14 8 -26 18 -26 23 0 5 -4 7 -9 3 -5 -3 -17 5
-25 17 -9 12 -16 19 -16 14 0 -4 -25 17 -55 48 -30 30 -55 60 -55 66 0 6 -3 9
-7 7 -5 -3 -14 1 -21 9 -8 9 -9 14 -2 14 7 0 6 5 -2 14 -7 8 -16 12 -20 9 -5
-2 -8 2 -8 9 0 8 -13 35 -30 61 -16 26 -30 52 -30 56 0 12 -70 81 -82 81 -5 0
-6 5 -3 10 3 6 2 10 -3 10 -5 0 -29 26 -53 58 -24 31 -47 58 -51 60 -5 2 -8
12 -8 23 0 10 -4 19 -8 19 -9 0 -38 70 -34 82 1 4 -2 8 -7 8 -8 0 -21 31 -25
57 -1 13 -36 60 -74 99 -13 13 -20 24 -17 24 3 0 -5 15 -19 33 -15 19 -26 39
-26 44 0 6 -7 16 -15 23 -8 6 -14 15 -13 18 2 8 -18 61 -32 84 -6 10 -10 23
-10 29 0 11 -79 111 -93 117 -4 2 -5 8 -1 13 3 5 -2 12 -10 15 -9 3 -16 12
-16 20 0 8 -5 14 -12 14 -6 0 -8 3 -5 7 4 3 2 12 -4 20 -6 7 -8 13 -3 13 5 0
3 4 -4 9 -7 4 -14 15 -16 23 -1 9 -8 24 -16 34 -13 16 -13 17 0 9 13 -7 13 -6
2 7 -15 19 -40 102 -44 146 -1 17 -5 32 -8 32 -9 0 -6 32 4 48 4 6 3 12 -2 12
-5 0 -10 10 -10 23 0 12 -9 42 -20 67 -31 70 -47 114 -47 130 0 8 -3 20 -7 25
-8 14 -19 96 -23 177 -2 36 -11 80 -20 97 -8 17 -13 31 -10 31 4 0 -1 7 -9 16
-9 8 -13 21 -9 27 3 7 3 9 -2 5 -4 -4 -19 7 -33 24 -24 28 -27 29 -33 12 -6
-16 -8 -14 -8 8 -1 26 -29 90 -43 96 -10 5 -66 125 -74 160 -4 15 -12 33 -18
41 -8 12 -8 13 2 7 11 -6 11 -4 3 10 -17 34 -24 58 -27 109 -2 28 -5 69 -8 93
-3 28 -1 40 6 35 7 -4 8 -1 2 8 -4 8 -7 26 -6 40 3 23 -24 135 -145 599 -25
96 -47 183 -48 193 -2 9 -6 21 -9 25 -3 5 -7 22 -10 38 -3 16 -13 56 -21 89
-27 100 -96 369 -100 385 -12 52 -79 307 -96 365 -27 90 -61 158 -284 575
-132 246 -157 293 -202 379 -25 48 -62 118 -83 156 -21 39 -55 104 -77 145
-22 41 -58 109 -80 150 -89 165 -123 230 -178 335 -32 61 -65 124 -75 140 -9
17 -45 83 -79 148 -34 65 -70 133 -80 150 -16 30 -55 103 -169 317 -24 47 -59
112 -77 145 -18 33 -53 99 -79 148 -107 203 -140 265 -166 312 -15 28 -51 95
-80 150 -29 55 -65 123 -80 150 -15 28 -53 100 -85 160 -32 61 -92 173 -133
250 -41 77 -95 178 -120 225 -25 47 -59 112 -77 145 -18 33 -53 98 -77 145
-25 47 -63 119 -85 160 -22 41 -64 120 -93 175 -109 206 -158 280 -241 365
-100 102 -257 192 -404 231 -76 20 -243 31 -320 21z m690 -3043 c41 -12 108
-58 135 -94 22 -29 289 -423 715 -1055 87 -129 200 -296 250 -370 50 -74 176
-261 280 -415 103 -154 230 -341 281 -416 109 -159 126 -198 148 -344 4 -26
15 -82 31 -165 14 -69 57 -302 66 -354 6 -33 12 -62 14 -66 2 -3 6 -28 10 -54
3 -27 7 -51 9 -55 2 -3 7 -22 10 -41 9 -54 15 -89 31 -170 8 -41 16 -86 19
-100 3 -19 55 -297 71 -380 2 -8 10 -53 19 -100 9 -47 18 -96 21 -110 3 -14 8
-40 11 -59 6 -35 10 -59 19 -101 2 -14 7 -37 9 -52 3 -15 12 -65 21 -110 10
-46 19 -92 20 -103 4 -21 21 -115 28 -150 3 -11 7 -36 11 -55 3 -19 8 -46 11
-60 3 -14 12 -61 20 -105 8 -44 21 -116 30 -160 8 -44 17 -91 20 -105 2 -14 7
-36 10 -50 2 -14 7 -40 10 -57 3 -18 14 -78 25 -133 11 -55 22 -115 25 -133
20 -118 50 -248 66 -282 11 -22 42 -67 70 -100 108 -126 144 -168 154 -179 6
-6 35 -40 65 -76 30 -36 57 -67 60 -70 3 -3 25 -30 50 -60 25 -30 47 -57 50
-60 6 -5 285 -331 385 -449 17 -20 35 -41 40 -47 15 -16 53 -61 115 -134 30
-36 60 -70 65 -76 6 -6 30 -35 55 -64 25 -30 59 -70 76 -90 17 -19 42 -48 55
-64 13 -16 31 -37 39 -45 8 -9 35 -41 60 -71 25 -30 47 -57 51 -60 3 -3 70
-81 150 -175 79 -93 152 -179 162 -190 15 -17 46 -67 130 -210 6 -11 21 -36
33 -55 37 -61 229 -384 234 -395 8 -17 268 -453 331 -555 32 -52 77 -115 100
-140 22 -25 82 -90 132 -144 51 -54 100 -108 109 -118 9 -11 53 -59 98 -108
45 -49 89 -97 98 -108 9 -10 58 -64 109 -118 50 -55 100 -109 110 -121 10 -11
61 -67 113 -123 52 -56 108 -116 124 -134 15 -17 47 -51 70 -76 33 -36 209
-230 251 -276 6 -6 53 -57 105 -114 52 -56 102 -111 110 -120 8 -9 55 -61 104
-114 49 -53 96 -105 105 -115 9 -10 58 -64 110 -119 109 -118 135 -151 151
-195 7 -18 15 -41 20 -52 4 -11 17 -49 28 -85 20 -65 210 -652 262 -810 15
-47 50 -155 78 -240 58 -178 250 -771 293 -905 16 -49 36 -104 44 -122 20 -41
82 -103 126 -125 29 -14 460 -186 794 -315 50 -20 104 -41 120 -48 17 -7 176
-70 355 -140 179 -70 339 -133 355 -140 17 -7 145 -58 285 -113 297 -117 541
-213 875 -345 132 -52 299 -118 372 -146 72 -29 142 -60 155 -70 13 -10 28
-20 33 -22 6 -2 49 -28 95 -57 47 -29 94 -59 105 -65 11 -7 34 -22 52 -34 17
-13 34 -23 36 -23 5 0 188 -113 267 -165 43 -27 470 -294 508 -316 15 -9 227
-141 472 -294 245 -153 474 -296 510 -318 102 -63 170 -105 235 -146 33 -20
294 -183 580 -361 286 -178 543 -338 570 -355 89 -57 739 -461 786 -488 68
-40 118 -93 148 -156 l26 -56 0 -620 0 -620 -24 -50 c-13 -27 -46 -71 -72 -96
-91 -86 69 -79 -1858 -79 -1430 0 -1712 3 -1746 14 -22 8 -123 56 -225 106
-102 51 -275 136 -385 190 -110 54 -371 182 -580 285 -209 103 -506 249 -660
325 -154 76 -428 211 -610 300 -439 216 -899 443 -1290 635 -176 86 -337 163
-359 171 -51 18 -113 18 -167 -2 -24 -8 -52 -17 -61 -19 -9 -2 -180 -58 -380
-124 -200 -66 -475 -157 -613 -202 -137 -44 -266 -87 -285 -94 -19 -8 -226
-77 -460 -153 -234 -77 -735 -242 -1115 -368 -760 -251 -760 -250 -855 -205
-55 26 -115 82 -139 130 -10 20 -55 149 -100 286 -131 400 -500 1523 -527
1602 -38 112 -82 168 -162 207 -26 13 -166 49 -312 80 -146 32 -276 61 -290
66 -14 4 -50 13 -80 19 -30 7 -104 23 -165 37 -60 14 -121 27 -135 30 -14 3
-45 10 -70 15 -25 6 -52 12 -60 14 -25 5 -467 104 -585 131 -60 14 -150 34
-200 45 -100 23 -95 21 -186 43 -37 8 -78 17 -90 20 -13 2 -148 32 -299 66
-151 34 -304 69 -340 77 -36 8 -72 16 -80 18 -39 9 -347 77 -360 80 -8 2 -45
10 -81 19 -37 8 -79 18 -93 21 -14 3 -38 7 -52 10 -80 17 -167 87 -208 168 -9
17 -26 48 -38 67 -36 62 -660 1143 -686 1190 -30 54 -62 109 -80 135 -7 11
-18 32 -25 47 -6 16 -15 28 -19 28 -4 0 -8 4 -8 9 0 5 -23 49 -51 98 -28 48
-60 104 -71 123 -11 19 -37 64 -58 100 -21 36 -47 81 -58 100 -11 19 -68 118
-127 220 -138 238 -139 240 -137 339 2 82 33 150 99 216 27 28 128 124 223
215 96 91 221 210 278 265 58 55 122 116 142 135 20 19 84 80 141 135 58 55
178 170 268 255 90 85 189 180 220 210 32 30 138 132 236 225 229 218 227 216
253 267 31 60 35 86 47 293 6 101 11 193 20 320 7 97 13 203 20 315 3 52 8
124 10 160 2 36 7 103 10 150 3 47 7 117 10 155 2 39 7 113 10 165 3 52 7 122
9 155 3 33 8 105 12 160 16 235 3 296 -80 379 -28 28 -60 58 -71 66 -11 8 -85
63 -165 122 -149 109 -717 531 -735 545 -5 5 -44 33 -85 63 -41 30 -82 60 -90
67 -8 6 -89 67 -179 134 -91 67 -176 134 -189 148 -62 66 -93 199 -67 286 7
22 73 177 148 345 74 168 169 384 212 480 42 96 87 198 101 227 13 28 24 54
24 57 0 3 13 33 29 68 16 35 46 101 66 148 21 47 50 113 66 148 16 35 29 65
29 67 0 2 15 36 34 77 19 40 50 111 71 158 20 47 43 99 50 115 17 39 29 81 51
180 10 44 19 85 20 90 2 6 5 21 8 34 21 96 67 293 71 303 2 7 6 27 9 43 9 53
16 84 27 112 6 16 10 29 9 31 -1 1 1 15 4 30 4 15 8 36 10 47 3 11 19 81 36
155 17 74 34 146 36 160 3 14 10 43 16 65 5 22 12 51 15 65 2 14 15 71 28 128
14 56 27 113 29 125 2 12 25 112 51 222 26 110 49 210 51 223 2 12 14 62 25
110 12 48 22 94 24 102 2 8 11 47 20 85 16 69 21 90 29 130 3 11 12 51 21 89
16 69 18 97 30 386 3 85 8 198 10 250 2 52 7 163 10 245 3 83 8 195 10 250 2
55 7 165 10 245 3 80 8 195 10 255 3 61 7 173 10 250 3 77 7 187 10 245 2 58
7 184 10 280 11 295 14 319 47 379 66 118 203 176 333 140z m-6449 -11819 c-1
-903 -1 -910 19 -911 11 0 422 -1 913 -1 l892 -1 -2 -781 -3 -780 -907 0
c-813 0 -908 -2 -909 -16 -1 -8 -2 -418 -3 -910 l-1 -895 -777 -1 c-428 0
-778 2 -779 5 0 3 -2 413 -2 911 l-2 905 -895 2 c-492 0 -903 1 -912 2 -15 1
-16 57 -15 779 l2 777 895 2 c492 1 902 2 911 2 14 1 15 92 15 911 l-1 910
781 0 780 0 0 -910z"/>
<path d="M17183 20849 c-1 -72 2 -128 5 -124 4 4 7 10 8 13 0 4 8 33 17 64 17
57 20 118 5 118 -4 0 -8 8 -8 19 0 10 -6 23 -13 29 -10 9 -13 -15 -14 -119z"/>
<path d="M0 16250 c0 -83 2 -91 16 -80 11 10 14 24 9 49 -3 20 -7 53 -10 75
-8 70 -15 51 -15 -44z"/>
</g>
</svg>
