<svg width="19" height="20" fill="none" xmlns="http://www.w3.org/2000/svg"><path d="M8.245 12.563a2.89 2.89 0 10.001 5.78 2.89 2.89 0 000-5.78zm3.598-.555a4.963 4.963 0 011.382 3.445 4.97 4.97 0 01-2.133 4.085c2.385-.735 4.36-2.528 5.242-4.7 1.224-3.005.083-5.264-1.826-7.316.06.264.094.543.094.823a3.816 3.816 0 01-2.76 3.663zM8.574 8.35a2.21 2.21 0 002.21 2.21A2.219 2.219 0 0013 8.35a2.21 2.21 0 00-2.21-2.21 2.215 2.215 0 00-2.216 2.21z" fill="#fff"/><path d="M4.434 18.661a4.963 4.963 0 01-1.168-3.208c0-2.55 1.914-4.65 4.387-4.942A3.806 3.806 0 0111.3 4.577c-1.245-1.074-2.49-2.166-3.472-3.356.5 5.221-4.754 3.324-6.701 8.139-1.3 3.225-.126 7.212 3.307 9.301z" fill="#fff"/></svg>