<svg width="20" height="20" viewBox="0 0 20 20" fill="none" xmlns="http://www.w3.org/2000/svg">
<g clip-path="url(#clip0)">
<path d="M7.36927 10.5425C6.20927 10.5425 5.26843 11.4833 5.26843 12.6433V17.8983C5.26843 19.0583 6.20927 19.9991 7.36927 19.9991C8.52927 19.9991 9.4701 19.0583 9.4701 17.8983V12.6433C9.46927 11.4833 8.52843 10.5425 7.36927 10.5425Z" fill="white"/>
<path d="M0.0157471 12.6433C0.0157471 13.8041 0.957414 14.7458 2.11825 14.7458C3.27908 14.7458 4.22075 13.8041 4.22075 12.6433V10.5408H2.11991C2.11908 10.5408 2.11908 10.5408 2.11825 10.5408C0.957414 10.5408 0.0157471 11.4824 0.0157471 12.6433Z" fill="white"/>
<path d="M7.37148 -0.000732422C7.37065 -0.000732422 7.36981 -0.000732422 7.36898 -0.000732422C6.20815 -0.000732422 5.26648 0.940934 5.26648 2.10177C5.26648 3.2626 6.20815 4.20427 7.36898 4.20427H9.46982C9.46982 3.01177 9.46982 3.30177 9.46982 2.0976C9.46898 0.938434 8.52981 -0.000732422 7.37148 -0.000732422Z" fill="white"/>
<path d="M2.10409 9.47502H7.36909C8.52992 9.47502 9.47159 8.53335 9.47159 7.37252C9.47159 6.21169 8.52992 5.27002 7.36909 5.27002H2.10409C0.943254 5.27002 0.00158691 6.21169 0.00158691 7.37252C0.00158691 8.53335 0.943254 9.47502 2.10409 9.47502Z" fill="white"/>
<path d="M17.881 5.26904C16.7219 5.26904 15.7827 6.20821 15.7827 7.36738V7.37154V9.47404H17.8835C19.0444 9.47404 19.986 8.53238 19.986 7.37154C19.986 6.21071 19.0444 5.26904 17.8835 5.26904C17.8827 5.26904 17.8819 5.26904 17.881 5.26904Z" fill="white"/>
<path d="M10.5342 2.10157V7.3724C10.5342 8.5324 11.475 9.47323 12.635 9.47323C13.795 9.47323 14.7358 8.5324 14.7358 7.3724V2.10157C14.7358 0.941566 13.795 0.000732422 12.635 0.000732422C11.475 0.000732422 10.5342 0.941566 10.5342 2.10157Z" fill="white"/>
<path d="M14.735 17.8967C14.735 16.7367 13.7942 15.7959 12.6342 15.7959H10.5333V17.8984C10.5342 19.0576 11.4742 19.9976 12.6342 19.9976C13.7942 19.9976 14.735 19.0567 14.735 17.8967Z" fill="white"/>
<path d="M17.8992 10.5408H12.6342C11.4734 10.5408 10.5317 11.4824 10.5317 12.6433C10.5317 13.8041 11.4734 14.7458 12.6342 14.7458H17.8992C19.0601 14.7458 20.0017 13.8041 20.0017 12.6433C20.0017 11.4824 19.0601 10.5408 17.8992 10.5408Z" fill="white"/>
</g>
<defs>
<clipPath id="clip0">
<rect width="20" height="20" fill="white"/>
</clipPath>
</defs>
</svg>
