<svg width="20" height="20" fill="none" xmlns="http://www.w3.org/2000/svg"><g clip-path="url(#clip0)" fill="#fff"><path d="M7.37 10.543c-1.16 0-2.102.94-2.102 2.1v5.255a2.101 2.101 0 004.202 0v-5.255c0-1.16-.942-2.1-2.1-2.1zM.016 12.643a2.103 2.103 0 004.205 0v-2.102H2.12h-.002c-1.16 0-2.102.941-2.102 2.102zM7.371 0H7.37a2.103 2.103 0 000 4.204h2.1V2.098c0-1.16-.94-2.099-2.098-2.099zM2.104 9.475H7.37a2.103 2.103 0 000-4.205H2.104a2.103 2.103 0 000 4.205zM17.881 5.269c-1.16 0-2.098.94-2.098 2.098V9.474h2.1a2.103 2.103 0 000-4.205h-.002zM10.534 2.102v5.27a2.101 2.101 0 004.202 0v-5.27a2.101 2.101 0 00-4.202 0zM14.735 17.897c0-1.16-.94-2.101-2.1-2.101h-2.102v2.102a2.1 2.1 0 004.202-.001zM17.9 10.54h-5.266a2.103 2.103 0 000 4.206H17.9a2.103 2.103 0 000-4.205z"/></g><defs><clipPath id="clip0"><path fill="#fff" d="M0 0h20v20H0z"/></clipPath></defs></svg>