<svg width="20" height="20" fill="none" xmlns="http://www.w3.org/2000/svg"><g clip-path="url(#clip0)"><path d="M20 3.798a8.192 8.192 0 01-2.357.646 4.11 4.11 0 001.805-2.27 8.22 8.22 0 01-2.606.995 4.096 4.096 0 00-2.995-1.295c-2.65 0-4.596 2.471-3.998 5.037a11.648 11.648 0 01-8.457-4.287 4.109 4.109 0 001.27 5.479 4.086 4.086 0 01-1.858-.514C.76 9.49 2.122 11.27 4.095 11.664a4.114 4.114 0 01-1.853.07 4.106 4.106 0 003.833 2.85A8.25 8.25 0 010 16.284a11.616 11.616 0 006.29 1.843c7.618 0 11.922-6.434 11.663-12.205A8.353 8.353 0 0020 3.798z" fill="#fff"/></g><defs><clipPath id="clip0"><path fill="#fff" d="M0 0h20v20H0z"/></clipPath></defs></svg>