<svg width="44" height="44" viewBox="0 0 44 44" fill="none" xmlns="http://www.w3.org/2000/svg">
<path d="M22 0C19.5699 0 17.6 1.96992 17.6 4.4C17.6 6.83008 19.5699 8.8 22 8.8C24.4291 8.79762 26.3976 6.82908 26.4 4.4C26.4 1.96992 24.4301 0 22 0ZM22 7.33333C20.38 7.33333 19.0666 6.02003 19.0666 4.4C19.0666 2.77998 20.38 1.46667 22 1.46667C23.62 1.46667 24.9333 2.77998 24.9333 4.4C24.9333 6.02003 23.62 7.33333 22 7.33333Z" fill="white"/>
<path d="M24.9334 9.53333H24.7603L24.6056 9.61032C22.9646 10.4273 21.0354 10.4273 19.3945 9.61032L19.2398 9.53333H19.0667C17.0427 9.53571 15.4024 11.176 15.4 13.2V17.6C15.4 18.815 16.385 19.8 17.6 19.8H26.4C27.6151 19.8 28.6 18.815 28.6 17.6V13.2C28.5976 11.176 26.9574 9.53571 24.9334 9.53333ZM27.1334 17.6C27.1334 18.005 26.805 18.3333 26.4 18.3333H17.6C17.195 18.3333 16.8667 18.005 16.8667 17.6V13.2C16.8669 12.0457 17.7591 11.0878 18.9105 11.0059C20.8699 11.9152 23.1303 11.9152 25.0896 11.0059C26.2409 11.0878 27.1332 12.0457 27.1334 13.2V17.6Z" fill="white"/>
<path d="M37.4 24.2C34.9699 24.2 33 26.1699 33 28.6C33 31.03 34.9699 33 37.4 33C39.8301 33 41.8 31.03 41.8 28.6C41.7976 26.1709 39.8291 24.2023 37.4 24.2ZM37.4 31.5333C35.78 31.5333 34.4667 30.22 34.4667 28.6C34.4667 26.9799 35.78 25.6666 37.4 25.6666C39.02 25.6666 40.3333 26.9799 40.3333 28.6C40.3333 30.22 39.02 31.5333 37.4 31.5333Z" fill="white"/>
<path d="M40.3334 33.7333H40.1603L40.0056 33.8066C38.3647 34.6235 36.4354 34.6235 34.7945 33.8066L34.6398 33.7333H34.4667C32.4427 33.7357 30.8024 35.3759 30.8 37.3999V41.7999C30.8 43.015 31.785 43.9999 33 43.9999H41.8C43.0151 43.9999 44 43.015 44 41.7999V37.3999C43.9977 35.3759 42.3574 33.7357 40.3334 33.7333ZM42.5334 41.7999C42.5334 42.2049 42.205 42.5333 41.8 42.5333H33C32.5951 42.5333 32.2667 42.2049 32.2667 41.7999V37.3999C32.2669 36.2457 33.1591 35.2878 34.3105 35.2058C36.2699 36.1151 38.5302 36.1151 40.4896 35.2058C41.641 35.2878 42.5332 36.2457 42.5334 37.3999V41.7999Z" fill="white"/>
<path d="M6.59995 24.2C4.16987 24.2 2.19995 26.1699 2.19995 28.6C2.19995 31.03 4.16987 33 6.59995 33C9.03003 33 11 31.03 11 28.6C10.9976 26.1709 9.02903 24.2023 6.59995 24.2ZM6.59995 31.5333C4.97993 31.5333 3.66662 30.22 3.66662 28.6C3.66662 26.9799 4.97993 25.6666 6.59995 25.6666C8.21998 25.6666 9.53328 26.9799 9.53328 28.6C9.53328 30.22 8.21998 31.5333 6.59995 31.5333Z" fill="white"/>
<path d="M9.53333 33.7333H9.36027L9.20553 33.8066C7.56461 34.6235 5.63539 34.6235 3.99447 33.8066L3.83973 33.7333H3.66667C1.64267 33.7357 0.00238333 35.3759 0 37.3999V41.7999C0 43.015 0.984958 43.9999 2.2 43.9999H11C12.215 43.9999 13.2 43.015 13.2 41.7999V37.3999C13.1976 35.3759 11.5573 33.7357 9.53333 33.7333ZM11.7333 41.7999C11.7333 42.2049 11.405 42.5333 11 42.5333H2.2C1.79502 42.5333 1.46667 42.2049 1.46667 41.7999V37.3999C1.46685 36.2457 2.35904 35.2878 3.51047 35.2058C5.46984 36.1151 7.73016 36.1151 9.68953 35.2058C10.841 35.2878 11.7332 36.2457 11.7333 37.3999V41.7999Z" fill="white"/>
<path d="M29.2758 37.2419C29.2755 37.2411 29.2751 37.2403 29.2747 37.2393C29.1159 36.8667 28.6852 36.6934 28.3127 36.8521C25.0012 38.24 21.3236 38.4932 17.8531 37.5723L18.5395 37.3706C18.9284 37.2568 19.1513 36.8494 19.0375 36.4605C18.9236 36.0717 18.5163 35.8488 18.1274 35.9626L15.1941 36.8228C15.1831 36.8228 15.175 36.8353 15.1647 36.8389C15.0968 36.8642 15.033 36.8996 14.9755 36.9438C14.9501 36.9576 14.9256 36.973 14.9022 36.99C14.8248 37.059 14.7635 37.1441 14.7225 37.2393C14.6828 37.3352 14.6638 37.4384 14.6668 37.5422C14.6847 37.6415 14.7092 37.7395 14.7401 37.8355C14.7445 37.8458 14.7401 37.8575 14.7482 37.8678L16.2149 40.6743C16.4024 41.0335 16.8456 41.1728 17.2049 40.9852C17.5641 40.7977 17.7034 40.3544 17.5158 39.9952L16.9189 38.8541C20.8618 40.0394 25.0951 39.809 28.8861 38.2029C29.259 38.0452 29.4336 37.6149 29.2758 37.2419Z" fill="white"/>
<path d="M41.5851 19.2816C41.2988 18.9953 40.8346 18.9953 40.5482 19.2816L39.5105 20.3192C38.9033 13.8962 34.8254 8.32227 28.8875 5.79924C28.5148 5.64047 28.0841 5.81381 27.9253 6.18644C27.7666 6.55906 27.9399 6.98981 28.3125 7.14857C33.6393 9.41247 37.3421 14.3599 38.0123 20.1088L37.1851 19.2816C36.8938 19.0002 36.4296 19.0082 36.1482 19.2995C35.8738 19.5837 35.8738 20.0343 36.1482 20.3185L38.3482 22.5185C38.6342 22.8052 39.0986 22.8059 39.3853 22.5198C39.3858 22.5193 39.3862 22.5189 39.3866 22.5185L41.5866 20.3185C41.8725 20.0318 41.8719 19.5676 41.5851 19.2816Z" fill="white"/>
<path d="M16.1121 6.34996C16.1097 6.30715 16.1034 6.26471 16.093 6.22309C16.093 6.21649 16.085 6.21209 16.082 6.20476C16.0791 6.19743 16.082 6.19229 16.082 6.18643C16.062 6.15077 16.0389 6.11685 16.0131 6.08523C15.9894 6.04224 15.9613 6.00172 15.9295 5.96423C15.8861 5.92582 15.8381 5.89309 15.7865 5.86669C15.7607 5.84478 15.7332 5.82489 15.7044 5.80729L12.771 4.46749C12.3964 4.31368 11.9679 4.4927 11.8141 4.86734C11.6686 5.22163 11.8204 5.62827 12.1624 5.80069L13.6811 6.49516C7.96357 9.55509 4.3959 15.5152 4.40003 22C4.40003 22.405 4.72838 22.7334 5.13336 22.7334C5.53834 22.7334 5.86669 22.405 5.86669 22C5.86303 16.2898 8.88262 11.0044 13.8036 8.10776L13.2734 9.21583C13.0986 9.58038 13.2517 10.0176 13.6158 10.1934C13.7147 10.2417 13.8233 10.2668 13.9334 10.2667C14.215 10.2663 14.4714 10.1047 14.5934 9.85089L16.06 6.79069C16.06 6.78336 16.06 6.77529 16.0659 6.76796C16.085 6.71782 16.0983 6.66566 16.1055 6.61249C16.1181 6.57298 16.1274 6.53256 16.1334 6.49149C16.1309 6.44373 16.1238 6.39634 16.1121 6.34996Z" fill="white"/>
</svg>
