<svg fill="none" xmlns="http://www.w3.org/2000/svg"><path d="M20.1 0C12.49 0 6.3 6.19 6.3 13.8v2.211l-4.091 5.845a.6.6 0 00.491.944h3.6V27c0 2.315 1.884 4.2 4.2 4.2h2.4v4.2a.6.6 0 00.6.6h15.6a.6.6 0 00.6-.6v-.747a35.361 35.361 0 012.577-13.077 21.522 21.522 0 001.623-7.764V13.8C33.9 6.19 27.71 0 20.1 0zm11.065 21.124A36.592 36.592 0 0028.5 34.65v.15H14.1v-4.2a.6.6 0 00-.6-.6h-3c-1.654 0-3-1.346-3-3v-4.8a.6.6 0 00-.6-.6H3.852l3.54-5.056c.07-.101.108-.221.108-.344v-2.4c0-6.948 5.652-12.6 12.6-12.6 6.946 0 12.596 5.649 12.6 12.593a20.339 20.339 0 01-1.535 7.33z" fill="#0678BE"/><path d="M20.116 6.584H20.1c-3.962 0-7.19 3.22-7.2 7.184a7.168 7.168 0 002.607 5.562 2.877 2.877 0 01.993 2.27v3c0 .992.808 1.8 1.8 1.8h3.6c.992 0 1.8-.807 1.8-1.8v-3.146a2.859 2.859 0 011.06-2.174 7.148 7.148 0 002.54-5.48c.008-3.969-3.214-7.206-7.184-7.216zm3.876 11.773a4.055 4.055 0 00-1.493 3.088V24.6a.6.6 0 01-.6.6h-3.6a.6.6 0 01-.6-.6v-2.984a4.073 4.073 0 00-1.417-3.204 5.977 5.977 0 01-2.182-4.641 6.007 6.007 0 016-5.987h.013a6.007 6.007 0 015.986 6.014v.002a5.946 5.946 0 01-2.107 4.556z" fill="#0678BE"/><path d="M23.1 21.6h-6v1.2h6v-1.2z" fill="#0678BE"/><path d="M23.03 13.517a.6.6 0 00-.53-.317h-4.8a.6.6 0 00-.5.933l1.1 1.649V22.2h1.2v-6.6a.603.603 0 00-.1-.333l-.58-.867h2.56l-.58.867a.603.603 0 00-.1.333v6.6h1.2v-6.418l1.1-1.65a.6.6 0 00.03-.615zM20.7 3h-1.2v2.4h1.2V3zM11.7 13.2H9.3v1.2h2.4v-1.2zM30.9 12.6h-2.4v1.2h2.4v-1.2zM12.724 5.576l-.848.849 1.8 1.8.848-.849-1.8-1.8zM27.477 5.577l-1.8 1.8.848.848 1.8-1.8-.848-.848zM13.076 18.775l-1.8 1.8.848.849 1.8-1.8-.848-.849zM27.124 18.777l-.849.848 1.8 1.8.849-.848-1.8-1.8z" fill="#0678BE"/></svg>