<svg fill="none" xmlns="http://www.w3.org/2000/svg"><path d="M25.683 0H4.407A4.142 4.142 0 00.27 4.137v21.227A4.142 4.142 0 004.407 29.5h6.501v-1.182h-6.5a2.958 2.958 0 01-2.956-2.955v-9.998h3.796a.636.636 0 00.54-.877 2.364 2.364 0 114.33 0 .613.613 0 00.54.877h3.796v3.546a3.546 3.546 0 00-2.01 6.747l.473-1.082a2.364 2.364 0 111.892-4.333.59.59 0 00.827-.54v-4.338h3.005a3.556 3.556 0 002.787 4.066l.236-1.158a2.372 2.372 0 01-1.891-2.317c0-.326.068-.648.2-.946a.591.591 0 00-.542-.827h-3.795v-3.005a3.546 3.546 0 100-6.991V1.181h10.047a2.958 2.958 0 012.955 2.955v10.047h-3.795a.591.591 0 00-.542.827c.132.298.2.62.2.946h1.182c0-.198-.017-.396-.05-.591h3.596a.591.591 0 00.59-.591V4.137A4.142 4.142 0 0025.684 0zm-9.456 5.319a2.364 2.364 0 11-.946 4.528.591.591 0 00-.827.542v3.746h-3.001c.03-.18.045-.36.046-.542v-.03-.02a3.546 3.546 0 10-7.092 0v.05c.001.181.017.363.046.542h-3V4.137a2.959 2.959 0 012.954-2.955h10.047v3.795a.591.591 0 00.827.542c.298-.132.62-.2.946-.2z" fill="#0678BE"/><path d="M34.466 25.402l-4.969-3.421-1.908-5.099a.591.591 0 00-.793-.334l-3.841 1.699a.591.591 0 00-.313.752c.064.165.123.29.186.42.064.13.122.252.194.444a2.379 2.379 0 01-1.383 3.058 2.364 2.364 0 01-3.188-2.347.591.591 0 00-.799-.584l-4.106 1.546a.591.591 0 00-.345.76l1.473 3.938a3.554 3.554 0 102.456 6.56l1.057 2.822a.591.591 0 00.762.346l5.855-2.206a3.174 3.174 0 001.872 1.671l.373-1.123a1.993 1.993 0 01-1.13-.965l1.782-.671a4.125 4.125 0 003.892 2.742V34.23a2.973 2.973 0 01-2.955-2.955.59.59 0 00-.173-.418l-2.058-2.058a.877.877 0 01-.081-1.14.86.86 0 01.635-.346.847.847 0 01.679.253l4.126 4.126.836-.835-1.221-1.221c.3-.9.282-1.876-.053-2.763l-1.107-2.958 3.57 2.46c.474.331.756.873.757 1.452v7.634h1.182v-7.634a2.96 2.96 0 00-1.264-2.424zm-4.245 1.884c.163.434.223.9.173 1.361l-1.919-1.918a2.054 2.054 0 10-2.904 2.905l1.87 1.869-8.352 3.146-1.127-3.01a.591.591 0 00-.967-.215A2.364 2.364 0 1114.52 27.5c.188-.07.385-.114.585-.132.123-.015.247-.02.37-.013a.591.591 0 00.585-.797l-1.544-4.122 2.815-1.06a3.546 3.546 0 004.727 2.652 3.561 3.561 0 002.073-4.577 5.28 5.28 0 00-.15-.363l2.718-1.204 3.522 9.402z" fill="#0678BE"/></svg>