<svg width="200" height="200" viewBox="0 0 200 200" fill="none" xmlns="http://www.w3.org/2000/svg">
<path d="M111.666 0C69.3934 0 35 34.3934 35 76.6668V88.95L12.2699 121.423C11.5567 122.443 11.4699 123.77 12.0434 124.873C12.6168 125.977 13.7567 126.667 15 126.667H35V150C35 162.863 45.4668 173.333 58.3332 173.333H71.6664V196.666C71.6664 198.51 73.1598 200 74.9996 200H161.666C163.51 200 165 198.51 165 196.666V192.516C165.146 167.493 169.966 143.043 179.316 119.866C184.98 106.116 188.013 91.6062 188.333 76.7363C188.333 76.7129 188.333 76.6898 188.333 76.6664C188.333 34.3934 153.943 0 111.666 0ZM173.14 117.354C163.47 141.337 158.486 166.61 158.333 192.5V193.333H78.3332V170C78.3332 168.157 76.8399 166.667 75 166.667H58.3332C49.1434 166.667 41.6664 159.19 41.6664 150V123.333C41.6664 121.49 40.1731 120 38.3332 120H21.4L41.0633 91.9102C41.4567 91.35 41.6668 90.6836 41.6668 90V76.6668C41.6668 38.0668 73.0668 6.6668 111.667 6.6668C150.254 6.6668 181.647 38.05 181.667 76.6301C181.36 90.6602 178.493 104.357 173.14 117.354Z" fill="black"/>
<path d="M111.757 36.5801C111.73 36.5801 111.7 36.5801 111.667 36.5801C89.6536 36.5801 71.7204 54.4668 71.6668 76.4902C71.6403 88.5102 76.9403 99.7902 86.1501 107.387C89.7868 110.537 91.8001 115.1 91.6669 120V136.667C91.6669 142.18 96.1536 146.667 101.667 146.667H121.667C127.18 146.667 131.667 142.18 131.667 136.667V119.187C131.747 114.5 133.873 110.11 137.554 107.11C146.534 99.5234 151.68 88.427 151.667 76.6703C151.713 54.6168 133.81 36.6332 111.757 36.5801ZM133.29 101.983C128.13 106.193 125.107 112.423 124.997 119.137V136.67C124.997 138.51 123.503 140.003 121.663 140.003H101.663C99.8266 140.003 98.3301 138.51 98.3301 136.67V120.093C98.5133 113.28 95.6669 106.81 90.4536 102.296C82.7301 95.9266 78.3102 86.5266 78.3336 76.5098C78.377 58.1531 93.3235 43.2496 111.667 43.2496C111.693 43.2496 111.72 43.2496 111.74 43.2496C130.12 43.293 145.04 58.2797 144.997 76.6598C144.997 76.6633 144.997 76.6664 144.997 76.6699C145.01 86.4633 140.723 95.7031 133.29 101.983Z" fill="black"/>
<path d="M128.333 120H95V126.667H128.333V120Z" fill="black"/>
<path d="M127.94 75.0934C127.36 74.0102 126.23 73.3333 125 73.3333H98.3333C97.1032 73.3333 95.9766 74.0098 95.3934 75.0965C94.8133 76.1797 94.8766 77.493 95.5602 78.5165L101.667 87.6766V123.333H108.334V86.6665C108.334 86.0098 108.137 85.3629 107.774 84.8165L104.56 79.9997H118.774L115.56 84.8165C115.197 85.3629 115 86.0098 115 86.6665V123.333H121.667V87.6766L127.774 78.5133C128.453 77.4934 128.52 76.1766 127.94 75.0934Z" fill="black"/>
<path d="M115 16.6667H108.333V30H115V16.6667Z" fill="black"/>
<path d="M64.9995 73.3333H51.6663V80H64.9995V73.3333Z" fill="black"/>
<path d="M171.666 70H158.333V76.6668H171.666V70Z" fill="black"/>
<path d="M70.6899 30.979L65.9758 35.6931L75.9766 45.6939L80.6907 40.9798L70.6899 30.979Z" fill="black"/>
<path d="M152.647 30.9826L142.646 40.9834L147.36 45.6972L157.361 35.6964L152.647 30.9826Z" fill="black"/>
<path d="M72.6431 104.307L62.6423 114.307L67.3564 119.021L77.3572 109.021L72.6431 104.307Z" fill="black"/>
<path d="M150.687 104.315L145.973 109.03L155.974 119.03L160.688 114.316L150.687 104.315Z" fill="black"/>
</svg>
