<svg width="200" height="200" viewBox="0 0 200 200" fill="none" xmlns="http://www.w3.org/2000/svg">
<path d="M83.3333 0H3.33333C1.4925 0 0 1.4925 0 3.33333V123.333C0 125.174 1.4925 126.667 3.33333 126.667H33.3333V120H6.66667V6.66667H80V13.3333H86.6667V3.33333C86.6667 1.4925 85.1742 0 83.3333 0Z" fill="black"/>
<path d="M31.4899 17.0167L24.8233 13.6833C23.8853 13.2146 22.7812 13.2146 21.8433 13.6833L15.1766 17.0167C14.0466 17.5813 13.3328 18.7367 13.3333 20V26.6667C13.3328 27.93 14.0466 29.0854 15.1766 29.65L21.8433 32.9833C22.7812 33.4521 23.8853 33.4521 24.8233 32.9833L31.4899 29.65C32.6199 29.0854 33.3337 27.93 33.3333 26.6667V20C33.3337 18.7367 32.6199 17.5813 31.4899 17.0167ZM26.6666 24.6067L23.3333 26.2733L19.9999 24.6067V22.06L23.3333 20.3933L26.6666 22.06V24.6067Z" fill="black"/>
<path d="M130 20H43.3333C41.4925 20 40 21.4925 40 23.3333V143.333C40 145.174 41.4925 146.667 43.3333 146.667H130C131.841 146.667 133.333 145.174 133.333 143.333V23.3333C133.333 21.4925 131.841 20 130 20ZM126.667 140H46.6667V26.6667H126.667V140Z" fill="black"/>
<path d="M106.53 65.7567C106.503 65.6667 106.46 65.58 106.427 65.4933C106.355 65.2971 106.265 65.1088 106.157 64.93C106.1 64.84 106.04 64.7533 105.973 64.6667C105.853 64.51 105.719 64.3642 105.573 64.23C105.49 64.1567 105.413 64.08 105.327 64.0133C105.24 63.9467 105.247 63.9367 105.203 63.9067C105.057 63.8183 104.904 63.7404 104.747 63.6733C104.683 63.6433 104.637 63.5967 104.573 63.57L87.9068 56.9033C87.1097 56.59 86.2238 56.59 85.4268 56.9033L68.7601 63.57C68.6934 63.5967 68.6434 63.6467 68.5801 63.6767C68.4247 63.7425 68.2747 63.8196 68.1301 63.9067C68.0867 63.9367 68.0534 63.98 68.0068 64.0133C67.9601 64.0467 67.8434 64.1567 67.7601 64.23C67.6147 64.3642 67.4809 64.51 67.3601 64.6667C67.2934 64.7533 67.2334 64.84 67.1767 64.93C67.0688 65.1088 66.9784 65.2975 66.9068 65.4933C66.8734 65.58 66.8301 65.6667 66.8034 65.7567C66.7159 66.0521 66.6701 66.3583 66.6667 66.6667V83.3333C66.6655 84.6967 67.4947 85.9229 68.7601 86.43L85.4268 93.0967C85.4668 93.0967 85.5101 93.0967 85.5501 93.12C86.2672 93.4042 87.0659 93.4042 87.7834 93.12C87.8234 93.12 87.8668 93.12 87.9068 93.0967L104.573 86.43C105.839 85.9229 106.668 84.6967 106.667 83.3333V66.6667C106.663 66.3583 106.618 66.0521 106.53 65.7567ZM83.3334 85.0767L73.3334 81.0767V71.59L83.3334 75.59V85.0767ZM86.6668 69.7433L78.9768 66.6667L86.6668 63.59L94.3567 66.6667L86.6668 69.7433ZM100 81.0767L90.0001 85.0767V75.59L100 71.59V81.0767Z" fill="black"/>
<path d="M196.667 20H143.333C141.492 20 140 21.4925 140 23.3333V56.6667C140 58.5075 141.492 60 143.333 60H196.667C198.507 60 200 58.5075 200 56.6667V23.3333C200 21.4925 198.507 20 196.667 20ZM193.333 53.3333H146.667V26.6667H193.333V53.3333Z" fill="black"/>
<path d="M160 33.3334H153.333V40H160V33.3334Z" fill="black"/>
<path d="M196.667 66.6666H143.333C141.492 66.6666 140 68.1591 140 70V103.333C140 105.174 141.492 106.667 143.333 106.667H196.667C198.507 106.667 200 105.174 200 103.333V70C200 68.1591 198.507 66.6666 196.667 66.6666ZM193.333 100H146.667V73.3333H193.333V100Z" fill="black"/>
<path d="M160 83.3334H153.333V90H160V83.3334Z" fill="black"/>
<path d="M186.667 83.3334H166.667V90H186.667V83.3334Z" fill="black"/>
<path d="M110 153.333H36.6666C34.8258 153.333 33.3333 154.826 33.3333 156.667V196.667C33.3333 198.508 34.8258 200 36.6666 200H110C111.841 200 113.333 198.508 113.333 196.667V156.667C113.333 154.826 111.841 153.333 110 153.333ZM106.667 193.333H39.9999V160H106.667V193.333Z" fill="black"/>
<path d="M196.667 153.333H123.333C121.492 153.333 120 154.826 120 156.667V196.667C120 198.508 121.492 200 123.333 200H196.667C198.507 200 200 198.508 200 196.667V156.667C200 154.826 198.507 153.333 196.667 153.333ZM193.333 193.333H126.667V172.72C127.734 173.115 128.862 173.322 130 173.333H190C191.138 173.322 192.266 173.115 193.333 172.72V193.333ZM193.333 163.333C193.333 165.174 191.841 166.667 190 166.667H130C128.159 166.667 126.667 165.174 126.667 163.333V160H193.333V163.333Z" fill="black"/>
<path d="M64.8232 170.35L58.1566 167.017C57.2186 166.548 56.1145 166.548 55.1766 167.017L48.5099 170.35C47.3799 170.915 46.6661 172.07 46.6666 173.333V180C46.6595 181.27 47.3745 182.432 48.5099 183L55.1766 186.333C56.1145 186.802 57.2186 186.802 58.1566 186.333L64.8232 183C65.9586 182.432 66.6736 181.27 66.6666 180V173.333C66.667 172.07 65.9532 170.915 64.8232 170.35ZM59.9999 177.94L56.6666 179.607L53.3332 177.94V175.393L56.6666 173.727L59.9999 175.393V177.94Z" fill="black"/>
<path d="M140 180H133.333V186.667H140V180Z" fill="black"/>
<path d="M166.667 180H146.667V186.667H166.667V180Z" fill="black"/>
</svg>
