<svg width="200" height="200" viewBox="0 0 200 200" fill="none" xmlns="http://www.w3.org/2000/svg">
<path d="M142.683 0H24.4843C11.798 0.0164165 1.51764 10.2968 1.50122 22.983V140.909C1.51764 153.595 11.798 163.876 24.4843 163.892H60.6004V157.325H24.4843C15.4224 157.315 8.07847 149.971 8.0678 140.909V85.3656H29.1531C31.0989 85.2231 32.5611 83.5306 32.4187 81.5844C32.3912 81.2093 32.3042 80.8408 32.1606 80.4932C29.2426 73.8527 32.2599 66.1041 38.9004 63.1861C45.5408 60.2681 53.2894 63.2854 56.2074 69.9259C57.6869 73.2929 57.6869 77.1261 56.2074 80.4932C55.3964 82.1898 56.1147 84.2226 57.8113 85.0335C58.25 85.2432 58.729 85.3565 59.2149 85.366H80.3002V105.066C79.2155 104.881 78.1172 104.79 77.0169 104.793C66.1369 104.79 57.3143 113.606 57.3102 124.486C57.3073 132.324 61.9519 139.418 69.137 142.551L71.7636 136.536C65.1125 133.643 62.066 125.906 64.959 119.254C67.0464 114.456 71.7837 111.354 77.0169 111.36C78.8264 111.359 80.6158 111.737 82.2702 112.47C83.9319 113.195 85.8674 112.435 86.5926 110.774C86.7732 110.36 86.8664 109.913 86.8668 109.462V85.3656H103.562C103.376 86.4499 103.282 87.5485 103.283 88.6488C103.303 98.0038 109.881 106.063 119.043 107.955L120.356 101.523C114.249 100.259 109.863 94.8859 109.85 88.6488C109.849 86.8393 110.227 85.0499 110.96 83.3956C111.685 81.7338 110.925 79.7983 109.264 79.0731C108.85 78.8925 108.404 78.7994 107.952 78.799H86.8668V62.1034C87.9511 62.2902 89.0498 62.3838 90.1501 62.3825C101.03 62.3825 109.85 53.5628 109.85 42.6828C109.85 31.8028 101.03 22.983 90.1501 22.983C89.0498 22.9818 87.9511 23.0754 86.8668 23.2621V6.56658H142.683C151.745 6.57725 159.088 13.9212 159.099 22.983V78.799H138.014C136.201 78.7998 134.731 80.2707 134.732 82.0839C134.733 82.5354 134.826 82.9819 135.006 83.3956C135.739 85.0499 136.117 86.8393 136.116 88.6488H142.683C142.684 87.5485 142.59 86.4499 142.404 85.3656H162.382C164.196 85.3656 165.666 83.8955 165.666 82.0823V22.983C165.649 10.2968 155.369 0.0164165 142.683 0ZM90.1501 29.5496C97.4033 29.5496 103.283 35.4296 103.283 42.6828C103.283 49.936 97.4033 55.8159 90.1501 55.8159C88.3406 55.8164 86.5512 55.4384 84.8968 54.7062C83.235 53.981 81.2995 54.7402 80.5743 56.402C80.3938 56.8157 80.3006 57.2622 80.3002 57.7137V78.5265H63.6276C63.7922 77.5312 63.8776 76.5245 63.8837 75.5157C63.8837 75.4566 63.8837 75.4041 63.8837 75.345C63.8837 75.2859 63.8837 75.276 63.8837 75.2432C63.8837 64.3632 55.064 55.5434 44.184 55.5434C33.304 55.5434 24.4843 64.3632 24.4843 75.2432C24.4843 75.276 24.4843 75.3121 24.4843 75.345C24.4843 75.3778 24.4843 75.4566 24.4843 75.5157C24.4904 76.5245 24.5758 77.5312 24.7404 78.5265H8.0678V22.983C8.07847 13.9212 15.4224 6.57725 24.4843 6.56658H80.3002V27.6519C80.301 29.4651 81.7719 30.9343 83.5851 30.9335C84.0366 30.9331 84.4831 30.84 84.8968 30.6594C86.5512 29.9272 88.3406 29.5492 90.1501 29.5496Z" fill="black"/>
<path d="M191.476 141.122L163.873 122.115L153.271 93.7905C152.639 92.091 150.749 91.2263 149.049 91.8587C148.988 91.8813 148.928 91.9059 148.868 91.9322L127.527 101.372C125.927 102.078 125.162 103.915 125.787 105.548C126.142 106.467 126.473 107.163 126.824 107.886C127.176 108.608 127.501 109.284 127.898 110.351C130.447 117.161 127.015 124.752 120.218 127.336C113.425 129.877 105.858 126.43 103.316 119.636C102.679 117.932 102.403 116.114 102.505 114.298C102.6 112.487 101.209 110.942 99.3987 110.847C98.9448 110.823 98.4913 110.894 98.0661 111.054L75.2538 119.646C73.56 120.285 72.7023 122.173 73.3364 123.869L81.5249 145.745C80.4393 145.943 79.3735 146.237 78.3401 146.625C68.1229 150.433 62.9271 161.802 66.7345 172.019C70.5419 182.236 81.9111 187.432 92.1283 183.625C93.1801 183.233 94.1967 182.752 95.167 182.187L101.037 197.868C101.674 199.566 103.566 200.426 105.264 199.79C105.266 199.789 105.268 199.789 105.27 199.788L137.8 187.532C139.844 191.924 143.604 195.282 148.199 196.817L150.274 190.579C147.567 189.667 145.318 187.745 143.996 185.214L153.895 181.487C157.147 190.633 165.809 196.738 175.516 196.725V190.158C166.472 190.103 159.155 182.785 159.099 173.742C159.099 172.871 158.753 172.036 158.137 171.421L146.705 159.988C145.01 158.278 144.819 155.587 146.255 153.655C147.091 152.526 148.383 151.822 149.784 151.731C151.189 151.613 152.571 152.13 153.554 153.139L176.478 176.063L181.12 171.421L174.337 164.637C176.008 159.64 175.905 154.219 174.045 149.288L167.892 132.855L187.733 146.517C190.363 148.363 191.93 151.374 191.932 154.587V196.997H198.499V154.587C198.494 149.222 195.873 144.196 191.476 141.122ZM167.895 151.59C168.802 154 169.13 156.59 168.854 159.151L158.196 148.497C153.797 143.985 146.574 143.894 142.062 148.293C137.551 152.692 137.46 159.916 141.859 164.427C141.926 164.496 141.993 164.564 142.062 164.631L152.447 175.016L106.048 192.493L99.7898 175.771C99.4003 174.732 98.5122 173.96 97.4291 173.719C97.1952 173.667 96.9563 173.641 96.7167 173.64C95.8577 173.639 95.0327 173.975 94.4184 174.576C89.1462 179.557 80.8337 179.321 75.8526 174.049C70.8714 168.776 71.1074 160.464 76.38 155.483C77.6202 154.311 79.0764 153.393 80.6679 152.778C81.7133 152.39 82.805 152.143 83.9151 152.042C84.598 151.959 85.2867 151.936 85.9737 151.973C87.7845 152.068 89.3297 150.677 89.4245 148.866C89.4483 148.416 89.3789 147.966 89.2209 147.544L80.645 124.646L96.28 118.76C98.332 129.444 108.657 136.442 119.342 134.39C120.434 134.181 121.506 133.879 122.546 133.488C132.727 129.626 137.874 118.263 134.061 108.063C133.759 107.255 133.486 106.615 133.224 106.043L148.327 99.3553L167.895 151.59Z" fill="black"/>
</svg>
