<svg width="200" height="200" viewBox="0 0 200 200" fill="none" xmlns="http://www.w3.org/2000/svg">
<path d="M99.9999 40.4576C110.73 40.4576 119.46 31.7279 119.46 20.9977C119.46 10.2675 110.73 1.53784 99.9999 1.53784C89.2697 1.53784 80.54 10.2675 80.54 20.9977C80.54 31.7279 89.2697 40.4576 99.9999 40.4576ZM99.9999 11.2678C105.365 11.2678 109.73 15.6326 109.73 20.9977C109.73 26.3628 105.365 30.7277 99.9999 30.7277C94.6348 30.7277 90.27 26.3628 90.27 20.9977C90.27 15.6326 94.6343 11.2678 99.9999 11.2678Z" fill="black"/>
<path d="M70.81 84.2423C73.4965 84.2423 75.675 82.0642 75.675 79.3773C75.675 65.9646 86.5871 55.0525 99.9999 55.0525C113.413 55.0525 124.325 65.9646 124.325 79.3773C124.325 82.0642 126.503 84.2423 129.19 84.2423C131.876 84.2423 134.055 82.0642 134.055 79.3773C134.055 60.5995 118.778 45.3225 99.9999 45.3225C81.2221 45.3225 65.9451 60.5995 65.9451 79.3773C65.9451 82.0642 68.1231 84.2423 70.81 84.2423Z" fill="black"/>
<path d="M34.0549 154.677C44.785 154.677 53.5148 145.948 53.5148 135.217C53.5148 124.487 44.785 115.758 34.0549 115.758C23.3247 115.758 14.595 124.487 14.595 135.217C14.595 145.948 23.3247 154.677 34.0549 154.677ZM34.0549 125.488C39.42 125.488 43.7848 129.852 43.7848 135.217C43.7848 140.583 39.42 144.947 34.0549 144.947C28.6898 144.947 24.3249 140.583 24.3249 135.217C24.3249 129.852 28.6898 125.488 34.0549 125.488Z" fill="black"/>
<path d="M34.0548 159.542C15.277 159.542 0 174.819 0 193.597C0 196.284 2.17853 198.462 4.86497 198.462C7.55141 198.462 9.72995 196.284 9.72995 193.597C9.72995 180.185 20.6421 169.272 34.0548 169.272C47.4675 169.272 58.3797 180.185 58.3797 193.597C58.3797 196.284 60.5582 198.462 63.2446 198.462C65.9311 198.462 68.1096 196.284 68.1096 193.597C68.1096 174.819 52.8326 159.542 34.0548 159.542Z" fill="black"/>
<path d="M165.945 154.677C176.675 154.677 185.405 145.948 185.405 135.217C185.405 124.487 176.675 115.758 165.945 115.758C155.215 115.758 146.485 124.487 146.485 135.217C146.485 145.948 155.215 154.677 165.945 154.677ZM165.945 125.488C171.31 125.488 175.675 129.852 175.675 135.217C175.675 140.583 171.31 144.947 165.945 144.947C160.58 144.947 156.215 140.583 156.215 135.217C156.215 129.852 160.58 125.488 165.945 125.488Z" fill="black"/>
<path d="M165.945 159.542C147.167 159.542 131.89 174.819 131.89 193.597C131.89 196.284 134.069 198.462 136.755 198.462C139.442 198.462 141.62 196.284 141.62 193.597C141.62 180.185 152.532 169.272 165.945 169.272C179.358 169.272 190.27 180.185 190.27 193.597C190.27 196.284 192.449 198.462 195.135 198.462C197.821 198.462 200 196.284 200 193.597C200 174.819 184.723 159.542 165.945 159.542Z" fill="black"/>
<path d="M130.239 133.734L104.865 119.084V89.7837C104.865 87.0967 102.686 84.9187 99.9999 84.9187C97.3135 84.9187 95.135 87.0967 95.135 89.7837V119.084L69.7607 133.734C67.4338 135.077 66.6364 138.052 67.9802 140.379C69.3239 142.706 72.2998 143.504 74.6257 142.16L99.9999 127.51L125.374 142.16C126.14 142.602 126.977 142.812 127.802 142.812C129.483 142.812 131.119 141.94 132.02 140.379C133.363 138.052 132.566 135.077 130.239 133.734Z" fill="black"/>
</svg>
