<svg width="200" height="200" viewBox="0 0 200 200" fill="none" xmlns="http://www.w3.org/2000/svg">
<path d="M163.333 0H36.6667C27.4667 0.0108333 20.0108 7.46667 20 16.6667V106.667C20.0108 115.867 27.4667 123.323 36.6667 123.333H82.2467L77.4867 140H66.6667V146.667H133.333V140H122.513L117.753 123.333H163.333C172.533 123.323 179.989 115.867 180 106.667V16.6667C179.989 7.46667 172.533 0.0108333 163.333 0ZM84.42 140L89.18 123.333H110.82L115.58 140H84.42ZM173.333 106.667C173.333 112.19 168.856 116.667 163.333 116.667H36.6667C31.1437 116.667 26.6667 112.19 26.6667 106.667V100H173.333V106.667ZM173.333 93.3333H26.6667V16.6667C26.6667 11.1438 31.1437 6.66667 36.6667 6.66667H163.333C168.856 6.66667 173.333 11.1438 173.333 16.6667V93.3333Z" fill="black"/>
<path d="M126.667 153.333H33.3333C31.4925 153.333 30 154.826 30 156.667V196.667C30 198.508 31.4925 200 33.3333 200H126.667C128.507 200 130 198.508 130 196.667V156.667C130 154.826 128.507 153.333 126.667 153.333ZM123.333 193.333H36.6667V160H123.333V193.333Z" fill="black"/>
<path d="M49.9999 180H43.3333V186.667H49.9999V180Z" fill="black"/>
<path d="M49.9999 166.667H43.3333V173.333H49.9999V166.667Z" fill="black"/>
<path d="M63.3334 166.667H56.6667V173.333H63.3334V166.667Z" fill="black"/>
<path d="M76.6667 166.667H70V173.333H76.6667V166.667Z" fill="black"/>
<path d="M103.333 166.667H96.6667V173.333H103.333V166.667Z" fill="black"/>
<path d="M89.9999 166.667H83.3333V173.333H89.9999V166.667Z" fill="black"/>
<path d="M116.667 180H110V186.667H116.667V180Z" fill="black"/>
<path d="M116.667 166.667H110V173.333H116.667V166.667Z" fill="black"/>
<path d="M103.333 180H56.6667V186.667H103.333V180Z" fill="black"/>
<path d="M153.333 153.333C144.129 153.333 136.667 160.795 136.667 170V183.333C136.667 192.538 144.129 200 153.333 200C162.538 200 170 192.538 170 183.333V170C170 160.795 162.538 153.333 153.333 153.333ZM163.333 183.333C163.333 188.856 158.856 193.333 153.333 193.333C147.81 193.333 143.333 188.856 143.333 183.333V170C143.333 164.477 147.81 160 153.333 160C158.856 160 163.333 164.477 163.333 170V183.333Z" fill="black"/>
<path d="M156.667 166.667H150V173.333H156.667V166.667Z" fill="black"/>
<path d="M103.447 29.1535L90.1013 75.7935L96.5078 77.6267L109.854 30.9867L103.447 29.1535Z" fill="black"/>
<path d="M82.1334 39.2267L77.8667 34.1067L57.8667 50.7734C56.453 51.9525 56.2626 54.0542 57.4417 55.4684C57.5705 55.6225 57.7126 55.765 57.8667 55.8934L77.8667 72.56L82.1334 67.44L65.2067 53.3334L82.1334 39.2267Z" fill="black"/>
<path d="M142.558 51.1984C142.43 51.0442 142.288 50.9017 142.133 50.7734L122.133 34.1067L117.867 39.2267L134.793 53.3334L117.867 67.44L122.133 72.56L142.133 55.8934C143.547 54.7142 143.738 52.6125 142.558 51.1984Z" fill="black"/>
</svg>
