<svg width="19" height="20" viewBox="0 0 19 20" fill="none" xmlns="http://www.w3.org/2000/svg"><path d="M8.24527 12.5625C6.64937 12.5625 5.3551 13.8568 5.3551 15.4527C5.3551 17.0486 6.64937 18.3429 8.24527 18.3429C9.84117 18.3429 11.1354 17.0486 11.1354 15.4527C11.1354 13.8568 9.84117 12.5625 8.24527 12.5625Z" fill="white"/><path d="M11.8429 12.0085C12.6984 12.9025 13.2249 14.1145 13.2249 15.4526C13.2249 17.1472 12.3803 18.6389 11.0916 19.5383C13.4772 18.8035 15.4515 17.0101 16.3345 14.8384C17.5575 11.833 16.4167 9.57355 14.5082 7.52246C14.5686 7.7857 14.6015 8.0654 14.6015 8.34509C14.596 10.0891 13.4333 11.5533 11.8429 12.0085Z" fill="white"/><path d="M8.57434 8.35076C8.57434 9.57373 9.56698 10.5609 10.7845 10.5609C12.002 10.5609 13.0001 9.56825 13.0001 8.35076C13.0001 7.12778 12.0075 6.14062 10.79 6.14062C9.57247 6.14062 8.57434 7.12778 8.57434 8.35076Z" fill="white"/><path d="M4.43378 18.661C3.70438 17.7944 3.26564 16.6757 3.26564 15.4527C3.26564 12.9025 5.17963 10.8021 7.653 10.5114C7.23072 9.8972 6.97845 9.15135 6.97845 8.35065C6.97845 6.24472 8.68403 4.54462 10.79 4.54462C10.9655 4.54462 11.1355 4.55559 11.3 4.57752C10.0551 3.50262 8.81017 2.41126 7.8285 1.22119C8.32756 6.44215 3.0737 4.54462 1.12681 9.35975C-0.172947 12.5845 1.00067 16.5715 4.43378 18.661Z" fill="white"/></svg>
