<svg xmlns="http://www.w3.org/2000/svg" viewBox="0 0 500 650"><path d="M250 25C122.47 25 19.09 128.38 19.09 255.91S122.47 486.82 250 486.82s230.91-103.38 230.91-230.91S377.53 25 250 25zm-80.03 282.7c0 6.7-5.43 12.14-12.14 12.14h-3c-6.7 0-12.14-5.43-12.14-12.14V204.13c0-6.7 5.43-12.14 12.14-12.14h3c6.7 0 12.14 5.43 12.14 12.14V307.7zm106.64-151.57l-54.53 203.51a7.62 7.62 0 01-7.36 5.65h-4.91c-5.01 0-8.66-4.76-7.36-9.6l54.53-203.51a7.62 7.62 0 017.36-5.65h4.91c5.01 0 8.66 4.76 7.36 9.6zm103.07 125.6c0 36.22-23.93 41.31-37.87 41.31h-3.03c-13.94 0-37.87-5.08-37.87-41.31V230.1c0-36.22 23.93-41.31 37.87-41.31h3.03c13.94 0 37.87 5.08 37.87 41.31v51.63zm-27.27-53.11v54.58c0 6.98-4.77 13.28-12.12 13.28-7.34 0-12.12-6.6-12.12-13.28v-54.58c0-6.67 4.78-13.28 12.12-13.28 7.35 0 12.12 6.3 12.12 13.28zM77.33 611.11c0 4.32 0 10.48.31 12.84H65c-.31-1.44-.92-4.19-.92-5.11-2.62 4.45-7.24 6.16-13.1 6.16-11.71 0-16.34-9.04-16.34-19.39v-1.18c0-15.98 12.33-20.83 26.51-20.83h2.47v-9.43c0-5.63-.92-8.91-6.32-8.91-5.24 0-6.63 3.41-6.63 8.12v1.31H37.11v-1.18c0-9.56 4.32-17.95 20.65-17.95 14.64 0 19.57 7.21 19.57 17.69v37.86zm-13.4-18.47h-3.24c-7.86 0-12.95 2.75-12.95 11.66v1.05c0 5.37 2.16 9.3 7.55 9.3 6.16 0 8.63-3.8 8.63-13.36v-8.65zm27.43-16.51c0-12.97 0-16.38-.15-19.52h13.1c.46 1.96.46 3.8.62 6.03 2.47-4.46 7.09-7.08 13.72-7.08 6.32 0 10.64 2.23 12.49 7.47 2.62-3.93 6.78-7.47 14.95-7.47 8.32 0 15.41 3.41 15.41 16.51v51.88h-13.87V574.3c0-4.98-1.39-8.12-6.47-8.12-6.32 0-7.86 4.45-7.86 11.4v46.38h-13.87V574.7c0-6.68-2.16-8.52-6.63-8.52-6.32 0-7.71 4.59-7.71 11.53v46.25H91.36v-47.83zm122.69 34.98c0 4.32 0 10.48.31 12.84h-12.64c-.31-1.44-.93-4.19-.93-5.11-2.62 4.45-7.24 6.16-13.1 6.16-11.71 0-16.34-9.04-16.34-19.39v-1.18c0-15.98 12.33-20.83 26.51-20.83h2.47v-9.43c0-5.63-.93-8.91-6.32-8.91-5.24 0-6.63 3.41-6.63 8.12v1.31h-13.56v-1.18c0-9.56 4.32-17.95 20.65-17.95 14.64 0 19.57 7.21 19.57 17.69v37.86zm-13.41-18.47h-3.24c-7.86 0-12.95 2.75-12.95 11.66v1.05c0 5.37 2.16 9.3 7.55 9.3 6.16 0 8.63-3.8 8.63-13.36v-8.65zm22.2 23.32c2.93-5.37 16.95-32.88 25.28-48.61h-22.96v-10.74h38.22v8.25c-1.69 3.67-18.19 36.42-24.5 48.34h24.81l-1.23 10.74h-39.61v-7.98zm60.73-22.8v10.35c0 5.9 1.39 11.53 8.17 11.53s7.86-4.98 7.86-10.48v-.39h13.41v.39c0 7.34-1.85 20.44-20.96 20.44-18.65 0-22.04-10.09-22.04-23.71v-23.32c0-9.56 3.85-22.4 22.04-22.4 16.18 0 21.27 9.69 21.27 22.4v15.2h-29.75zm16.49-9.3v-7.6c0-6.16-1.39-10.74-8.01-10.74-6.16 0-8.32 3.93-8.32 10.87v7.47h16.33zm36.53 9.3v10.35c0 5.9 1.39 11.53 8.17 11.53s7.86-4.98 7.86-10.48v-.39h13.41v.39c0 7.34-1.85 20.44-20.96 20.44-18.65 0-22.04-10.09-22.04-23.71v-23.32c0-9.56 3.85-22.4 22.04-22.4 16.18 0 21.27 9.69 21.27 22.4v15.2h-29.75zm16.49-9.3v-7.6c0-6.16-1.39-10.74-8.01-10.74-6.16 0-8.32 3.93-8.32 10.87v7.47h16.33zm43.76-51.22h13.87v14.02h-13.87v-14.02zm0 23.97h13.72v67.34h-13.72v-67.34zm68.52 20.05v26.86c0 14.41-8.32 21.49-22.35 21.49-14.33 0-22.04-7.07-22.04-21.35v-27.38c0-14.02 9.09-20.7 22.5-20.7 13.87-.02 21.89 7.45 21.89 21.08zm-30.52-.66v28.04c0 6.29 2.31 10.48 8.48 10.48 5.55 0 8.17-3.41 8.17-10.61V576c0-5.77-2-10.09-8.32-10.09-5.71 0-8.33 3.67-8.33 10.09zm-47.23 41.02c0 3.83-3.11 6.94-6.94 6.94-3.83 0-6.94-3.11-6.94-6.94 0-3.83 3.11-6.94 6.94-6.94 3.83 0 6.94 3.11 6.94 6.94z"/></svg>