<?xml version="1.0" encoding="UTF-8"?>
<svg xmlns="http://www.w3.org/2000/svg" viewBox="0 0 1030 234.03">
  <defs>
    <style>.cls-1{fill:#3232ff;}.cls-2{fill:#120b47;}</style>
  </defs>
  <title>Asset 1</title>
  <g id="Layer_2" data-name="Layer 2">
    <g id="Layer_1-2" data-name="Layer 1">
      <path class="cls-1" d="M131.9,147.78A61.2,61.2,0,0,0,175.2,43.29L131.9,0,88.61,43.3A61.19,61.19,0,0,0,131.9,147.78ZM101.17,55.85,131.9,25.12l30.74,30.73a43.47,43.47,0,1,1-61.47,0ZM131.9,184.29A185.31,185.31,0,0,1,0,129.65l12.57-12.56A168.78,168.78,0,0,0,56.7,148.87a97.16,97.16,0,0,1-22.49-62.3H52a79.94,79.94,0,0,0,159.88,0h17.77a97.27,97.27,0,0,1-22.5,62.3,169.16,169.16,0,0,0,44.14-31.78l12.56,12.56A185.39,185.39,0,0,1,131.9,184.29ZM43.08,196.14H220.74v17.77H43.08Z"></path>
      <path class="cls-2" d="M461.88,163.23a20.45,20.45,0,0,0-12.66-3.9,15.16,15.16,0,0,0-12.13,5.48c-.14.21-.28.29-.42.21a.44.44,0,0,1-.22-.43v-3.16a1.28,1.28,0,0,0-1.28-1.28h-9.7a1.2,1.2,0,0,0-.9.38,1.22,1.22,0,0,0-.38.9v71.32a1.28,1.28,0,0,0,1.28,1.28h9.71a1.26,1.26,0,0,0,1.27-1.28v-22.9a.46.46,0,0,1,.22-.43.36.36,0,0,1,.42.11,14.94,14.94,0,0,0,12,5.38q7.8,0,12.93-3.9a22,22,0,0,0,7.44-10.87,41.09,41.09,0,0,0,1.79-12.87,39.81,39.81,0,0,0-1.9-13.19A21.87,21.87,0,0,0,461.88,163.23ZM455.65,200a9.41,9.41,0,0,1-8.45,4.43,8.7,8.7,0,0,1-7.92-4.65c-1.76-2.88-2.64-7.11-2.64-12.66s.81-9.5,2.42-12.24a8.84,8.84,0,0,1,8.23-5.06,9.69,9.69,0,0,1,9,5.18c1.69,2.94,2.54,7,2.54,12.12Q458.82,195.11,455.65,200ZM495,140.59a1.24,1.24,0,0,1,.38.91v71.32a1.28,1.28,0,0,1-1.28,1.28h-9.71a1.25,1.25,0,0,1-.9-.37,1.27,1.27,0,0,1-.37-.91V141.5a1.26,1.26,0,0,1,.37-.91,1.25,1.25,0,0,1,.9-.37h9.71A1.23,1.23,0,0,1,495,140.59Zm-66.84-89.8V47.37a.77.77,0,0,1,.87-.88h5.37a.31.31,0,0,0,.35-.35V36a.77.77,0,0,1,.87-.88h4.32a.78.78,0,0,1,.87.88V46.14a.31.31,0,0,0,.35.35h9.94a.78.78,0,0,1,.88.88v3.42a.78.78,0,0,1-.88.88h-9.94a.31.31,0,0,0-.35.34V78c0,2.82.63,4.79,1.9,5.93s3.23,1.72,5.93,1.72h2.2a.78.78,0,0,1,.88.87v3.61a.77.77,0,0,1-.88.87c-.71.07-1.79.09-3.26.09-4.22,0-7.41-.8-9.57-2.37s-3.26-4.52-3.26-8.79V52a.31.31,0,0,0-.35-.34H429A.77.77,0,0,1,428.11,50.79Zm201.54,0V47.37a.78.78,0,0,1,.88-.88h5.37c.23,0,.34-.11.34-.35V36a.78.78,0,0,1,.88-.88h4.31a.78.78,0,0,1,.88.88V46.14a.3.3,0,0,0,.35.35h9.94a.78.78,0,0,1,.87.88v3.42a.78.78,0,0,1-.87.88h-9.94c-.24,0-.35.11-.35.34V78c0,2.82.63,4.79,1.89,5.93s3.23,1.72,5.94,1.72h2.2a.77.77,0,0,1,.87.87v3.61a.77.77,0,0,1-.87.87c-.71.07-1.79.09-3.26.09-4.22,0-7.42-.8-9.58-2.37s-3.26-4.52-3.26-8.79V52a.3.3,0,0,0-.34-.34h-5.37A.78.78,0,0,1,629.65,50.79ZM509.54,90.1V47.37a.78.78,0,0,1,.88-.88h4.48a.78.78,0,0,1,.87.88v5.37c0,.18.05.28.13.3s.17,0,.22-.12a14,14,0,0,1,4.71-5.06,12.22,12.22,0,0,1,6.65-1.81,10.48,10.48,0,0,1,5,1.15.94.94,0,0,1,.52,1.15l-1,4.31c-.18.59-.55.76-1.15.53a8.7,8.7,0,0,0-3.42-.62l-1.15.09A10.43,10.43,0,0,0,518.79,56a11.46,11.46,0,0,0-3,8.14V90.13a.77.77,0,0,1-.88.87h-4.48A.8.8,0,0,1,509.54,90.1ZM808.6,64.61H798.4q-8.53,0-13.32,3.82a12.64,12.64,0,0,0-4.79,10.42c0,4.34,1.4,7.55,4.22,9.67A17,17,0,0,0,795,91.68a21.52,21.52,0,0,0,7.83-1.36,13.73,13.73,0,0,0,5.71-4c.12-.11.22-.14.31-.09a.32.32,0,0,1,.13.27V90.1a.77.77,0,0,0,.88.87h4.48a.77.77,0,0,0,.87-.87V60.55a14,14,0,0,0-4.31-10.72c-2.87-2.69-7-4-12.22-4a20,20,0,0,0-11.43,3.08,11.33,11.33,0,0,0-5.28,8c-.12.35.14.59.8.71l4.75.61c.53.07.87-.2,1.06-.79a6.87,6.87,0,0,1,3.25-4.54,13,13,0,0,1,6.87-1.62c3.51,0,6.11.87,7.78,2.59A9.73,9.73,0,0,1,809,60.91v3.34A.35.35,0,0,1,808.6,64.61ZM809,76.74a8.06,8.06,0,0,1-3.79,7,15.52,15.52,0,0,1-9,2.58,11.42,11.42,0,0,1-7-2,6.8,6.8,0,0,1-2.68-5.84,7.53,7.53,0,0,1,3.52-6.6c2.34-1.58,5.45-2.36,9.32-2.36h9.23a.31.31,0,0,1,.35.34v6.87ZM414.25,50q4.17,4.13,4.17,11.08v29a.77.77,0,0,1-.87.88h-4.48a.78.78,0,0,1-.88-.88V62.31a11,11,0,0,0-2.95-7.91,10.06,10.06,0,0,0-7.6-3.08,10.26,10.26,0,0,0-10.82,10.81v28A.77.77,0,0,1,390,91h-4.49a.77.77,0,0,1-.87-.87V47.37a.77.77,0,0,1,.87-.88H390a.78.78,0,0,1,.87.88v3.78a.32.32,0,0,0,.13.27c.09.07.17,0,.22-.09,2.57-3.63,6.54-5.44,11.87-5.44Q410.09,45.86,414.25,50Zm-5,133.84a16.58,16.58,0,0,1,3.22,10.4q0,9.5-7,15.08t-19.16,5.59A35.86,35.86,0,0,1,372,212.28a21.53,21.53,0,0,1-9.45-7.39,19,19,0,0,1-3.32-11.19v-2.63a1.29,1.29,0,0,1,.37-.91,1.23,1.23,0,0,1,.9-.37h9.39a1.28,1.28,0,0,1,.9.37,1.25,1.25,0,0,1,.37.91v2a9.71,9.71,0,0,0,4.33,8.08c2.88,2.15,6.82,3.21,11.82,3.21,4.28,0,7.53-.91,9.7-2.74a8.81,8.81,0,0,0,3.28-7.07,7.33,7.33,0,0,0-1.79-5,16.74,16.74,0,0,0-5.12-3.75c-2.21-1.12-5.54-2.54-10-4.22a103.08,103.08,0,0,1-12.13-5.18,22.63,22.63,0,0,1-7.75-6.59,16.87,16.87,0,0,1-3.12-10.39q0-9.28,6.75-14.67t18.05-5.38a33.73,33.73,0,0,1,14,2.74,22.35,22.35,0,0,1,9.45,7.65A19.53,19.53,0,0,1,412,161.1v1.79a1.21,1.21,0,0,1-.37.91,1.23,1.23,0,0,1-.9.37h-9.5a1.26,1.26,0,0,1-1.26-1.28v-1.15a10.61,10.61,0,0,0-4.07-8.4q-4.06-3.42-11.24-3.42c-3.86,0-6.88.81-9,2.42a8.08,8.08,0,0,0-3.22,6.86,7.82,7.82,0,0,0,1.69,5.18,15.38,15.38,0,0,0,5.07,3.64c2.26,1.09,5.73,2.48,10.44,4.17a113.37,113.37,0,0,1,12,5.18A23,23,0,0,1,409.27,183.85ZM363,90.1V30.31a.77.77,0,0,1,.87-.88h4.48a.78.78,0,0,1,.88.88V90.1a.77.77,0,0,1-.88.87h-4.48C363.33,91,363,90.69,363,90.1ZM540.6,161.65a27.86,27.86,0,0,0-11.72-2.32q-9.18,0-15.24,4.12T506.72,174a.59.59,0,0,0,.27.68,2.39,2.39,0,0,0,.89.37l10.24,1.26c.77.14,1.26-.22,1.48-1a6.14,6.14,0,0,1,3.11-4,12.93,12.93,0,0,1,6.49-1.42c3.23,0,5.67.76,7.29,2.26a8.37,8.37,0,0,1,2.42,6.39v2.53a.47.47,0,0,1-.53.53H527.09q-10.46,0-16.2,4.6T505.14,199q0,7.92,5.12,11.92c3.41,2.68,7.77,4,13,4q9.81,0,15-5.71a.42.42,0,0,1,.42-.15c.14,0,.21.15.21.37v3.38a1.17,1.17,0,0,0,.37.9,1.25,1.25,0,0,0,.9.37h9.71a1.28,1.28,0,0,0,.9-.37,1.22,1.22,0,0,0,.38-.9V177.28a16.13,16.13,0,0,0-2.75-9.24A18.53,18.53,0,0,0,540.6,161.65Zm-1.69,33.87a8.36,8.36,0,0,1-3.7,7,14.51,14.51,0,0,1-8.87,2.74,10.45,10.45,0,0,1-6.38-1.84,6.16,6.16,0,0,1-2.48-5.23,6.76,6.76,0,0,1,3.22-6q3.22-2.11,8.81-2.12h8.87a.48.48,0,0,1,.53.53ZM491.43,49.83c-2.88-2.69-7-4-12.31-4a17.66,17.66,0,0,0-10.95,3.43,16.35,16.35,0,0,0-6,9.14,19,19,0,0,0-.66,4.17q-.14,2.34-.13,6,0,7.92,1.59,12.14A16,16,0,0,0,469,88.77a18.48,18.48,0,0,0,10.47,3,20.59,20.59,0,0,0,10.1-2.42,15.71,15.71,0,0,0,6.6-6.64.9.9,0,0,0-.35-1.24l-3.43-2c-.47-.3-.87-.18-1.23.35a11.73,11.73,0,0,1-4.39,4.75,12.46,12.46,0,0,1-6.52,1.67,13.41,13.41,0,0,1-8.08-2.29A10.55,10.55,0,0,1,468,77.67a39,39,0,0,1-.52-6.24.31.31,0,0,1,.34-.35h28.41a.77.77,0,0,0,.87-.87V67.4a43.73,43.73,0,0,0-.35-6.15Q495.74,53.89,491.43,49.83Zm-.8,16H467.85a.31.31,0,0,1-.35-.35,28,28,0,0,1,.71-6,10.31,10.31,0,0,1,3.74-6,11.25,11.25,0,0,1,7.17-2.24,11.58,11.58,0,0,1,7.43,2.33,11.15,11.15,0,0,1,3.91,6.28,40.67,40.67,0,0,1,.53,5.63A.33.33,0,0,1,490.63,65.83Zm377.29,95.82a27.86,27.86,0,0,0-11.72-2.32q-9.18,0-15.24,4.12T834,174a.6.6,0,0,0,.27.68,2.39,2.39,0,0,0,.89.37l10.24,1.26c.77.14,1.26-.22,1.48-1a6.14,6.14,0,0,1,3.11-4,12.93,12.93,0,0,1,6.49-1.42c3.23,0,5.67.76,7.29,2.26a8.37,8.37,0,0,1,2.42,6.39v2.53a.47.47,0,0,1-.53.53H854.41q-10.44,0-16.2,4.6T832.46,199q0,7.92,5.12,11.92t13,4q9.81,0,15-5.71a.42.42,0,0,1,.42-.15c.15,0,.21.15.21.37v3.38a1.21,1.21,0,0,0,.37.9,1.25,1.25,0,0,0,.9.37h9.71a1.26,1.26,0,0,0,.9-.37,1.22,1.22,0,0,0,.38-.9V177.28a16.13,16.13,0,0,0-2.75-9.24A18.47,18.47,0,0,0,867.92,161.65Zm-1.69,33.87a8.36,8.36,0,0,1-3.7,7,14.49,14.49,0,0,1-8.87,2.74,10.47,10.47,0,0,1-6.38-1.84,6.15,6.15,0,0,1-2.47-5.23,6.75,6.75,0,0,1,3.21-6q3.22-2.11,8.81-2.12h8.87a.48.48,0,0,1,.53.53ZM833.57,91h-4.48a.78.78,0,0,1-.88-.88V30.32a.77.77,0,0,1,.88-.87h4.48a.77.77,0,0,1,.87.87V90.11A.77.77,0,0,1,833.57,91Zm-5.17,69.65a1.31,1.31,0,0,1,.16,1L813.37,213a1.33,1.33,0,0,1-1.38,1.06H801.85a1.4,1.4,0,0,1-1.48-1.06l-9.28-32.19c-.06-.2-.18-.32-.31-.32s-.24.1-.32.32L781.91,213a1.39,1.39,0,0,1-1.48,1.06h-10a1.4,1.4,0,0,1-1.48-1.06l-15.09-51.5-.1-.43c0-.7.38-1,1.16-1h10a1.4,1.4,0,0,1,1.48,1l8.76,35.24c.06.22.18.33.32.33s.25-.11.32-.33L785,161.1a1.39,1.39,0,0,1,1.48-1h8.76a1.41,1.41,0,0,1,1.48,1l9.39,35.24c.06.22.18.33.32.33s.24-.11.32-.33l9.38-35.24a1.39,1.39,0,0,1,1.49-1l9.91.21A1.08,1.08,0,0,1,828.4,160.64ZM760.54,54.4a10.07,10.07,0,0,0-7.61-3.08,10.25,10.25,0,0,0-10.81,10.81v28a.77.77,0,0,1-.88.87h-4.48a.78.78,0,0,1-.88-.87V47.37a.78.78,0,0,1,.88-.88h4.48a.78.78,0,0,1,.88.88v3.78a.34.34,0,0,0,.12.27c.09.07.17,0,.22-.09q3.87-5.44,11.87-5.44c4.69,0,8.44,1.37,11.22,4.13s4.17,6.45,4.17,11.08v29a.77.77,0,0,1-.88.87h-4.48a.77.77,0,0,1-.87-.87V62.31A11,11,0,0,0,760.54,54.4ZM921.73,160.91a1.3,1.3,0,0,1,.63,1.59l-1.78,9.5c-.08.85-.57,1.09-1.49.73a11.72,11.72,0,0,0-3.69-.53,15.88,15.88,0,0,0-2.11.11,10.93,10.93,0,0,0-7.39,3.11A10.12,10.12,0,0,0,903,183v29.85a1.27,1.27,0,0,1-.37.91,1.29,1.29,0,0,1-.91.37H892a1.28,1.28,0,0,1-1.28-1.28V161.44a1.3,1.3,0,0,1,1.28-1.28h9.7a1.27,1.27,0,0,1,.91.38,1.25,1.25,0,0,1,.37.9v4.75q0,.42.15.48c.11,0,.24,0,.38-.27a14,14,0,0,1,12.34-6.87A12.23,12.23,0,0,1,921.73,160.91ZM1030,198.69a13.72,13.72,0,0,1-5.91,11.76q-5.91,4.28-15.72,4.28a32,32,0,0,1-11.65-2,18,18,0,0,1-7.77-5.38,12,12,0,0,1-2.74-7.65v-1a1.22,1.22,0,0,1,.38-.9,1.19,1.19,0,0,1,.9-.37h9.28a1.24,1.24,0,0,1,.9.37,1.19,1.19,0,0,1,.37.9V199c0,1.76,1,3.28,2.9,4.59a12.88,12.88,0,0,0,7.34,2,12.27,12.27,0,0,0,6.86-1.74,5.16,5.16,0,0,0,2.64-4.38,3.92,3.92,0,0,0-2.16-3.64,35.17,35.17,0,0,0-7-2.59l-4-1.26a60.85,60.85,0,0,1-9.08-3.37,18.3,18.3,0,0,1-6.23-4.91,12.22,12.22,0,0,1-2.54-8,14,14,0,0,1,5.81-11.77c3.86-2.92,9-4.37,15.29-4.37a28.66,28.66,0,0,1,11.3,2.06,17.33,17.33,0,0,1,7.49,5.7,13.83,13.83,0,0,1,2.64,8.28,1.25,1.25,0,0,1-.37.9,1.23,1.23,0,0,1-.91.37h-9a1.26,1.26,0,0,1-1.27-1.27,5.44,5.44,0,0,0-2.69-4.6,12.8,12.8,0,0,0-7.34-1.84,13.15,13.15,0,0,0-6.71,1.53,4.74,4.74,0,0,0-2.59,4.28,4.15,4.15,0,0,0,2.49,3.85,44,44,0,0,0,8.27,2.89l2.32.64a75.61,75.61,0,0,1,9.4,3.42,18.43,18.43,0,0,1,6.44,4.85A12,12,0,0,1,1030,198.69Zm-56.24-58.47h-9.71a1.3,1.3,0,0,0-.9.37,1.27,1.27,0,0,0-.37.91v22.9c0,.22-.06.34-.21.37a.42.42,0,0,1-.42-.15,15.15,15.15,0,0,0-11.92-5.28q-7.83,0-13,3.9a21.76,21.76,0,0,0-7.49,10.87A40.8,40.8,0,0,0,928,187a42.79,42.79,0,0,0,1.9,13.19A21.75,21.75,0,0,0,937.36,211,20.47,20.47,0,0,0,950,214.94a15.11,15.11,0,0,0,12.13-5.49c.14-.21.28-.28.43-.21a.43.43,0,0,1,.2.43v3.17a1.22,1.22,0,0,0,.38.9,1.23,1.23,0,0,0,.9.37h9.7a1.29,1.29,0,0,0,.91-.37,1.25,1.25,0,0,0,.37-.9V141.51a1.3,1.3,0,0,0-1.29-1.29Zm-13.52,59.1q-3,5.06-8.33,5.06a9.73,9.73,0,0,1-9-5.06q-2.54-4.75-2.54-12.14,0-8.24,3.17-12.88a9.68,9.68,0,0,1,8.45-4.43,9,9,0,0,1,8,4.65q2.64,4.32,2.64,12.55Q962.68,195,960.24,199.32Zm-230.77-58a1.32,1.32,0,0,0-1.38-1.06H714.91a1.3,1.3,0,0,0-1.36,1.06L690.64,212.6a1,1,0,0,0,1.06,1.49h10.54a1.33,1.33,0,0,0,1.38-1.06l3.48-11.29c.14-.28.3-.43.52-.43h27.86c.21,0,.39.15.53.43L739.49,213a1.31,1.31,0,0,0,1.36,1.06h10.56c.77,0,1.16-.33,1.16-1a1.35,1.35,0,0,0-.1-.53Zm2.74,50.44H710.79c-.35,0-.49-.22-.42-.63l10.76-35.35c.06-.29.18-.43.32-.43s.25.14.32.43l10.87,35.35C732.78,191.5,732.64,191.72,732.21,191.72ZM620,91a.78.78,0,0,0,.88-.88V60.56a14,14,0,0,0-4.31-10.72q-4.32-4-12.22-4a20.18,20.18,0,0,0-11.44,3.07,11.31,11.31,0,0,0-5.27,8c-.12.35.14.59.79.71l4.75.62c.53.06.88-.21,1.06-.8a6.81,6.81,0,0,1,3.26-4.53,13,13,0,0,1,6.86-1.62c3.51,0,6.12.86,7.79,2.58a9.78,9.78,0,0,1,2.51,7.08v3.34a.31.31,0,0,1-.35.35H604.1q-8.55,0-13.33,3.82A12.64,12.64,0,0,0,586,78.85c0,4.34,1.4,7.55,4.22,9.67a17,17,0,0,0,10.47,3.16,21.48,21.48,0,0,0,7.83-1.36,13.73,13.73,0,0,0,5.71-4c.12-.11.22-.14.31-.09a.32.32,0,0,1,.13.27V90.1a.77.77,0,0,0,.88.87H620Zm-5.37-14.25a8.07,8.07,0,0,1-3.78,7,15.53,15.53,0,0,1-9,2.58,11.42,11.42,0,0,1-7-2,6.79,6.79,0,0,1-2.67-5.84,7.54,7.54,0,0,1,3.51-6.6c2.34-1.58,5.46-2.36,9.32-2.36h9.23c.24,0,.35.11.35.34v6.87ZM602.43,190.61a12.07,12.07,0,0,1,2.64,8.08,13.72,13.72,0,0,1-5.91,11.76q-5.91,4.28-15.72,4.28a32,32,0,0,1-11.65-2,18,18,0,0,1-7.76-5.38,12,12,0,0,1-2.74-7.65v-1a1.21,1.21,0,0,1,.37-.9,1.19,1.19,0,0,1,.9-.37h9.28a1.22,1.22,0,0,1,.9.37,1.2,1.2,0,0,1,.38.9V199c0,1.76,1,3.28,2.89,4.59a12.9,12.9,0,0,0,7.34,2,12.32,12.32,0,0,0,6.87-1.74,5.16,5.16,0,0,0,2.64-4.38,3.93,3.93,0,0,0-2.17-3.64,35,35,0,0,0-7-2.59l-4-1.26a60.85,60.85,0,0,1-9.08-3.37,18.49,18.49,0,0,1-6.23-4.91,12.27,12.27,0,0,1-2.53-8,14,14,0,0,1,5.8-11.77q5.8-4.38,15.3-4.37a28.58,28.58,0,0,1,11.29,2.06,17.33,17.33,0,0,1,7.49,5.7,13.83,13.83,0,0,1,2.64,8.28,1.25,1.25,0,0,1-.37.9,1.21,1.21,0,0,1-.9.37h-9a1.22,1.22,0,0,1-.9-.37,1.23,1.23,0,0,1-.37-.9,5.44,5.44,0,0,0-2.69-4.6,12.8,12.8,0,0,0-7.34-1.84,13.2,13.2,0,0,0-6.71,1.53A4.76,4.76,0,0,0,573.5,175a4.16,4.16,0,0,0,2.49,3.85,44.21,44.21,0,0,0,8.28,2.89l2.31.64a75,75,0,0,1,9.4,3.42A18.37,18.37,0,0,1,602.43,190.61Zm52.5-26.22q5.12,5.06,5.12,13.83v34.6a1.23,1.23,0,0,1-.37.91,1.25,1.25,0,0,1-.9.37h-9.71a1.26,1.26,0,0,1-1.26-1.28V180.74a11.25,11.25,0,0,0-2.75-7.87,9.36,9.36,0,0,0-7.28-3,9.64,9.64,0,0,0-7.34,3,10.86,10.86,0,0,0-2.8,7.8v32.19a1.23,1.23,0,0,1-.37.9,1.22,1.22,0,0,1-.9.38h-9.71a1.2,1.2,0,0,1-.9-.38,1.23,1.23,0,0,1-.37-.9V141.48a1.22,1.22,0,0,1,.37-.9,1.23,1.23,0,0,1,.9-.37h9.71a1.28,1.28,0,0,1,.9.37,1.25,1.25,0,0,1,.37.9V164.8a.42.42,0,0,0,.21.42c.14.08.24,0,.31-.21q4.32-5.7,13.08-5.71C647,159.33,651.51,161,654.93,164.39ZM672.65,47.28V90a.77.77,0,0,1-.87.87H667.3a.77.77,0,0,1-.88-.87V47.28a.78.78,0,0,1,.88-.88h4.48A.78.78,0,0,1,672.65,47.28ZM566.2,54.4a10.07,10.07,0,0,0-7.61-3.08,10.26,10.26,0,0,0-10.81,10.81v28a.77.77,0,0,1-.88.87h-4.48a.77.77,0,0,1-.87-.87V47.37a.77.77,0,0,1,.87-.88h4.48a.78.78,0,0,1,.88.88v3.78a.32.32,0,0,0,.13.27c.09.07.17,0,.22-.09,2.57-3.63,6.54-5.44,11.87-5.44,4.68,0,8.43,1.37,11.21,4.13s4.17,6.45,4.17,11.08v29a.77.77,0,0,1-.87.87H570a.78.78,0,0,1-.88-.87V62.31A11,11,0,0,0,566.2,54.4ZM694,88.43a19.84,19.84,0,0,0,21.76,0,16.42,16.42,0,0,0,6.2-9q1.25-3.69,1.24-10.81A36.4,36.4,0,0,0,722,57.82a16.28,16.28,0,0,0-6.2-8.79A18,18,0,0,0,705,45.77,18.54,18.54,0,0,0,693.94,49a16.25,16.25,0,0,0-6.25,8.88,37.47,37.47,0,0,0-1.23,10.73,38.27,38.27,0,0,0,1.23,10.81A16.62,16.62,0,0,0,694,88.43Zm-.53-28.57a11.18,11.18,0,0,1,11.34-8.62,11.71,11.71,0,0,1,7.34,2.33,11.31,11.31,0,0,1,4.08,6.29,42.14,42.14,0,0,1,.71,8.88,38.33,38.33,0,0,1-.8,8.88,11.17,11.17,0,0,1-11.25,8.62,11.83,11.83,0,0,1-7.43-2.33,10.93,10.93,0,0,1-4-6.29,41.53,41.53,0,0,1-.71-8.88A41.47,41.47,0,0,1,693.5,59.86ZM673.27,29.91a5.15,5.15,0,0,1,0,7.08,4.92,4.92,0,0,1-8.43-3.51,4.74,4.74,0,0,1,1.4-3.57,4.82,4.82,0,0,1,3.52-1.37A4.89,4.89,0,0,1,673.27,29.91Z"></path>
    </g>
  </g>
</svg>
