<?xml version="1.0" encoding="UTF-8"?>
<svg xmlns="http://www.w3.org/2000/svg" width="48" height="48" viewBox="0 0 48 48" fill="none">
  <path d="M14 16V12C14 9.34784 15.0536 6.8043 16.9289 4.92893C18.8043 3.05357 21.3478 2 24 2C26.6522 2 29.1957 3.05357 31.0711 4.92893C32.9464 6.8043 34 9.34784 34 12V16H40C40.5304 16 41.0391 16.2107 41.4142 16.5858C41.7893 16.9609 42 17.4696 42 18V42C42 42.5304 41.7893 43.0391 41.4142 43.4142C41.0391 43.7893 40.5304 44 40 44H8C7.46957 44 6.96086 43.7893 6.58579 43.4142C6.21071 43.0391 6 42.5304 6 42V18C6 17.4696 6.21071 16.9609 6.58579 16.5858C6.96086 16.2107 7.46957 16 8 16H14ZM14 20H10V40H38V20H34V24H30V20H18V24H14V20ZM18 16H30V12C30 10.4087 29.3679 8.88258 28.2426 7.75736C27.1174 6.63214 25.5913 6 24 6C22.4087 6 20.8826 6.63214 19.7574 7.75736C18.6321 8.88258 18 10.4087 18 12V16Z" fill="url(#paint0_linear_2287_1101)"></path>
  <defs>
    <linearGradient id="paint0_linear_2287_1101" x1="39.1875" y1="116.844" x2="-19.5648" y2="27.2477" gradientUnits="userSpaceOnUse">
      <stop stop-color="#009CDE"></stop>
      <stop offset="1" stop-color="#9A41B9"></stop>
    </linearGradient>
  </defs>
</svg>
