<?xml version="1.0" encoding="UTF-8"?>
<svg xmlns="http://www.w3.org/2000/svg" fill="none" viewBox="0 0 140 41">
  <path d="M39.4346 25.9746c0-3.1665 1.5749-5.516 4.4275-5.516.5941-.0378 1.188.0774 1.725.3346.537.2572.9993.6478 1.3427 1.1346h.0823v-5.9277h2.3592v15.345h-2.0936l-.2656-1.2666h-.0823c-.3421.4881-.8042.8798-1.3415 1.1372-.5373.2573-1.1318.3717-1.7262.332-2.7261-.019-4.4086-2.2165-4.4275-5.5731Zm7.685 0c0-1.8492-.7464-3.4198-2.6502-3.4198-1.9039 0-2.6313 1.5706-2.6313 3.4198 0 1.8493.7021 3.4642 2.6313 3.4642 1.9291 0 2.6502-1.6022 2.6502-3.4642ZM51.5088 17.5136c0-.4014.1593-.7864.4428-1.0703.2835-.2838.668-.4433 1.0689-.4433.4009 0 .7854.1595 1.0689.4433.2835.2839.4428.6689.4428 1.0703s-.1593.7864-.4428 1.0703c-.2835.2838-.668.4433-1.0689.4433-.4009 0-.7854-.1595-1.0689-.4433-.2835-.2839-.4428-.6689-.4428-1.0703Zm.3352 3.1285h2.3593V31.345H51.844V20.6421ZM55.9434 26.0126c0-3.1665 1.5749-5.5541 4.4275-5.5541.5941-.0378 1.188.0774 1.725.3346.537.2572.9993.6478 1.3427 1.1347h.0822l.2657-1.2666h2.0936V31.364h-2.0936l-.2277-1.2666h-.0822c-.3434.4915-.8085.8853-1.3495 1.1429-.5411.2575-1.1397.37-1.7372.3264-2.8716-.038-4.4465-2.4193-4.4465-5.5541Zm7.685 0c0-1.8683-.7464-3.4389-2.6503-3.4389-1.9038 0-2.6312 1.5706-2.6312 3.4389 0 1.8682.7021 3.4451 2.6312 3.4451 1.9292 0 2.6313-1.5959 2.6313-3.4641l.019.019ZM70.795 30.0593h-.0822l-.272 1.2667h-2.0873V16h2.3593v5.9277h.0822c.3382-.4861.7958-.8767 1.3287-1.1341.533-.2574 1.1232-.3728 1.7137-.3351 2.8842 0 4.4276 2.3432 4.4276 5.516 0 3.3565-1.6762 5.5541-4.4276 5.5541-.5907.0389-1.1813-.0759-1.7145-.3334-.5331-.2575-.9906-.6488-1.3279-1.1359Zm5.117-4.0848c0-1.8492-.7084-3.4198-2.6502-3.4198-1.9418 0-2.6312 1.5706-2.6312 3.4198 0 1.8493.7463 3.4642 2.6312 3.4642 1.8849 0 2.6502-1.5769 2.6502-3.4642ZM79.5537 25.9935c0-3.0715 1.6382-5.5351 5.0158-5.5351 3.1246 0 4.8261 2.2609 4.8261 5.2058v.9943h-7.3941c0 1.6972.8666 2.8815 2.606 2.8815 1.3093 0 2.0936-.5826 2.3403-1.4503h2.3023c-.2909 1.9506-2.0936 3.4389-4.6426 3.4389-3.2511 0-5.0538-2.4256-5.0538-5.5351Zm7.413-1.0133c0-1.4123-.7843-2.5332-2.3972-2.5332-1.7204 0-2.4857 1.1209-2.53 2.5332h4.9272ZM92.2549 28.4191V22.656h-1.7647v-2.0139h1.8659v-2.2609l2.0494-.5763h.1961v2.8372h2.5869v2.0139h-2.5869v5.3514c0 1.0133.4364 1.4503 1.3852 1.4503.3511.0041.7008-.045 1.0373-.1456h.2087v1.9695c-.5937.1603-1.2068.2371-1.8216.228-2.2707.019-3.1563-1.2412-3.1563-3.0905ZM98.6123 25.9935c0-3.0715 1.6387-5.5351 5.0097-5.5351 3.131 0 4.826 2.2609 4.826 5.2058v.9943h-7.394c0 1.6972.873 2.8815 2.612 2.8815 1.303 0 2.094-.5826 2.34-1.4503h2.296c-.284 1.9506-2.087 3.4389-4.636 3.4389-3.251 0-5.0537-2.4256-5.0537-5.5351Zm7.4127-1.0133c0-1.4123-.784-2.5332-2.403-2.5332s-2.486 1.1209-2.53 2.5332h4.933Z" fill="#8B1C54"></path>
  <path d="M98.6934 25.959c0-3.0716 1.6386-5.5351 5.0096-5.5351 3.131 0 4.826 2.2609 4.826 5.2057v.9943h-7.394c0 1.6973.873 2.8816 2.612 2.8816 1.303 0 2.094-.5827 2.34-1.4503h2.296c-.284 1.9506-2.087 3.4388-4.636 3.4388-3.251 0-5.0536-2.4255-5.0536-5.535Zm7.4126-1.0133c0-1.4123-.784-2.5332-2.403-2.5332s-2.486 1.1209-2.53 2.5332h4.933ZM109.713 27.7795h2.359c0 1.0576.829 1.7163 2.176 1.7163 1.347 0 2.049-.456 2.049-1.197 0-.6333-.43-1.0196-1.404-1.2286l-1.897-.3483c-1.74-.3547-2.967-1.33-2.967-3.1665 0-1.8366 1.537-3.1095 4.124-3.1095 2.587 0 4.27 1.4312 4.27 3.5021h-2.315c-.045-.9753-.766-1.5959-1.987-1.5959-1.056 0-1.783.437-1.783 1.2223 0 .6333.518 1.0196 1.41 1.1653l1.822.3483c1.86.3926 3.106 1.1652 3.106 3.1981s-1.949 3.2299-4.428 3.2299c-2.878.0127-4.466-1.5009-4.535-3.7365Z" fill="#8B1C54"></path>
  <path d="M120.13 30.015c.002-.2976.091-.5881.257-.835s.401-.4391.676-.5524c.275-.1133.577-.1426.868-.0843.292.0584.559.2018.769.4122.21.2105.354.4784.412.7702.058.2918.029.5943-.084.8695s-.305.5106-.552.6767c-.246.1661-.537.2554-.834.2567-.203.0196-.408-.0061-.601-.0752-.192-.0691-.367-.18-.511-.3246-.145-.1447-.255-.3196-.324-.5121-.069-.1926-.095-.3981-.076-.6017Z" fill="#FF823B"></path>
  <path d="M125.291 20.6421h2.087l.19 1.3933h.082c.337-.5144.803-.931 1.351-1.2078.549-.2768 1.161-.4042 1.774-.3692 2.384 0 3.852 1.4693 3.852 3.8949v6.9663h-2.359v-6.371c0-1.4946-.684-2.3433-2.176-2.3433-1.493 0-2.442 1.0577-2.442 2.8436v5.9087h-2.359V20.6421ZM137.075 16h2.359v15.345h-2.359V16ZM10.3756 41c-2.60105 0-5.09552-1.0335-6.93471-2.8731C1.6017 36.2874.568449 33.7924.568449 31.1909V28.467c-.010465-2.452.897611-4.819 2.545291-6.6346 1.64769-1.8157 3.91548-2.9482 6.35654-3.1745.2306-2.4024 1.34732-4.6328 3.13252-6.2565 1.7851-1.6237 4.1108-2.52433 6.5237-2.52641h1.0788V31.1607c.004 1.2926-.2475 2.5732-.74 3.7683s-1.2162 2.281-2.1297 3.1953c-.9135.9144-1.9986 1.6391-3.1931 2.1326-1.1944.4935-2.4746.7461-3.7669.7431Zm0-20.4407c-2.09224.002-4.09816.8342-5.57757 2.3139-1.47941 1.4797-2.31142 3.4861-2.31342 5.5787v2.7239c0 2.0932.83137 4.1007 2.31121 5.5809 1.47984 1.4801 3.48693 2.3116 5.57978 2.3116 2.0928 0 4.0999-.8315 5.5797-2.3116 1.4798-1.4802 2.3112-3.4877 2.3112-5.5809V11.867c-1.9026.2098-3.6611 1.1141-4.9388 2.5396-1.2778 1.4256-1.9851 3.2724-1.9865 5.1869v.9658h-.9656Z" fill="#8B1C54"></path>
  <path d="M19.2319 41c-2.601 0-5.0955-1.0335-6.9347-2.873-1.8391-1.8396-2.8724-4.3346-2.8724-6.9361V19.5935h1.9312v11.5823c0 2.0932.8314 4.1007 2.3113 5.5809 1.4798 1.4801 3.4869 2.3116 5.5797 2.3116s4.0999-.8315 5.5798-2.3116c1.4798-1.4802 2.3112-3.4877 2.3112-5.5809V5.59672c-.0416-.89156-.425-1.73282-1.0705-2.34905-.6455-.61624-1.5036-.96006-2.396-.96006-.8923 0-1.7504.34382-2.3959.96006-.6455.61623-1.0289 1.45749-1.0705 2.34905V19.5935h-1.9237V5.59672c-.0271-.72496.0922-1.44793.3509-2.12569.2586-.67777.6513-1.29639 1.1545-1.81887.5032-.52249 1.1066-.938095 1.7741-1.221972C22.2284.146311 22.9462 0 23.6715 0c.7253 0 1.4432.146311 2.1107.430188.6675.283877 1.2709.699482 1.7741 1.221972.5032.52248.8958 1.1411 1.1545 1.81887.2586.67776.378 1.40073.3509 2.12569V31.1758c.0019 1.2913-.251 2.5703-.7444 3.7637-.4934 1.1933-1.2175 2.2774-2.1307 3.1902-.9133.9127-1.9978 1.6361-3.1912 2.1287-1.1935.4925-2.4724.7446-3.7635.7416Z" fill="#8B1C54"></path>
</svg>
