<?xml version="1.0" encoding="UTF-8"?>
<svg xmlns="http://www.w3.org/2000/svg" width="162" height="86" viewBox="0 0 162 86" fill="none">
  <path fill-rule="evenodd" clip-rule="evenodd" d="M45.3083 10C45.3083 4.47717 49.7854 0 55.3083 0H105.999C111.522 0 115.999 4.47715 115.999 10V19.7036C115.999 25.2265 111.522 29.7036 105.999 29.7036H93.833C93.9789 30.9826 94.3656 32.1856 94.9458 33.2689L91.4198 35.1575C90.5362 33.5079 89.9737 31.661 89.8145 29.7036H83.3476V33.0658H79.3476V29.7036H72.8799C72.7207 31.661 72.1582 33.5079 71.2746 35.1575L67.7485 33.2689C68.3288 32.1856 68.7155 30.9826 68.8614 29.7036H55.3083C49.7854 29.7036 45.3083 25.2265 45.3083 19.7036V10ZM55.3083 4C51.9946 4 49.3083 6.6863 49.3083 10V19.7036C49.3083 23.0173 51.9946 25.7036 55.3083 25.7036H105.999C109.313 25.7036 111.999 23.0173 111.999 19.7036V10C111.999 6.68629 109.313 4 105.999 4H55.3083ZM0.847656 66.2701C0.847656 60.7473 5.32481 56.2701 10.8477 56.2701H38.6133C44.1362 56.2701 48.6133 60.7473 48.6133 66.2701V75.9738C48.6133 81.4966 44.1362 85.9738 38.6133 85.9738H10.8477C5.32482 85.9738 0.847656 81.4966 0.847656 75.9738V66.2701ZM10.8477 60.2701C7.53395 60.2701 4.84766 62.9564 4.84766 66.2701V75.9738C4.84766 79.2875 7.53395 81.9738 10.8477 81.9738H38.6133C41.927 81.9738 44.6133 79.2875 44.6133 75.9738V66.2701C44.6133 62.9564 41.927 60.2701 38.6133 60.2701H10.8477ZM65.7286 56.2701C60.2058 56.2701 55.7286 60.7473 55.7286 66.2701V75.9738C55.7286 81.4966 60.2058 85.9738 65.7286 85.9738H94.8837C100.407 85.9738 104.884 81.4966 104.884 75.9738V66.2701C104.884 60.7473 100.407 56.2701 94.8837 56.2701H83.3476V53.6026H79.3476V56.2701H65.7286ZM59.7286 66.2701C59.7286 62.9564 62.4149 60.2701 65.7286 60.2701H94.8837C98.1974 60.2701 100.884 62.9564 100.884 66.2701V75.9738C100.884 79.2875 98.1974 81.9738 94.8837 81.9738H65.7286C62.4149 81.9738 59.7286 79.2875 59.7286 75.9738V66.2701ZM111.998 66.2701C111.998 60.7473 116.475 56.2701 121.998 56.2701H151.153C156.676 56.2701 161.153 60.7473 161.153 66.2701V75.9738C161.153 81.4966 156.676 85.9738 151.153 85.9738H121.998C116.475 85.9738 111.998 81.4966 111.998 75.9738V66.2701ZM121.998 60.2701C118.684 60.2701 115.998 62.9564 115.998 66.2701V75.9738C115.998 79.2875 118.684 81.9738 121.998 81.9738H151.153C154.467 81.9738 157.153 79.2875 157.153 75.9738V66.2701C157.153 62.9564 154.467 60.2701 151.153 60.2701H121.998ZM63.6398 37.3776C62.2376 38.1287 60.6348 38.5554 58.9264 38.5554H52.0983V42.5554H58.9264C61.3097 42.5554 63.5596 41.9582 65.5285 40.9036L63.6398 37.3776ZM43.9047 38.5554H37.0766C34.6933 38.5554 32.4435 39.1526 30.4746 40.2072L32.3632 43.7333C33.7655 42.9822 35.3682 42.5554 37.0766 42.5554H43.9047V38.5554ZM24.7284 45.9533C23.6739 47.9222 23.0766 50.1721 23.0766 52.5554V54.3413H27.0766V52.5554C27.0766 50.847 27.5034 49.2442 28.2545 47.842L24.7284 45.9533ZM103.768 38.5554C102.06 38.5554 100.457 38.1287 99.0545 37.3776L97.1659 40.9036C99.1348 41.9582 101.385 42.5554 103.768 42.5554H110.596V38.5554H103.768ZM125.618 38.5554H118.79V42.5554H125.618C127.326 42.5554 128.929 42.9822 130.331 43.7333L132.22 40.2072C130.251 39.1526 128.001 38.5554 125.618 38.5554ZM139.618 52.5554C139.618 50.1721 139.021 47.9222 137.966 45.9533L134.44 47.842C135.191 49.2442 135.618 50.847 135.618 52.5554V54.3413H139.618V52.5554ZM79.3476 38.6667V48.0017H83.3476V38.6667H79.3476Z" fill="url(#paint0_linear_582_3361)"></path>
  <defs>
    <linearGradient id="paint0_linear_582_3361" x1="409.125" y1="92.6905" x2="18.9098" y2="155.393" gradientUnits="userSpaceOnUse">
      <stop stop-color="#009CDE"></stop>
      <stop offset="1" stop-color="#9A41B9"></stop>
    </linearGradient>
  </defs>
</svg>
