<?xml version="1.0" encoding="UTF-8"?>
<svg xmlns="http://www.w3.org/2000/svg" xmlns:xlink="http://www.w3.org/1999/xlink" version="1.1" id="Layer_1" x="0px" y="0px" viewBox="0 0 180.5 65.3" style="enable-background:new 0 0 180.5 65.3;" xml:space="preserve">
<style type="text/css">
	.st0{fill:#261928;}
	.st1{fill:url(#SVGID_1_);}
</style>
<title>logo-drupaljam-xl-color-light-bg</title>
<path class="st0" d="M52.6,53.2V36.6h5.9c4.7,0,8.2,3,8.2,8.3s-3.5,8.3-8.2,8.3L52.6,53.2z M58.4,50.2c2.7,0,5-1.7,5-5.3  s-2.2-5.3-4.9-5.3h-2.6v10.6L58.4,50.2z"></path>
<path class="st0" d="M75.8,44.8c-0.3-0.1-0.6-0.1-0.9-0.1c-1.6,0-3,0.8-3,3.2v5.2h-3.1V41.7h3v1.7c0.6-1.2,1.9-1.9,3.3-1.8  c0.2,0,0.5,0,0.7,0L75.8,44.8z"></path>
<path class="st0" d="M84.9,52c-0.7,1-1.9,1.6-3.2,1.5c-2.3,0.1-4.3-1.7-4.4-4.1c0-0.2,0-0.3,0-0.5v-7.3h3.1v6.6  c-0.2,1.1,0.6,2.1,1.7,2.3c0.1,0,0.3,0,0.4,0c1.1,0.1,2.1-0.8,2.2-2c0-0.1,0-0.2,0-0.3v-6.7h3.1v9.4c0,0.7,0,1.4,0.1,2.1h-3  C85,52.8,84.9,52.4,84.9,52z"></path>
<path class="st0" d="M90.7,57.6V41.7h3v1.4c0.8-1.1,2.1-1.8,3.5-1.7c3.4,0,5.3,2.6,5.3,6s-2.2,6-5.4,6c-1.3,0.1-2.5-0.4-3.3-1.4v5.5  L90.7,57.6z M96.7,44.2c-1.6,0-2.9,1.3-2.9,2.9c0,0.1,0,0.2,0,0.3c-0.2,1.6,1,3.1,2.6,3.2c0.1,0,0.2,0,0.3,0c1.6,0,2.8-1.2,2.8-3.2  S98.2,44.2,96.7,44.2z"></path>
<path class="st0" d="M107.3,46.6l2.8-0.4c0.7-0.1,0.9-0.4,0.9-0.8c0-0.8-0.6-1.5-1.9-1.5c-1.1-0.1-2.1,0.7-2.2,1.8c0,0,0,0,0,0.1  l-2.8-0.6c0.2-1.8,1.8-3.8,4.9-3.8c3.6,0,5,2,5,4.4v5.7c0,0.6,0.1,1.2,0.1,1.8h-2.8c-0.1-0.5-0.1-0.9-0.1-1.4  c-0.7,1.1-2,1.8-3.4,1.7c-2.4,0-3.9-1.7-3.9-3.5C103.8,48,105.3,46.9,107.3,46.6z M110.9,48.6V48l-2.6,0.4c-0.8,0-1.4,0.7-1.4,1.4  c0,0.7,0.6,1.3,1.3,1.3c0,0,0.1,0,0.1,0c1.3,0.1,2.4-0.8,2.6-2.1C111,48.9,111,48.7,110.9,48.6L110.9,48.6z"></path>
<path class="st0" d="M116.6,53.2V36.3h3.1v16.9H116.6z"></path>
<path class="st0" d="M122.6,41.7h3.1v12.5c0.2,1.9-1.2,3.6-3.1,3.8c-0.2,0-0.3,0-0.5,0c-0.6,0-1.2-0.1-1.8-0.3v-2.6  c0.3,0.1,0.7,0.1,1,0.1c0.9,0,1.3-0.5,1.3-1.3L122.6,41.7z M124.1,36c1.1,0,1.9,0.9,1.9,1.9c0,0,0,0,0,0c-0.1,1.1-1,1.9-2.1,1.8  c-1-0.1-1.7-0.8-1.8-1.8C122.2,36.9,123.1,36,124.1,36z"></path>
<path class="st0" d="M131.3,46.6l2.8-0.4c0.6-0.1,0.9-0.4,0.9-0.8c0-0.8-0.6-1.5-1.9-1.5c-1.1-0.1-2.1,0.7-2.2,1.8c0,0,0,0,0,0.1  l-2.8-0.6c0.2-1.8,1.8-3.8,4.9-3.8c3.6,0,5,2,5,4.4v5.7c0,0.6,0.1,1.2,0.1,1.8h-2.8c-0.1-0.5-0.1-0.9-0.1-1.4  c-0.7,1.1-2,1.8-3.4,1.7c-2.4,0-3.9-1.7-3.9-3.5C127.8,48,129.4,46.9,131.3,46.6z M135,48.6V48l-2.6,0.4c-0.8,0-1.4,0.7-1.4,1.5  c0,0.7,0.6,1.3,1.3,1.3c0,0,0.1,0,0.1,0c1.3,0.1,2.4-0.8,2.5-2.1C135,48.9,135,48.7,135,48.6L135,48.6z"></path>
<path class="st0" d="M140.6,53.2V41.7h3v1.4c0.8-1.1,2-1.7,3.4-1.7c1.4-0.1,2.8,0.7,3.4,1.9c0.8-1.2,2.1-2,3.6-1.9  c2.1,0,4.1,1.3,4.1,4.4v7.5h-3v-6.8c0.1-1-0.6-2-1.6-2.2c-0.1,0-0.2,0-0.4,0c-1.2,0-2.1,0.9-2.2,2.1c0,0.1,0,0.1,0,0.2v6.7h-3.1  v-6.8c0.1-1.1-0.6-2-1.7-2.2c-0.1,0-0.2,0-0.3,0c-1.2,0-2.1,0.9-2.2,2.1c0,0.1,0,0.1,0,0.2v6.7H140.6z"></path>
<linearGradient id="SVGID_1_" gradientUnits="userSpaceOnUse" x1="4.606685e-03" y1="34.0328" x2="46.6832" y2="34.0328" gradientTransform="matrix(1 0 0 -1 0 66.6456)">
	<stop offset="0" style="stop-color:#00FA80"></stop>
	<stop offset="1" style="stop-color:#00ADD8"></stop>
</linearGradient>
<path class="st1" d="M27.2,65.3c-0.5,0-0.9-0.2-1.2-0.6l-5.3-7.3c-0.4-0.7-0.3-1.6,0.4-2c0.6-0.4,1.5-0.3,1.9,0.3l5.3,7.4  c0.5,0.6,0.3,1.5-0.3,2c0,0,0,0,0,0C27.8,65.2,27.5,65.3,27.2,65.3z M16.5,64.4c-0.5,0-0.9-0.2-1.2-0.6l-6.9-9.5  c-0.5-0.6-0.5-1.5,0.1-2s1.5-0.5,2,0.1c0.1,0.1,0.1,0.1,0.1,0.2l6.9,9.5c0.5,0.6,0.3,1.5-0.3,2c0,0,0,0,0,0  C17.1,64.3,16.8,64.4,16.5,64.4z M35.2,62.4c-0.5,0-0.9-0.2-1.2-0.6L15.9,36.9c-0.4-0.7-0.3-1.6,0.4-2c0.6-0.4,1.5-0.3,1.9,0.3  l18.1,24.8c0.5,0.6,0.3,1.5-0.3,2C35.8,62.2,35.5,62.3,35.2,62.4L35.2,62.4z M41.2,56.9c-0.5,0-0.9-0.2-1.2-0.6l-5.6-7.7l0,0  l-3.1-4.3c-0.4-0.7-0.3-1.6,0.4-2c0.6-0.4,1.5-0.3,1.9,0.3l3.8,5.2l0,0l4.9,6.8c0.5,0.6,0.3,1.5-0.3,2  C41.9,56.8,41.6,56.9,41.2,56.9z M17.1,51.4c-0.5,0-0.9-0.2-1.1-0.6L2.1,31.6c-0.4-0.7-0.1-1.6,0.6-1.9c0.6-0.3,1.3-0.2,1.7,0.3  l13.9,19.1c0.5,0.6,0.3,1.5-0.3,2c0,0,0,0,0,0C17.7,51.3,17.5,51.4,17.1,51.4L17.1,51.4z M45.2,48.6c-0.5,0-0.9-0.2-1.2-0.6  L25.5,22.4c-0.5-0.6-0.3-1.5,0.3-2s1.5-0.3,2,0.3l18.5,25.5c0.5,0.6,0.3,1.5-0.3,2c0,0,0,0,0,0C45.8,48.5,45.6,48.6,45.2,48.6  L45.2,48.6z M4.9,48.3c-0.5,0-0.9-0.2-1.2-0.6L0.3,43c-0.5-0.6-0.3-1.5,0.3-2c0.6-0.5,1.5-0.3,2,0.3L6,46.1c0.5,0.6,0.3,1.5-0.3,2  c0,0,0,0,0,0C5.4,48.2,5.2,48.3,4.9,48.3z M27.8,38.3c-0.5,0-0.9-0.2-1.2-0.6L10.2,15.2c-0.4-0.7-0.3-1.6,0.4-2  c0.6-0.4,1.5-0.3,1.9,0.3L29,36.1c0.5,0.6,0.3,1.5-0.3,2C28.5,38.3,28.1,38.4,27.8,38.3L27.8,38.3z M44.5,33.6  c-0.5,0-0.9-0.2-1.2-0.6l-5.7-7.8c-0.5-0.7-0.3-1.6,0.4-2c0.7-0.5,1.6-0.3,2,0.4l5.7,7.9c0.5,0.6,0.3,1.5-0.3,2  C45.1,33.6,44.8,33.7,44.5,33.6L44.5,33.6z M12.4,31c-0.5,0-0.9-0.2-1.2-0.6l-5.5-7.6c-0.6-0.5-0.6-1.5,0-2s1.5-0.6,2,0  C7.8,20.9,7.9,21,8,21.1l5.5,7.6c0.5,0.6,0.3,1.5-0.3,2C12.9,30.9,12.7,31,12.4,31z M34,19.3c-0.5,0-0.9-0.2-1.2-0.6L20.9,2.3  c-0.5-0.6-0.4-1.5,0.3-2c0.6-0.5,1.5-0.4,2,0.3c0,0,0,0.1,0.1,0.1L35.2,17c0.5,0.6,0.3,1.5-0.3,2c0,0,0,0,0,0  C34.7,19.2,34.4,19.3,34,19.3z M22,16.5c-0.5,0-0.9-0.2-1.2-0.6l-5.5-7.5c-0.4-0.7-0.3-1.6,0.4-2c0.6-0.4,1.5-0.3,1.9,0.3l5.5,7.5  c0.5,0.6,0.3,1.5-0.3,2c0,0,0,0,0,0C22.6,16.4,22.3,16.5,22,16.5z"></path>
</svg>
