<?xml version="1.0" encoding="UTF-8"?>
<svg xmlns="http://www.w3.org/2000/svg" width="44" height="39" viewBox="0 0 44 39" fill="none">
  <path d="M4.32209 3.93796C6.64221 1.61742 9.75408 0.260135 13.0333 0.138464C16.3125 0.0167924 19.5164 1.13973 22.0021 3.28196C24.4856 1.1433 27.6853 0.0216245 30.9605 0.141487C34.2358 0.261349 37.3449 1.61391 39.6654 3.92838C41.986 6.24284 43.3467 9.34841 43.4751 12.6233C43.6035 15.8983 42.4902 19.1009 40.3581 21.59L24.8281 37.17C24.1146 37.8837 23.1576 38.3014 22.1491 38.3392C21.1406 38.377 20.1551 38.0323 19.3901 37.374L19.1701 37.172L3.64209 21.59C1.51106 19.103 0.397245 15.9034 0.523315 12.6307C0.649386 9.35807 2.00606 6.25359 4.32209 3.93796ZM7.15008 6.76596C5.51457 8.40193 4.57179 10.6048 4.51742 12.9175C4.46305 15.2302 5.30126 17.4749 6.85809 19.186L7.15008 19.494L22.0001 34.344L32.6061 23.736L25.5361 16.666L23.4161 18.786C22.859 19.3433 22.1976 19.7854 21.4697 20.0872C20.7417 20.3889 19.9615 20.5443 19.1735 20.5445C17.5821 20.5448 16.0557 19.913 14.9301 18.788C13.8045 17.6629 13.172 16.1368 13.1716 14.5454C13.1712 12.9539 13.803 11.4275 14.9281 10.302L19.1321 6.09596C17.459 4.76071 15.3649 4.06534 13.2255 4.13462C11.086 4.20389 9.04126 5.03328 7.45809 6.47396L7.15008 6.76596ZM24.1221 12.422C24.4971 12.047 25.0058 11.8364 25.5361 11.8364C26.0664 11.8364 26.575 12.047 26.9501 12.422L35.4341 20.906L36.8501 19.494C38.513 17.8322 39.4597 15.5858 39.4878 13.2351C39.5158 10.8844 38.6229 8.616 37.0001 6.91507C35.3773 5.21415 33.1534 4.2157 30.804 4.13327C28.4545 4.05084 26.1661 4.89096 24.4281 6.47396L24.1221 6.76596L17.7581 13.13C17.4114 13.4764 17.204 13.938 17.1753 14.4273C17.1465 14.9165 17.2984 15.3993 17.6021 15.784L17.7581 15.958C18.1045 16.3046 18.5662 16.512 19.0554 16.5408C19.5447 16.5695 20.0274 16.4177 20.4121 16.114L20.5861 15.958L24.1221 12.422Z" fill="url(#paint0_linear_3060_1421)"></path>
  <defs>
    <linearGradient id="paint0_linear_3060_1421" x1="24.6851" y1="38.342" x2="6.61145" y2="4.38923" gradientUnits="userSpaceOnUse">
      <stop stop-color="#15BE11"></stop>
      <stop offset="1" stop-color="#098147"></stop>
    </linearGradient>
  </defs>
</svg>
