<?xml version="1.0" encoding="UTF-8"?>
<svg xmlns="http://www.w3.org/2000/svg" width="48" height="48" viewBox="0 0 48 48" fill="none">
  <path d="M26 42V46H22V42H6C5.46957 42 4.96086 41.7893 4.58579 41.4142C4.21071 41.0391 4 40.5304 4 40V8.00001C4 7.46957 4.21071 6.96086 4.58579 6.58579C4.96086 6.21072 5.46957 6.00001 6 6.00001H18C19.1352 5.99866 20.2576 6.23952 21.2922 6.7065C22.3269 7.17348 23.25 7.85584 24 8.70801C24.75 7.85584 25.6731 7.17348 26.7078 6.7065C27.7424 6.23952 28.8648 5.99866 30 6.00001H42C42.5304 6.00001 43.0391 6.21072 43.4142 6.58579C43.7893 6.96086 44 7.46957 44 8.00001V40C44 40.5304 43.7893 41.0391 43.4142 41.4142C43.0391 41.7893 42.5304 42 42 42H26ZM40 38V10H30C28.9391 10 27.9217 10.4214 27.1716 11.1716C26.4214 11.9217 26 12.9391 26 14V38H40ZM22 38V14C22 12.9391 21.5786 11.9217 20.8284 11.1716C20.0783 10.4214 19.0609 10 18 10H8V38H22Z" fill="url(#paint0_linear_2287_1124)"></path>
  <defs>
    <linearGradient id="paint0_linear_2287_1124" x1="28.375" y1="46" x2="-13.1423" y2="-21.3635" gradientUnits="userSpaceOnUse">
      <stop stop-color="#009CDE"></stop>
      <stop offset="1" stop-color="#9A41B9"></stop>
    </linearGradient>
  </defs>
</svg>
