<?xml version="1.0" encoding="UTF-8"?>
<svg xmlns="http://www.w3.org/2000/svg" width="97" height="25" viewBox="0 0 97 25" fill="none">
  <g clip-path="url(#clip0_467_3423)">
    <path d="M30.9971 19.7L32.2096 16.82C33.5199 17.82 35.2604 18.34 36.9813 18.34C38.2525 18.34 39.0543 17.84 39.0543 17.08C39.0348 14.96 31.4469 16.62 31.3882 11.3C31.3686 8.60002 33.7154 6.52002 37.04 6.52002C39.0152 6.52002 40.9904 7.02002 42.3985 8.16002L41.2642 11.1C39.9735 10.26 38.3699 9.66002 36.8444 9.66002C35.808 9.66002 35.1235 10.16 35.1235 10.8C35.143 12.88 42.7896 11.74 42.8678 16.82C42.8678 19.58 40.5797 21.52 37.2942 21.52C34.8888 21.52 32.6789 20.94 30.9971 19.7Z" fill="#1B1C1E"></path>
    <path d="M77.5217 15.78C76.9154 16.86 75.7812 17.6 74.4709 17.6C72.5348 17.6 70.9703 16 70.9703 14.02C70.9703 12.04 72.5348 10.44 74.4709 10.44C75.7812 10.44 76.9154 11.18 77.5217 12.26L80.8658 10.36C79.6142 8.08002 77.2088 6.52002 74.4709 6.52002C70.4227 6.52002 67.1372 9.88002 67.1372 14.02C67.1372 18.16 70.4227 21.52 74.4709 21.52C77.2283 21.52 79.6142 19.98 80.8658 17.68L77.5217 15.78Z" fill="#1B1C1E"></path>
    <path d="M48.7349 0.300049H44.5498V21.24H48.7349V0.300049Z" fill="#1B1C1E"></path>
    <path d="M82.5088 0.300049V21.24H86.6939V14.96L91.6612 21.24H97.0197L90.703 13.78L96.5504 6.82005H91.4265L86.6939 12.6V0.300049H82.5088Z" fill="#1B1C1E"></path>
    <path d="M61.1725 15.82C60.5663 16.84 59.3147 17.6 57.9066 17.6C55.9705 17.6 54.406 16 54.406 14.02C54.406 12.04 55.9705 10.44 57.9066 10.44C59.3147 10.44 60.5663 11.24 61.1725 12.28V15.82ZM61.1725 6.82002V8.52002C60.4881 7.34002 58.7867 6.52002 57.007 6.52002C53.3304 6.52002 50.436 9.84002 50.436 14C50.436 18.16 53.3304 21.52 57.007 21.52C58.7867 21.52 60.4881 20.7 61.1725 19.52V21.22H65.3576V6.82002H61.1725Z" fill="#1B1C1E"></path>
    <path d="M5.12384 15.8C5.12384 17.26 3.97001 18.44 2.54239 18.44C1.11477 18.44 -0.0390625 17.26 -0.0390625 15.8C-0.0390625 14.34 1.11477 13.16 2.54239 13.16H5.12384V15.8Z" fill="#E01E5A"></path>
    <path d="M6.41455 15.8C6.41455 14.34 7.56838 13.16 8.996 13.16C10.4236 13.16 11.5775 14.34 11.5775 15.8V22.4C11.5775 23.86 10.4236 25.04 8.996 25.04C7.56838 25.04 6.41455 23.86 6.41455 22.4V15.8Z" fill="#E01E5A"></path>
    <path d="M8.996 5.20004C7.56838 5.20004 6.41455 4.02004 6.41455 2.56004C6.41455 1.10004 7.56838 -0.0799561 8.996 -0.0799561C10.4236 -0.0799561 11.5775 1.10004 11.5775 2.56004V5.20004H8.996Z" fill="#36C5F0"></path>
    <path d="M8.99604 6.54004C10.4237 6.54004 11.5775 7.72004 11.5775 9.18004C11.5775 10.64 10.4237 11.82 8.99604 11.82H2.52286C1.09524 11.82 -0.0585938 10.64 -0.0585938 9.18004C-0.0585938 7.72004 1.09524 6.54004 2.52286 6.54004H8.99604Z" fill="#36C5F0"></path>
    <path d="M19.3413 9.18004C19.3413 7.72004 20.4951 6.54004 21.9228 6.54004C23.3504 6.54004 24.5042 7.72004 24.5042 9.18004C24.5042 10.64 23.3504 11.82 21.9228 11.82H19.3413V9.18004Z" fill="#2EB67D"></path>
    <path d="M18.0506 9.18005C18.0506 10.64 16.8968 11.82 15.4692 11.82C14.0415 11.82 12.8877 10.64 12.8877 9.18005V2.56005C12.8877 1.10005 14.0415 -0.0799561 15.4692 -0.0799561C16.8968 -0.0799561 18.0506 1.10005 18.0506 2.56005V9.18005Z" fill="#2EB67D"></path>
    <path d="M15.4692 19.76C16.8968 19.76 18.0506 20.94 18.0506 22.4C18.0506 23.86 16.8968 25.04 15.4692 25.04C14.0415 25.04 12.8877 23.86 12.8877 22.4V19.76H15.4692Z" fill="#ECB22E"></path>
    <path d="M15.4691 18.44C14.0415 18.44 12.8877 17.26 12.8877 15.8C12.8877 14.34 14.0415 13.16 15.4691 13.16H21.9423C23.3699 13.16 24.5238 14.34 24.5238 15.8C24.5238 17.26 23.3699 18.44 21.9423 18.44H15.4691Z" fill="#ECB22E"></path>
  </g>
  <defs>
    <clipPath id="clip0_467_3423">
      <rect width="97" height="25" fill="white"></rect>
    </clipPath>
  </defs>
</svg>
