<?xml version="1.0" encoding="UTF-8"?>
<svg xmlns="http://www.w3.org/2000/svg" width="48" height="48" viewBox="0 0 48 48" fill="none">
  <path d="M24 4C35.046 4 44 12.954 44 24C44 35.046 35.046 44 24 44C12.954 44 4 35.046 4 24C4 12.954 12.954 4 24 4ZM24.732 26.732L17.794 38.752C20.6099 39.9302 23.7027 40.284 26.712 39.772C26.1805 36.0347 26.7244 32.2234 28.28 28.784L24.732 26.732ZM31.768 30.794C30.7302 33.2506 30.3265 35.9286 30.594 38.582C33.0215 37.4813 35.1365 35.7931 36.748 33.67L31.768 30.794ZM17.718 22.684C15.5172 25.7511 12.4894 28.129 8.988 29.54C10.0458 32.4024 11.8992 34.9032 14.33 36.748L21.268 24.732L17.718 22.684ZM39.924 22.424L39.408 22.664C37.1906 23.7593 35.2594 25.357 33.768 27.33L38.752 30.208C39.7872 27.7514 40.1901 25.0745 39.924 22.422V22.424ZM8 24C8 24.532 8.026 25.06 8.076 25.578C10.507 24.4839 12.6239 22.7962 14.232 20.67L9.248 17.794C8.42155 19.7585 7.99719 21.8687 8 24ZM33.67 11.252L26.732 23.268L30.282 25.318C32.4828 22.2491 35.5114 19.8698 39.014 18.458C38.0306 15.8025 36.3613 13.4549 34.176 11.654L33.67 11.252ZM24 8C23.074 8 22.168 8.08 21.286 8.23C21.8185 11.9673 21.2746 15.7789 19.718 19.218L23.268 21.268L30.206 9.248C28.2415 8.42155 26.1313 7.99719 24 8ZM17.406 9.42L17.024 9.596C14.755 10.6989 12.7776 12.3207 11.252 14.33L16.232 17.206C17.2694 14.75 17.6731 12.0727 17.406 9.42Z" fill="url(#paint0_linear_2287_1111)"></path>
  <defs>
    <linearGradient id="paint0_linear_2287_1111" x1="40.875" y1="113.375" x2="-11.244" y2="20.6479" gradientUnits="userSpaceOnUse">
      <stop stop-color="#009CDE"></stop>
      <stop offset="1" stop-color="#9A41B9"></stop>
    </linearGradient>
  </defs>
</svg>
