<?xml version="1.0" encoding="UTF-8"?>
<svg xmlns="http://www.w3.org/2000/svg" width="126" height="31" viewBox="0 0 126 31" fill="none">
  <path fill-rule="evenodd" clip-rule="evenodd" d="M16.8015 6.59654L16.8082 6.60327C20.0932 9.87289 23.8161 13.5789 23.8161 19.1363C23.8161 23.3748 21.5465 27.2913 17.8621 29.4106C14.1777 31.5298 9.63841 31.5298 5.95404 29.4106C2.26967 27.2913 0 23.3748 0 19.1363C0 13.58 3.72136 9.87481 7.00466 6.60582L7.01659 6.59394C9.20244 4.41689 11.2868 2.34091 11.9077 0C12.5288 2.34184 14.6143 4.41854 16.8015 6.59654ZM6.63556 12.3216C1.63645 17.2487 4.33115 21.876 5.0613 21.9007L5.0656 21.9009C5.14169 21.9036 5.26468 21.9079 5.34938 21.6725C5.73736 20.5942 8.66131 17.6231 9.7122 16.5552C9.79405 16.472 9.86454 16.4004 9.92158 16.3421C9.98462 16.2919 10.0231 16.2172 10.0273 16.1369C10.0315 16.0565 10.0011 15.9783 9.94366 15.9217L6.63556 12.3216ZM9.01212 26.8044C9.78018 27.5696 10.8219 27.9995 11.9081 27.9995C14.17 27.9995 16.0036 26.1727 16.0036 23.9193C16.0124 22.9218 15.6458 21.9572 14.9762 21.2156C14.2075 20.3617 11.9075 17.7942 11.9075 17.7942C11.9075 17.7942 9.57186 20.3245 8.83339 21.2242C8.18871 21.9768 7.82772 22.9299 7.81259 23.9193C7.81259 25.0014 8.24407 26.0392 9.01212 26.8044ZM19.1881 21.906C19.4583 21.8962 19.6586 21.5751 19.7469 21.3828C20.1603 20.482 20.8615 17.7521 18.8269 14.5973C16.7922 11.4426 11.9077 6.82543 11.9077 6.82543C11.9077 6.82543 10.2695 8.45645 9.70834 9.01656C9.68966 9.0352 9.67007 9.05456 9.64977 9.07462C9.18411 9.53475 8.34359 10.3653 9.41908 11.5231C9.70534 11.8313 10.2707 12.4278 10.9844 13.1809C13.452 15.7845 17.6925 20.2586 18.2988 21.1526C18.3613 21.2447 18.4144 21.3282 18.4621 21.4032C18.6862 21.7558 18.7909 21.9204 19.1881 21.906Z" fill="#0678BE"></path>
  <path fill-rule="evenodd" clip-rule="evenodd" d="M37.8424 26.203H33.42V7.35043H38.1652C43.9108 7.35043 48.2687 8.40094 48.2687 16.7764C48.2687 25.0718 43.6526 26.203 37.8424 26.203ZM38.8979 10.6184H37.3351V22.9318L38.9403 22.9729C42.2326 22.9729 44.3531 22.6746 44.3531 16.7764C44.3531 11.1207 42.4813 10.6184 38.8979 10.6184Z" fill="#0678BE"></path>
  <path d="M115.736 7.35801H111.864V26.239H115.736V7.35801Z" fill="#0678BE"></path>
  <path d="M76.7806 11.7776H72.8899L72.8962 19.0304C72.8962 21.1498 71.9841 22.8645 69.8567 22.8645C67.7283 22.8645 66.8077 21.1498 66.8077 19.0304V11.7844H62.927L62.926 19.0304C62.926 23.2187 65.6284 26.6131 69.8329 26.6131C74.0363 26.6131 76.7795 23.2187 76.7795 19.0304L76.7806 11.7776Z" fill="#0678BE"></path>
  <path d="M118.595 7.37613V8.05453H119.699V11.0443H120.508V8.05453H121.612V7.37613H118.595Z" fill="#0678BE"></path>
  <path d="M123.174 7.37634L124.035 9.89839H124.045L124.859 7.37634H126V11.0443H125.242V8.4447H125.231L124.329 11.0443H123.705L122.803 8.47047H122.792V11.0443H122.035V7.37634H123.174Z" fill="#0678BE"></path>
  <path d="M54.2319 14.3329C54.3197 14.1558 56.4248 10.8525 59.7622 11.6199C60.3273 11.7476 60.8717 11.9534 61.3795 12.2314V16.6247C61.3795 16.6247 60.6626 15.9105 58.9733 15.512C55.6328 14.7251 53.9091 17.7832 53.9091 18.421V26.2267H50.021V11.806H53.4896L53.9038 14.3329C53.9038 14.3329 53.9176 14.4641 54.0398 14.4668C54.1688 14.47 54.1863 14.4318 54.2173 14.364L54.2229 14.3518C54.2257 14.3457 54.2287 14.3394 54.2319 14.3329Z" fill="#0678BE"></path>
  <path fill-rule="evenodd" clip-rule="evenodd" d="M82.0563 30.9764V25.7877L82.0574 25.7888L82.0584 23.8454C82.0584 23.8454 82.0642 23.6899 82.205 23.6883C82.3254 23.6868 82.356 23.7631 82.3854 23.8363L82.3891 23.8454C82.6838 24.5765 84.3048 27.36 87.9025 26.4872C91.7144 25.4159 94.0791 21.6273 93.3574 17.7474C92.6356 13.8675 89.0652 11.1747 85.1211 11.5355C81.177 11.8963 78.1586 15.1919 78.1581 19.1379V30.9764H82.0563ZM85.8248 15.2738C87.394 15.2735 88.8089 16.215 89.4095 17.6593C90.0102 19.1036 89.6784 20.7662 88.5688 21.8716C87.4592 22.9771 85.7904 23.3077 84.3407 22.7093C82.891 22.1108 81.9459 20.7013 81.9463 19.1379C81.9469 17.0041 83.683 15.2744 85.8248 15.2738Z" fill="#0678BE"></path>
  <path fill-rule="evenodd" clip-rule="evenodd" d="M110.293 26.2331H106.395L106.392 23.8454C106.392 23.8454 106.387 23.6899 106.246 23.6878C106.125 23.6868 106.095 23.7626 106.066 23.8356L106.062 23.8454C105.767 24.576 104.146 27.3601 100.548 26.4867C96.7367 25.4153 94.3722 21.6267 95.0941 17.747C95.816 13.8673 99.3863 11.1747 103.33 11.5357C107.274 11.8966 110.292 15.1921 110.293 19.138V26.2331ZM104.111 22.7093C105.561 22.1108 106.506 20.7013 106.505 19.138C106.504 17.004 104.768 15.2743 102.626 15.2738C101.057 15.2737 99.6422 16.2154 99.0417 17.6597C98.4413 19.104 98.7732 20.7665 99.8829 21.8719C100.993 22.9772 102.661 23.3077 104.111 22.7093Z" fill="#0678BE"></path>
</svg>
